<svg width="400" height="141" viewBox="0 0 400 141" fill="none" xmlns="http://www.w3.org/2000/svg">
<rect width="400" height="141" fill="white"/>
<path d="M8.946 22L5.46 12.074H3.486L0 22H1.82L2.464 20.096H6.412L7.056 22H8.946ZM5.852 18.472H3.024L4.438 14.286L5.852 18.472ZM14.2754 16.344V14.664C14.0934 14.636 13.9114 14.622 13.7294 14.622C12.8754 14.622 12.0074 14.972 11.6714 15.812L11.5174 14.72H10.0334V22H11.7974V18.332C11.7974 17.156 12.4414 16.274 13.6734 16.274C13.8694 16.274 14.0794 16.302 14.2754 16.344ZM21.5801 18.416C21.6081 17.506 21.4821 16.68 20.9501 15.882C20.3481 14.972 19.3681 14.538 18.2901 14.538C17.2961 14.538 16.5121 14.902 15.9661 15.462C15.2661 16.176 14.9161 17.212 14.9161 18.374C14.9161 19.564 15.3081 20.586 16.0361 21.286C16.6101 21.832 17.3381 22.182 18.3321 22.182C19.2561 22.182 20.1661 21.888 20.7821 21.16C21.0621 20.824 21.3561 20.25 21.3981 19.816H19.7181C19.6481 20.082 19.5221 20.278 19.3681 20.432C19.1161 20.684 18.8081 20.782 18.3041 20.782C17.8281 20.782 17.4781 20.572 17.2261 20.334C16.8761 19.998 16.6801 19.466 16.6941 18.906H21.5661C21.5661 18.752 21.5801 18.416 21.5801 18.416ZM19.8301 17.632H16.6801C16.6941 17.156 16.8061 16.82 17.0581 16.498C17.3101 16.162 17.7441 15.938 18.2761 15.938C18.7801 15.938 19.1441 16.106 19.3821 16.358C19.6621 16.666 19.8161 17.086 19.8301 17.632ZM29.5551 21.916V20.628C29.5551 20.628 29.4431 20.656 29.3311 20.656C29.0371 20.656 28.9251 20.53 28.9251 20.194V17.492C28.9251 17.002 28.8971 16.484 28.7151 16.022C28.2951 14.93 27.2311 14.538 25.9851 14.538C24.3611 14.538 23.0591 15.266 22.9611 16.904H24.6551C24.6971 16.232 25.1731 15.868 25.9851 15.868C26.9791 15.868 27.2171 16.33 27.2171 17.016V17.464L25.0751 17.618C23.6891 17.716 22.6111 18.514 22.6111 19.9C22.6111 21.09 23.5071 22.182 25.2431 22.182C26.2791 22.182 27.1191 21.678 27.4551 21.09C27.5111 21.636 27.9311 22.112 28.6871 22.112C29.1071 22.112 29.2611 22.042 29.5551 21.916ZM27.2171 19.102C27.2171 20.18 26.4471 20.768 25.3551 20.768C24.8091 20.768 24.3191 20.418 24.3191 19.858C24.3191 19.27 24.8371 18.948 25.3691 18.906L27.2171 18.766V19.102ZM40.3002 18.36C40.3002 17.128 39.9922 16.358 39.4462 15.672C38.9422 15.056 38.0042 14.538 36.8982 14.538C35.7922 14.538 34.8542 15.056 34.3502 15.672C33.8042 16.358 33.4962 17.128 33.4962 18.36C33.4962 19.592 33.8042 20.362 34.3502 21.048C34.8542 21.664 35.7922 22.182 36.8982 22.182C38.0042 22.182 38.9422 21.664 39.4462 21.048C39.9922 20.362 40.3002 19.592 40.3002 18.36ZM38.5222 18.36C38.5222 19.046 38.4242 19.732 38.0042 20.194C37.7662 20.446 37.3742 20.656 36.8982 20.656C36.4222 20.656 36.0302 20.446 35.7922 20.194C35.3722 19.732 35.2742 19.046 35.2742 18.36C35.2742 17.674 35.3722 16.988 35.7922 16.526C36.0302 16.274 36.4222 16.064 36.8982 16.064C37.3742 16.064 37.7662 16.274 38.0042 16.526C38.4242 16.988 38.5222 17.674 38.5222 18.36ZM46.1302 13.278V11.878C45.5842 11.766 45.2622 11.724 44.7582 11.724C43.1902 11.724 42.2802 12.676 42.2802 14.02V14.72H41.0482V16.162H42.2802V22H44.0302V16.162H45.9762V14.72H44.0302V14.048C44.0302 13.53 44.3522 13.166 44.9822 13.166C45.4442 13.166 45.7662 13.208 46.1302 13.278ZM54.3887 16.344V14.664C54.2067 14.636 54.0247 14.622 53.8427 14.622C52.9887 14.622 52.1207 14.972 51.7847 15.812L51.6307 14.72H50.1467V22H51.9107V18.332C51.9107 17.156 52.5547 16.274 53.7867 16.274C53.9827 16.274 54.1927 16.302 54.3887 16.344ZM57.5181 13.712V11.906H55.6421V13.712H57.5181ZM57.4761 22V14.72H55.6981V22H57.4761ZM65.556 19.424H63.834C63.82 19.69 63.736 19.914 63.624 20.096C63.414 20.418 63.036 20.642 62.504 20.642C62.028 20.642 61.678 20.432 61.44 20.18C61.02 19.718 60.95 19.032 60.95 18.346C60.95 17.66 61.02 16.96 61.44 16.498C61.678 16.246 62.028 16.05 62.504 16.05C63.036 16.05 63.414 16.274 63.624 16.596C63.736 16.778 63.82 17.002 63.834 17.268H65.556C65.528 16.694 65.332 16.12 64.996 15.686C64.492 15.056 63.61 14.538 62.504 14.538C61.398 14.538 60.474 15.07 59.97 15.686C59.424 16.372 59.172 17.282 59.172 18.346C59.172 19.41 59.424 20.32 59.97 21.006C60.474 21.622 61.398 22.154 62.504 22.154C63.61 22.154 64.492 21.636 64.996 21.006C65.332 20.572 65.528 19.998 65.556 19.424ZM73.2735 18.416C73.3015 17.506 73.1755 16.68 72.6435 15.882C72.0415 14.972 71.0615 14.538 69.9835 14.538C68.9895 14.538 68.2055 14.902 67.6595 15.462C66.9595 16.176 66.6095 17.212 66.6095 18.374C66.6095 19.564 67.0015 20.586 67.7295 21.286C68.3035 21.832 69.0315 22.182 70.0255 22.182C70.9495 22.182 71.8595 21.888 72.4755 21.16C72.7555 20.824 73.0495 20.25 73.0915 19.816H71.4115C71.3415 20.082 71.2155 20.278 71.0615 20.432C70.8095 20.684 70.5015 20.782 69.9975 20.782C69.5215 20.782 69.1715 20.572 68.9195 20.334C68.5695 19.998 68.3735 19.466 68.3875 18.906H73.2595C73.2595 18.752 73.2735 18.416 73.2735 18.416ZM71.5235 17.632H68.3735C68.3875 17.156 68.4995 16.82 68.7515 16.498C69.0035 16.162 69.4375 15.938 69.9695 15.938C70.4735 15.938 70.8375 16.106 71.0755 16.358C71.3555 16.666 71.5095 17.086 71.5235 17.632ZM84.5662 18.374C84.5662 16.946 84.1322 15.84 83.2642 15.126C82.8162 14.762 82.2282 14.538 81.4862 14.538C80.6182 14.538 79.9182 14.846 79.5822 15.252V11.892H77.8322V22H79.3442L79.4562 21.202C79.8902 21.874 80.7022 22.168 81.5002 22.168C82.2282 22.168 82.8162 21.916 83.2642 21.552C84.1322 20.838 84.5662 19.746 84.5662 18.374ZM82.7882 18.346C82.7882 18.976 82.6902 19.648 82.3262 20.124C82.0742 20.446 81.6962 20.698 81.1502 20.698C80.7022 20.698 80.3662 20.558 80.1282 20.334C79.6242 19.872 79.4982 19.06 79.4982 18.346C79.4982 17.296 79.7782 16.008 81.1502 16.008C81.6962 16.008 82.0742 16.26 82.3262 16.582C82.6902 17.058 82.7882 17.716 82.7882 18.346ZM92.3634 14.72H90.5854L88.7654 19.984L86.8614 14.72H84.9434L87.8134 21.986L87.3934 23.008C87.2114 23.442 86.8754 23.554 86.5534 23.554C86.1614 23.554 86.0354 23.512 85.5734 23.428V24.884C85.9514 24.982 86.3434 25.066 86.9174 25.066C88.1914 25.066 88.7934 24.198 89.1574 23.246L92.3634 14.72ZM99.101 21.986V20.516C99.003 20.516 98.961 20.53 98.807 20.53C98.205 20.53 98.107 20.25 98.107 19.83V11.878H96.343V20.124C96.343 21.51 97.141 22.084 98.331 22.084C98.681 22.084 98.751 22.056 99.101 21.986ZM106.841 18.36C106.841 17.128 106.533 16.358 105.987 15.672C105.483 15.056 104.545 14.538 103.439 14.538C102.333 14.538 101.395 15.056 100.891 15.672C100.345 16.358 100.037 17.128 100.037 18.36C100.037 19.592 100.345 20.362 100.891 21.048C101.395 21.664 102.333 22.182 103.439 22.182C104.545 22.182 105.483 21.664 105.987 21.048C106.533 20.362 106.841 19.592 106.841 18.36ZM105.063 18.36C105.063 19.046 104.965 19.732 104.545 20.194C104.307 20.446 103.915 20.656 103.439 20.656C102.963 20.656 102.571 20.446 102.333 20.194C101.913 19.732 101.815 19.046 101.815 18.36C101.815 17.674 101.913 16.988 102.333 16.526C102.571 16.274 102.963 16.064 103.439 16.064C103.915 16.064 104.307 16.274 104.545 16.526C104.965 16.988 105.063 17.674 105.063 18.36ZM114.406 19.424H112.684C112.67 19.69 112.586 19.914 112.474 20.096C112.264 20.418 111.886 20.642 111.354 20.642C110.878 20.642 110.528 20.432 110.29 20.18C109.87 19.718 109.8 19.032 109.8 18.346C109.8 17.66 109.87 16.96 110.29 16.498C110.528 16.246 110.878 16.05 111.354 16.05C111.886 16.05 112.264 16.274 112.474 16.596C112.586 16.778 112.67 17.002 112.684 17.268H114.406C114.378 16.694 114.182 16.12 113.846 15.686C113.342 15.056 112.46 14.538 111.354 14.538C110.248 14.538 109.324 15.07 108.82 15.686C108.274 16.372 108.022 17.282 108.022 18.346C108.022 19.41 108.274 20.32 108.82 21.006C109.324 21.622 110.248 22.154 111.354 22.154C112.46 22.154 113.342 21.636 113.846 21.006C114.182 20.572 114.378 19.998 114.406 19.424ZM122.305 21.916V20.628C122.305 20.628 122.193 20.656 122.081 20.656C121.787 20.656 121.675 20.53 121.675 20.194V17.492C121.675 17.002 121.647 16.484 121.465 16.022C121.045 14.93 119.981 14.538 118.735 14.538C117.111 14.538 115.809 15.266 115.711 16.904H117.405C117.447 16.232 117.923 15.868 118.735 15.868C119.729 15.868 119.967 16.33 119.967 17.016V17.464L117.825 17.618C116.439 17.716 115.361 18.514 115.361 19.9C115.361 21.09 116.257 22.182 117.993 22.182C119.029 22.182 119.869 21.678 120.205 21.09C120.261 21.636 120.681 22.112 121.437 22.112C121.857 22.112 122.011 22.042 122.305 21.916ZM119.967 19.102C119.967 20.18 119.197 20.768 118.105 20.768C117.559 20.768 117.069 20.418 117.069 19.858C117.069 19.27 117.587 18.948 118.119 18.906L119.967 18.766V19.102ZM126.54 21.986V20.516C126.442 20.516 126.4 20.53 126.246 20.53C125.644 20.53 125.546 20.25 125.546 19.83V11.878H123.782V20.124C123.782 21.51 124.58 22.084 125.77 22.084C126.12 22.084 126.19 22.056 126.54 21.986ZM129.897 13.712V11.906H128.021V13.712H129.897ZM129.855 22V14.72H128.077V22H129.855ZM136.171 21.902V20.432C135.695 20.488 135.401 20.502 135.037 20.502C134.477 20.502 134.225 20.264 134.225 19.704V16.162H136.059V14.72H134.225V12.438L132.475 12.872V14.72H131.145V16.162H132.475V19.858C132.475 21.258 133.203 22.098 134.673 22.098C135.191 22.098 135.681 22.028 136.171 21.902ZM143.988 14.72H142.21L140.39 19.984L138.486 14.72H136.568L139.438 21.986L139.018 23.008C138.836 23.442 138.5 23.554 138.178 23.554C137.786 23.554 137.66 23.512 137.198 23.428V24.884C137.576 24.982 137.968 25.066 138.542 25.066C139.816 25.066 140.418 24.198 140.782 23.246L143.988 14.72ZM149.858 13.712V11.906H147.982V13.712H149.858ZM149.816 22V14.72H148.038V22H149.816ZM158.218 22V17.142C158.218 15.63 157.308 14.538 155.754 14.538C154.914 14.538 154.046 14.888 153.612 15.658L153.486 14.72H152.016V22H153.766V19.032C153.766 18.416 153.752 17.66 154.004 17.086C154.242 16.554 154.648 16.162 155.264 16.162C156.188 16.162 156.468 16.68 156.468 17.534V22H158.218ZM169.205 22V20.418H165.313L168.001 17.198C168.547 16.54 169.065 15.686 169.065 14.818C169.065 13.11 167.735 12.088 166.069 12.088C164.067 12.088 162.975 13.306 162.961 15.014H164.753C164.753 14.244 165.229 13.614 166.055 13.614C166.853 13.614 167.287 14.146 167.287 14.832C167.287 15.224 167.119 15.686 166.783 16.078L162.989 20.6V22H169.205ZM177.525 17.128C177.525 15.532 177.371 13.908 176.363 12.942C175.859 12.452 175.145 12.088 174.095 12.088C173.045 12.088 172.331 12.452 171.827 12.942C170.819 13.908 170.665 15.532 170.665 17.128C170.665 18.724 170.819 20.348 171.827 21.314C172.331 21.804 173.045 22.182 174.095 22.182C175.145 22.182 175.859 21.804 176.363 21.314C177.371 20.348 177.525 18.724 177.525 17.128ZM175.747 17.128C175.747 18.388 175.901 20.558 174.095 20.558C172.289 20.558 172.443 18.388 172.443 17.128C172.443 15.868 172.289 13.698 174.095 13.698C175.901 13.698 175.747 15.868 175.747 17.128ZM183.606 22V12.27H182.108L179.714 13.992V15.896L181.856 14.342V22H183.606ZM193.424 19.27C193.424 18.304 192.934 17.38 192.01 16.946C192.724 16.554 193.228 15.672 193.228 14.846C193.228 13.012 191.758 12.088 190.064 12.088C188.37 12.088 186.9 13.012 186.9 14.846C186.9 15.672 187.404 16.554 188.118 16.946C187.194 17.38 186.704 18.304 186.704 19.27C186.704 21.16 188.314 22.196 190.064 22.196C191.814 22.196 193.424 21.16 193.424 19.27ZM191.464 14.874C191.464 15.588 190.988 16.176 190.064 16.176C189.14 16.176 188.664 15.588 188.664 14.874C188.664 14.16 189.126 13.614 190.064 13.614C190.988 13.614 191.464 14.16 191.464 14.874ZM191.66 19.158C191.66 20.054 191.016 20.642 190.064 20.642C189.112 20.642 188.468 20.054 188.468 19.158C188.468 18.36 189.028 17.716 190.064 17.716C191.1 17.716 191.66 18.36 191.66 19.158ZM201.436 23.61C200.008 21.692 199.35 20.124 199.35 17.562C199.35 15 200.008 13.432 201.436 11.514L200.442 10.772C198.762 12.704 197.894 14.888 197.894 17.562C197.894 20.236 198.762 22.42 200.442 24.352L201.436 23.61ZM204.518 13.712V11.906H202.642V13.712H204.518ZM204.476 22V14.72H202.698V22H204.476ZM212.878 22V17.142C212.878 15.63 211.968 14.538 210.414 14.538C209.574 14.538 208.706 14.888 208.272 15.658L208.146 14.72H206.676V22H208.426V19.032C208.426 18.416 208.412 17.66 208.664 17.086C208.902 16.554 209.308 16.162 209.924 16.162C210.848 16.162 211.128 16.68 211.128 17.534V22H212.878ZM224.075 22V17.142C224.075 15.644 223.165 14.538 221.611 14.538C220.855 14.538 220.043 14.874 219.623 15.49V11.892H217.873V22H219.623V18.164C219.623 17.268 220.071 16.148 221.121 16.148C222.045 16.148 222.325 16.666 222.325 17.506V22H224.075ZM232.305 18.416C232.333 17.506 232.207 16.68 231.675 15.882C231.073 14.972 230.093 14.538 229.015 14.538C228.021 14.538 227.237 14.902 226.691 15.462C225.991 16.176 225.641 17.212 225.641 18.374C225.641 19.564 226.033 20.586 226.761 21.286C227.335 21.832 228.063 22.182 229.057 22.182C229.981 22.182 230.891 21.888 231.507 21.16C231.787 20.824 232.081 20.25 232.123 19.816H230.443C230.373 20.082 230.247 20.278 230.093 20.432C229.841 20.684 229.533 20.782 229.029 20.782C228.553 20.782 228.203 20.572 227.951 20.334C227.601 19.998 227.405 19.466 227.419 18.906H232.291C232.291 18.752 232.305 18.416 232.305 18.416ZM230.555 17.632H227.405C227.419 17.156 227.531 16.82 227.783 16.498C228.035 16.162 228.469 15.938 229.001 15.938C229.505 15.938 229.869 16.106 230.107 16.358C230.387 16.666 230.541 17.086 230.555 17.632ZM239.818 19.424H238.096C238.082 19.69 237.998 19.914 237.886 20.096C237.676 20.418 237.298 20.642 236.766 20.642C236.29 20.642 235.94 20.432 235.702 20.18C235.282 19.718 235.212 19.032 235.212 18.346C235.212 17.66 235.282 16.96 235.702 16.498C235.94 16.246 236.29 16.05 236.766 16.05C237.298 16.05 237.676 16.274 237.886 16.596C237.998 16.778 238.082 17.002 238.096 17.268H239.818C239.79 16.694 239.594 16.12 239.258 15.686C238.754 15.056 237.872 14.538 236.766 14.538C235.66 14.538 234.736 15.07 234.232 15.686C233.686 16.372 233.434 17.282 233.434 18.346C233.434 19.41 233.686 20.32 234.232 21.006C234.736 21.622 235.66 22.154 236.766 22.154C237.872 22.154 238.754 21.636 239.258 21.006C239.594 20.572 239.79 19.998 239.818 19.424ZM245.423 21.902V20.432C244.947 20.488 244.653 20.502 244.289 20.502C243.729 20.502 243.477 20.264 243.477 19.704V16.162H245.311V14.72H243.477V12.438L241.727 12.872V14.72H240.397V16.162H241.727V19.858C241.727 21.258 242.455 22.098 243.925 22.098C244.443 22.098 244.933 22.028 245.423 21.902ZM253.254 21.916V20.628C253.254 20.628 253.142 20.656 253.03 20.656C252.736 20.656 252.624 20.53 252.624 20.194V17.492C252.624 17.002 252.596 16.484 252.414 16.022C251.994 14.93 250.93 14.538 249.684 14.538C248.06 14.538 246.758 15.266 246.66 16.904H248.354C248.396 16.232 248.872 15.868 249.684 15.868C250.678 15.868 250.916 16.33 250.916 17.016V17.464L248.774 17.618C247.388 17.716 246.31 18.514 246.31 19.9C246.31 21.09 247.206 22.182 248.942 22.182C249.978 22.182 250.818 21.678 251.154 21.09C251.21 21.636 251.63 22.112 252.386 22.112C252.806 22.112 252.96 22.042 253.254 21.916ZM250.916 19.102C250.916 20.18 250.146 20.768 249.054 20.768C248.508 20.768 248.018 20.418 248.018 19.858C248.018 19.27 248.536 18.948 249.068 18.906L250.916 18.766V19.102ZM259.016 16.344V14.664C258.834 14.636 258.652 14.622 258.47 14.622C257.616 14.622 256.748 14.972 256.412 15.812L256.258 14.72H254.774V22H256.538V18.332C256.538 17.156 257.182 16.274 258.414 16.274C258.61 16.274 258.82 16.302 259.016 16.344ZM266.32 18.416C266.348 17.506 266.222 16.68 265.69 15.882C265.088 14.972 264.108 14.538 263.03 14.538C262.036 14.538 261.252 14.902 260.706 15.462C260.006 16.176 259.656 17.212 259.656 18.374C259.656 19.564 260.048 20.586 260.776 21.286C261.35 21.832 262.078 22.182 263.072 22.182C263.996 22.182 264.906 21.888 265.522 21.16C265.802 20.824 266.096 20.25 266.138 19.816H264.458C264.388 20.082 264.262 20.278 264.108 20.432C263.856 20.684 263.548 20.782 263.044 20.782C262.568 20.782 262.218 20.572 261.966 20.334C261.616 19.998 261.42 19.466 261.434 18.906H266.306C266.306 18.752 266.32 18.416 266.32 18.416ZM264.57 17.632H261.42C261.434 17.156 261.546 16.82 261.798 16.498C262.05 16.162 262.484 15.938 263.016 15.938C263.52 15.938 263.884 16.106 264.122 16.358C264.402 16.666 264.556 17.086 264.57 17.632ZM273.609 19.746C273.609 18.598 272.769 17.87 271.621 17.688C270.907 17.576 270.725 17.562 270.067 17.478C269.675 17.422 269.227 17.268 269.227 16.75C269.227 16.372 269.479 16.106 269.787 15.98C270.053 15.868 270.291 15.868 270.543 15.868C270.907 15.868 271.285 15.994 271.495 16.204C271.663 16.386 271.789 16.61 271.789 16.89H273.455C273.455 16.358 273.203 15.812 272.811 15.392C272.279 14.818 271.397 14.538 270.529 14.538C269.619 14.538 268.849 14.804 268.317 15.266C267.883 15.644 267.575 16.162 267.575 16.904C267.575 17.828 268.247 18.64 269.241 18.85C269.885 18.99 270.613 19.032 271.257 19.13C271.705 19.2 271.985 19.48 271.985 19.9C271.985 20.698 271.089 20.824 270.501 20.824C269.997 20.824 269.675 20.726 269.395 20.502C269.171 20.32 269.003 19.97 269.003 19.648H267.365C267.365 20.334 267.715 20.936 268.135 21.342C268.737 21.916 269.563 22.182 270.487 22.182C271.481 22.182 272.391 21.93 272.979 21.342C273.357 20.964 273.609 20.446 273.609 19.746ZM277.844 17.562C277.844 14.888 276.976 12.704 275.296 10.772L274.302 11.514C275.73 13.432 276.388 15 276.388 17.562C276.388 20.124 275.73 21.692 274.302 23.61L275.296 24.352C276.976 22.42 277.844 20.236 277.844 17.562Z" fill="black" fill-opacity="0.7"/>
<path d="M65.18 47.252C65.18 46.424 64.928 45.68 64.436 45.176C64.028 44.756 63.464 44.492 62.732 44.492C62.024 44.492 61.352 44.708 60.98 45.248L61.112 42.584H64.844V41.66H60.236L60.008 46.136H61.148C61.436 45.656 61.964 45.404 62.528 45.404C63.056 45.404 63.416 45.584 63.68 45.872C63.992 46.22 64.148 46.724 64.148 47.3C64.148 47.864 64.016 48.344 63.74 48.692C63.488 49.016 63.104 49.232 62.528 49.232C62 49.232 61.604 49.064 61.328 48.788C61.052 48.512 60.884 48.128 60.86 47.6H59.84C59.876 48.368 60.14 48.992 60.608 49.448C61.064 49.892 61.724 50.168 62.54 50.168C63.416 50.168 64.052 49.856 64.484 49.376C64.952 48.86 65.18 48.128 65.18 47.252ZM72.2518 48.224V47.3H71.1238V44.816H70.0918V47.3H67.2478L70.5118 41.66H69.4318L66.2638 47.156V48.224H70.0918V50H71.1238V48.224H72.2518ZM78.6995 42.584V41.66H73.3475V42.584H77.6195L74.1515 50H75.2555L78.6995 42.584ZM82.0393 50.012V48.608H80.5753V50.012H81.3193C81.3193 50.696 81.1753 51.056 80.5513 51.332L80.8633 51.896C81.7393 51.524 82.0393 50.9 82.0393 50.012ZM89.2986 47.312C89.2986 46.436 88.9986 45.668 88.4586 45.152C88.0626 44.768 87.4626 44.504 86.7066 44.504C85.9146 44.504 85.1226 44.9 84.8586 45.476C84.8706 44.6 84.9186 43.52 85.4466 42.92C85.6986 42.632 86.0586 42.416 86.5866 42.416C86.9826 42.416 87.2826 42.536 87.5226 42.74C87.7746 42.956 87.9666 43.268 87.9906 43.676H89.0226C88.9986 43.064 88.7226 42.548 88.3506 42.176C87.9306 41.756 87.3306 41.504 86.6226 41.504C85.5666 41.504 84.8466 41.996 84.4506 42.62C83.8866 43.52 83.8266 44.756 83.8266 45.944C83.8266 47.132 83.9346 48.296 84.5346 49.124C84.9426 49.688 85.6386 50.156 86.5746 50.156C87.4386 50.156 88.0986 49.832 88.5426 49.352C89.0106 48.836 89.2986 48.152 89.2986 47.312ZM88.2666 47.324C88.2666 47.912 88.0986 48.404 87.7746 48.752C87.5106 49.04 87.1506 49.232 86.6226 49.232C86.0946 49.232 85.7226 49.016 85.4586 48.728C85.1346 48.38 84.9666 47.912 84.9666 47.324C84.9666 46.736 85.1226 46.268 85.4346 45.92C85.6866 45.632 86.0706 45.416 86.5986 45.416C87.1266 45.416 87.5226 45.608 87.7746 45.896C88.0866 46.244 88.2666 46.736 88.2666 47.324ZM96.1063 45.824C96.1063 44.216 95.9623 43.04 95.1223 42.188C94.7143 41.78 94.1503 41.504 93.3223 41.504C92.4943 41.504 91.9303 41.78 91.5223 42.188C90.6823 43.04 90.5383 44.216 90.5383 45.824C90.5383 47.432 90.6823 48.596 91.5223 49.448C91.9303 49.856 92.4943 50.156 93.3223 50.156C94.1503 50.156 94.7143 49.856 95.1223 49.448C95.9623 48.596 96.1063 47.432 96.1063 45.824ZM95.0383 45.824C95.0383 46.952 95.0623 48.164 94.3543 48.836C94.1143 49.064 93.7663 49.22 93.3223 49.22C92.8783 49.22 92.5303 49.064 92.2903 48.836C91.5823 48.164 91.6063 46.952 91.6063 45.824C91.6063 44.696 91.5823 43.484 92.2903 42.812C92.5303 42.584 92.8783 42.428 93.3223 42.428C93.7663 42.428 94.1143 42.584 94.3543 42.812C95.0623 43.484 95.0383 44.696 95.0383 45.824ZM102.95 45.824C102.95 44.216 102.806 43.04 101.966 42.188C101.558 41.78 100.994 41.504 100.166 41.504C99.3381 41.504 98.7741 41.78 98.3661 42.188C97.5261 43.04 97.3821 44.216 97.3821 45.824C97.3821 47.432 97.5261 48.596 98.3661 49.448C98.7741 49.856 99.3381 50.156 100.166 50.156C100.994 50.156 101.558 49.856 101.966 49.448C102.806 48.596 102.95 47.432 102.95 45.824ZM101.882 45.824C101.882 46.952 101.906 48.164 101.198 48.836C100.958 49.064 100.61 49.22 100.166 49.22C99.7221 49.22 99.3741 49.064 99.1341 48.836C98.4261 48.164 98.4501 46.952 98.4501 45.824C98.4501 44.696 98.4261 43.484 99.1341 42.812C99.3741 42.584 99.7221 42.428 100.166 42.428C100.61 42.428 100.958 42.584 101.198 42.812C101.906 43.484 101.882 44.696 101.882 45.824ZM110.759 46.856V45.908H107.195V46.856H110.759ZM120.371 42.584V41.66H115.019V42.584H119.291L115.823 50H116.927L120.371 42.584ZM127.131 50V49.04H123.459L126.291 45.524C126.747 44.96 126.999 44.408 126.999 43.748C126.999 43.22 126.867 42.812 126.615 42.452C126.195 41.864 125.487 41.504 124.575 41.504C123.099 41.504 122.115 42.476 122.115 43.928H123.171C123.171 42.824 123.843 42.416 124.587 42.416C125.463 42.416 125.955 42.908 125.955 43.76C125.955 44.192 125.811 44.564 125.499 44.96L122.127 49.124V50H127.131ZM134.167 47.708C134.167 46.796 133.627 46.004 132.859 45.656C133.543 45.296 133.999 44.576 133.999 43.772C133.999 43.088 133.723 42.548 133.315 42.164C132.847 41.732 132.199 41.504 131.467 41.504C130.735 41.504 130.087 41.732 129.619 42.164C129.211 42.548 128.935 43.088 128.935 43.772C128.935 44.576 129.391 45.296 130.075 45.656C129.307 46.004 128.767 46.796 128.767 47.708C128.767 48.344 128.983 48.848 129.319 49.244C129.811 49.832 130.591 50.156 131.467 50.156C132.343 50.156 133.123 49.832 133.615 49.244C133.951 48.848 134.167 48.344 134.167 47.708ZM132.967 43.772C132.967 44.54 132.427 45.212 131.467 45.212C130.507 45.212 129.967 44.54 129.967 43.772C129.967 42.92 130.639 42.392 131.467 42.392C132.295 42.392 132.967 42.92 132.967 43.772ZM133.135 47.66C133.135 48.644 132.439 49.256 131.467 49.256C130.495 49.256 129.799 48.644 129.799 47.66C129.799 46.772 130.411 46.1 131.467 46.1C132.523 46.1 133.135 46.772 133.135 47.66ZM137.399 50.012V48.608H135.935V50.012H136.679C136.679 50.696 136.535 51.056 135.911 51.332L136.223 51.896C137.099 51.524 137.399 50.9 137.399 50.012ZM144.826 48.224V47.3H143.698V44.816H142.666V47.3H139.822L143.086 41.66H142.006L138.838 47.156V48.224H142.666V50H143.698V48.224H144.826ZM151.466 45.824C151.466 44.216 151.322 43.04 150.482 42.188C150.074 41.78 149.51 41.504 148.682 41.504C147.854 41.504 147.29 41.78 146.882 42.188C146.042 43.04 145.898 44.216 145.898 45.824C145.898 47.432 146.042 48.596 146.882 49.448C147.29 49.856 147.854 50.156 148.682 50.156C149.51 50.156 150.074 49.856 150.482 49.448C151.322 48.596 151.466 47.432 151.466 45.824ZM150.398 45.824C150.398 46.952 150.422 48.164 149.714 48.836C149.474 49.064 149.126 49.22 148.682 49.22C148.238 49.22 147.89 49.064 147.65 48.836C146.942 48.164 146.966 46.952 146.966 45.824C146.966 44.696 146.942 43.484 147.65 42.812C147.89 42.584 148.238 42.428 148.682 42.428C149.126 42.428 149.474 42.584 149.714 42.812C150.422 43.484 150.398 44.696 150.398 45.824ZM158.309 45.824C158.309 44.216 158.165 43.04 157.325 42.188C156.917 41.78 156.353 41.504 155.525 41.504C154.697 41.504 154.133 41.78 153.725 42.188C152.885 43.04 152.741 44.216 152.741 45.824C152.741 47.432 152.885 48.596 153.725 49.448C154.133 49.856 154.697 50.156 155.525 50.156C156.353 50.156 156.917 49.856 157.325 49.448C158.165 48.596 158.309 47.432 158.309 45.824ZM157.241 45.824C157.241 46.952 157.265 48.164 156.557 48.836C156.317 49.064 155.969 49.22 155.525 49.22C155.081 49.22 154.733 49.064 154.493 48.836C153.785 48.164 153.809 46.952 153.809 45.824C153.809 44.696 153.785 43.484 154.493 42.812C154.733 42.584 155.081 42.428 155.525 42.428C155.969 42.428 156.317 42.584 156.557 42.812C157.265 43.484 157.241 44.696 157.241 45.824Z" fill="black" fill-opacity="0.7"/>
<path d="M63.476 102V93.66H62.492L60.452 95.136V96.276L62.432 94.824V102H63.476ZM71.9638 99.708C71.9638 98.796 71.4238 98.004 70.6558 97.656C71.3398 97.296 71.7958 96.576 71.7958 95.772C71.7958 95.088 71.5198 94.548 71.1118 94.164C70.6438 93.732 69.9958 93.504 69.2638 93.504C68.5318 93.504 67.8838 93.732 67.4158 94.164C67.0078 94.548 66.7318 95.088 66.7318 95.772C66.7318 96.576 67.1878 97.296 67.8718 97.656C67.1038 98.004 66.5638 98.796 66.5638 99.708C66.5638 100.344 66.7798 100.848 67.1158 101.244C67.6077 101.832 68.3878 102.156 69.2638 102.156C70.1398 102.156 70.9198 101.832 71.4118 101.244C71.7478 100.848 71.9638 100.344 71.9638 99.708ZM70.7638 95.772C70.7638 96.54 70.2238 97.212 69.2638 97.212C68.3038 97.212 67.7638 96.54 67.7638 95.772C67.7638 94.92 68.4358 94.392 69.2638 94.392C70.0918 94.392 70.7638 94.92 70.7638 95.772ZM70.9318 99.66C70.9318 100.644 70.2358 101.256 69.2638 101.256C68.2918 101.256 67.5958 100.644 67.5958 99.66C67.5958 98.772 68.2078 98.1 69.2638 98.1C70.3198 98.1 70.9318 98.772 70.9318 99.66ZM78.9275 99.312C78.9275 98.436 78.6275 97.668 78.0875 97.152C77.6915 96.768 77.0915 96.504 76.3355 96.504C75.5435 96.504 74.7515 96.9 74.4875 97.476C74.4995 96.6 74.5475 95.52 75.0755 94.92C75.3275 94.632 75.6875 94.416 76.2155 94.416C76.6115 94.416 76.9115 94.536 77.1515 94.74C77.4035 94.956 77.5955 95.268 77.6195 95.676H78.6515C78.6275 95.064 78.3515 94.548 77.9795 94.176C77.5595 93.756 76.9595 93.504 76.2515 93.504C75.1955 93.504 74.4755 93.996 74.0795 94.62C73.5155 95.52 73.4555 96.756 73.4555 97.944C73.4555 99.132 73.5635 100.296 74.1635 101.124C74.5715 101.688 75.2675 102.156 76.2035 102.156C77.0675 102.156 77.7275 101.832 78.1715 101.352C78.6395 100.836 78.9275 100.152 78.9275 99.312ZM77.8955 99.324C77.8955 99.912 77.7275 100.404 77.4035 100.752C77.1395 101.04 76.7795 101.232 76.2515 101.232C75.7235 101.232 75.3515 101.016 75.0875 100.728C74.7635 100.38 74.5955 99.912 74.5955 99.324C74.5955 98.736 74.7515 98.268 75.0635 97.92C75.3155 97.632 75.6995 97.416 76.2275 97.416C76.7555 97.416 77.1515 97.608 77.4035 97.896C77.7155 98.244 77.8955 98.736 77.8955 99.324ZM82.0393 102.012V100.608H80.5753V102.012H81.3193C81.3193 102.696 81.1753 103.056 80.5513 103.332L80.8633 103.896C81.7393 103.524 82.0393 102.9 82.0393 102.012ZM89.2626 97.824C89.2626 96.216 89.1186 95.04 88.2786 94.188C87.8706 93.78 87.3066 93.504 86.4786 93.504C85.6506 93.504 85.0866 93.78 84.6786 94.188C83.8386 95.04 83.6946 96.216 83.6946 97.824C83.6946 99.432 83.8386 100.596 84.6786 101.448C85.0866 101.856 85.6506 102.156 86.4786 102.156C87.3066 102.156 87.8706 101.856 88.2786 101.448C89.1186 100.596 89.2626 99.432 89.2626 97.824ZM88.1946 97.824C88.1946 98.952 88.2186 100.164 87.5106 100.836C87.2706 101.064 86.9226 101.22 86.4786 101.22C86.0346 101.22 85.6866 101.064 85.4466 100.836C84.7386 100.164 84.7626 98.952 84.7626 97.824C84.7626 96.696 84.7386 95.484 85.4466 94.812C85.6866 94.584 86.0346 94.428 86.4786 94.428C86.9226 94.428 87.2706 94.584 87.5106 94.812C88.2186 95.484 88.1946 96.696 88.1946 97.824ZM96.1063 97.824C96.1063 96.216 95.9623 95.04 95.1223 94.188C94.7143 93.78 94.1503 93.504 93.3223 93.504C92.4943 93.504 91.9303 93.78 91.5223 94.188C90.6823 95.04 90.5383 96.216 90.5383 97.824C90.5383 99.432 90.6823 100.596 91.5223 101.448C91.9303 101.856 92.4943 102.156 93.3223 102.156C94.1503 102.156 94.7143 101.856 95.1223 101.448C95.9623 100.596 96.1063 99.432 96.1063 97.824ZM95.0383 97.824C95.0383 98.952 95.0623 100.164 94.3543 100.836C94.1143 101.064 93.7663 101.22 93.3223 101.22C92.8783 101.22 92.5303 101.064 92.2903 100.836C91.5823 100.164 91.6063 98.952 91.6063 97.824C91.6063 96.696 91.5823 95.484 92.2903 94.812C92.5303 94.584 92.8783 94.428 93.3223 94.428C93.7663 94.428 94.1143 94.584 94.3543 94.812C95.0623 95.484 95.0383 96.696 95.0383 97.824ZM102.95 97.824C102.95 96.216 102.806 95.04 101.966 94.188C101.558 93.78 100.994 93.504 100.166 93.504C99.3381 93.504 98.7741 93.78 98.3661 94.188C97.5261 95.04 97.3821 96.216 97.3821 97.824C97.3821 99.432 97.5261 100.596 98.3661 101.448C98.7741 101.856 99.3381 102.156 100.166 102.156C100.994 102.156 101.558 101.856 101.966 101.448C102.806 100.596 102.95 99.432 102.95 97.824ZM101.882 97.824C101.882 98.952 101.906 100.164 101.198 100.836C100.958 101.064 100.61 101.22 100.166 101.22C99.7221 101.22 99.3741 101.064 99.1341 100.836C98.4261 100.164 98.4501 98.952 98.4501 97.824C98.4501 96.696 98.4261 95.484 99.1341 94.812C99.3741 94.584 99.7221 94.428 100.166 94.428C100.61 94.428 100.958 94.584 101.198 94.812C101.906 95.484 101.882 96.696 101.882 97.824ZM110.759 98.856V97.908H107.195V98.856H110.759ZM120.347 99.72C120.347 98.856 119.843 97.98 118.955 97.68C119.639 97.392 120.179 96.576 120.179 95.796C120.179 95.076 119.927 94.548 119.507 94.164C119.063 93.744 118.427 93.504 117.731 93.504C117.011 93.504 116.411 93.708 115.943 94.092C115.451 94.5 115.151 95.1 115.139 95.928H116.183C116.195 95.424 116.363 95.016 116.687 94.752C116.939 94.548 117.251 94.416 117.707 94.416C118.163 94.416 118.499 94.596 118.727 94.824C118.991 95.076 119.123 95.412 119.123 95.796C119.123 96.672 118.547 97.2 117.587 97.2H117.083V98.148H117.587C118.607 98.148 119.303 98.676 119.303 99.696C119.303 100.152 119.135 100.5 118.907 100.752C118.619 101.076 118.199 101.232 117.695 101.232C117.167 101.232 116.807 101.04 116.555 100.764C116.279 100.476 116.147 100.08 116.123 99.612H115.079C115.091 100.38 115.355 100.968 115.787 101.4C116.255 101.868 116.891 102.156 117.695 102.156C118.631 102.156 119.267 101.868 119.711 101.4C120.119 100.968 120.347 100.368 120.347 99.72ZM127.443 99.312C127.443 98.436 127.143 97.668 126.603 97.152C126.207 96.768 125.607 96.504 124.851 96.504C124.059 96.504 123.267 96.9 123.003 97.476C123.015 96.6 123.063 95.52 123.591 94.92C123.843 94.632 124.203 94.416 124.731 94.416C125.127 94.416 125.427 94.536 125.667 94.74C125.919 94.956 126.111 95.268 126.135 95.676H127.167C127.143 95.064 126.867 94.548 126.495 94.176C126.075 93.756 125.475 93.504 124.767 93.504C123.711 93.504 122.991 93.996 122.595 94.62C122.031 95.52 121.971 96.756 121.971 97.944C121.971 99.132 122.079 100.296 122.679 101.124C123.087 101.688 123.783 102.156 124.719 102.156C125.583 102.156 126.243 101.832 126.687 101.352C127.155 100.836 127.443 100.152 127.443 99.312ZM126.411 99.324C126.411 99.912 126.243 100.404 125.919 100.752C125.655 101.04 125.295 101.232 124.767 101.232C124.239 101.232 123.867 101.016 123.603 100.728C123.279 100.38 123.111 99.912 123.111 99.324C123.111 98.736 123.267 98.268 123.579 97.92C123.831 97.632 124.215 97.416 124.743 97.416C125.271 97.416 125.667 97.608 125.919 97.896C126.231 98.244 126.411 98.736 126.411 99.324ZM134.287 99.312C134.287 98.436 133.987 97.668 133.447 97.152C133.051 96.768 132.451 96.504 131.695 96.504C130.903 96.504 130.111 96.9 129.847 97.476C129.859 96.6 129.907 95.52 130.435 94.92C130.687 94.632 131.047 94.416 131.575 94.416C131.971 94.416 132.271 94.536 132.511 94.74C132.763 94.956 132.955 95.268 132.979 95.676H134.011C133.987 95.064 133.711 94.548 133.339 94.176C132.919 93.756 132.319 93.504 131.611 93.504C130.555 93.504 129.835 93.996 129.439 94.62C128.875 95.52 128.815 96.756 128.815 97.944C128.815 99.132 128.923 100.296 129.523 101.124C129.931 101.688 130.627 102.156 131.563 102.156C132.427 102.156 133.087 101.832 133.531 101.352C133.999 100.836 134.287 100.152 134.287 99.312ZM133.255 99.324C133.255 99.912 133.087 100.404 132.763 100.752C132.499 101.04 132.139 101.232 131.611 101.232C131.083 101.232 130.711 101.016 130.447 100.728C130.123 100.38 129.955 99.912 129.955 99.324C129.955 98.736 130.111 98.268 130.423 97.92C130.675 97.632 131.059 97.416 131.587 97.416C132.115 97.416 132.511 97.608 132.763 97.896C133.075 98.244 133.255 98.736 133.255 99.324ZM137.399 102.012V100.608H135.935V102.012H136.679C136.679 102.696 136.535 103.056 135.911 103.332L136.223 103.896C137.099 103.524 137.399 102.9 137.399 102.012ZM144.538 99.708C144.538 98.796 143.998 98.004 143.23 97.656C143.914 97.296 144.37 96.576 144.37 95.772C144.37 95.088 144.094 94.548 143.686 94.164C143.218 93.732 142.57 93.504 141.838 93.504C141.106 93.504 140.458 93.732 139.99 94.164C139.582 94.548 139.306 95.088 139.306 95.772C139.306 96.576 139.762 97.296 140.446 97.656C139.678 98.004 139.138 98.796 139.138 99.708C139.138 100.344 139.354 100.848 139.69 101.244C140.182 101.832 140.962 102.156 141.838 102.156C142.714 102.156 143.494 101.832 143.986 101.244C144.322 100.848 144.538 100.344 144.538 99.708ZM143.338 95.772C143.338 96.54 142.798 97.212 141.838 97.212C140.878 97.212 140.338 96.54 140.338 95.772C140.338 94.92 141.01 94.392 141.838 94.392C142.666 94.392 143.338 94.92 143.338 95.772ZM143.506 99.66C143.506 100.644 142.81 101.256 141.838 101.256C140.866 101.256 140.17 100.644 140.17 99.66C140.17 98.772 140.782 98.1 141.838 98.1C142.894 98.1 143.506 98.772 143.506 99.66ZM151.466 97.824C151.466 96.216 151.322 95.04 150.482 94.188C150.074 93.78 149.51 93.504 148.682 93.504C147.854 93.504 147.29 93.78 146.882 94.188C146.042 95.04 145.898 96.216 145.898 97.824C145.898 99.432 146.042 100.596 146.882 101.448C147.29 101.856 147.854 102.156 148.682 102.156C149.51 102.156 150.074 101.856 150.482 101.448C151.322 100.596 151.466 99.432 151.466 97.824ZM150.398 97.824C150.398 98.952 150.422 100.164 149.714 100.836C149.474 101.064 149.126 101.22 148.682 101.22C148.238 101.22 147.89 101.064 147.65 100.836C146.942 100.164 146.966 98.952 146.966 97.824C146.966 96.696 146.942 95.484 147.65 94.812C147.89 94.584 148.238 94.428 148.682 94.428C149.126 94.428 149.474 94.584 149.714 94.812C150.422 95.484 150.398 96.696 150.398 97.824ZM158.309 97.824C158.309 96.216 158.165 95.04 157.325 94.188C156.917 93.78 156.353 93.504 155.525 93.504C154.697 93.504 154.133 93.78 153.725 94.188C152.885 95.04 152.741 96.216 152.741 97.824C152.741 99.432 152.885 100.596 153.725 101.448C154.133 101.856 154.697 102.156 155.525 102.156C156.353 102.156 156.917 101.856 157.325 101.448C158.165 100.596 158.309 99.432 158.309 97.824ZM157.241 97.824C157.241 98.952 157.265 100.164 156.557 100.836C156.317 101.064 155.969 101.22 155.525 101.22C155.081 101.22 154.733 101.064 154.493 100.836C153.785 100.164 153.809 98.952 153.809 97.824C153.809 96.696 153.785 95.484 154.493 94.812C154.733 94.584 155.081 94.428 155.525 94.428C155.969 94.428 156.317 94.584 156.557 94.812C157.265 95.484 157.241 96.696 157.241 97.824Z" fill="black" fill-opacity="0.7"/>
<path d="M64.988 73.72C64.988 72.856 64.484 71.98 63.596 71.68C64.28 71.392 64.82 70.576 64.82 69.796C64.82 69.076 64.568 68.548 64.148 68.164C63.704 67.744 63.068 67.504 62.372 67.504C61.652 67.504 61.052 67.708 60.584 68.092C60.092 68.5 59.792 69.1 59.78 69.928H60.824C60.836 69.424 61.004 69.016 61.328 68.752C61.58 68.548 61.892 68.416 62.348 68.416C62.804 68.416 63.14 68.596 63.368 68.824C63.632 69.076 63.764 69.412 63.764 69.796C63.764 70.672 63.188 71.2 62.228 71.2H61.724V72.148H62.228C63.248 72.148 63.944 72.676 63.944 73.696C63.944 74.152 63.776 74.5 63.548 74.752C63.26 75.076 62.84 75.232 62.336 75.232C61.808 75.232 61.448 75.04 61.196 74.764C60.92 74.476 60.788 74.08 60.764 73.612H59.72C59.732 74.38 59.996 74.968 60.428 75.4C60.896 75.868 61.532 76.156 62.336 76.156C63.272 76.156 63.908 75.868 64.352 75.4C64.76 74.968 64.988 74.368 64.988 73.72ZM72.0838 73.312C72.0838 72.436 71.7838 71.668 71.2438 71.152C70.8478 70.768 70.2478 70.504 69.4918 70.504C68.6998 70.504 67.9078 70.9 67.6438 71.476C67.6558 70.6 67.7038 69.52 68.2318 68.92C68.4838 68.632 68.8438 68.416 69.3717 68.416C69.7678 68.416 70.0678 68.536 70.3078 68.74C70.5598 68.956 70.7518 69.268 70.7758 69.676H71.8078C71.7838 69.064 71.5078 68.548 71.1358 68.176C70.7158 67.756 70.1158 67.504 69.4078 67.504C68.3518 67.504 67.6318 67.996 67.2358 68.62C66.6718 69.52 66.6118 70.756 66.6118 71.944C66.6118 73.132 66.7198 74.296 67.3198 75.124C67.7278 75.688 68.4238 76.156 69.3598 76.156C70.2238 76.156 70.8838 75.832 71.3278 75.352C71.7958 74.836 72.0838 74.152 72.0838 73.312ZM71.0518 73.324C71.0518 73.912 70.8838 74.404 70.5598 74.752C70.2958 75.04 69.9358 75.232 69.4078 75.232C68.8798 75.232 68.5078 75.016 68.2438 74.728C67.9198 74.38 67.7518 73.912 67.7518 73.324C67.7518 72.736 67.9078 72.268 68.2198 71.92C68.4718 71.632 68.8558 71.416 69.3838 71.416C69.9118 71.416 70.3078 71.608 70.5598 71.896C70.8718 72.244 71.0518 72.736 71.0518 73.324ZM78.9275 73.312C78.9275 72.436 78.6275 71.668 78.0875 71.152C77.6915 70.768 77.0915 70.504 76.3355 70.504C75.5435 70.504 74.7515 70.9 74.4875 71.476C74.4995 70.6 74.5475 69.52 75.0755 68.92C75.3275 68.632 75.6875 68.416 76.2155 68.416C76.6115 68.416 76.9115 68.536 77.1515 68.74C77.4035 68.956 77.5955 69.268 77.6195 69.676H78.6515C78.6275 69.064 78.3515 68.548 77.9795 68.176C77.5595 67.756 76.9595 67.504 76.2515 67.504C75.1955 67.504 74.4755 67.996 74.0795 68.62C73.5155 69.52 73.4555 70.756 73.4555 71.944C73.4555 73.132 73.5635 74.296 74.1635 75.124C74.5715 75.688 75.2675 76.156 76.2035 76.156C77.0675 76.156 77.7275 75.832 78.1715 75.352C78.6395 74.836 78.9275 74.152 78.9275 73.312ZM77.8955 73.324C77.8955 73.912 77.7275 74.404 77.4035 74.752C77.1395 75.04 76.7795 75.232 76.2515 75.232C75.7235 75.232 75.3515 75.016 75.0875 74.728C74.7635 74.38 74.5955 73.912 74.5955 73.324C74.5955 72.736 74.7515 72.268 75.0635 71.92C75.3155 71.632 75.6995 71.416 76.2275 71.416C76.7555 71.416 77.1515 71.608 77.4035 71.896C77.7155 72.244 77.8955 72.736 77.8955 73.324ZM82.0393 76.012V74.608H80.5753V76.012H81.3193C81.3193 76.696 81.1753 77.056 80.5513 77.332L80.8633 77.896C81.7393 77.524 82.0393 76.9 82.0393 76.012ZM89.1786 73.708C89.1786 72.796 88.6386 72.004 87.8706 71.656C88.5546 71.296 89.0106 70.576 89.0106 69.772C89.0106 69.088 88.7346 68.548 88.3266 68.164C87.8586 67.732 87.2106 67.504 86.4786 67.504C85.7466 67.504 85.0986 67.732 84.6306 68.164C84.2226 68.548 83.9466 69.088 83.9466 69.772C83.9466 70.576 84.4026 71.296 85.0866 71.656C84.3186 72.004 83.7786 72.796 83.7786 73.708C83.7786 74.344 83.9946 74.848 84.3306 75.244C84.8226 75.832 85.6026 76.156 86.4786 76.156C87.3546 76.156 88.1346 75.832 88.6266 75.244C88.9626 74.848 89.1786 74.344 89.1786 73.708ZM87.9786 69.772C87.9786 70.54 87.4386 71.212 86.4786 71.212C85.5186 71.212 84.9786 70.54 84.9786 69.772C84.9786 68.92 85.6506 68.392 86.4786 68.392C87.3066 68.392 87.9786 68.92 87.9786 69.772ZM88.1466 73.66C88.1466 74.644 87.4506 75.256 86.4786 75.256C85.5066 75.256 84.8106 74.644 84.8106 73.66C84.8106 72.772 85.4226 72.1 86.4786 72.1C87.5346 72.1 88.1466 72.772 88.1466 73.66ZM96.1063 71.824C96.1063 70.216 95.9623 69.04 95.1223 68.188C94.7143 67.78 94.1503 67.504 93.3223 67.504C92.4943 67.504 91.9303 67.78 91.5223 68.188C90.6823 69.04 90.5383 70.216 90.5383 71.824C90.5383 73.432 90.6823 74.596 91.5223 75.448C91.9303 75.856 92.4943 76.156 93.3223 76.156C94.1503 76.156 94.7143 75.856 95.1223 75.448C95.9623 74.596 96.1063 73.432 96.1063 71.824ZM95.0383 71.824C95.0383 72.952 95.0623 74.164 94.3543 74.836C94.1143 75.064 93.7663 75.22 93.3223 75.22C92.8783 75.22 92.5303 75.064 92.2903 74.836C91.5823 74.164 91.6063 72.952 91.6063 71.824C91.6063 70.696 91.5823 69.484 92.2903 68.812C92.5303 68.584 92.8783 68.428 93.3223 68.428C93.7663 68.428 94.1143 68.584 94.3543 68.812C95.0623 69.484 95.0383 70.696 95.0383 71.824ZM102.95 71.824C102.95 70.216 102.806 69.04 101.966 68.188C101.558 67.78 100.994 67.504 100.166 67.504C99.3381 67.504 98.7741 67.78 98.3661 68.188C97.5261 69.04 97.3821 70.216 97.3821 71.824C97.3821 73.432 97.5261 74.596 98.3661 75.448C98.7741 75.856 99.3381 76.156 100.166 76.156C100.994 76.156 101.558 75.856 101.966 75.448C102.806 74.596 102.95 73.432 102.95 71.824ZM101.882 71.824C101.882 72.952 101.906 74.164 101.198 74.836C100.958 75.064 100.61 75.22 100.166 75.22C99.7221 75.22 99.3741 75.064 99.1341 74.836C98.4261 74.164 98.4501 72.952 98.4501 71.824C98.4501 70.696 98.4261 69.484 99.1341 68.812C99.3741 68.584 99.7221 68.428 100.166 68.428C100.61 68.428 100.958 68.584 101.198 68.812C101.906 69.484 101.882 70.696 101.882 71.824ZM110.759 72.856V71.908H107.195V72.856H110.759ZM120.539 73.252C120.539 72.424 120.287 71.68 119.795 71.176C119.387 70.756 118.823 70.492 118.091 70.492C117.383 70.492 116.711 70.708 116.339 71.248L116.471 68.584H120.203V67.66H115.595L115.367 72.136H116.507C116.795 71.656 117.323 71.404 117.887 71.404C118.415 71.404 118.775 71.584 119.039 71.872C119.351 72.22 119.507 72.724 119.507 73.3C119.507 73.864 119.375 74.344 119.099 74.692C118.847 75.016 118.463 75.232 117.887 75.232C117.359 75.232 116.963 75.064 116.687 74.788C116.411 74.512 116.243 74.128 116.219 73.6H115.199C115.235 74.368 115.499 74.992 115.967 75.448C116.423 75.892 117.083 76.168 117.899 76.168C118.775 76.168 119.411 75.856 119.843 75.376C120.311 74.86 120.539 74.128 120.539 73.252ZM127.611 74.224V73.3H126.483V70.816H125.451V73.3H122.607L125.871 67.66H124.791L121.623 73.156V74.224H125.451V76H126.483V74.224H127.611ZM134.059 68.584V67.66H128.707V68.584H132.979L129.511 76H130.615L134.059 68.584ZM137.399 76.012V74.608H135.935V76.012H136.679C136.679 76.696 136.535 77.056 135.911 77.332L136.223 77.896C137.099 77.524 137.399 76.9 137.399 76.012ZM144.658 73.312C144.658 72.436 144.358 71.668 143.818 71.152C143.422 70.768 142.822 70.504 142.066 70.504C141.274 70.504 140.482 70.9 140.218 71.476C140.23 70.6 140.278 69.52 140.806 68.92C141.058 68.632 141.418 68.416 141.946 68.416C142.342 68.416 142.642 68.536 142.882 68.74C143.134 68.956 143.326 69.268 143.35 69.676H144.382C144.358 69.064 144.082 68.548 143.71 68.176C143.29 67.756 142.69 67.504 141.982 67.504C140.926 67.504 140.206 67.996 139.81 68.62C139.246 69.52 139.186 70.756 139.186 71.944C139.186 73.132 139.294 74.296 139.894 75.124C140.302 75.688 140.998 76.156 141.934 76.156C142.798 76.156 143.458 75.832 143.902 75.352C144.37 74.836 144.658 74.152 144.658 73.312ZM143.626 73.324C143.626 73.912 143.458 74.404 143.134 74.752C142.87 75.04 142.51 75.232 141.982 75.232C141.454 75.232 141.082 75.016 140.818 74.728C140.494 74.38 140.326 73.912 140.326 73.324C140.326 72.736 140.482 72.268 140.794 71.92C141.046 71.632 141.43 71.416 141.958 71.416C142.486 71.416 142.882 71.608 143.134 71.896C143.446 72.244 143.626 72.736 143.626 73.324ZM151.466 71.824C151.466 70.216 151.322 69.04 150.482 68.188C150.074 67.78 149.51 67.504 148.682 67.504C147.854 67.504 147.29 67.78 146.882 68.188C146.042 69.04 145.898 70.216 145.898 71.824C145.898 73.432 146.042 74.596 146.882 75.448C147.29 75.856 147.854 76.156 148.682 76.156C149.51 76.156 150.074 75.856 150.482 75.448C151.322 74.596 151.466 73.432 151.466 71.824ZM150.398 71.824C150.398 72.952 150.422 74.164 149.714 74.836C149.474 75.064 149.126 75.22 148.682 75.22C148.238 75.22 147.89 75.064 147.65 74.836C146.942 74.164 146.966 72.952 146.966 71.824C146.966 70.696 146.942 69.484 147.65 68.812C147.89 68.584 148.238 68.428 148.682 68.428C149.126 68.428 149.474 68.584 149.714 68.812C150.422 69.484 150.398 70.696 150.398 71.824ZM158.309 71.824C158.309 70.216 158.165 69.04 157.325 68.188C156.917 67.78 156.353 67.504 155.525 67.504C154.697 67.504 154.133 67.78 153.725 68.188C152.885 69.04 152.741 70.216 152.741 71.824C152.741 73.432 152.885 74.596 153.725 75.448C154.133 75.856 154.697 76.156 155.525 76.156C156.353 76.156 156.917 75.856 157.325 75.448C158.165 74.596 158.309 73.432 158.309 71.824ZM157.241 71.824C157.241 72.952 157.265 74.164 156.557 74.836C156.317 75.064 155.969 75.22 155.525 75.22C155.081 75.22 154.733 75.064 154.493 74.836C153.785 74.164 153.809 72.952 153.809 71.824C153.809 70.696 153.785 69.484 154.493 68.812C154.733 68.584 155.081 68.428 155.525 68.428C155.969 68.428 156.317 68.584 156.557 68.812C157.265 69.484 157.241 70.696 157.241 71.824Z" fill="black" fill-opacity="0.7"/>
<path d="M65.18 125.252C65.18 124.424 64.928 123.68 64.436 123.176C64.028 122.756 63.464 122.492 62.732 122.492C62.024 122.492 61.352 122.708 60.98 123.248L61.112 120.584H64.844V119.66H60.236L60.008 124.136H61.148C61.436 123.656 61.964 123.404 62.528 123.404C63.056 123.404 63.416 123.584 63.68 123.872C63.992 124.22 64.148 124.724 64.148 125.3C64.148 125.864 64.016 126.344 63.74 126.692C63.488 127.016 63.104 127.232 62.528 127.232C62 127.232 61.604 127.064 61.328 126.788C61.052 126.512 60.884 126.128 60.86 125.6H59.84C59.876 126.368 60.14 126.992 60.608 127.448C61.064 127.892 61.724 128.168 62.54 128.168C63.416 128.168 64.052 127.856 64.484 127.376C64.952 126.86 65.18 126.128 65.18 125.252ZM71.7718 128V127.04H68.0998L70.9318 123.524C71.3878 122.96 71.6398 122.408 71.6398 121.748C71.6398 121.22 71.5078 120.812 71.2558 120.452C70.8358 119.864 70.1278 119.504 69.2158 119.504C67.7398 119.504 66.7558 120.476 66.7558 121.928H67.8118C67.8118 120.824 68.4838 120.416 69.2278 120.416C70.1038 120.416 70.5958 120.908 70.5958 121.76C70.5958 122.192 70.4518 122.564 70.1398 122.96L66.7678 127.124V128H71.7718ZM78.8915 123.824C78.8915 122.216 78.7475 121.04 77.9075 120.188C77.4995 119.78 76.9355 119.504 76.1075 119.504C75.2795 119.504 74.7155 119.78 74.3075 120.188C73.4675 121.04 73.3235 122.216 73.3235 123.824C73.3235 125.432 73.4675 126.596 74.3075 127.448C74.7155 127.856 75.2795 128.156 76.1075 128.156C76.9355 128.156 77.4995 127.856 77.9075 127.448C78.7475 126.596 78.8915 125.432 78.8915 123.824ZM77.8235 123.824C77.8235 124.952 77.8475 126.164 77.1395 126.836C76.8995 127.064 76.5515 127.22 76.1075 127.22C75.6635 127.22 75.3155 127.064 75.0755 126.836C74.3675 126.164 74.3915 124.952 74.3915 123.824C74.3915 122.696 74.3675 121.484 75.0755 120.812C75.3155 120.584 75.6635 120.428 76.1075 120.428C76.5515 120.428 76.8995 120.584 77.1395 120.812C77.8475 121.484 77.8235 122.696 77.8235 123.824ZM85.7353 123.824C85.7353 122.216 85.5912 121.04 84.7513 120.188C84.3433 119.78 83.7793 119.504 82.9513 119.504C82.1233 119.504 81.5593 119.78 81.1513 120.188C80.3113 121.04 80.1673 122.216 80.1673 123.824C80.1673 125.432 80.3113 126.596 81.1513 127.448C81.5593 127.856 82.1233 128.156 82.9513 128.156C83.7793 128.156 84.3433 127.856 84.7513 127.448C85.5912 126.596 85.7353 125.432 85.7353 123.824ZM84.6673 123.824C84.6673 124.952 84.6913 126.164 83.9833 126.836C83.7433 127.064 83.3953 127.22 82.9513 127.22C82.5073 127.22 82.1593 127.064 81.9193 126.836C81.2113 126.164 81.2353 124.952 81.2353 123.824C81.2353 122.696 81.2113 121.484 81.9193 120.812C82.1593 120.584 82.5073 120.428 82.9513 120.428C83.3953 120.428 83.7433 120.584 83.9833 120.812C84.6913 121.484 84.6673 122.696 84.6673 123.824ZM93.5446 124.856V123.908H89.9806V124.856H93.5446ZM101.621 128V119.66H100.637L98.5965 121.136V122.276L100.577 120.824V128H101.621ZM110.108 125.708C110.108 124.796 109.568 124.004 108.8 123.656C109.484 123.296 109.94 122.576 109.94 121.772C109.94 121.088 109.664 120.548 109.256 120.164C108.788 119.732 108.14 119.504 107.408 119.504C106.676 119.504 106.028 119.732 105.56 120.164C105.152 120.548 104.876 121.088 104.876 121.772C104.876 122.576 105.332 123.296 106.016 123.656C105.248 124.004 104.708 124.796 104.708 125.708C104.708 126.344 104.924 126.848 105.26 127.244C105.752 127.832 106.532 128.156 107.408 128.156C108.284 128.156 109.064 127.832 109.556 127.244C109.892 126.848 110.108 126.344 110.108 125.708ZM108.908 121.772C108.908 122.54 108.368 123.212 107.408 123.212C106.448 123.212 105.908 122.54 105.908 121.772C105.908 120.92 106.58 120.392 107.408 120.392C108.236 120.392 108.908 120.92 108.908 121.772ZM109.076 125.66C109.076 126.644 108.38 127.256 107.408 127.256C106.436 127.256 105.74 126.644 105.74 125.66C105.74 124.772 106.352 124.1 107.408 124.1C108.464 124.1 109.076 124.772 109.076 125.66ZM117.072 125.312C117.072 124.436 116.772 123.668 116.232 123.152C115.836 122.768 115.236 122.504 114.48 122.504C113.688 122.504 112.896 122.9 112.632 123.476C112.644 122.6 112.692 121.52 113.22 120.92C113.472 120.632 113.832 120.416 114.36 120.416C114.756 120.416 115.056 120.536 115.296 120.74C115.548 120.956 115.74 121.268 115.764 121.676H116.796C116.772 121.064 116.496 120.548 116.124 120.176C115.704 119.756 115.104 119.504 114.396 119.504C113.34 119.504 112.62 119.996 112.224 120.62C111.66 121.52 111.6 122.756 111.6 123.944C111.6 125.132 111.708 126.296 112.308 127.124C112.716 127.688 113.412 128.156 114.348 128.156C115.212 128.156 115.872 127.832 116.316 127.352C116.784 126.836 117.072 126.152 117.072 125.312ZM116.04 125.324C116.04 125.912 115.872 126.404 115.548 126.752C115.284 127.04 114.924 127.232 114.396 127.232C113.868 127.232 113.496 127.016 113.232 126.728C112.908 126.38 112.74 125.912 112.74 125.324C112.74 124.736 112.896 124.268 113.208 123.92C113.46 123.632 113.844 123.416 114.372 123.416C114.9 123.416 115.296 123.608 115.548 123.896C115.86 124.244 116.04 124.736 116.04 125.324ZM120.184 128.012V126.608H118.72V128.012H119.464C119.464 128.696 119.32 129.056 118.696 129.332L119.008 129.896C119.884 129.524 120.184 128.9 120.184 128.012ZM127.407 123.824C127.407 122.216 127.263 121.04 126.423 120.188C126.015 119.78 125.451 119.504 124.623 119.504C123.795 119.504 123.231 119.78 122.823 120.188C121.983 121.04 121.839 122.216 121.839 123.824C121.839 125.432 121.983 126.596 122.823 127.448C123.231 127.856 123.795 128.156 124.623 128.156C125.451 128.156 126.015 127.856 126.423 127.448C127.263 126.596 127.407 125.432 127.407 123.824ZM126.339 123.824C126.339 124.952 126.363 126.164 125.655 126.836C125.415 127.064 125.067 127.22 124.623 127.22C124.179 127.22 123.831 127.064 123.591 126.836C122.883 126.164 122.907 124.952 122.907 123.824C122.907 122.696 122.883 121.484 123.591 120.812C123.831 120.584 124.179 120.428 124.623 120.428C125.067 120.428 125.415 120.584 125.655 120.812C126.363 121.484 126.339 122.696 126.339 123.824ZM134.251 123.824C134.251 122.216 134.107 121.04 133.267 120.188C132.859 119.78 132.295 119.504 131.467 119.504C130.639 119.504 130.075 119.78 129.667 120.188C128.827 121.04 128.683 122.216 128.683 123.824C128.683 125.432 128.827 126.596 129.667 127.448C130.075 127.856 130.639 128.156 131.467 128.156C132.295 128.156 132.859 127.856 133.267 127.448C134.107 126.596 134.251 125.432 134.251 123.824ZM133.183 123.824C133.183 124.952 133.207 126.164 132.499 126.836C132.259 127.064 131.911 127.22 131.467 127.22C131.023 127.22 130.675 127.064 130.435 126.836C129.727 126.164 129.751 124.952 129.751 123.824C129.751 122.696 129.727 121.484 130.435 120.812C130.675 120.584 131.023 120.428 131.467 120.428C131.911 120.428 132.259 120.584 132.499 120.812C133.207 121.484 133.183 122.696 133.183 123.824ZM141.095 123.824C141.095 122.216 140.951 121.04 140.111 120.188C139.703 119.78 139.139 119.504 138.311 119.504C137.483 119.504 136.919 119.78 136.511 120.188C135.671 121.04 135.527 122.216 135.527 123.824C135.527 125.432 135.671 126.596 136.511 127.448C136.919 127.856 137.483 128.156 138.311 128.156C139.139 128.156 139.703 127.856 140.111 127.448C140.951 126.596 141.095 125.432 141.095 123.824ZM140.027 123.824C140.027 124.952 140.051 126.164 139.343 126.836C139.103 127.064 138.755 127.22 138.311 127.22C137.867 127.22 137.519 127.064 137.279 126.836C136.571 126.164 136.595 124.952 136.595 123.824C136.595 122.696 136.571 121.484 137.279 120.812C137.519 120.584 137.867 120.428 138.311 120.428C138.755 120.428 139.103 120.584 139.343 120.812C140.051 121.484 140.027 122.696 140.027 123.824Z" fill="black" fill-opacity="0.7"/>
<rect x="0.25" y="36.25" width="49.5" height="18.5" fill="#76568F" fill-opacity="0.9" stroke="#8F79A0" stroke-width="0.5"/>
<rect x="0.25" y="62.25" width="49.5" height="18.5" fill="#A897B5" fill-opacity="0.9" stroke="#8F79A0" stroke-width="0.5"/>
<rect x="0.25" y="88.25" width="49.5" height="18.5" fill="#B9ABC4" fill-opacity="0.9" stroke="#8F79A0" stroke-width="0.5"/>
<rect x="0.25" y="114.25" width="49.5" height="18.5" fill="#D2C9D9" fill-opacity="0.9" stroke="#8F79A0" stroke-width="0.5"/>
</svg>
