<svg width="400" height="170" viewBox="0 0 400 170" fill="none" xmlns="http://www.w3.org/2000/svg">
<rect width="400" height="170" fill="white"/>
<path d="M8.848 22V12.074H7.042V15.952H2.968V12.074H1.162V22H2.968V17.674H7.042V22H8.848ZM17.4278 14.72H15.6498L13.8298 19.984L11.9258 14.72H10.0078L12.8778 21.986L12.4578 23.008C12.2758 23.442 11.9398 23.554 11.6178 23.554C11.2258 23.554 11.0998 23.512 10.6378 23.428V24.884C11.0158 24.982 11.4078 25.066 11.9818 25.066C13.2558 25.066 13.8578 24.198 14.2218 23.246L17.4278 14.72ZM24.5486 22V11.892H22.7986V15.224C22.4906 14.846 21.8186 14.538 20.8946 14.538C20.1526 14.538 19.5646 14.762 19.1166 15.126C18.2486 15.84 17.8146 16.946 17.8146 18.374C17.8146 19.746 18.2346 20.838 19.1026 21.552C19.5506 21.916 20.1526 22.168 20.8806 22.168C21.6786 22.168 22.4906 21.874 22.9246 21.202L23.0366 22H24.5486ZM22.8826 18.346C22.8826 19.396 22.6026 20.698 21.2306 20.698C20.6846 20.698 20.3066 20.446 20.0546 20.124C19.6906 19.648 19.5926 18.976 19.5926 18.346C19.5926 17.716 19.6906 17.058 20.0546 16.582C20.3066 16.26 20.6846 16.008 21.2306 16.008C22.6026 16.008 22.8826 17.296 22.8826 18.346ZM30.9688 16.344V14.664C30.7868 14.636 30.6048 14.622 30.4228 14.622C29.5688 14.622 28.7008 14.972 28.3648 15.812L28.2108 14.72H26.7268V22H28.4908V18.332C28.4908 17.156 29.1348 16.274 30.3668 16.274C30.5628 16.274 30.7728 16.302 30.9688 16.344ZM38.3041 18.36C38.3041 17.128 37.9961 16.358 37.4501 15.672C36.9461 15.056 36.0081 14.538 34.9021 14.538C33.7961 14.538 32.8581 15.056 32.3541 15.672C31.8081 16.358 31.5001 17.128 31.5001 18.36C31.5001 19.592 31.8081 20.362 32.3541 21.048C32.8581 21.664 33.7961 22.182 34.9021 22.182C36.0081 22.182 36.9461 21.664 37.4501 21.048C37.9961 20.362 38.3041 19.592 38.3041 18.36ZM36.5261 18.36C36.5261 19.046 36.4281 19.732 36.0081 20.194C35.7701 20.446 35.3781 20.656 34.9021 20.656C34.4261 20.656 34.0341 20.446 33.7961 20.194C33.3761 19.732 33.2781 19.046 33.2781 18.36C33.2781 17.674 33.3761 16.988 33.7961 16.526C34.0341 16.274 34.4261 16.064 34.9021 16.064C35.3781 16.064 35.7701 16.274 36.0081 16.526C36.4281 16.988 36.5261 17.674 36.5261 18.36ZM46.7225 18.346C46.7225 16.974 46.2885 15.882 45.4205 15.168C44.9725 14.804 44.3845 14.552 43.6565 14.552C42.8585 14.552 42.0465 14.846 41.6125 15.518L41.5005 14.72H39.9885V24.786H41.7385V21.468C42.0745 21.874 42.7745 22.182 43.6425 22.182C44.3845 22.182 44.9725 21.958 45.4205 21.594C46.2885 20.88 46.7225 19.774 46.7225 18.346ZM44.9445 18.374C44.9445 19.004 44.8465 19.662 44.4825 20.138C44.2305 20.46 43.8525 20.712 43.3065 20.712C41.9345 20.712 41.6545 19.424 41.6545 18.374C41.6545 17.324 41.9345 16.022 43.3065 16.022C43.8525 16.022 44.2305 16.274 44.4825 16.596C44.8465 17.072 44.9445 17.744 44.9445 18.374ZM54.6967 18.36C54.6967 17.128 54.3887 16.358 53.8427 15.672C53.3387 15.056 52.4007 14.538 51.2947 14.538C50.1887 14.538 49.2507 15.056 48.7467 15.672C48.2007 16.358 47.8927 17.128 47.8927 18.36C47.8927 19.592 48.2007 20.362 48.7467 21.048C49.2507 21.664 50.1887 22.182 51.2947 22.182C52.4007 22.182 53.3387 21.664 53.8427 21.048C54.3887 20.362 54.6967 19.592 54.6967 18.36ZM52.9187 18.36C52.9187 19.046 52.8207 19.732 52.4007 20.194C52.1627 20.446 51.7707 20.656 51.2947 20.656C50.8187 20.656 50.4267 20.446 50.1887 20.194C49.7687 19.732 49.6707 19.046 49.6707 18.36C49.6707 17.674 49.7687 16.988 50.1887 16.526C50.4267 16.274 50.8187 16.064 51.2947 16.064C51.7707 16.064 52.1627 16.274 52.4007 16.526C52.8207 16.988 52.9187 17.674 52.9187 18.36ZM65.6927 14.72H64.0267L62.9067 19.48L61.3667 14.79H59.9247L58.3987 19.494L57.2367 14.72H55.5427L57.3907 22H59.0147L60.6387 17.086L62.2907 22H63.9147L65.6927 14.72ZM73.2051 18.416C73.2331 17.506 73.1071 16.68 72.5751 15.882C71.9731 14.972 70.9931 14.538 69.9151 14.538C68.9211 14.538 68.1371 14.902 67.5911 15.462C66.8911 16.176 66.5411 17.212 66.5411 18.374C66.5411 19.564 66.9331 20.586 67.6611 21.286C68.2351 21.832 68.9631 22.182 69.9571 22.182C70.8811 22.182 71.7911 21.888 72.4071 21.16C72.6871 20.824 72.9811 20.25 73.0231 19.816H71.3431C71.2731 20.082 71.1471 20.278 70.9931 20.432C70.7411 20.684 70.4331 20.782 69.9291 20.782C69.4531 20.782 69.1031 20.572 68.8511 20.334C68.5011 19.998 68.3051 19.466 68.3191 18.906H73.1911C73.1911 18.752 73.2051 18.416 73.2051 18.416ZM71.4551 17.632H68.3051C68.3191 17.156 68.4311 16.82 68.6831 16.498C68.9351 16.162 69.3691 15.938 69.9011 15.938C70.4051 15.938 70.7691 16.106 71.0071 16.358C71.2871 16.666 71.4411 17.086 71.4551 17.632ZM79.0801 16.344V14.664C78.8981 14.636 78.7161 14.622 78.5341 14.622C77.6801 14.622 76.8121 14.972 76.4761 15.812L76.3221 14.72H74.8381V22H76.6021V18.332C76.6021 17.156 77.2461 16.274 78.4781 16.274C78.6741 16.274 78.8841 16.302 79.0801 16.344ZM89.5173 22V11.892H87.7673V15.224C87.4593 14.846 86.7873 14.538 85.8633 14.538C85.1213 14.538 84.5333 14.762 84.0853 15.126C83.2173 15.84 82.7833 16.946 82.7833 18.374C82.7833 19.746 83.2033 20.838 84.0713 21.552C84.5193 21.916 85.1213 22.168 85.8493 22.168C86.6473 22.168 87.4593 21.874 87.8933 21.202L88.0053 22H89.5173ZM87.8513 18.346C87.8513 19.396 87.5713 20.698 86.1993 20.698C85.6533 20.698 85.2753 20.446 85.0233 20.124C84.6593 19.648 84.5613 18.976 84.5613 18.346C84.5613 17.716 84.6593 17.058 85.0233 16.582C85.2753 16.26 85.6533 16.008 86.1993 16.008C87.5713 16.008 87.8513 17.296 87.8513 18.346ZM98.0375 21.916V20.628C98.0375 20.628 97.9255 20.656 97.8135 20.656C97.5195 20.656 97.4075 20.53 97.4075 20.194V17.492C97.4075 17.002 97.3795 16.484 97.1975 16.022C96.7775 14.93 95.7135 14.538 94.4675 14.538C92.8435 14.538 91.5415 15.266 91.4435 16.904H93.1375C93.1795 16.232 93.6555 15.868 94.4675 15.868C95.4615 15.868 95.6995 16.33 95.6995 17.016V17.464L93.5575 17.618C92.1715 17.716 91.0935 18.514 91.0935 19.9C91.0935 21.09 91.9895 22.182 93.7255 22.182C94.7615 22.182 95.6015 21.678 95.9375 21.09C95.9935 21.636 96.4135 22.112 97.1695 22.112C97.5895 22.112 97.7435 22.042 98.0375 21.916ZM95.6995 19.102C95.6995 20.18 94.9295 20.768 93.8375 20.768C93.2915 20.768 92.8015 20.418 92.8015 19.858C92.8015 19.27 93.3195 18.948 93.8515 18.906L95.6995 18.766V19.102ZM109.875 22V17.086C109.875 15.574 109.063 14.538 107.509 14.538C106.529 14.538 105.745 14.972 105.311 15.728C104.947 14.986 104.247 14.538 103.225 14.538C102.259 14.538 101.559 15.014 101.153 15.686L101.013 14.72H99.5568V22H101.293V18.024C101.293 17.114 101.741 16.064 102.735 16.064C103.617 16.064 103.855 16.582 103.855 17.478V22H105.591V18.024C105.591 17.114 106.025 16.064 107.019 16.064C107.901 16.064 108.139 16.582 108.139 17.478V22H109.875ZM117.6 19.746C117.6 18.598 116.76 17.87 115.612 17.688C114.898 17.576 114.716 17.562 114.058 17.478C113.666 17.422 113.218 17.268 113.218 16.75C113.218 16.372 113.47 16.106 113.778 15.98C114.044 15.868 114.282 15.868 114.534 15.868C114.898 15.868 115.276 15.994 115.486 16.204C115.654 16.386 115.78 16.61 115.78 16.89H117.446C117.446 16.358 117.194 15.812 116.802 15.392C116.27 14.818 115.388 14.538 114.52 14.538C113.61 14.538 112.84 14.804 112.308 15.266C111.874 15.644 111.566 16.162 111.566 16.904C111.566 17.828 112.238 18.64 113.232 18.85C113.876 18.99 114.604 19.032 115.248 19.13C115.696 19.2 115.976 19.48 115.976 19.9C115.976 20.698 115.08 20.824 114.492 20.824C113.988 20.824 113.666 20.726 113.386 20.502C113.162 20.32 112.994 19.97 112.994 19.648H111.356C111.356 20.334 111.706 20.936 112.126 21.342C112.728 21.916 113.554 22.182 114.478 22.182C115.472 22.182 116.382 21.93 116.97 21.342C117.348 20.964 117.6 20.446 117.6 19.746ZM124.018 13.712V11.906H122.142V13.712H124.018ZM123.976 22V14.72H122.198V22H123.976ZM132.378 22V17.142C132.378 15.63 131.468 14.538 129.914 14.538C129.074 14.538 128.206 14.888 127.772 15.658L127.646 14.72H126.176V22H127.926V19.032C127.926 18.416 127.912 17.66 128.164 17.086C128.402 16.554 128.808 16.162 129.424 16.162C130.348 16.162 130.628 16.68 130.628 17.534V22H132.378ZM141.489 21.902V20.432C141.013 20.488 140.719 20.502 140.355 20.502C139.795 20.502 139.543 20.264 139.543 19.704V16.162H141.377V14.72H139.543V12.438L137.793 12.872V14.72H136.463V16.162H137.793V19.858C137.793 21.258 138.521 22.098 139.991 22.098C140.509 22.098 140.999 22.028 141.489 21.902ZM149.181 22V17.142C149.181 15.644 148.271 14.538 146.717 14.538C145.961 14.538 145.149 14.874 144.729 15.49V11.892H142.979V22H144.729V18.164C144.729 17.268 145.177 16.148 146.227 16.148C147.151 16.148 147.431 16.666 147.431 17.506V22H149.181ZM157.41 18.416C157.438 17.506 157.312 16.68 156.78 15.882C156.178 14.972 155.198 14.538 154.12 14.538C153.126 14.538 152.342 14.902 151.796 15.462C151.096 16.176 150.746 17.212 150.746 18.374C150.746 19.564 151.138 20.586 151.866 21.286C152.44 21.832 153.168 22.182 154.162 22.182C155.086 22.182 155.996 21.888 156.612 21.16C156.892 20.824 157.186 20.25 157.228 19.816H155.548C155.478 20.082 155.352 20.278 155.198 20.432C154.946 20.684 154.638 20.782 154.134 20.782C153.658 20.782 153.308 20.572 153.056 20.334C152.706 19.998 152.51 19.466 152.524 18.906H157.396C157.396 18.752 157.41 18.416 157.41 18.416ZM155.66 17.632H152.51C152.524 17.156 152.636 16.82 152.888 16.498C153.14 16.162 153.574 15.938 154.106 15.938C154.61 15.938 154.974 16.106 155.212 16.358C155.492 16.666 155.646 17.086 155.66 17.632ZM8.694 39V33.568H4.578V35.066H6.944C6.944 35.822 6.832 36.438 6.3 36.998C5.964 37.348 5.46 37.572 4.816 37.572C4.242 37.572 3.598 37.362 3.206 36.942C2.52 36.228 2.422 34.954 2.422 34.044C2.422 33.134 2.506 31.902 3.192 31.188C3.584 30.768 4.242 30.516 4.816 30.516C5.502 30.516 6.048 30.712 6.398 31.118C6.608 31.37 6.804 31.636 6.832 32.028H8.68C8.624 31.16 8.26 30.53 7.77 30.026C7.098 29.34 6.048 28.892 4.83 28.892C3.766 28.892 2.632 29.298 1.876 30.054C0.798 31.132 0.588 32.42 0.588 34.044C0.588 35.668 0.84 36.998 1.876 38.076C2.66 38.902 3.682 39.196 4.83 39.182C6.076 39.168 7.028 38.482 7.322 37.908L7.532 39H8.694ZM14.9043 33.344V31.664C14.7223 31.636 14.5403 31.622 14.3583 31.622C13.5043 31.622 12.6363 31.972 12.3003 32.812L12.1463 31.72H10.6623V39H12.4263V35.332C12.4263 34.156 13.0703 33.274 14.3023 33.274C14.4983 33.274 14.7083 33.302 14.9043 33.344ZM22.209 35.416C22.237 34.506 22.111 33.68 21.579 32.882C20.977 31.972 19.997 31.538 18.919 31.538C17.925 31.538 17.141 31.902 16.595 32.462C15.895 33.176 15.545 34.212 15.545 35.374C15.545 36.564 15.937 37.586 16.665 38.286C17.239 38.832 17.967 39.182 18.961 39.182C19.885 39.182 20.795 38.888 21.411 38.16C21.691 37.824 21.985 37.25 22.027 36.816H20.347C20.277 37.082 20.151 37.278 19.997 37.432C19.745 37.684 19.437 37.782 18.933 37.782C18.457 37.782 18.107 37.572 17.855 37.334C17.505 36.998 17.309 36.466 17.323 35.906H22.195C22.195 35.752 22.209 35.416 22.209 35.416ZM20.459 34.632H17.309C17.323 34.156 17.435 33.82 17.687 33.498C17.939 33.162 18.373 32.938 18.905 32.938C19.409 32.938 19.773 33.106 20.011 33.358C20.291 33.666 20.445 34.086 20.459 34.632ZM30.184 38.916V37.628C30.184 37.628 30.072 37.656 29.96 37.656C29.666 37.656 29.554 37.53 29.554 37.194V34.492C29.554 34.002 29.526 33.484 29.344 33.022C28.924 31.93 27.86 31.538 26.614 31.538C24.99 31.538 23.688 32.266 23.59 33.904H25.284C25.326 33.232 25.802 32.868 26.614 32.868C27.608 32.868 27.846 33.33 27.846 34.016V34.464L25.704 34.618C24.318 34.716 23.24 35.514 23.24 36.9C23.24 38.09 24.136 39.182 25.872 39.182C26.908 39.182 27.748 38.678 28.084 38.09C28.14 38.636 28.56 39.112 29.316 39.112C29.736 39.112 29.89 39.042 30.184 38.916ZM27.846 36.102C27.846 37.18 27.076 37.768 25.984 37.768C25.438 37.768 24.948 37.418 24.948 36.858C24.948 36.27 25.466 35.948 25.998 35.906L27.846 35.766V36.102ZM35.751 38.902V37.432C35.275 37.488 34.981 37.502 34.617 37.502C34.057 37.502 33.805 37.264 33.805 36.704V33.162H35.639V31.72H33.805V29.438L32.055 29.872V31.72H30.725V33.162H32.055V36.858C32.055 38.258 32.783 39.098 34.253 39.098C34.771 39.098 35.261 39.028 35.751 38.902ZM43.2637 35.416C43.2917 34.506 43.1657 33.68 42.6337 32.882C42.0317 31.972 41.0517 31.538 39.9737 31.538C38.9797 31.538 38.1957 31.902 37.6497 32.462C36.9497 33.176 36.5997 34.212 36.5997 35.374C36.5997 36.564 36.9917 37.586 37.7197 38.286C38.2937 38.832 39.0217 39.182 40.0157 39.182C40.9397 39.182 41.8497 38.888 42.4657 38.16C42.7457 37.824 43.0397 37.25 43.0817 36.816H41.4017C41.3317 37.082 41.2057 37.278 41.0517 37.432C40.7997 37.684 40.4917 37.782 39.9877 37.782C39.5117 37.782 39.1617 37.572 38.9097 37.334C38.5597 36.998 38.3637 36.466 38.3777 35.906H43.2497C43.2497 35.752 43.2637 35.416 43.2637 35.416ZM41.5137 34.632H38.3637C38.3777 34.156 38.4897 33.82 38.7417 33.498C38.9937 33.162 39.4277 32.938 39.9597 32.938C40.4637 32.938 40.8277 33.106 41.0657 33.358C41.3457 33.666 41.4997 34.086 41.5137 34.632ZM49.1387 33.344V31.664C48.9567 31.636 48.7747 31.622 48.5927 31.622C47.7387 31.622 46.8707 31.972 46.5347 32.812L46.3807 31.72H44.8967V39H46.6607V35.332C46.6607 34.156 47.3047 33.274 48.5367 33.274C48.7327 33.274 48.9427 33.302 49.1387 33.344ZM63.3839 39V29.074H61.0739L58.4559 36.144L55.8519 29.074H53.4159V39H55.1659V31.832L57.7279 38.86H59.0579L61.6339 31.916V39H63.3839ZM71.7969 35.416C71.8249 34.506 71.6989 33.68 71.1669 32.882C70.5649 31.972 69.5849 31.538 68.5069 31.538C67.5129 31.538 66.7289 31.902 66.1829 32.462C65.4829 33.176 65.1329 34.212 65.1329 35.374C65.1329 36.564 65.5249 37.586 66.2529 38.286C66.8269 38.832 67.5549 39.182 68.5489 39.182C69.4729 39.182 70.3829 38.888 70.9989 38.16C71.2789 37.824 71.5729 37.25 71.6149 36.816H69.9349C69.8649 37.082 69.7389 37.278 69.5849 37.432C69.3329 37.684 69.0249 37.782 68.5209 37.782C68.0449 37.782 67.6949 37.572 67.4429 37.334C67.0929 36.998 66.8969 36.466 66.9109 35.906H71.7829C71.7829 35.752 71.7969 35.416 71.7969 35.416ZM70.0469 34.632H66.8969C66.9109 34.156 67.0229 33.82 67.2749 33.498C67.5269 33.162 67.9609 32.938 68.4929 32.938C68.9969 32.938 69.3609 33.106 69.5989 33.358C69.8789 33.666 70.0329 34.086 70.0469 34.632ZM80.4159 39L77.5319 34.534L80.1359 31.72H77.9379L75.1799 34.674V28.892H73.4299V39H75.1799V37.082L76.3419 35.822L78.3859 39H80.4159ZM87.6732 35.36C87.6732 34.128 87.3653 33.358 86.8193 32.672C86.3153 32.056 85.3773 31.538 84.2713 31.538C83.1653 31.538 82.2273 32.056 81.7233 32.672C81.1773 33.358 80.8693 34.128 80.8693 35.36C80.8693 36.592 81.1773 37.362 81.7233 38.048C82.2273 38.664 83.1653 39.182 84.2713 39.182C85.3773 39.182 86.3153 38.664 86.8193 38.048C87.3653 37.362 87.6732 36.592 87.6732 35.36ZM85.8953 35.36C85.8953 36.046 85.7973 36.732 85.3773 37.194C85.1393 37.446 84.7473 37.656 84.2713 37.656C83.7953 37.656 83.4033 37.446 83.1653 37.194C82.7453 36.732 82.6473 36.046 82.6473 35.36C82.6473 34.674 82.7453 33.988 83.1653 33.526C83.4033 33.274 83.7953 33.064 84.2713 33.064C84.7473 33.064 85.1393 33.274 85.3773 33.526C85.7973 33.988 85.8953 34.674 85.8953 35.36ZM95.5596 39V34.142C95.5596 32.63 94.6496 31.538 93.0956 31.538C92.2556 31.538 91.3876 31.888 90.9536 32.658L90.8276 31.72H89.3576V39H91.1076V36.032C91.1076 35.416 91.0936 34.66 91.3456 34.086C91.5836 33.554 91.9896 33.162 92.6056 33.162C93.5296 33.162 93.8096 33.68 93.8096 34.534V39H95.5596ZM104.041 39.966C104.041 39.266 103.789 38.65 103.159 38.216C102.473 37.74 101.521 37.726 100.793 37.726H99.5891C99.2251 37.726 98.7911 37.628 98.7911 37.194C98.7911 36.956 98.9871 36.774 99.1551 36.676C99.5191 36.802 99.9251 36.872 100.331 36.872C101.899 36.872 103.299 35.892 103.299 34.226C103.299 33.736 103.159 33.302 102.921 32.91C103.033 32.56 103.397 32.448 103.803 32.448C103.845 32.448 103.901 32.462 103.943 32.462V31.104C103.831 31.076 103.579 31.076 103.467 31.076C102.851 31.076 102.291 31.356 101.983 31.986C101.507 31.706 100.933 31.538 100.331 31.538C98.6931 31.538 97.3491 32.476 97.3491 34.212C97.3491 34.954 97.6291 35.556 98.0771 36.004C97.4891 36.368 97.2091 36.858 97.2091 37.474C97.2091 37.95 97.4751 38.468 97.9371 38.72C97.3771 39 97.0691 39.574 97.0691 40.204C97.0691 40.89 97.3911 41.408 97.9511 41.8C98.7071 42.332 99.6451 42.402 100.527 42.402C102.151 42.402 104.041 41.884 104.041 39.966ZM101.619 34.212C101.619 34.996 101.129 35.556 100.331 35.556C99.5331 35.556 99.0431 34.996 99.0431 34.212C99.0431 33.428 99.5331 32.854 100.331 32.854C101.129 32.854 101.619 33.428 101.619 34.212ZM102.389 40.008C102.389 40.974 101.157 41.016 100.457 41.016C99.7711 41.016 98.6231 40.932 98.6231 40.008C98.6231 39.546 98.9031 39.224 99.2811 39.112H100.653C101.311 39.112 102.389 39.112 102.389 40.008ZM113.922 36.746C113.922 35.598 113.082 34.87 111.934 34.688C111.22 34.576 111.038 34.562 110.38 34.478C109.988 34.422 109.54 34.268 109.54 33.75C109.54 33.372 109.792 33.106 110.1 32.98C110.366 32.868 110.604 32.868 110.856 32.868C111.22 32.868 111.598 32.994 111.808 33.204C111.976 33.386 112.102 33.61 112.102 33.89H113.768C113.768 33.358 113.516 32.812 113.124 32.392C112.592 31.818 111.71 31.538 110.842 31.538C109.932 31.538 109.162 31.804 108.63 32.266C108.196 32.644 107.888 33.162 107.888 33.904C107.888 34.828 108.56 35.64 109.554 35.85C110.198 35.99 110.926 36.032 111.57 36.13C112.018 36.2 112.298 36.48 112.298 36.9C112.298 37.698 111.402 37.824 110.814 37.824C110.31 37.824 109.988 37.726 109.708 37.502C109.484 37.32 109.316 36.97 109.316 36.648H107.678C107.678 37.334 108.028 37.936 108.448 38.342C109.05 38.916 109.876 39.182 110.8 39.182C111.794 39.182 112.704 38.93 113.292 38.342C113.67 37.964 113.922 37.446 113.922 36.746ZM121.643 39V31.72H119.893V35.57C119.893 36.158 119.781 36.816 119.361 37.208C119.151 37.418 118.871 37.572 118.465 37.572C117.541 37.572 117.205 37.04 117.205 36.186V31.72H115.455V36.578C115.455 38.132 116.421 39.182 117.975 39.182C118.899 39.182 119.711 38.762 120.061 38.048L120.187 39H121.643ZM130.558 35.374C130.558 33.946 130.124 32.84 129.256 32.126C128.808 31.762 128.22 31.538 127.478 31.538C126.61 31.538 125.91 31.846 125.574 32.252V28.892H123.824V39H125.336L125.448 38.202C125.882 38.874 126.694 39.168 127.492 39.168C128.22 39.168 128.808 38.916 129.256 38.552C130.124 37.838 130.558 36.746 130.558 35.374ZM128.78 35.346C128.78 35.976 128.682 36.648 128.318 37.124C128.066 37.446 127.688 37.698 127.142 37.698C126.694 37.698 126.358 37.558 126.12 37.334C125.616 36.872 125.49 36.06 125.49 35.346C125.49 34.296 125.77 33.008 127.142 33.008C127.688 33.008 128.066 33.26 128.318 33.582C128.682 34.058 128.78 34.716 128.78 35.346ZM136.475 33.344V31.664C136.293 31.636 136.111 31.622 135.929 31.622C135.075 31.622 134.207 31.972 133.871 32.812L133.717 31.72H132.233V39H133.997V35.332C133.997 34.156 134.641 33.274 135.873 33.274C136.069 33.274 136.279 33.302 136.475 33.344ZM143.779 35.416C143.807 34.506 143.681 33.68 143.149 32.882C142.547 31.972 141.567 31.538 140.489 31.538C139.495 31.538 138.711 31.902 138.165 32.462C137.465 33.176 137.115 34.212 137.115 35.374C137.115 36.564 137.507 37.586 138.235 38.286C138.809 38.832 139.537 39.182 140.531 39.182C141.455 39.182 142.365 38.888 142.981 38.16C143.261 37.824 143.555 37.25 143.597 36.816H141.917C141.847 37.082 141.721 37.278 141.567 37.432C141.315 37.684 141.007 37.782 140.503 37.782C140.027 37.782 139.677 37.572 139.425 37.334C139.075 36.998 138.879 36.466 138.893 35.906H143.765C143.765 35.752 143.779 35.416 143.779 35.416ZM142.029 34.632H138.879C138.893 34.156 139.005 33.82 139.257 33.498C139.509 33.162 139.943 32.938 140.475 32.938C140.979 32.938 141.343 33.106 141.581 33.358C141.861 33.666 142.015 34.086 142.029 34.632ZM151.824 39.966C151.824 39.266 151.572 38.65 150.942 38.216C150.256 37.74 149.304 37.726 148.576 37.726H147.372C147.008 37.726 146.574 37.628 146.574 37.194C146.574 36.956 146.77 36.774 146.938 36.676C147.302 36.802 147.708 36.872 148.114 36.872C149.682 36.872 151.082 35.892 151.082 34.226C151.082 33.736 150.942 33.302 150.704 32.91C150.816 32.56 151.18 32.448 151.586 32.448C151.628 32.448 151.684 32.462 151.726 32.462V31.104C151.614 31.076 151.362 31.076 151.25 31.076C150.634 31.076 150.074 31.356 149.766 31.986C149.29 31.706 148.716 31.538 148.114 31.538C146.476 31.538 145.132 32.476 145.132 34.212C145.132 34.954 145.412 35.556 145.86 36.004C145.272 36.368 144.992 36.858 144.992 37.474C144.992 37.95 145.258 38.468 145.72 38.72C145.16 39 144.852 39.574 144.852 40.204C144.852 40.89 145.174 41.408 145.734 41.8C146.49 42.332 147.428 42.402 148.31 42.402C149.934 42.402 151.824 41.884 151.824 39.966ZM149.402 34.212C149.402 34.996 148.912 35.556 148.114 35.556C147.316 35.556 146.826 34.996 146.826 34.212C146.826 33.428 147.316 32.854 148.114 32.854C148.912 32.854 149.402 33.428 149.402 34.212ZM150.172 40.008C150.172 40.974 148.94 41.016 148.24 41.016C147.554 41.016 146.406 40.932 146.406 40.008C146.406 39.546 146.686 39.224 147.064 39.112H148.436C149.094 39.112 150.172 39.112 150.172 40.008ZM154.971 30.712V28.906H153.095V30.712H154.971ZM154.929 39V31.72H153.151V39H154.929ZM163.429 35.36C163.429 34.128 163.121 33.358 162.575 32.672C162.071 32.056 161.133 31.538 160.027 31.538C158.921 31.538 157.983 32.056 157.479 32.672C156.933 33.358 156.625 34.128 156.625 35.36C156.625 36.592 156.933 37.362 157.479 38.048C157.983 38.664 158.921 39.182 160.027 39.182C161.133 39.182 162.071 38.664 162.575 38.048C163.121 37.362 163.429 36.592 163.429 35.36ZM161.651 35.36C161.651 36.046 161.553 36.732 161.133 37.194C160.895 37.446 160.503 37.656 160.027 37.656C159.551 37.656 159.159 37.446 158.921 37.194C158.501 36.732 158.403 36.046 158.403 35.36C158.403 34.674 158.501 33.988 158.921 33.526C159.159 33.274 159.551 33.064 160.027 33.064C160.503 33.064 160.895 33.274 161.133 33.526C161.553 33.988 161.651 34.674 161.651 35.36ZM171.315 39V34.142C171.315 32.63 170.405 31.538 168.851 31.538C168.011 31.538 167.143 31.888 166.709 32.658L166.583 31.72H165.113V39H166.863V36.032C166.863 35.416 166.849 34.66 167.101 34.086C167.339 33.554 167.745 33.162 168.361 33.162C169.285 33.162 169.565 33.68 169.565 34.534V39H171.315ZM179.671 40.61C178.243 38.692 177.585 37.124 177.585 34.562C177.585 32 178.243 30.432 179.671 28.514L178.677 27.772C176.997 29.704 176.129 31.888 176.129 34.562C176.129 37.236 176.997 39.42 178.677 41.352L179.671 40.61ZM186.897 39V37.418H183.005L185.693 34.198C186.239 33.54 186.757 32.686 186.757 31.818C186.757 30.11 185.427 29.088 183.761 29.088C181.759 29.088 180.667 30.306 180.653 32.014H182.445C182.445 31.244 182.921 30.614 183.747 30.614C184.545 30.614 184.979 31.146 184.979 31.832C184.979 32.224 184.811 32.686 184.475 33.078L180.681 37.6V39H186.897ZM195.217 34.128C195.217 32.532 195.063 30.908 194.055 29.942C193.551 29.452 192.837 29.088 191.787 29.088C190.737 29.088 190.023 29.452 189.519 29.942C188.511 30.908 188.357 32.532 188.357 34.128C188.357 35.724 188.511 37.348 189.519 38.314C190.023 38.804 190.737 39.182 191.787 39.182C192.837 39.182 193.551 38.804 194.055 38.314C195.063 37.348 195.217 35.724 195.217 34.128ZM193.439 34.128C193.439 35.388 193.593 37.558 191.787 37.558C189.981 37.558 190.135 35.388 190.135 34.128C190.135 32.868 189.981 30.698 191.787 30.698C193.593 30.698 193.439 32.868 193.439 34.128ZM201.297 39V29.27H199.799L197.405 30.992V32.896L199.547 31.342V39H201.297ZM211.256 35.794C211.256 33.82 210.15 32.476 208.05 32.476C207.462 32.476 206.636 32.672 206.202 33.19C206.202 32.336 206.342 31.454 206.874 30.964C207.112 30.74 207.378 30.572 207.84 30.572C208.316 30.572 208.652 30.684 208.876 30.922C209.058 31.104 209.184 31.37 209.212 31.664H210.976C210.976 31.09 210.696 30.39 210.15 29.872C209.646 29.396 208.918 29.088 207.924 29.088C206.762 29.088 206.076 29.494 205.544 30.054C204.55 31.118 204.466 32.868 204.466 34.296C204.466 34.912 204.508 35.486 204.62 36.116C204.914 37.866 206.062 39.182 207.91 39.182C210.122 39.182 211.256 37.698 211.256 35.794ZM209.478 35.724C209.478 36.858 208.96 37.614 207.91 37.614C206.874 37.614 206.37 36.788 206.37 35.724C206.37 34.702 206.944 33.904 207.882 33.904C208.96 33.904 209.478 34.716 209.478 35.724ZM215.432 34.562C215.432 31.888 214.564 29.704 212.884 27.772L211.89 28.514C213.318 30.432 213.976 32 213.976 34.562C213.976 37.124 213.318 38.692 211.89 40.61L212.884 41.352C214.564 39.42 215.432 37.236 215.432 34.562Z" fill="black" fill-opacity="0.7"/>
<path d="M30.404 61.752C30.404 60.396 30.236 59.148 29.312 58.248C28.7 57.648 27.872 57.336 27.02 57.336C26.168 57.336 25.34 57.648 24.728 58.248C23.804 59.148 23.636 60.396 23.636 61.752C23.636 63.108 23.804 64.356 24.728 65.256C25.34 65.856 26.168 66.168 27.02 66.168C27.872 66.168 28.7 65.856 29.312 65.256C30.236 64.356 30.404 63.108 30.404 61.752ZM29.3 61.752C29.3 62.64 29.264 63.792 28.568 64.512C28.16 64.932 27.596 65.148 27.02 65.148C26.444 65.148 25.88 64.932 25.472 64.512C24.776 63.792 24.74 62.64 24.74 61.752C24.74 60.864 24.776 59.712 25.472 58.992C25.88 58.572 26.444 58.356 27.02 58.356C27.596 58.356 28.16 58.572 28.568 58.992C29.264 59.712 29.3 60.864 29.3 61.752ZM37.5311 62.964C37.5311 61.956 37.2311 61.032 36.6551 60.444C36.2591 60.036 35.6831 59.784 34.9391 59.784C34.2551 59.784 33.4751 60.12 33.1271 60.732L33.0551 59.94H32.1551V68.604H33.1751V65.304C33.4991 65.856 34.2791 66.168 34.9391 66.168C35.6471 66.168 36.2111 65.928 36.6071 65.556C37.2191 64.968 37.5311 64.008 37.5311 62.964ZM36.4871 62.976C36.4871 64.092 36.1271 65.304 34.7711 65.304C34.3271 65.304 34.0271 65.124 33.7871 64.908C33.2831 64.464 33.1151 63.732 33.1151 62.976C33.1151 62.22 33.2831 61.488 33.7871 61.044C34.0271 60.828 34.3271 60.648 34.7711 60.648C36.1271 60.648 36.4871 61.86 36.4871 62.976ZM44.1878 62.688C44.1998 61.872 43.9118 61.092 43.4198 60.552C42.9758 60.072 42.3518 59.772 41.5718 59.772C40.5158 59.772 39.7118 60.312 39.2798 61.044C38.9438 61.608 38.8118 62.256 38.8118 62.988C38.8118 63.852 39.0638 64.656 39.5678 65.244C40.0358 65.796 40.7318 66.156 41.5838 66.156C42.1598 66.156 42.6998 65.988 43.1318 65.7C43.6238 65.364 43.9838 64.8 44.0678 64.2H43.0718C42.9878 64.524 42.8798 64.692 42.7118 64.86C42.4598 65.124 42.0638 65.256 41.5838 65.256C41.1158 65.256 40.7438 65.1 40.4678 64.824C40.0958 64.452 39.8798 63.852 39.8798 63.3H44.1758L44.1878 62.688ZM43.1438 62.424H39.9038C39.9278 61.536 40.4678 60.636 41.5718 60.636C42.1118 60.636 42.5198 60.852 42.7718 61.188C43.0118 61.512 43.1438 61.968 43.1438 62.424ZM49.1772 60.924V59.928C49.0212 59.904 48.8532 59.892 48.6972 59.892C47.9292 59.892 47.1972 60.252 46.8852 60.996L46.8012 59.928H45.9012V66H46.9092V63.3C46.9092 62.664 46.9692 61.824 47.4612 61.356C47.7372 61.092 48.1332 60.876 48.6132 60.876C48.7932 60.876 48.9972 60.888 49.1772 60.924ZM55.4774 65.94V65.184C55.4774 65.184 55.3214 65.22 55.2134 65.22C55.0094 65.22 54.8774 65.136 54.8774 64.812V61.872C54.8774 61.524 54.8174 61.212 54.6974 60.936C54.4094 60.276 53.7374 59.772 52.5614 59.772C51.8174 59.772 51.0974 59.988 50.6894 60.42C50.3774 60.744 50.1734 61.14 50.1614 61.692H51.1574C51.1574 61.392 51.2654 61.152 51.4574 60.96C51.6614 60.756 52.0094 60.6 52.5614 60.6C53.0534 60.6 53.3534 60.72 53.5574 60.912C53.8334 61.164 53.8694 61.536 53.8694 61.836V62.28L52.0214 62.388C50.3654 62.484 49.8614 63.504 49.8614 64.284C49.8614 65.22 50.5574 66.156 51.9494 66.156C52.8014 66.156 53.5574 65.772 53.9054 65.16H53.9294C53.9294 65.676 54.2654 66.084 54.8054 66.084C55.0574 66.084 55.2614 66.048 55.4774 65.94ZM53.8694 63.432C53.8694 63.936 53.7134 64.44 53.3534 64.812C53.0294 65.148 52.5734 65.304 52.1054 65.304C51.2414 65.304 50.9054 64.8 50.9054 64.26C50.9054 63.492 51.6254 63.204 52.2374 63.168L53.8694 63.072V63.432ZM60.178 65.916V65.04C60.178 65.04 59.566 65.148 59.134 65.148C58.57 65.148 58.318 64.908 58.318 64.32V60.804H60.118V59.928H58.318V58.14L57.298 58.38V59.928H56.122V60.804H57.298V64.44C57.298 65.256 57.658 66.084 58.966 66.084C59.53 66.084 59.902 65.988 60.178 65.916ZM62.7672 58.536V57.336H61.5792V58.536H62.7672ZM62.6952 66V59.928H61.6512V66H62.6952ZM69.8644 62.964C69.8644 62.004 69.6604 61.128 69.0004 60.48C68.5564 60.048 67.9324 59.772 67.1644 59.772C66.3964 59.772 65.7724 60.048 65.3284 60.48C64.6684 61.128 64.4644 62.004 64.4644 62.964C64.4644 63.924 64.6684 64.8 65.3284 65.448C65.7724 65.88 66.3964 66.156 67.1644 66.156C67.9324 66.156 68.5564 65.88 69.0004 65.448C69.6604 64.8 69.8644 63.924 69.8644 62.964ZM68.8204 62.964C68.8204 63.672 68.6884 64.404 68.2564 64.848C68.0044 65.1 67.6444 65.28 67.1644 65.28C66.6844 65.28 66.3244 65.1 66.0724 64.848C65.6404 64.404 65.5084 63.672 65.5084 62.964C65.5084 62.256 65.6404 61.524 66.0724 61.08C66.3244 60.828 66.6844 60.648 67.1644 60.648C67.6444 60.648 68.0044 60.828 68.2564 61.08C68.6884 61.524 68.8204 62.256 68.8204 62.964ZM76.5318 66V62.004C76.5318 60.6 75.8118 59.772 74.4318 59.772C73.7478 59.772 72.9078 60.144 72.5958 60.84L72.5118 59.928H71.6238V66H72.6438V63.18C72.6438 62.712 72.6558 62.076 72.8598 61.632C73.1238 61.08 73.5918 60.696 74.1798 60.696C75.1398 60.696 75.5118 61.236 75.5118 62.148V66H76.5318ZM83.7313 65.94V65.184C83.7313 65.184 83.5753 65.22 83.4673 65.22C83.2633 65.22 83.1313 65.136 83.1313 64.812V61.872C83.1313 61.524 83.0713 61.212 82.9513 60.936C82.6633 60.276 81.9913 59.772 80.8153 59.772C80.0713 59.772 79.3513 59.988 78.9433 60.42C78.6313 60.744 78.4273 61.14 78.4153 61.692H79.4113C79.4113 61.392 79.5193 61.152 79.7113 60.96C79.9153 60.756 80.2633 60.6 80.8153 60.6C81.3073 60.6 81.6073 60.72 81.8113 60.912C82.0873 61.164 82.1233 61.536 82.1233 61.836V62.28L80.2753 62.388C78.6193 62.484 78.1153 63.504 78.1153 64.284C78.1153 65.22 78.8113 66.156 80.2033 66.156C81.0553 66.156 81.8113 65.772 82.1593 65.16H82.1833C82.1833 65.676 82.5193 66.084 83.0593 66.084C83.3113 66.084 83.5153 66.048 83.7313 65.94ZM82.1233 63.432C82.1233 63.936 81.9673 64.44 81.6073 64.812C81.2833 65.148 80.8273 65.304 80.3593 65.304C79.4953 65.304 79.1593 64.8 79.1593 64.26C79.1593 63.492 79.8793 63.204 80.4913 63.168L82.1233 63.072V63.432ZM87.3025 66V65.136C87.3025 65.136 87.2185 65.148 86.8825 65.148C86.4625 65.148 86.3305 64.932 86.3305 64.524V57.336H85.3105V64.584C85.3105 65.544 85.6945 66.072 86.5825 66.072C87.0745 66.072 87.3025 66 87.3025 66Z" fill="black" fill-opacity="0.7"/>
<path d="M30.176 86.88V81.492H29.108V86.904C29.108 88.26 28.544 89.16 27.068 89.16C25.592 89.16 25.028 88.26 25.028 86.904V81.492H23.96V86.88C23.96 89.004 25.16 90.156 27.068 90.156C28.976 90.156 30.176 89.004 30.176 86.88ZM37.1568 90V86.004C37.1568 84.6 36.4368 83.772 35.0568 83.772C34.3728 83.772 33.5328 84.144 33.2208 84.84L33.1368 83.928H32.2488V90H33.2688V87.18C33.2688 86.712 33.2808 86.076 33.4848 85.632C33.7488 85.08 34.2168 84.696 34.8048 84.696C35.7648 84.696 36.1368 85.236 36.1368 86.148V90H37.1568ZM44.1763 90V81.336H43.1563V84.636C42.8323 84.084 42.0523 83.772 41.3923 83.772C40.6843 83.772 40.1203 84.012 39.7243 84.384C39.1123 84.972 38.8003 85.932 38.8003 86.976C38.8003 87.984 39.1003 88.908 39.6763 89.496C40.0723 89.904 40.6483 90.156 41.3923 90.156C42.0763 90.156 42.8563 89.82 43.2043 89.208L43.2763 90H44.1763ZM43.2163 86.964C43.2163 87.72 43.0483 88.452 42.5443 88.896C42.3043 89.112 42.0043 89.292 41.5603 89.292C40.2043 89.292 39.8443 88.08 39.8443 86.964C39.8443 85.848 40.2043 84.636 41.5603 84.636C42.0043 84.636 42.3043 84.816 42.5443 85.032C43.0483 85.476 43.2163 86.208 43.2163 86.964ZM51.3011 86.688C51.3131 85.872 51.0251 85.092 50.5331 84.552C50.0891 84.072 49.4651 83.772 48.6851 83.772C47.6291 83.772 46.8251 84.312 46.3931 85.044C46.0571 85.608 45.9251 86.256 45.9251 86.988C45.9251 87.852 46.1771 88.656 46.6811 89.244C47.1491 89.796 47.8451 90.156 48.6971 90.156C49.2731 90.156 49.8131 89.988 50.2451 89.7C50.7371 89.364 51.0971 88.8 51.1811 88.2H50.1851C50.1011 88.524 49.9931 88.692 49.8251 88.86C49.5731 89.124 49.1771 89.256 48.6971 89.256C48.2291 89.256 47.8571 89.1 47.5811 88.824C47.2091 88.452 46.9931 87.852 46.9931 87.3H51.2891L51.3011 86.688ZM50.2571 86.424H47.0171C47.0411 85.536 47.5811 84.636 48.6851 84.636C49.2251 84.636 49.6331 84.852 49.8851 85.188C50.1251 85.512 50.2571 85.968 50.2571 86.424ZM56.2904 84.924V83.928C56.1344 83.904 55.9664 83.892 55.8104 83.892C55.0424 83.892 54.3104 84.252 53.9984 84.996L53.9144 83.928H53.0144V90H54.0224V87.3C54.0224 86.664 54.0824 85.824 54.5744 85.356C54.8504 85.092 55.2464 84.876 55.7264 84.876C55.9064 84.876 56.1104 84.888 56.2904 84.924ZM66.3975 87.288H65.2935C65.2815 87.756 65.1015 88.2 64.8255 88.512C64.4895 88.884 63.9255 89.16 63.2775 89.16C62.7015 89.16 62.1375 88.932 61.7295 88.512C61.0335 87.792 61.0095 86.64 61.0095 85.752C61.0095 84.864 61.0335 83.712 61.7295 82.992C62.1375 82.572 62.7015 82.344 63.2775 82.344C63.9255 82.344 64.4775 82.596 64.8135 82.968C65.0895 83.28 65.2695 83.688 65.2815 84.156H66.3855C66.3495 83.364 66.0375 82.716 65.5455 82.212C65.0295 81.696 64.2015 81.336 63.2775 81.336C62.4255 81.336 61.5855 81.648 60.9735 82.248C60.0495 83.148 59.9055 84.396 59.9055 85.752C59.9055 87.108 60.0495 88.356 60.9735 89.256C61.5855 89.856 62.4255 90.168 63.2775 90.168C64.2015 90.168 65.0415 89.772 65.5575 89.256C66.0495 88.752 66.3615 88.08 66.3975 87.288ZM72.923 86.964C72.923 86.004 72.719 85.128 72.059 84.48C71.615 84.048 70.991 83.772 70.223 83.772C69.455 83.772 68.831 84.048 68.387 84.48C67.727 85.128 67.523 86.004 67.523 86.964C67.523 87.924 67.727 88.8 68.387 89.448C68.831 89.88 69.455 90.156 70.223 90.156C70.991 90.156 71.615 89.88 72.059 89.448C72.719 88.8 72.923 87.924 72.923 86.964ZM71.879 86.964C71.879 87.672 71.747 88.404 71.315 88.848C71.063 89.1 70.703 89.28 70.223 89.28C69.743 89.28 69.383 89.1 69.131 88.848C68.699 88.404 68.567 87.672 68.567 86.964C68.567 86.256 68.699 85.524 69.131 85.08C69.383 84.828 69.743 84.648 70.223 84.648C70.703 84.648 71.063 84.828 71.315 85.08C71.747 85.524 71.879 86.256 71.879 86.964ZM79.5904 90V86.004C79.5904 84.6 78.8704 83.772 77.4904 83.772C76.8064 83.772 75.9664 84.144 75.6544 84.84L75.5704 83.928H74.6824V90H75.7024V87.18C75.7024 86.712 75.7144 86.076 75.9184 85.632C76.1824 85.08 76.6504 84.696 77.2384 84.696C78.1984 84.696 78.5704 85.236 78.5704 86.148V90H79.5904ZM86.2019 88.236C86.2019 87.324 85.5179 86.7 84.6539 86.556C84.0059 86.448 83.5259 86.4 83.1899 86.352C82.6859 86.28 82.3739 86.064 82.3739 85.56C82.3739 85.224 82.6019 84.9 82.9859 84.744C83.2739 84.624 83.4539 84.624 83.6939 84.624C84.1019 84.624 84.4379 84.72 84.6899 84.948C84.8699 85.104 85.0259 85.392 85.0379 85.704H86.0579C86.0579 85.212 85.8899 84.864 85.6259 84.54C85.2179 84.024 84.4979 83.772 83.6939 83.772C82.9379 83.772 82.3019 84.036 81.9059 84.444C81.6299 84.72 81.4019 85.164 81.4019 85.632C81.4019 86.556 81.9779 87.12 82.8899 87.264L84.2579 87.444C84.8819 87.528 85.2059 87.852 85.2059 88.308C85.2059 88.584 85.0739 88.836 84.9059 88.968C84.5939 89.232 84.2099 89.304 83.7899 89.304C83.4059 89.304 82.9739 89.232 82.6979 89.028C82.4099 88.812 82.2179 88.5 82.2059 88.08H81.1859C81.1859 88.596 81.4019 89.112 81.7739 89.472C82.2899 89.976 82.9859 90.156 83.7419 90.156C84.5339 90.156 85.2539 89.952 85.7219 89.472C86.0099 89.172 86.2019 88.764 86.2019 88.236ZM91.0452 89.916V89.04C91.0452 89.04 90.4332 89.148 90.0012 89.148C89.4372 89.148 89.1852 88.908 89.1852 88.32V84.804H90.9852V83.928H89.1852V82.14L88.1652 82.38V83.928H86.9892V84.804H88.1652V88.44C88.1652 89.256 88.5252 90.084 89.8332 90.084C90.3972 90.084 90.7692 89.988 91.0452 89.916ZM95.7943 84.924V83.928C95.6383 83.904 95.4703 83.892 95.3143 83.892C94.5463 83.892 93.8143 84.252 93.5023 84.996L93.4183 83.928H92.5183V90H93.5263V87.3C93.5263 86.664 93.5863 85.824 94.0783 85.356C94.3543 85.092 94.7503 84.876 95.2303 84.876C95.4103 84.876 95.6143 84.888 95.7943 84.924ZM101.759 90V83.928H100.739V87.084C100.739 87.708 100.619 88.368 100.235 88.764C99.9706 89.04 99.6346 89.22 99.2266 89.22C98.2666 89.22 97.9306 88.68 97.9306 87.768V83.928H96.9106V87.912C96.9106 89.316 97.6066 90.144 98.9866 90.144C99.6946 90.144 100.475 89.772 100.787 89.076L100.871 90H101.759ZM108.707 87.96H107.675C107.627 88.356 107.483 88.632 107.267 88.86C107.027 89.112 106.655 89.268 106.235 89.268C105.767 89.268 105.443 89.1 105.179 88.872C104.699 88.464 104.567 87.708 104.567 86.964C104.567 86.22 104.699 85.464 105.179 85.056C105.443 84.828 105.767 84.66 106.235 84.66C106.631 84.66 106.979 84.804 107.219 85.032C107.447 85.26 107.603 85.56 107.651 85.98H108.683C108.635 85.32 108.371 84.816 107.963 84.42C107.543 84.012 106.955 83.772 106.235 83.772C105.143 83.772 104.459 84.276 104.027 84.912C103.703 85.392 103.523 86.052 103.523 86.964C103.523 87.876 103.703 88.536 104.027 89.016C104.459 89.652 105.155 90.156 106.247 90.156C106.991 90.156 107.567 89.916 107.999 89.496C108.407 89.1 108.659 88.608 108.707 87.96ZM113.463 89.916V89.04C113.463 89.04 112.851 89.148 112.419 89.148C111.855 89.148 111.603 88.908 111.603 88.32V84.804H113.403V83.928H111.603V82.14L110.583 82.38V83.928H109.407V84.804H110.583V88.44C110.583 89.256 110.943 90.084 112.251 90.084C112.815 90.084 113.187 89.988 113.463 89.916ZM116.052 82.536V81.336H114.864V82.536H116.052ZM115.98 90V83.928H114.936V90H115.98ZM123.15 86.964C123.15 86.004 122.946 85.128 122.286 84.48C121.842 84.048 121.218 83.772 120.45 83.772C119.682 83.772 119.058 84.048 118.614 84.48C117.954 85.128 117.75 86.004 117.75 86.964C117.75 87.924 117.954 88.8 118.614 89.448C119.058 89.88 119.682 90.156 120.45 90.156C121.218 90.156 121.842 89.88 122.286 89.448C122.946 88.8 123.15 87.924 123.15 86.964ZM122.106 86.964C122.106 87.672 121.974 88.404 121.542 88.848C121.29 89.1 120.93 89.28 120.45 89.28C119.97 89.28 119.61 89.1 119.358 88.848C118.926 88.404 118.794 87.672 118.794 86.964C118.794 86.256 118.926 85.524 119.358 85.08C119.61 84.828 119.97 84.648 120.45 84.648C120.93 84.648 121.29 84.828 121.542 85.08C121.974 85.524 122.106 86.256 122.106 86.964ZM129.817 90V86.004C129.817 84.6 129.097 83.772 127.717 83.772C127.033 83.772 126.193 84.144 125.881 84.84L125.797 83.928H124.909V90H125.929V87.18C125.929 86.712 125.941 86.076 126.145 85.632C126.409 85.08 126.877 84.696 127.465 84.696C128.425 84.696 128.797 85.236 128.797 86.148V90H129.817Z" fill="black" fill-opacity="0.7"/>
<path d="M30.164 108.06C30.164 107.316 29.924 106.704 29.516 106.26C29.06 105.768 28.352 105.492 27.356 105.492H24.2V114H25.268V110.7H27.368C28.304 110.7 29 110.448 29.456 109.992C29.912 109.536 30.164 108.888 30.164 108.06ZM29.06 108.06C29.06 109.2 28.484 109.728 27.344 109.728H25.268V106.464H27.332C28.388 106.464 29.06 106.98 29.06 108.06ZM33.5954 114V113.136C33.5954 113.136 33.5114 113.148 33.1754 113.148C32.7554 113.148 32.6234 112.932 32.6234 112.524V105.336H31.6034V112.584C31.6034 113.544 31.9874 114.072 32.8754 114.072C33.3674 114.072 33.5954 114 33.5954 114ZM40.2196 113.94V113.184C40.2196 113.184 40.0636 113.22 39.9556 113.22C39.7516 113.22 39.6196 113.136 39.6196 112.812V109.872C39.6196 109.524 39.5596 109.212 39.4396 108.936C39.1516 108.276 38.4796 107.772 37.3036 107.772C36.5596 107.772 35.8396 107.988 35.4316 108.42C35.1196 108.744 34.9156 109.14 34.9036 109.692H35.8996C35.8996 109.392 36.0076 109.152 36.1996 108.96C36.4036 108.756 36.7516 108.6 37.3036 108.6C37.7956 108.6 38.0956 108.72 38.2996 108.912C38.5756 109.164 38.6116 109.536 38.6116 109.836V110.28L36.7636 110.388C35.1076 110.484 34.6036 111.504 34.6036 112.284C34.6036 113.22 35.2996 114.156 36.6916 114.156C37.5436 114.156 38.2996 113.772 38.6476 113.16H38.6716C38.6716 113.676 39.0076 114.084 39.5476 114.084C39.7996 114.084 40.0036 114.048 40.2196 113.94ZM38.6116 111.432C38.6116 111.936 38.4556 112.44 38.0956 112.812C37.7716 113.148 37.3156 113.304 36.8476 113.304C35.9836 113.304 35.6476 112.8 35.6476 112.26C35.6476 111.492 36.3676 111.204 36.9796 111.168L38.6116 111.072V111.432ZM46.7428 114V110.004C46.7428 108.6 46.0228 107.772 44.6428 107.772C43.9588 107.772 43.1188 108.144 42.8068 108.84L42.7228 107.928H41.8348V114H42.8548V111.18C42.8548 110.712 42.8668 110.076 43.0708 109.632C43.3348 109.08 43.8027 108.696 44.3908 108.696C45.3508 108.696 45.7228 109.236 45.7228 110.148V114H46.7428ZM53.7623 114V110.004C53.7623 108.6 53.0423 107.772 51.6623 107.772C50.9783 107.772 50.1383 108.144 49.8263 108.84L49.7423 107.928H48.8543V114H49.8743V111.18C49.8743 110.712 49.8863 110.076 50.0903 109.632C50.3543 109.08 50.8223 108.696 51.4103 108.696C52.3703 108.696 52.7423 109.236 52.7423 110.148V114H53.7623ZM60.7698 110.688C60.7818 109.872 60.4938 109.092 60.0018 108.552C59.5578 108.072 58.9338 107.772 58.1538 107.772C57.0978 107.772 56.2938 108.312 55.8618 109.044C55.5258 109.608 55.3938 110.256 55.3938 110.988C55.3938 111.852 55.6458 112.656 56.1498 113.244C56.6178 113.796 57.3138 114.156 58.1658 114.156C58.7418 114.156 59.2818 113.988 59.7138 113.7C60.2058 113.364 60.5658 112.8 60.6498 112.2H59.6538C59.5698 112.524 59.4618 112.692 59.2938 112.86C59.0418 113.124 58.6458 113.256 58.1658 113.256C57.6978 113.256 57.3258 113.1 57.0498 112.824C56.6778 112.452 56.4618 111.852 56.4618 111.3H60.7578L60.7698 110.688ZM59.7258 110.424H56.4858C56.5098 109.536 57.0498 108.636 58.1538 108.636C58.6938 108.636 59.1018 108.852 59.3538 109.188C59.5938 109.512 59.7258 109.968 59.7258 110.424ZM67.3912 114V105.336H66.3712V108.636C66.0472 108.084 65.2672 107.772 64.6072 107.772C63.8992 107.772 63.3352 108.012 62.9392 108.384C62.3272 108.972 62.0152 109.932 62.0152 110.976C62.0152 111.984 62.3152 112.908 62.8912 113.496C63.2872 113.904 63.8632 114.156 64.6072 114.156C65.2912 114.156 66.0712 113.82 66.4192 113.208L66.4912 114H67.3912ZM66.4312 110.964C66.4312 111.72 66.2632 112.452 65.7592 112.896C65.5192 113.112 65.2192 113.292 64.7752 113.292C63.4192 113.292 63.0592 112.08 63.0592 110.964C63.0592 109.848 63.4192 108.636 64.7752 108.636C65.2192 108.636 65.5192 108.816 65.7592 109.032C66.2632 109.476 66.4312 110.208 66.4312 110.964Z" fill="black" fill-opacity="0.7"/>
<path d="M30.02 133.66C30.02 132.316 29.072 131.452 27.656 131.248C27.188 131.176 26.72 131.092 26.24 131.032C25.604 130.948 24.968 130.6 24.968 129.832C24.968 129.448 25.1 129.16 25.316 128.908C25.688 128.488 26.216 128.32 26.828 128.32C27.488 128.32 28.004 128.536 28.328 128.908C28.568 129.184 28.724 129.556 28.748 129.976H29.864C29.84 129.256 29.564 128.644 29.048 128.152C28.484 127.612 27.668 127.336 26.84 127.336C25.952 127.336 25.196 127.624 24.608 128.176C24.152 128.608 23.864 129.22 23.864 129.856C23.864 131.212 24.86 131.92 26.132 132.112L27.476 132.316C28.484 132.472 28.904 133.024 28.904 133.684C28.904 134.14 28.736 134.44 28.472 134.68C28.088 135.04 27.536 135.172 26.888 135.172C26.288 135.172 25.64 135.016 25.256 134.644C24.908 134.308 24.656 133.804 24.656 133.3H23.54C23.54 134.104 23.912 134.836 24.452 135.34C25.028 135.868 25.856 136.156 26.888 136.156C27.8 136.156 28.712 135.88 29.3 135.304C29.72 134.896 30.02 134.368 30.02 133.66ZM36.4852 136V129.928H35.4652V133.084C35.4652 133.708 35.3452 134.368 34.9612 134.764C34.6972 135.04 34.3612 135.22 33.9532 135.22C32.9932 135.22 32.6572 134.68 32.6572 133.768V129.928H31.6372V133.912C31.6372 135.316 32.3332 136.144 33.7132 136.144C34.4212 136.144 35.2012 135.772 35.5132 135.076L35.5972 136H36.4852ZM43.2176 134.236C43.2176 133.324 42.5336 132.7 41.6696 132.556C41.0216 132.448 40.5416 132.4 40.2056 132.352C39.7016 132.28 39.3896 132.064 39.3896 131.56C39.3896 131.224 39.6176 130.9 40.0016 130.744C40.2896 130.624 40.4696 130.624 40.7096 130.624C41.1176 130.624 41.4536 130.72 41.7056 130.948C41.8856 131.104 42.0416 131.392 42.0536 131.704H43.0736C43.0736 131.212 42.9056 130.864 42.6416 130.54C42.2336 130.024 41.5136 129.772 40.7096 129.772C39.9536 129.772 39.3176 130.036 38.9216 130.444C38.6456 130.72 38.4176 131.164 38.4176 131.632C38.4176 132.556 38.9936 133.12 39.9056 133.264L41.2736 133.444C41.8976 133.528 42.2216 133.852 42.2216 134.308C42.2216 134.584 42.0896 134.836 41.9216 134.968C41.6096 135.232 41.2256 135.304 40.8056 135.304C40.4216 135.304 39.9896 135.232 39.7136 135.028C39.4256 134.812 39.2336 134.5 39.2216 134.08H38.2016C38.2016 134.596 38.4176 135.112 38.7896 135.472C39.3056 135.976 40.0016 136.156 40.7576 136.156C41.5496 136.156 42.2696 135.952 42.7376 135.472C43.0256 135.172 43.2176 134.764 43.2176 134.236ZM50.3514 132.964C50.3514 131.956 50.0514 131.032 49.4754 130.444C49.0794 130.036 48.5034 129.784 47.7594 129.784C47.0754 129.784 46.2954 130.12 45.9474 130.732L45.8754 129.94H44.9754V138.604H45.9954V135.304C46.3194 135.856 47.0994 136.168 47.7594 136.168C48.4674 136.168 49.0314 135.928 49.4274 135.556C50.0394 134.968 50.3514 134.008 50.3514 132.964ZM49.3074 132.976C49.3074 134.092 48.9474 135.304 47.5914 135.304C47.1474 135.304 46.8474 135.124 46.6074 134.908C46.1034 134.464 45.9354 133.732 45.9354 132.976C45.9354 132.22 46.1034 131.488 46.6074 131.044C46.8474 130.828 47.1474 130.648 47.5914 130.648C48.9474 130.648 49.3074 131.86 49.3074 132.976ZM57.0081 132.688C57.0201 131.872 56.7321 131.092 56.2401 130.552C55.7961 130.072 55.1721 129.772 54.3921 129.772C53.3361 129.772 52.5321 130.312 52.1001 131.044C51.7641 131.608 51.6321 132.256 51.6321 132.988C51.6321 133.852 51.8841 134.656 52.3881 135.244C52.8561 135.796 53.5521 136.156 54.4041 136.156C54.9801 136.156 55.5201 135.988 55.9521 135.7C56.4441 135.364 56.8041 134.8 56.8881 134.2H55.8921C55.8081 134.524 55.7001 134.692 55.5321 134.86C55.2801 135.124 54.8841 135.256 54.4041 135.256C53.9361 135.256 53.5641 135.1 53.2881 134.824C52.9161 134.452 52.7001 133.852 52.7001 133.3H56.9961L57.0081 132.688ZM55.9641 132.424H52.7241C52.7481 131.536 53.2881 130.636 54.3921 130.636C54.9321 130.636 55.3401 130.852 55.5921 131.188C55.8321 131.512 55.9641 131.968 55.9641 132.424ZM63.6295 136V132.004C63.6295 130.6 62.9095 129.772 61.5295 129.772C60.8455 129.772 60.0055 130.144 59.6935 130.84L59.6095 129.928H58.7215V136H59.7415V133.18C59.7415 132.712 59.7535 132.076 59.9575 131.632C60.2215 131.08 60.6895 130.696 61.2775 130.696C62.2375 130.696 62.6095 131.236 62.6095 132.148V136H63.6295ZM70.649 136V127.336H69.629V130.636C69.305 130.084 68.525 129.772 67.865 129.772C67.157 129.772 66.593 130.012 66.197 130.384C65.585 130.972 65.273 131.932 65.273 132.976C65.273 133.984 65.573 134.908 66.149 135.496C66.545 135.904 67.121 136.156 67.865 136.156C68.549 136.156 69.329 135.82 69.677 135.208L69.749 136H70.649ZM69.689 132.964C69.689 133.72 69.521 134.452 69.017 134.896C68.777 135.112 68.477 135.292 68.033 135.292C66.677 135.292 66.317 134.08 66.317 132.964C66.317 131.848 66.677 130.636 68.033 130.636C68.477 130.636 68.777 130.816 69.017 131.032C69.521 131.476 69.689 132.208 69.689 132.964ZM77.7737 132.688C77.7857 131.872 77.4977 131.092 77.0057 130.552C76.5617 130.072 75.9377 129.772 75.1577 129.772C74.1017 129.772 73.2977 130.312 72.8657 131.044C72.5297 131.608 72.3977 132.256 72.3977 132.988C72.3977 133.852 72.6497 134.656 73.1537 135.244C73.6217 135.796 74.3177 136.156 75.1697 136.156C75.7457 136.156 76.2857 135.988 76.7177 135.7C77.2097 135.364 77.5697 134.8 77.6537 134.2H76.6577C76.5737 134.524 76.4657 134.692 76.2977 134.86C76.0457 135.124 75.6497 135.256 75.1697 135.256C74.7017 135.256 74.3297 135.1 74.0537 134.824C73.6817 134.452 73.4657 133.852 73.4657 133.3H77.7617L77.7737 132.688ZM76.7297 132.424H73.4897C73.5137 131.536 74.0537 130.636 75.1577 130.636C75.6977 130.636 76.1057 130.852 76.3577 131.188C76.5977 131.512 76.7297 131.968 76.7297 132.424ZM84.3951 136V127.336H83.3751V130.636C83.0511 130.084 82.2711 129.772 81.6111 129.772C80.9031 129.772 80.3391 130.012 79.9431 130.384C79.3311 130.972 79.0191 131.932 79.0191 132.976C79.0191 133.984 79.3191 134.908 79.8951 135.496C80.2911 135.904 80.8671 136.156 81.6111 136.156C82.2951 136.156 83.0751 135.82 83.4231 135.208L83.4951 136H84.3951ZM83.4351 132.964C83.4351 133.72 83.2671 134.452 82.7631 134.896C82.5231 135.112 82.2231 135.292 81.7791 135.292C80.4231 135.292 80.0631 134.08 80.0631 132.964C80.0631 131.848 80.4231 130.636 81.7791 130.636C82.2231 130.636 82.5231 130.816 82.7631 131.032C83.2671 131.476 83.4351 132.208 83.4351 132.964Z" fill="black" fill-opacity="0.7"/>
<path d="M30.176 155.88V150.492H29.108V155.904C29.108 157.26 28.544 158.16 27.068 158.16C25.592 158.16 25.028 157.26 25.028 155.904V150.492H23.96V155.88C23.96 158.004 25.16 159.156 27.068 159.156C28.976 159.156 30.176 158.004 30.176 155.88ZM37.1568 159V155.004C37.1568 153.6 36.4368 152.772 35.0568 152.772C34.3728 152.772 33.5328 153.144 33.2208 153.84L33.1368 152.928H32.2488V159H33.2688V156.18C33.2688 155.712 33.2808 155.076 33.4848 154.632C33.7488 154.08 34.2168 153.696 34.8048 153.696C35.7648 153.696 36.1368 154.236 36.1368 155.148V159H37.1568ZM44.5003 159L42.1123 155.328L44.2723 152.928H43.0363L40.2883 155.988V150.336H39.2683V159H40.2883V157.368L41.4523 156.072L43.3483 159H44.5003ZM50.7154 159V155.004C50.7154 153.6 49.9954 152.772 48.6154 152.772C47.9314 152.772 47.0914 153.144 46.7794 153.84L46.6954 152.928H45.8074V159H46.8274V156.18C46.8274 155.712 46.8394 155.076 47.0434 154.632C47.3074 154.08 47.7754 153.696 48.3634 153.696C49.3234 153.696 49.6954 154.236 49.6954 155.148V159H50.7154ZM57.7589 155.964C57.7589 155.004 57.5549 154.128 56.8949 153.48C56.4509 153.048 55.8269 152.772 55.0589 152.772C54.2909 152.772 53.6669 153.048 53.2229 153.48C52.5629 154.128 52.3589 155.004 52.3589 155.964C52.3589 156.924 52.5629 157.8 53.2229 158.448C53.6669 158.88 54.2909 159.156 55.0589 159.156C55.8269 159.156 56.4509 158.88 56.8949 158.448C57.5549 157.8 57.7589 156.924 57.7589 155.964ZM56.7149 155.964C56.7149 156.672 56.5829 157.404 56.1509 157.848C55.8989 158.1 55.5389 158.28 55.0589 158.28C54.5789 158.28 54.2189 158.1 53.9669 157.848C53.5349 157.404 53.4029 156.672 53.4029 155.964C53.4029 155.256 53.5349 154.524 53.9669 154.08C54.2189 153.828 54.5789 153.648 55.0589 153.648C55.5389 153.648 55.8989 153.828 56.1509 154.08C56.5829 154.524 56.7149 155.256 56.7149 155.964ZM67.0918 152.928H66.0958L64.9198 157.512L63.3958 153H62.5198L60.9718 157.512L59.8078 152.928H58.7998L60.3598 159H61.3318L62.9518 154.356L64.5358 159H65.5198L67.0918 152.928ZM73.567 159V155.004C73.567 153.6 72.847 152.772 71.467 152.772C70.783 152.772 69.943 153.144 69.631 153.84L69.547 152.928H68.659V159H69.679V156.18C69.679 155.712 69.691 155.076 69.895 154.632C70.159 154.08 70.627 153.696 71.215 153.696C72.175 153.696 72.547 154.236 72.547 155.148V159H73.567ZM79.2785 150.336H78.4625L74.7665 159.156H75.5825L79.2785 150.336ZM86.9635 159V150.492H85.9315V157.356L81.7555 150.492H80.5555V159H81.5875V152.16L85.7635 159H86.9635ZM94.216 155.964C94.216 155.004 94.012 154.128 93.352 153.48C92.908 153.048 92.284 152.772 91.516 152.772C90.748 152.772 90.124 153.048 89.68 153.48C89.02 154.128 88.816 155.004 88.816 155.964C88.816 156.924 89.02 157.8 89.68 158.448C90.124 158.88 90.748 159.156 91.516 159.156C92.284 159.156 92.908 158.88 93.352 158.448C94.012 157.8 94.216 156.924 94.216 155.964ZM93.172 155.964C93.172 156.672 93.04 157.404 92.608 157.848C92.356 158.1 91.996 158.28 91.516 158.28C91.036 158.28 90.676 158.1 90.424 157.848C89.992 157.404 89.86 156.672 89.86 155.964C89.86 155.256 89.992 154.524 90.424 154.08C90.676 153.828 91.036 153.648 91.516 153.648C91.996 153.648 92.356 153.828 92.608 154.08C93.04 154.524 93.172 155.256 93.172 155.964ZM105.113 154.74C105.113 153.516 104.957 152.244 104.021 151.356C103.421 150.78 102.617 150.492 101.789 150.492H98.825V159H101.789C102.617 159 103.421 158.724 104.021 158.148C104.945 157.26 105.113 155.964 105.113 154.74ZM104.033 154.74C104.033 155.652 103.973 156.744 103.301 157.428C102.905 157.824 102.341 158.016 101.789 158.016H99.893V151.476H101.789C102.341 151.476 102.905 151.668 103.301 152.064C103.973 152.76 104.033 153.828 104.033 154.74ZM111.95 158.94V158.184C111.95 158.184 111.794 158.22 111.686 158.22C111.482 158.22 111.35 158.136 111.35 157.812V154.872C111.35 154.524 111.29 154.212 111.17 153.936C110.882 153.276 110.21 152.772 109.034 152.772C108.29 152.772 107.57 152.988 107.162 153.42C106.85 153.744 106.646 154.14 106.634 154.692H107.63C107.63 154.392 107.738 154.152 107.93 153.96C108.134 153.756 108.482 153.6 109.034 153.6C109.526 153.6 109.826 153.72 110.03 153.912C110.306 154.164 110.342 154.536 110.342 154.836V155.28L108.494 155.388C106.838 155.484 106.334 156.504 106.334 157.284C106.334 158.22 107.03 159.156 108.422 159.156C109.274 159.156 110.03 158.772 110.378 158.16H110.402C110.402 158.676 110.738 159.084 111.278 159.084C111.53 159.084 111.734 159.048 111.95 158.94ZM110.342 156.432C110.342 156.936 110.186 157.44 109.826 157.812C109.502 158.148 109.046 158.304 108.578 158.304C107.714 158.304 107.378 157.8 107.378 157.26C107.378 156.492 108.098 156.204 108.71 156.168L110.342 156.072V156.432ZM116.651 158.916V158.04C116.651 158.04 116.039 158.148 115.607 158.148C115.043 158.148 114.791 157.908 114.791 157.32V153.804H116.591V152.928H114.791V151.14L113.771 151.38V152.928H112.595V153.804H113.771V157.44C113.771 158.256 114.131 159.084 115.439 159.084C116.003 159.084 116.375 158.988 116.651 158.916ZM123.212 158.94V158.184C123.212 158.184 123.056 158.22 122.948 158.22C122.744 158.22 122.612 158.136 122.612 157.812V154.872C122.612 154.524 122.552 154.212 122.432 153.936C122.144 153.276 121.472 152.772 120.296 152.772C119.552 152.772 118.832 152.988 118.424 153.42C118.112 153.744 117.908 154.14 117.896 154.692H118.892C118.892 154.392 119 154.152 119.192 153.96C119.396 153.756 119.744 153.6 120.296 153.6C120.788 153.6 121.088 153.72 121.292 153.912C121.568 154.164 121.604 154.536 121.604 154.836V155.28L119.756 155.388C118.1 155.484 117.596 156.504 117.596 157.284C117.596 158.22 118.292 159.156 119.684 159.156C120.536 159.156 121.292 158.772 121.64 158.16H121.664C121.664 158.676 122 159.084 122.54 159.084C122.792 159.084 122.996 159.048 123.212 158.94ZM121.604 156.432C121.604 156.936 121.448 157.44 121.088 157.812C120.764 158.148 120.308 158.304 119.84 158.304C118.976 158.304 118.64 157.8 118.64 157.26C118.64 156.492 119.36 156.204 119.972 156.168L121.604 156.072V156.432Z" fill="black" fill-opacity="0.7"/>
<circle cx="7.5" cy="62.5" r="7" fill="#871792" stroke="white"/>
<circle cx="7.5" cy="110.5" r="7" fill="#D1B5D4" stroke="white"/>
<circle cx="7.5" cy="86.5" r="7" fill="#D57BC6" stroke="white"/>
<circle cx="7.5" cy="131.5" r="7" fill="#E41111" stroke="white"/>
<circle cx="7.5" cy="154.5" r="7" fill="#FFA970" stroke="white"/>
</svg>
