<svg width="400" height="194" viewBox="0 0 400 194" fill="none" xmlns="http://www.w3.org/2000/svg">
<rect width="400" height="194" fill="white"/>
<path d="M8.022 13.712V12.074H1.162V22H2.968V18.01H7.476V16.372H2.968V13.712H8.022ZM11.1705 13.712V11.906H9.29447V13.712H11.1705ZM11.1285 22V14.72H9.35047V22H11.1285ZM18.9843 19.746C18.9843 18.598 18.1443 17.87 16.9963 17.688C16.2823 17.576 16.1003 17.562 15.4423 17.478C15.0503 17.422 14.6023 17.268 14.6023 16.75C14.6023 16.372 14.8543 16.106 15.1623 15.98C15.4283 15.868 15.6663 15.868 15.9183 15.868C16.2823 15.868 16.6603 15.994 16.8703 16.204C17.0383 16.386 17.1643 16.61 17.1643 16.89H18.8303C18.8303 16.358 18.5783 15.812 18.1863 15.392C17.6543 14.818 16.7723 14.538 15.9043 14.538C14.9943 14.538 14.2243 14.804 13.6923 15.266C13.2583 15.644 12.9503 16.162 12.9503 16.904C12.9503 17.828 13.6223 18.64 14.6163 18.85C15.2603 18.99 15.9883 19.032 16.6323 19.13C17.0803 19.2 17.3603 19.48 17.3603 19.9C17.3603 20.698 16.4643 20.824 15.8763 20.824C15.3723 20.824 15.0503 20.726 14.7703 20.502C14.5463 20.32 14.3783 19.97 14.3783 19.648H12.7403C12.7403 20.334 13.0903 20.936 13.5103 21.342C14.1123 21.916 14.9383 22.182 15.8623 22.182C16.8563 22.182 17.7663 21.93 18.3543 21.342C18.7323 20.964 18.9843 20.446 18.9843 19.746ZM26.8311 22V17.142C26.8311 15.644 25.9211 14.538 24.3671 14.538C23.6111 14.538 22.7991 14.874 22.3791 15.49V11.892H20.6291V22H22.3791V18.164C22.3791 17.268 22.8271 16.148 23.8771 16.148C24.8011 16.148 25.0811 16.666 25.0811 17.506V22H26.8311ZM38.0564 22V11.892H36.3064V15.224C35.9984 14.846 35.3264 14.538 34.4024 14.538C33.6604 14.538 33.0724 14.762 32.6244 15.126C31.7564 15.84 31.3224 16.946 31.3224 18.374C31.3224 19.746 31.7424 20.838 32.6104 21.552C33.0584 21.916 33.6604 22.168 34.3884 22.168C35.1864 22.168 35.9984 21.874 36.4324 21.202L36.5444 22H38.0564ZM36.3904 18.346C36.3904 19.396 36.1104 20.698 34.7384 20.698C34.1924 20.698 33.8144 20.446 33.5624 20.124C33.1984 19.648 33.1004 18.976 33.1004 18.346C33.1004 17.716 33.1984 17.058 33.5624 16.582C33.8144 16.26 34.1924 16.008 34.7384 16.008C36.1104 16.008 36.3904 17.296 36.3904 18.346ZM46.3946 18.416C46.4226 17.506 46.2966 16.68 45.7646 15.882C45.1626 14.972 44.1826 14.538 43.1046 14.538C42.1106 14.538 41.3266 14.902 40.7806 15.462C40.0806 16.176 39.7306 17.212 39.7306 18.374C39.7306 19.564 40.1226 20.586 40.8506 21.286C41.4246 21.832 42.1526 22.182 43.1466 22.182C44.0706 22.182 44.9806 21.888 45.5966 21.16C45.8766 20.824 46.1706 20.25 46.2126 19.816H44.5326C44.4626 20.082 44.3366 20.278 44.1826 20.432C43.9306 20.684 43.6226 20.782 43.1186 20.782C42.6426 20.782 42.2926 20.572 42.0406 20.334C41.6906 19.998 41.4946 19.466 41.5086 18.906H46.3806C46.3806 18.752 46.3946 18.416 46.3946 18.416ZM44.6446 17.632H41.4946C41.5086 17.156 41.6206 16.82 41.8726 16.498C42.1246 16.162 42.5586 15.938 43.0906 15.938C43.5946 15.938 43.9586 16.106 44.1966 16.358C44.4766 16.666 44.6306 17.086 44.6446 17.632ZM54.7615 18.346C54.7615 16.974 54.3275 15.882 53.4595 15.168C53.0115 14.804 52.4235 14.552 51.6955 14.552C50.8975 14.552 50.0855 14.846 49.6515 15.518L49.5395 14.72H48.0275V24.786H49.7775V21.468C50.1135 21.874 50.8135 22.182 51.6815 22.182C52.4235 22.182 53.0115 21.958 53.4595 21.594C54.3275 20.88 54.7615 19.774 54.7615 18.346ZM52.9835 18.374C52.9835 19.004 52.8855 19.662 52.5215 20.138C52.2695 20.46 51.8915 20.712 51.3455 20.712C49.9735 20.712 49.6935 19.424 49.6935 18.374C49.6935 17.324 49.9735 16.022 51.3455 16.022C51.8915 16.022 52.2695 16.274 52.5215 16.596C52.8855 17.072 52.9835 17.744 52.9835 18.374ZM62.5958 18.416C62.6238 17.506 62.4978 16.68 61.9658 15.882C61.3638 14.972 60.3838 14.538 59.3058 14.538C58.3118 14.538 57.5278 14.902 56.9818 15.462C56.2818 16.176 55.9318 17.212 55.9318 18.374C55.9318 19.564 56.3238 20.586 57.0518 21.286C57.6258 21.832 58.3538 22.182 59.3478 22.182C60.2718 22.182 61.1818 21.888 61.7978 21.16C62.0778 20.824 62.3718 20.25 62.4137 19.816H60.7338C60.6638 20.082 60.5378 20.278 60.3838 20.432C60.1318 20.684 59.8238 20.782 59.3198 20.782C58.8438 20.782 58.4938 20.572 58.2418 20.334C57.8918 19.998 57.6958 19.466 57.7098 18.906H62.5818C62.5818 18.752 62.5958 18.416 62.5958 18.416ZM60.8458 17.632H57.6958C57.7098 17.156 57.8218 16.82 58.0738 16.498C58.3258 16.162 58.7598 15.938 59.2918 15.938C59.7958 15.938 60.1598 16.106 60.3978 16.358C60.6778 16.666 60.8318 17.086 60.8458 17.632ZM70.4307 22V17.142C70.4307 15.63 69.5207 14.538 67.9667 14.538C67.1267 14.538 66.2587 14.888 65.8247 15.658L65.6987 14.72H64.2287V22H65.9787V19.032C65.9787 18.416 65.9647 17.66 66.2167 17.086C66.4547 16.554 66.8607 16.162 67.4767 16.162C68.4007 16.162 68.6807 16.68 68.6807 17.534V22H70.4307ZM78.7302 22V11.892H76.9802V15.224C76.6722 14.846 76.0002 14.538 75.0762 14.538C74.3342 14.538 73.7462 14.762 73.2982 15.126C72.4302 15.84 71.9962 16.946 71.9962 18.374C71.9962 19.746 72.4162 20.838 73.2842 21.552C73.7322 21.916 74.3342 22.168 75.0622 22.168C75.8602 22.168 76.6722 21.874 77.1062 21.202L77.2182 22H78.7302ZM77.0642 18.346C77.0642 19.396 76.7842 20.698 75.4122 20.698C74.8662 20.698 74.4882 20.446 74.2362 20.124C73.8722 19.648 73.7742 18.976 73.7742 18.346C73.7742 17.716 73.8722 17.058 74.2362 16.582C74.4882 16.26 74.8662 16.008 75.4122 16.008C76.7842 16.008 77.0642 17.296 77.0642 18.346ZM87.0684 18.416C87.0964 17.506 86.9704 16.68 86.4384 15.882C85.8364 14.972 84.8564 14.538 83.7784 14.538C82.7844 14.538 82.0004 14.902 81.4544 15.462C80.7544 16.176 80.4044 17.212 80.4044 18.374C80.4044 19.564 80.7964 20.586 81.5244 21.286C82.0984 21.832 82.8264 22.182 83.8204 22.182C84.7444 22.182 85.6544 21.888 86.2704 21.16C86.5504 20.824 86.8444 20.25 86.8864 19.816H85.2064C85.1364 20.082 85.0104 20.278 84.8564 20.432C84.6044 20.684 84.2964 20.782 83.7924 20.782C83.3164 20.782 82.9664 20.572 82.7144 20.334C82.3644 19.998 82.1684 19.466 82.1824 18.906H87.0544C87.0544 18.752 87.0684 18.416 87.0684 18.416ZM85.3184 17.632H82.1684C82.1824 17.156 82.2944 16.82 82.5464 16.498C82.7984 16.162 83.2324 15.938 83.7644 15.938C84.2684 15.938 84.6324 16.106 84.8704 16.358C85.1504 16.666 85.3044 17.086 85.3184 17.632ZM94.9034 22V17.142C94.9034 15.63 93.9934 14.538 92.4394 14.538C91.5994 14.538 90.7314 14.888 90.2974 15.658L90.1714 14.72H88.7014V22H90.4514V19.032C90.4514 18.416 90.4374 17.66 90.6894 17.086C90.9274 16.554 91.3334 16.162 91.9494 16.162C92.8734 16.162 93.1534 16.68 93.1534 17.534V22H94.9034ZM102.853 19.424H101.131C101.117 19.69 101.033 19.914 100.921 20.096C100.711 20.418 100.333 20.642 99.8009 20.642C99.3249 20.642 98.9749 20.432 98.7369 20.18C98.3169 19.718 98.2469 19.032 98.2469 18.346C98.2469 17.66 98.3169 16.96 98.7369 16.498C98.9749 16.246 99.3249 16.05 99.8009 16.05C100.333 16.05 100.711 16.274 100.921 16.596C101.033 16.778 101.117 17.002 101.131 17.268H102.853C102.825 16.694 102.629 16.12 102.293 15.686C101.789 15.056 100.907 14.538 99.8009 14.538C98.6949 14.538 97.7709 15.07 97.2669 15.686C96.7209 16.372 96.4689 17.282 96.4689 18.346C96.4689 19.41 96.7209 20.32 97.2669 21.006C97.7709 21.622 98.6949 22.154 99.8009 22.154C100.907 22.154 101.789 21.636 102.293 21.006C102.629 20.572 102.825 19.998 102.853 19.424ZM110.533 14.72H108.755L106.935 19.984L105.031 14.72H103.113L105.983 21.986L105.563 23.008C105.381 23.442 105.045 23.554 104.723 23.554C104.331 23.554 104.205 23.512 103.743 23.428V24.884C104.121 24.982 104.513 25.066 105.087 25.066C106.361 25.066 106.963 24.198 107.327 23.246L110.533 14.72ZM121.289 18.374C121.289 16.946 120.855 15.84 119.987 15.126C119.539 14.762 118.951 14.538 118.209 14.538C117.341 14.538 116.641 14.846 116.305 15.252V11.892H114.555V22H116.067L116.179 21.202C116.613 21.874 117.425 22.168 118.223 22.168C118.951 22.168 119.539 21.916 119.987 21.552C120.855 20.838 121.289 19.746 121.289 18.374ZM119.511 18.346C119.511 18.976 119.413 19.648 119.049 20.124C118.797 20.446 118.419 20.698 117.873 20.698C117.425 20.698 117.089 20.558 116.851 20.334C116.347 19.872 116.221 19.06 116.221 18.346C116.221 17.296 116.501 16.008 117.873 16.008C118.419 16.008 118.797 16.26 119.049 16.582C119.413 17.058 119.511 17.716 119.511 18.346ZM129.086 14.72H127.308L125.488 19.984L123.584 14.72H121.666L124.536 21.986L124.116 23.008C123.934 23.442 123.598 23.554 123.276 23.554C122.884 23.554 122.758 23.512 122.296 23.428V24.884C122.674 24.982 123.066 25.066 123.64 25.066C124.914 25.066 125.516 24.198 125.88 23.246L129.086 14.72ZM138.988 19.424H137.266C137.252 19.69 137.168 19.914 137.056 20.096C136.846 20.418 136.468 20.642 135.936 20.642C135.46 20.642 135.11 20.432 134.872 20.18C134.452 19.718 134.382 19.032 134.382 18.346C134.382 17.66 134.452 16.96 134.872 16.498C135.11 16.246 135.46 16.05 135.936 16.05C136.468 16.05 136.846 16.274 137.056 16.596C137.168 16.778 137.252 17.002 137.266 17.268H138.988C138.96 16.694 138.764 16.12 138.428 15.686C137.924 15.056 137.042 14.538 135.936 14.538C134.83 14.538 133.906 15.07 133.402 15.686C132.856 16.372 132.604 17.282 132.604 18.346C132.604 19.41 132.856 20.32 133.402 21.006C133.906 21.622 134.83 22.154 135.936 22.154C137.042 22.154 137.924 21.636 138.428 21.006C138.764 20.572 138.96 19.998 138.988 19.424ZM146.845 18.36C146.845 17.128 146.537 16.358 145.991 15.672C145.487 15.056 144.549 14.538 143.443 14.538C142.337 14.538 141.399 15.056 140.895 15.672C140.349 16.358 140.041 17.128 140.041 18.36C140.041 19.592 140.349 20.362 140.895 21.048C141.399 21.664 142.337 22.182 143.443 22.182C144.549 22.182 145.487 21.664 145.991 21.048C146.537 20.362 146.845 19.592 146.845 18.36ZM145.067 18.36C145.067 19.046 144.969 19.732 144.549 20.194C144.311 20.446 143.919 20.656 143.443 20.656C142.967 20.656 142.575 20.446 142.337 20.194C141.917 19.732 141.819 19.046 141.819 18.36C141.819 17.674 141.917 16.988 142.337 16.526C142.575 16.274 142.967 16.064 143.443 16.064C143.919 16.064 144.311 16.274 144.549 16.526C144.969 16.988 145.067 17.674 145.067 18.36ZM158.848 22V17.086C158.848 15.574 158.036 14.538 156.482 14.538C155.502 14.538 154.718 14.972 154.284 15.728C153.92 14.986 153.22 14.538 152.198 14.538C151.232 14.538 150.532 15.014 150.126 15.686L149.986 14.72H148.53V22H150.266V18.024C150.266 17.114 150.714 16.064 151.708 16.064C152.59 16.064 152.828 16.582 152.828 17.478V22H154.564V18.024C154.564 17.114 154.998 16.064 155.992 16.064C156.874 16.064 157.112 16.582 157.112 17.478V22H158.848ZM171.234 22V17.086C171.234 15.574 170.422 14.538 168.868 14.538C167.888 14.538 167.104 14.972 166.67 15.728C166.306 14.986 165.606 14.538 164.584 14.538C163.618 14.538 162.918 15.014 162.512 15.686L162.372 14.72H160.916V22H162.652V18.024C162.652 17.114 163.1 16.064 164.094 16.064C164.976 16.064 165.214 16.582 165.214 17.478V22H166.95V18.024C166.95 17.114 167.384 16.064 168.378 16.064C169.26 16.064 169.498 16.582 169.498 17.478V22H171.234ZM179.379 22V14.72H177.629V18.57C177.629 19.158 177.517 19.816 177.097 20.208C176.887 20.418 176.607 20.572 176.201 20.572C175.277 20.572 174.941 20.04 174.941 19.186V14.72H173.191V19.578C173.191 21.132 174.157 22.182 175.711 22.182C176.635 22.182 177.447 21.762 177.797 21.048L177.923 22H179.379ZM187.763 22V17.142C187.763 15.63 186.853 14.538 185.299 14.538C184.459 14.538 183.591 14.888 183.157 15.658L183.031 14.72H181.561V22H183.311V19.032C183.311 18.416 183.297 17.66 183.549 17.086C183.787 16.554 184.193 16.162 184.809 16.162C185.733 16.162 186.013 16.68 186.013 17.534V22H187.763ZM195.992 18.416C196.02 17.506 195.894 16.68 195.362 15.882C194.76 14.972 193.78 14.538 192.702 14.538C191.708 14.538 190.924 14.902 190.378 15.462C189.678 16.176 189.328 17.212 189.328 18.374C189.328 19.564 189.72 20.586 190.448 21.286C191.022 21.832 191.75 22.182 192.744 22.182C193.668 22.182 194.578 21.888 195.194 21.16C195.474 20.824 195.768 20.25 195.81 19.816H194.13C194.06 20.082 193.934 20.278 193.78 20.432C193.528 20.684 193.22 20.782 192.716 20.782C192.24 20.782 191.89 20.572 191.638 20.334C191.288 19.998 191.092 19.466 191.106 18.906H195.978C195.978 18.752 195.992 18.416 195.992 18.416ZM194.242 17.632H191.092C191.106 17.156 191.218 16.82 191.47 16.498C191.722 16.162 192.156 15.938 192.688 15.938C193.192 15.938 193.556 16.106 193.794 16.358C194.074 16.666 194.228 17.086 194.242 17.632Z" fill="black" fill-opacity="0.7"/>
<path d="M65.9 42.492H64.808L62.504 49.68L60.152 42.492H59.048L61.916 51H63.032L65.9 42.492ZM71.6565 47.688C71.6685 46.872 71.3805 46.092 70.8885 45.552C70.4445 45.072 69.8205 44.772 69.0405 44.772C67.9845 44.772 67.1805 45.312 66.7485 46.044C66.4125 46.608 66.2805 47.256 66.2805 47.988C66.2805 48.852 66.5325 49.656 67.0365 50.244C67.5045 50.796 68.2005 51.156 69.0525 51.156C69.6285 51.156 70.1685 50.988 70.6005 50.7C71.0925 50.364 71.4525 49.8 71.5365 49.2H70.5405C70.4565 49.524 70.3485 49.692 70.1805 49.86C69.9285 50.124 69.5325 50.256 69.0525 50.256C68.5845 50.256 68.2125 50.1 67.9365 49.824C67.5645 49.452 67.3485 48.852 67.3485 48.3H71.6445L71.6565 47.688ZM70.6125 47.424H67.3725C67.3965 46.536 67.9365 45.636 69.0405 45.636C69.5805 45.636 69.9885 45.852 70.2405 46.188C70.4805 46.512 70.6125 46.968 70.6125 47.424ZM76.6459 45.924V44.928C76.4899 44.904 76.3219 44.892 76.1659 44.892C75.3979 44.892 74.6659 45.252 74.3539 45.996L74.2699 44.928H73.3699V51H74.3779V48.3C74.3779 47.664 74.4379 46.824 74.9299 46.356C75.2059 46.092 75.6019 45.876 76.0819 45.876C76.2619 45.876 76.4659 45.888 76.6459 45.924ZM82.7154 44.928H81.6474L79.9434 49.716L78.1554 44.928H77.0034L79.4274 51L79.0434 52.02C78.8754 52.476 78.5634 52.632 78.1314 52.632C77.7354 52.632 77.4114 52.536 77.4114 52.536V53.424C77.4954 53.448 77.8314 53.544 78.3354 53.544C79.2474 53.544 79.6914 53.028 79.9794 52.248L82.7154 44.928ZM91.6256 51V47.004C91.6256 45.6 90.8936 44.772 89.5136 44.772C88.8296 44.772 88.0976 45.108 87.7376 45.732V42.336H86.7176V51H87.7376V48.18C87.7376 47.712 87.7496 47.076 87.9536 46.632C88.2176 46.08 88.6856 45.696 89.2736 45.696C90.2336 45.696 90.6056 46.236 90.6056 47.148V51H91.6256ZM94.8765 43.536V42.336H93.6885V43.536H94.8765ZM94.8045 51V44.928H93.7605V51H94.8045ZM102.226 51.9C102.226 51.396 102.034 51 101.746 50.712C101.266 50.22 100.462 50.076 99.7418 50.076H98.5418C98.1578 50.076 97.6298 50.004 97.6298 49.476C97.6298 49.188 97.9178 49.008 98.1458 48.936C98.5298 49.068 98.7578 49.104 99.1658 49.104C99.9698 49.104 100.582 48.816 100.978 48.384C101.314 48.012 101.53 47.508 101.53 46.932C101.53 46.392 101.386 45.996 101.134 45.672C101.194 45.336 101.482 45.12 101.878 45.12C101.962 45.12 102.046 45.12 102.106 45.132V44.304C102.01 44.292 101.902 44.28 101.806 44.28C101.23 44.28 100.762 44.592 100.558 45.132C100.186 44.904 99.7418 44.772 99.1658 44.772C98.3618 44.772 97.7858 45.024 97.3658 45.456C97.0178 45.816 96.7898 46.272 96.7898 46.932C96.7898 47.508 97.0418 48.108 97.4858 48.504C97.0298 48.72 96.6818 49.14 96.6818 49.68C96.6818 50.148 96.9818 50.544 97.3898 50.7C96.9098 50.94 96.5258 51.408 96.5258 52.044C96.5258 52.524 96.7058 52.872 96.9578 53.124C97.5458 53.712 98.4578 53.832 99.2618 53.832C100.114 53.832 101.122 53.7 101.71 53.124C101.998 52.836 102.226 52.428 102.226 51.9ZM100.534 46.932C100.534 47.7 99.9818 48.288 99.1538 48.288C98.2898 48.288 97.7738 47.7 97.7738 46.932C97.7738 46.164 98.3258 45.6 99.1538 45.6C100.018 45.6 100.534 46.164 100.534 46.932ZM101.23 51.9C101.23 52.164 101.134 52.368 100.978 52.524C100.594 52.908 99.8378 52.956 99.3218 52.956C98.7938 52.956 98.0978 52.932 97.7018 52.536C97.5458 52.38 97.4498 52.176 97.4498 51.9C97.4498 51.432 97.8098 51.072 98.2178 50.94H99.6218C100.354 50.94 101.23 51 101.23 51.9ZM108.43 51V47.004C108.43 45.6 107.698 44.772 106.318 44.772C105.634 44.772 104.902 45.108 104.542 45.732V42.336H103.522V51H104.542V48.18C104.542 47.712 104.554 47.076 104.758 46.632C105.022 46.08 105.49 45.696 106.078 45.696C107.038 45.696 107.41 46.236 107.41 47.148V51H108.43Z" fill="black" fill-opacity="0.7"/>
<path d="M68.36 103V94.492H66.86L64.304 101.416L61.736 94.492H60.2V103H61.22V95.764L63.86 102.88H64.7L67.34 95.824V103H68.36ZM75.5706 99.688C75.5826 98.872 75.2946 98.092 74.8026 97.552C74.3586 97.072 73.7346 96.772 72.9546 96.772C71.8986 96.772 71.0946 97.312 70.6626 98.044C70.3266 98.608 70.1946 99.256 70.1946 99.988C70.1946 100.852 70.4466 101.656 70.9506 102.244C71.4186 102.796 72.1146 103.156 72.9666 103.156C73.5426 103.156 74.0826 102.988 74.5146 102.7C75.0066 102.364 75.3666 101.8 75.4506 101.2H74.4546C74.3706 101.524 74.2626 101.692 74.0946 101.86C73.8426 102.124 73.4466 102.256 72.9666 102.256C72.4986 102.256 72.1266 102.1 71.8506 101.824C71.4786 101.452 71.2626 100.852 71.2626 100.3H75.5586L75.5706 99.688ZM74.5266 99.424H71.2866C71.3106 98.536 71.8506 97.636 72.9546 97.636C73.4946 97.636 73.9026 97.852 74.1546 98.188C74.3946 98.512 74.5266 98.968 74.5266 99.424ZM82.192 103V94.336H81.172V97.636C80.848 97.084 80.068 96.772 79.408 96.772C78.7 96.772 78.136 97.012 77.74 97.384C77.128 97.972 76.816 98.932 76.816 99.976C76.816 100.984 77.116 101.908 77.692 102.496C78.088 102.904 78.664 103.156 79.408 103.156C80.092 103.156 80.872 102.82 81.22 102.208L81.292 103H82.192ZM81.232 99.964C81.232 100.72 81.064 101.452 80.56 101.896C80.32 102.112 80.02 102.292 79.576 102.292C78.22 102.292 77.86 101.08 77.86 99.964C77.86 98.848 78.22 97.636 79.576 97.636C80.02 97.636 80.32 97.816 80.56 98.032C81.064 98.476 81.232 99.208 81.232 99.964ZM85.5367 95.536V94.336H84.3487V95.536H85.5367ZM85.4647 103V96.928H84.4207V103H85.4647ZM92.4539 103V96.928H91.4339V100.084C91.4339 100.708 91.3139 101.368 90.9299 101.764C90.6659 102.04 90.3299 102.22 89.9219 102.22C88.9619 102.22 88.6259 101.68 88.6259 100.768V96.928H87.6059V100.912C87.6059 102.316 88.3019 103.144 89.6819 103.144C90.3899 103.144 91.1699 102.772 91.4819 102.076L91.5659 103H92.4539ZM103.086 103V99.004C103.086 97.66 102.438 96.772 101.058 96.772C100.29 96.772 99.5103 97.168 99.1863 97.924C98.9223 97.18 98.2743 96.772 97.3743 96.772C96.6903 96.772 95.9943 97.108 95.6703 97.792L95.5743 96.928H94.6863V103H95.7063V99.772C95.7063 99.268 95.8143 98.62 96.1143 98.236C96.3663 97.912 96.7143 97.696 97.1463 97.696C98.1183 97.696 98.3703 98.284 98.3703 99.136V103H99.3903V99.772C99.3903 99.136 99.4983 98.524 99.9063 98.104C100.146 97.852 100.446 97.696 100.83 97.696C101.79 97.696 102.066 98.284 102.066 99.136V103H103.086Z" fill="black" fill-opacity="0.7"/>
<path d="M66.416 77V68.492H65.348V72.044H61.268V68.492H60.2V77H61.268V73.076H65.348V77H66.416ZM69.8453 69.536V68.336H68.6573V69.536H69.8453ZM69.7733 77V70.928H68.7293V77H69.7733ZM77.1945 77.9C77.1945 77.396 77.0025 77 76.7145 76.712C76.2345 76.22 75.4305 76.076 74.7105 76.076H73.5105C73.1265 76.076 72.5985 76.004 72.5985 75.476C72.5985 75.188 72.8865 75.008 73.1145 74.936C73.4985 75.068 73.7265 75.104 74.1345 75.104C74.9385 75.104 75.5505 74.816 75.9465 74.384C76.2825 74.012 76.4985 73.508 76.4985 72.932C76.4985 72.392 76.3545 71.996 76.1025 71.672C76.1625 71.336 76.4505 71.12 76.8465 71.12C76.9305 71.12 77.0145 71.12 77.0745 71.132V70.304C76.9785 70.292 76.8705 70.28 76.7745 70.28C76.1985 70.28 75.7305 70.592 75.5265 71.132C75.1545 70.904 74.7105 70.772 74.1345 70.772C73.3305 70.772 72.7545 71.024 72.3345 71.456C71.9865 71.816 71.7585 72.272 71.7585 72.932C71.7585 73.508 72.0105 74.108 72.4545 74.504C71.9985 74.72 71.6505 75.14 71.6505 75.68C71.6505 76.148 71.9505 76.544 72.3585 76.7C71.8785 76.94 71.4945 77.408 71.4945 78.044C71.4945 78.524 71.6745 78.872 71.9265 79.124C72.5145 79.712 73.4265 79.832 74.2305 79.832C75.0825 79.832 76.0905 79.7 76.6785 79.124C76.9665 78.836 77.1945 78.428 77.1945 77.9ZM75.5025 72.932C75.5025 73.7 74.9505 74.288 74.1225 74.288C73.2585 74.288 72.7425 73.7 72.7425 72.932C72.7425 72.164 73.2945 71.6 74.1225 71.6C74.9865 71.6 75.5025 72.164 75.5025 72.932ZM76.1985 77.9C76.1985 78.164 76.1025 78.368 75.9465 78.524C75.5625 78.908 74.8065 78.956 74.2905 78.956C73.7625 78.956 73.0665 78.932 72.6705 78.536C72.5145 78.38 72.4185 78.176 72.4185 77.9C72.4185 77.432 72.7785 77.072 73.1865 76.94H74.5905C75.3225 76.94 76.1985 77 76.1985 77.9ZM83.399 77V73.004C83.399 71.6 82.667 70.772 81.287 70.772C80.603 70.772 79.871 71.108 79.511 71.732V68.336H78.491V77H79.511V74.18C79.511 73.712 79.523 73.076 79.727 72.632C79.991 72.08 80.459 71.696 81.047 71.696C82.007 71.696 82.379 72.236 82.379 73.148V77H83.399Z" fill="black" fill-opacity="0.7"/>
<path d="M65.36 129V128.004H61.268V120.492H60.2V129H65.36ZM71.3996 125.964C71.3996 125.004 71.1956 124.128 70.5356 123.48C70.0916 123.048 69.4676 122.772 68.6996 122.772C67.9316 122.772 67.3076 123.048 66.8636 123.48C66.2036 124.128 65.9996 125.004 65.9996 125.964C65.9996 126.924 66.2036 127.8 66.8636 128.448C67.3076 128.88 67.9316 129.156 68.6996 129.156C69.4676 129.156 70.0916 128.88 70.5356 128.448C71.1956 127.8 71.3996 126.924 71.3996 125.964ZM70.3556 125.964C70.3556 126.672 70.2236 127.404 69.7916 127.848C69.5396 128.1 69.1796 128.28 68.6996 128.28C68.2196 128.28 67.8596 128.1 67.6076 127.848C67.1756 127.404 67.0436 126.672 67.0436 125.964C67.0436 125.256 67.1756 124.524 67.6076 124.08C67.8596 123.828 68.2196 123.648 68.6996 123.648C69.1796 123.648 69.5396 123.828 69.7916 124.08C70.2236 124.524 70.3556 125.256 70.3556 125.964ZM80.7324 122.928H79.7364L78.5604 127.512L77.0364 123H76.1604L74.6124 127.512L73.4484 122.928H72.4404L74.0004 129H74.9724L76.5924 124.356L78.1764 129H79.1604L80.7324 122.928Z" fill="black" fill-opacity="0.7"/>
<path d="M66.608 181V172.492H65.576V179.356L61.4 172.492H60.2V181H61.232V174.16L65.408 181H66.608ZM73.8605 177.964C73.8605 177.004 73.6565 176.128 72.9965 175.48C72.5525 175.048 71.9285 174.772 71.1605 174.772C70.3925 174.772 69.7685 175.048 69.3245 175.48C68.6645 176.128 68.4605 177.004 68.4605 177.964C68.4605 178.924 68.6645 179.8 69.3245 180.448C69.7685 180.88 70.3925 181.156 71.1605 181.156C71.9285 181.156 72.5525 180.88 72.9965 180.448C73.6565 179.8 73.8605 178.924 73.8605 177.964ZM72.8165 177.964C72.8165 178.672 72.6845 179.404 72.2525 179.848C72.0005 180.1 71.6405 180.28 71.1605 180.28C70.6805 180.28 70.3205 180.1 70.0685 179.848C69.6365 179.404 69.5045 178.672 69.5045 177.964C69.5045 177.256 69.6365 176.524 70.0685 176.08C70.3205 175.828 70.6805 175.648 71.1605 175.648C71.6405 175.648 72.0005 175.828 72.2525 176.08C72.6845 176.524 72.8165 177.256 72.8165 177.964ZM83.2935 181V172.336H82.2735V175.636C81.9495 175.084 81.1695 174.772 80.5095 174.772C79.8015 174.772 79.2375 175.012 78.8415 175.384C78.2295 175.972 77.9175 176.932 77.9175 177.976C77.9175 178.984 78.2175 179.908 78.7935 180.496C79.1895 180.904 79.7655 181.156 80.5095 181.156C81.1935 181.156 81.9735 180.82 82.3215 180.208L82.3935 181H83.2935ZM82.3335 177.964C82.3335 178.72 82.1655 179.452 81.6615 179.896C81.4215 180.112 81.1215 180.292 80.6775 180.292C79.3215 180.292 78.9615 179.08 78.9615 177.964C78.9615 176.848 79.3215 175.636 80.6775 175.636C81.1215 175.636 81.4215 175.816 81.6615 176.032C82.1655 176.476 82.3335 177.208 82.3335 177.964ZM90.6103 180.94V180.184C90.6103 180.184 90.4543 180.22 90.3463 180.22C90.1423 180.22 90.0103 180.136 90.0103 179.812V176.872C90.0103 176.524 89.9503 176.212 89.8303 175.936C89.5423 175.276 88.8703 174.772 87.6943 174.772C86.9503 174.772 86.2303 174.988 85.8223 175.42C85.5103 175.744 85.3063 176.14 85.2943 176.692H86.2903C86.2903 176.392 86.3983 176.152 86.5903 175.96C86.7943 175.756 87.1423 175.6 87.6943 175.6C88.1863 175.6 88.4863 175.72 88.6903 175.912C88.9663 176.164 89.0023 176.536 89.0023 176.836V177.28L87.1543 177.388C85.4983 177.484 84.9943 178.504 84.9943 179.284C84.9943 180.22 85.6903 181.156 87.0823 181.156C87.9342 181.156 88.6903 180.772 89.0383 180.16H89.0623C89.0623 180.676 89.3983 181.084 89.9383 181.084C90.1903 181.084 90.3943 181.048 90.6103 180.94ZM89.0023 178.432C89.0023 178.936 88.8463 179.44 88.4863 179.812C88.1623 180.148 87.7063 180.304 87.2383 180.304C86.3743 180.304 86.0383 179.8 86.0383 179.26C86.0383 178.492 86.7583 178.204 87.3703 178.168L89.0023 178.072V178.432ZM95.3108 180.916V180.04C95.3108 180.04 94.6988 180.148 94.2668 180.148C93.7028 180.148 93.4508 179.908 93.4508 179.32V175.804H95.2508V174.928H93.4508V173.14L92.4308 173.38V174.928H91.2548V175.804H92.4308V179.44C92.4308 180.256 92.7908 181.084 94.0988 181.084C94.6628 181.084 95.0348 180.988 95.3108 180.916ZM101.872 180.94V180.184C101.872 180.184 101.716 180.22 101.608 180.22C101.404 180.22 101.272 180.136 101.272 179.812V176.872C101.272 176.524 101.212 176.212 101.092 175.936C100.804 175.276 100.132 174.772 98.956 174.772C98.212 174.772 97.492 174.988 97.084 175.42C96.772 175.744 96.568 176.14 96.556 176.692H97.552C97.552 176.392 97.66 176.152 97.852 175.96C98.056 175.756 98.404 175.6 98.956 175.6C99.448 175.6 99.748 175.72 99.952 175.912C100.228 176.164 100.264 176.536 100.264 176.836V177.28L98.416 177.388C96.76 177.484 96.256 178.504 96.256 179.284C96.256 180.22 96.952 181.156 98.344 181.156C99.196 181.156 99.952 180.772 100.3 180.16H100.324C100.324 180.676 100.66 181.084 101.2 181.084C101.452 181.084 101.656 181.048 101.872 180.94ZM100.264 178.432C100.264 178.936 100.108 179.44 99.748 179.812C99.424 180.148 98.968 180.304 98.5 180.304C97.636 180.304 97.3 179.8 97.3 179.26C97.3 178.492 98.02 178.204 98.632 178.168L100.264 178.072V178.432Z" fill="black" fill-opacity="0.7"/>
<path d="M66.608 155V146.492H65.576V153.356L61.4 146.492H60.2V155H61.232V148.16L65.408 155H66.608ZM73.8605 151.964C73.8605 151.004 73.6565 150.128 72.9965 149.48C72.5525 149.048 71.9285 148.772 71.1605 148.772C70.3925 148.772 69.7685 149.048 69.3245 149.48C68.6645 150.128 68.4605 151.004 68.4605 151.964C68.4605 152.924 68.6645 153.8 69.3245 154.448C69.7685 154.88 70.3925 155.156 71.1605 155.156C71.9285 155.156 72.5525 154.88 72.9965 154.448C73.6565 153.8 73.8605 152.924 73.8605 151.964ZM72.8165 151.964C72.8165 152.672 72.6845 153.404 72.2525 153.848C72.0005 154.1 71.6405 154.28 71.1605 154.28C70.6805 154.28 70.3205 154.1 70.0685 153.848C69.6365 153.404 69.5045 152.672 69.5045 151.964C69.5045 151.256 69.6365 150.524 70.0685 150.08C70.3205 149.828 70.6805 149.648 71.1605 149.648C71.6405 149.648 72.0005 149.828 72.2525 150.08C72.6845 150.524 72.8165 151.256 72.8165 151.964ZM83.2935 155V146.336H82.2735V149.636C81.9495 149.084 81.1695 148.772 80.5095 148.772C79.8015 148.772 79.2375 149.012 78.8415 149.384C78.2295 149.972 77.9175 150.932 77.9175 151.976C77.9175 152.984 78.2175 153.908 78.7935 154.496C79.1895 154.904 79.7655 155.156 80.5095 155.156C81.1935 155.156 81.9735 154.82 82.3215 154.208L82.3935 155H83.2935ZM82.3335 151.964C82.3335 152.72 82.1655 153.452 81.6615 153.896C81.4215 154.112 81.1215 154.292 80.6775 154.292C79.3215 154.292 78.9615 153.08 78.9615 151.964C78.9615 150.848 79.3215 149.636 80.6775 149.636C81.1215 149.636 81.4215 149.816 81.6615 150.032C82.1655 150.476 82.3335 151.208 82.3335 151.964ZM90.4183 151.688C90.4303 150.872 90.1423 150.092 89.6503 149.552C89.2063 149.072 88.5823 148.772 87.8023 148.772C86.7463 148.772 85.9423 149.312 85.5103 150.044C85.1743 150.608 85.0423 151.256 85.0423 151.988C85.0423 152.852 85.2943 153.656 85.7983 154.244C86.2663 154.796 86.9623 155.156 87.8143 155.156C88.3903 155.156 88.9303 154.988 89.3623 154.7C89.8543 154.364 90.2143 153.8 90.2983 153.2H89.3023C89.2183 153.524 89.1103 153.692 88.9423 153.86C88.6903 154.124 88.2943 154.256 87.8143 154.256C87.3463 154.256 86.9743 154.1 86.6983 153.824C86.3263 153.452 86.1103 152.852 86.1103 152.3H90.4062L90.4183 151.688ZM89.3743 151.424H86.1343C86.1583 150.536 86.6983 149.636 87.8023 149.636C88.3423 149.636 88.7503 149.852 89.0023 150.188C89.2423 150.512 89.3743 150.968 89.3743 151.424ZM97.5076 151.964C97.5076 150.956 97.2076 150.032 96.6316 149.444C96.2356 149.036 95.6596 148.784 94.9156 148.784C94.2316 148.784 93.4516 149.12 93.1036 149.732L93.0316 148.94H92.1316V157.604H93.1516V154.304C93.4756 154.856 94.2556 155.168 94.9156 155.168C95.6236 155.168 96.1876 154.928 96.5836 154.556C97.1956 153.968 97.5076 153.008 97.5076 151.964ZM96.4636 151.976C96.4636 153.092 96.1036 154.304 94.7476 154.304C94.3036 154.304 94.0036 154.124 93.7636 153.908C93.2596 153.464 93.0916 152.732 93.0916 151.976C93.0916 151.22 93.2596 150.488 93.7636 150.044C94.0036 149.828 94.3036 149.648 94.7476 149.648C96.1036 149.648 96.4636 150.86 96.4636 151.976ZM104.164 151.688C104.176 150.872 103.888 150.092 103.396 149.552C102.952 149.072 102.328 148.772 101.548 148.772C100.492 148.772 99.6883 149.312 99.2563 150.044C98.9203 150.608 98.7883 151.256 98.7883 151.988C98.7883 152.852 99.0403 153.656 99.5443 154.244C100.012 154.796 100.708 155.156 101.56 155.156C102.136 155.156 102.676 154.988 103.108 154.7C103.6 154.364 103.96 153.8 104.044 153.2H103.048C102.964 153.524 102.856 153.692 102.688 153.86C102.436 154.124 102.04 154.256 101.56 154.256C101.092 154.256 100.72 154.1 100.444 153.824C100.072 153.452 99.8563 152.852 99.8563 152.3H104.152L104.164 151.688ZM103.12 151.424H99.8803C99.9043 150.536 100.444 149.636 101.548 149.636C102.088 149.636 102.496 149.852 102.748 150.188C102.988 150.512 103.12 150.968 103.12 151.424ZM110.786 155V151.004C110.786 149.6 110.066 148.772 108.686 148.772C108.002 148.772 107.162 149.144 106.85 149.84L106.766 148.928H105.878V155H106.898V152.18C106.898 151.712 106.91 151.076 107.114 150.632C107.378 150.08 107.846 149.696 108.434 149.696C109.394 149.696 109.766 150.236 109.766 151.148V155H110.786ZM117.805 155V146.336H116.785V149.636C116.461 149.084 115.681 148.772 115.021 148.772C114.313 148.772 113.749 149.012 113.353 149.384C112.741 149.972 112.429 150.932 112.429 151.976C112.429 152.984 112.729 153.908 113.305 154.496C113.701 154.904 114.277 155.156 115.021 155.156C115.705 155.156 116.485 154.82 116.833 154.208L116.905 155H117.805ZM116.845 151.964C116.845 152.72 116.677 153.452 116.173 153.896C115.933 154.112 115.633 154.292 115.189 154.292C113.833 154.292 113.473 153.08 113.473 151.964C113.473 150.848 113.833 149.636 115.189 149.636C115.633 149.636 115.933 149.816 116.173 150.032C116.677 150.476 116.845 151.208 116.845 151.964ZM124.93 151.688C124.942 150.872 124.654 150.092 124.162 149.552C123.718 149.072 123.094 148.772 122.314 148.772C121.258 148.772 120.454 149.312 120.022 150.044C119.686 150.608 119.554 151.256 119.554 151.988C119.554 152.852 119.806 153.656 120.31 154.244C120.778 154.796 121.474 155.156 122.326 155.156C122.902 155.156 123.442 154.988 123.874 154.7C124.366 154.364 124.726 153.8 124.81 153.2H123.814C123.73 153.524 123.622 153.692 123.454 153.86C123.202 154.124 122.806 154.256 122.326 154.256C121.858 154.256 121.486 154.1 121.21 153.824C120.838 153.452 120.622 152.852 120.622 152.3H124.918L124.93 151.688ZM123.886 151.424H120.646C120.67 150.536 121.21 149.636 122.314 149.636C122.854 149.636 123.262 149.852 123.514 150.188C123.754 150.512 123.886 150.968 123.886 151.424ZM131.551 155V151.004C131.551 149.6 130.831 148.772 129.451 148.772C128.767 148.772 127.927 149.144 127.615 149.84L127.531 148.928H126.643V155H127.663V152.18C127.663 151.712 127.675 151.076 127.879 150.632C128.143 150.08 128.611 149.696 129.199 149.696C130.159 149.696 130.531 150.236 130.531 151.148V155H131.551ZM138.379 152.96H137.347C137.299 153.356 137.155 153.632 136.939 153.86C136.699 154.112 136.327 154.268 135.907 154.268C135.439 154.268 135.115 154.1 134.851 153.872C134.371 153.464 134.239 152.708 134.239 151.964C134.239 151.22 134.371 150.464 134.851 150.056C135.115 149.828 135.439 149.66 135.907 149.66C136.303 149.66 136.651 149.804 136.891 150.032C137.119 150.26 137.275 150.56 137.323 150.98H138.355C138.307 150.32 138.043 149.816 137.635 149.42C137.215 149.012 136.627 148.772 135.907 148.772C134.815 148.772 134.131 149.276 133.699 149.912C133.375 150.392 133.195 151.052 133.195 151.964C133.195 152.876 133.375 153.536 133.699 154.016C134.131 154.652 134.827 155.156 135.919 155.156C136.663 155.156 137.239 154.916 137.671 154.496C138.079 154.1 138.331 153.608 138.379 152.96ZM144.614 148.928H143.546L141.842 153.716L140.054 148.928H138.902L141.326 155L140.942 156.02C140.774 156.476 140.462 156.632 140.03 156.632C139.634 156.632 139.31 156.536 139.31 156.536V157.424C139.394 157.448 139.73 157.544 140.234 157.544C141.146 157.544 141.59 157.028 141.878 156.248L144.614 148.928Z" fill="black" fill-opacity="0.7"/>
<rect x="0.25" y="37.25" width="49.5" height="18.5" fill="#8D4B1C" fill-opacity="0.9" stroke="#B76124" stroke-width="0.5"/>
<rect x="0.25" y="63.25" width="49.5" height="18.5" fill="#B76124" fill-opacity="0.9" stroke="#B76124" stroke-width="0.5"/>
<rect x="0.25" y="89.25" width="49.5" height="18.5" fill="#D77A37" fill-opacity="0.9" stroke="#B76124" stroke-width="0.5"/>
<rect x="0.25" y="115.25" width="49.5" height="18.5" fill="#E09661" fill-opacity="0.9" stroke="#B76124" stroke-width="0.5"/>
<rect x="0.25" y="141.25" width="49.5" height="18.5" fill="#E8B28C" fill-opacity="0.9" stroke="#B76124" stroke-width="0.5"/>
<rect x="0.25" y="167.25" width="49.5" height="18.5" fill="#F1CFB7" fill-opacity="0.9" stroke="#B76124" stroke-width="0.5"/>
</svg>
