<svg width="400" height="387" viewBox="0 0 400 387" fill="none" xmlns="http://www.w3.org/2000/svg">
<g clip-path="url(#clip0)">
<rect width="400" height="387" fill="white"/>
<path d="M5.74121 373.968C5.74121 375.026 5.56055 375.812 5.19922 376.326C4.83789 376.84 4.27311 377.098 3.50488 377.098C2.74642 377.098 2.1849 376.847 1.82031 376.346C1.45573 375.841 1.26693 375.089 1.25391 374.09V372.884C1.25391 371.839 1.43457 371.062 1.7959 370.555C2.15723 370.047 2.72363 369.793 3.49512 369.793C4.26009 369.793 4.82324 370.039 5.18457 370.53C5.5459 371.019 5.73145 371.774 5.74121 372.796V373.968ZM4.83789 372.732C4.83789 371.967 4.73047 371.411 4.51562 371.062C4.30078 370.711 3.96061 370.535 3.49512 370.535C3.03288 370.535 2.69596 370.709 2.48438 371.058C2.27279 371.406 2.16374 371.941 2.15723 372.664V374.109C2.15723 374.878 2.2679 375.446 2.48926 375.813C2.71387 376.178 3.05241 376.36 3.50488 376.36C3.95085 376.36 4.28125 376.188 4.49609 375.843C4.71419 375.498 4.82812 374.954 4.83789 374.212V372.732Z" fill="#A3A3A3"/>
<path d="M78.9443 377H78.0361V370.979L76.2148 371.648V370.828L78.8027 369.856H78.9443V377ZM86.0488 373.968C86.0488 375.026 85.8682 375.812 85.5068 376.326C85.1455 376.84 84.5807 377.098 83.8125 377.098C83.054 377.098 82.4925 376.847 82.1279 376.346C81.7633 375.841 81.5745 375.089 81.5615 374.09V372.884C81.5615 371.839 81.7422 371.062 82.1035 370.555C82.4648 370.047 83.0312 369.793 83.8027 369.793C84.5677 369.793 85.1309 370.039 85.4922 370.53C85.8535 371.019 86.0391 371.774 86.0488 372.796V373.968ZM85.1455 372.732C85.1455 371.967 85.0381 371.411 84.8232 371.062C84.6084 370.711 84.2682 370.535 83.8027 370.535C83.3405 370.535 83.0036 370.709 82.792 371.058C82.5804 371.406 82.4714 371.941 82.4648 372.664V374.109C82.4648 374.878 82.5755 375.446 82.7969 375.813C83.0215 376.178 83.36 376.36 83.8125 376.36C84.2585 376.36 84.5889 376.188 84.8037 375.843C85.0218 375.498 85.1357 374.954 85.1455 374.212V372.732Z" fill="#A3A3A3"/>
<path d="M158.634 377H153.976V376.351L156.437 373.616C156.801 373.203 157.052 372.868 157.188 372.61C157.328 372.35 157.398 372.081 157.398 371.805C157.398 371.434 157.286 371.129 157.062 370.892C156.837 370.654 156.537 370.535 156.163 370.535C155.714 370.535 155.364 370.664 155.113 370.921C154.866 371.175 154.742 371.53 154.742 371.985H153.839C153.839 371.331 154.049 370.802 154.469 370.398C154.892 369.995 155.457 369.793 156.163 369.793C156.824 369.793 157.346 369.967 157.73 370.315C158.115 370.66 158.307 371.121 158.307 371.697C158.307 372.397 157.861 373.23 156.969 374.197L155.064 376.263H158.634V377ZM164.049 373.968C164.049 375.026 163.868 375.812 163.507 376.326C163.146 376.84 162.581 377.098 161.812 377.098C161.054 377.098 160.493 376.847 160.128 376.346C159.763 375.841 159.575 375.089 159.562 374.09V372.884C159.562 371.839 159.742 371.062 160.104 370.555C160.465 370.047 161.031 369.793 161.803 369.793C162.568 369.793 163.131 370.039 163.492 370.53C163.854 371.019 164.039 371.774 164.049 372.796V373.968ZM163.146 372.732C163.146 371.967 163.038 371.411 162.823 371.062C162.608 370.711 162.268 370.535 161.803 370.535C161.34 370.535 161.004 370.709 160.792 371.058C160.58 371.406 160.471 371.941 160.465 372.664V374.109C160.465 374.878 160.576 375.446 160.797 375.813C161.021 376.178 161.36 376.36 161.812 376.36C162.258 376.36 162.589 376.188 162.804 375.843C163.022 375.498 163.136 374.954 163.146 374.212V372.732Z" fill="#A3A3A3"/>
<path d="M232.289 373.006H232.968C233.394 372.999 233.729 372.887 233.974 372.669C234.218 372.451 234.34 372.156 234.34 371.785C234.34 370.952 233.925 370.535 233.095 370.535C232.704 370.535 232.392 370.647 232.157 370.872C231.926 371.093 231.811 371.388 231.811 371.756H230.907C230.907 371.193 231.112 370.726 231.522 370.354C231.936 369.98 232.46 369.793 233.095 369.793C233.765 369.793 234.291 369.97 234.672 370.325C235.053 370.68 235.243 371.173 235.243 371.805C235.243 372.114 235.142 372.413 234.94 372.703C234.742 372.993 234.47 373.209 234.125 373.353C234.516 373.476 234.817 373.681 235.028 373.968C235.243 374.254 235.351 374.604 235.351 375.018C235.351 375.656 235.142 376.162 234.726 376.536C234.309 376.91 233.767 377.098 233.1 377.098C232.432 377.098 231.889 376.917 231.469 376.556C231.052 376.194 230.844 375.717 230.844 375.125H231.752C231.752 375.499 231.874 375.799 232.118 376.023C232.362 376.248 232.689 376.36 233.1 376.36C233.536 376.36 233.869 376.246 234.101 376.019C234.332 375.791 234.447 375.464 234.447 375.037C234.447 374.624 234.32 374.306 234.066 374.085C233.812 373.864 233.446 373.75 232.968 373.743H232.289V373.006ZM241.049 373.968C241.049 375.026 240.868 375.812 240.507 376.326C240.146 376.84 239.581 377.098 238.812 377.098C238.054 377.098 237.493 376.847 237.128 376.346C236.763 375.841 236.575 375.089 236.562 374.09V372.884C236.562 371.839 236.742 371.062 237.104 370.555C237.465 370.047 238.031 369.793 238.803 369.793C239.568 369.793 240.131 370.039 240.492 370.53C240.854 371.019 241.039 371.774 241.049 372.796V373.968ZM240.146 372.732C240.146 371.967 240.038 371.411 239.823 371.062C239.608 370.711 239.268 370.535 238.803 370.535C238.34 370.535 238.004 370.709 237.792 371.058C237.58 371.406 237.471 371.941 237.465 372.664V374.109C237.465 374.878 237.576 375.446 237.797 375.813C238.021 376.178 238.36 376.36 238.812 376.36C239.258 376.36 239.589 376.188 239.804 375.843C240.022 375.498 240.136 374.954 240.146 374.212V372.732Z" fill="#A3A3A3"/>
<path d="M313.789 374.612H314.775V375.35H313.789V377H312.881V375.35H309.644V374.817L312.827 369.891H313.789V374.612ZM310.669 374.612H312.881V371.126L312.773 371.321L310.669 374.612ZM320.049 373.968C320.049 375.026 319.868 375.812 319.507 376.326C319.146 376.84 318.581 377.098 317.812 377.098C317.054 377.098 316.493 376.847 316.128 376.346C315.763 375.841 315.575 375.089 315.562 374.09V372.884C315.562 371.839 315.742 371.062 316.104 370.555C316.465 370.047 317.031 369.793 317.803 369.793C318.568 369.793 319.131 370.039 319.492 370.53C319.854 371.019 320.039 371.774 320.049 372.796V373.968ZM319.146 372.732C319.146 371.967 319.038 371.411 318.823 371.062C318.608 370.711 318.268 370.535 317.803 370.535C317.34 370.535 317.004 370.709 316.792 371.058C316.58 371.406 316.471 371.941 316.465 372.664V374.109C316.465 374.878 316.576 375.446 316.797 375.813C317.021 376.178 317.36 376.36 317.812 376.36C318.258 376.36 318.589 376.188 318.804 375.843C319.022 375.498 319.136 374.954 319.146 374.212V372.732Z" fill="#A3A3A3"/>
<path d="M388.391 373.436L388.752 369.891H392.395V370.726H389.519L389.304 372.664C389.652 372.459 390.048 372.356 390.49 372.356C391.138 372.356 391.652 372.571 392.033 373.001C392.414 373.427 392.604 374.005 392.604 374.734C392.604 375.467 392.406 376.045 392.009 376.468C391.615 376.888 391.063 377.098 390.354 377.098C389.725 377.098 389.213 376.924 388.815 376.575C388.418 376.227 388.192 375.745 388.137 375.13H388.991C389.047 375.537 389.191 375.844 389.426 376.053C389.66 376.258 389.969 376.36 390.354 376.36C390.773 376.36 391.102 376.217 391.34 375.931C391.581 375.644 391.701 375.249 391.701 374.744C391.701 374.269 391.571 373.888 391.311 373.602C391.053 373.312 390.71 373.167 390.28 373.167C389.886 373.167 389.577 373.253 389.353 373.426L389.113 373.621L388.391 373.436ZM398.049 373.968C398.049 375.026 397.868 375.812 397.507 376.326C397.146 376.84 396.581 377.098 395.812 377.098C395.054 377.098 394.493 376.847 394.128 376.346C393.763 375.841 393.575 375.089 393.562 374.09V372.884C393.562 371.839 393.742 371.062 394.104 370.555C394.465 370.047 395.031 369.793 395.803 369.793C396.568 369.793 397.131 370.039 397.492 370.53C397.854 371.019 398.039 371.774 398.049 372.796V373.968ZM397.146 372.732C397.146 371.967 397.038 371.411 396.823 371.062C396.608 370.711 396.268 370.535 395.803 370.535C395.34 370.535 395.004 370.709 394.792 371.058C394.58 371.406 394.471 371.941 394.465 372.664V374.109C394.465 374.878 394.576 375.446 394.797 375.813C395.021 376.178 395.36 376.36 395.812 376.36C396.258 376.36 396.589 376.188 396.804 375.843C397.022 375.498 397.136 374.954 397.146 374.212V372.732Z" fill="#A3A3A3"/>
<path d="M3 359V361" stroke="#F0F0F0"/>
<path d="M81 359V361" stroke="#F0F0F0"/>
<path d="M159 359V361" stroke="#F0F0F0"/>
<path d="M236 359V361" stroke="#F0F0F0"/>
<path d="M315 359V361" stroke="#F0F0F0"/>
<path d="M393 359V361" stroke="#F0F0F0"/>
<path d="M56 0H394" stroke="#F0F0F0"/>
<path d="M2 359L393 359" stroke="#F0F0F0"/>
<path d="M10.128 133.288H9.024C9.012 133.756 8.832 134.2 8.556 134.512C8.22 134.884 7.656 135.16 7.008 135.16C6.432 135.16 5.868 134.932 5.46 134.512C4.764 133.792 4.74 132.64 4.74 131.752C4.74 130.864 4.764 129.712 5.46 128.992C5.868 128.572 6.432 128.344 7.008 128.344C7.656 128.344 8.208 128.596 8.544 128.968C8.82 129.28 9 129.688 9.012 130.156H10.116C10.08 129.364 9.768 128.716 9.276 128.212C8.76 127.696 7.932 127.336 7.008 127.336C6.156 127.336 5.316 127.648 4.704 128.248C3.78 129.148 3.636 130.396 3.636 131.752C3.636 133.108 3.78 134.356 4.704 135.256C5.316 135.856 6.156 136.168 7.008 136.168C7.932 136.168 8.772 135.772 9.288 135.256C9.78 134.752 10.092 134.08 10.128 133.288ZM16.8095 135.94V135.184C16.8095 135.184 16.6535 135.22 16.5455 135.22C16.3415 135.22 16.2095 135.136 16.2095 134.812V131.872C16.2095 131.524 16.1495 131.212 16.0295 130.936C15.7415 130.276 15.0695 129.772 13.8935 129.772C13.1495 129.772 12.4295 129.988 12.0215 130.42C11.7095 130.744 11.5055 131.14 11.4935 131.692H12.4895C12.4895 131.392 12.5975 131.152 12.7895 130.96C12.9935 130.756 13.3415 130.6 13.8935 130.6C14.3855 130.6 14.6855 130.72 14.8895 130.912C15.1655 131.164 15.2015 131.536 15.2015 131.836V132.28L13.3535 132.388C11.6975 132.484 11.1935 133.504 11.1935 134.284C11.1935 135.22 11.8895 136.156 13.2815 136.156C14.1335 136.156 14.8895 135.772 15.2375 135.16H15.2615C15.2615 135.676 15.5975 136.084 16.1375 136.084C16.3895 136.084 16.5935 136.048 16.8095 135.94ZM15.2015 133.432C15.2015 133.936 15.0455 134.44 14.6855 134.812C14.3615 135.148 13.9055 135.304 13.4375 135.304C12.5735 135.304 12.2375 134.8 12.2375 134.26C12.2375 133.492 12.9575 133.204 13.5695 133.168L15.2015 133.072V133.432ZM26.8246 136V132.004C26.8246 130.66 26.1766 129.772 24.7966 129.772C24.0286 129.772 23.2486 130.168 22.9246 130.924C22.6606 130.18 22.0126 129.772 21.1126 129.772C20.4286 129.772 19.7326 130.108 19.4086 130.792L19.3126 129.928H18.4246V136H19.4446V132.772C19.4446 132.268 19.5526 131.62 19.8526 131.236C20.1046 130.912 20.4526 130.696 20.8846 130.696C21.8566 130.696 22.1086 131.284 22.1086 132.136V136H23.1286V132.772C23.1286 132.136 23.2366 131.524 23.6446 131.104C23.8846 130.852 24.1846 130.696 24.5686 130.696C25.5286 130.696 25.8046 131.284 25.8046 132.136V136H26.8246ZM34.3358 132.976C34.3358 131.932 34.0238 130.972 33.4118 130.384C33.0158 130.012 32.4518 129.772 31.7438 129.772C31.0838 129.772 30.3038 130.084 29.9798 130.636V127.336H28.9598V136H29.8598L29.9318 135.208C30.2798 135.82 31.0598 136.156 31.7438 136.156C32.4878 136.156 33.0638 135.904 33.4598 135.496C34.0358 134.908 34.3358 133.984 34.3358 132.976ZM33.2918 132.964C33.2918 134.08 32.9318 135.292 31.5758 135.292C31.1318 135.292 30.8318 135.112 30.5918 134.896C30.0878 134.452 29.9198 133.72 29.9198 132.964C29.9198 132.208 30.0878 131.476 30.5918 131.032C30.8318 130.816 31.1318 130.636 31.5758 130.636C32.9318 130.636 33.2918 131.848 33.2918 132.964ZM41.0285 132.964C41.0285 132.004 40.8245 131.128 40.1645 130.48C39.7205 130.048 39.0965 129.772 38.3285 129.772C37.5605 129.772 36.9365 130.048 36.4925 130.48C35.8325 131.128 35.6285 132.004 35.6285 132.964C35.6285 133.924 35.8325 134.8 36.4925 135.448C36.9365 135.88 37.5605 136.156 38.3285 136.156C39.0965 136.156 39.7205 135.88 40.1645 135.448C40.8245 134.8 41.0285 133.924 41.0285 132.964ZM39.9845 132.964C39.9845 133.672 39.8525 134.404 39.4205 134.848C39.1685 135.1 38.8085 135.28 38.3285 135.28C37.8485 135.28 37.4885 135.1 37.2365 134.848C36.8045 134.404 36.6725 133.672 36.6725 132.964C36.6725 132.256 36.8045 131.524 37.2365 131.08C37.4885 130.828 37.8485 130.648 38.3285 130.648C38.8085 130.648 39.1685 130.828 39.4205 131.08C39.8525 131.524 39.9845 132.256 39.9845 132.964ZM47.6959 136V127.336H46.6759V130.636C46.3519 130.084 45.5719 129.772 44.9119 129.772C44.2039 129.772 43.6399 130.012 43.2439 130.384C42.6319 130.972 42.3199 131.932 42.3199 132.976C42.3199 133.984 42.6199 134.908 43.1959 135.496C43.5919 135.904 44.1679 136.156 44.9119 136.156C45.5959 136.156 46.3759 135.82 46.7239 135.208L46.7959 136H47.6959ZM46.7359 132.964C46.7359 133.72 46.5679 134.452 46.0639 134.896C45.8239 135.112 45.5239 135.292 45.0799 135.292C43.7239 135.292 43.3639 134.08 43.3639 132.964C43.3639 131.848 43.7239 130.636 45.0799 130.636C45.5239 130.636 45.8239 130.816 46.0639 131.032C46.5679 131.476 46.7359 132.208 46.7359 132.964ZM51.0406 128.536V127.336H49.8526V128.536H51.0406ZM50.9686 136V129.928H49.9246V136H50.9686ZM58.2938 135.94V135.184C58.2938 135.184 58.1378 135.22 58.0298 135.22C57.8258 135.22 57.6938 135.136 57.6938 134.812V131.872C57.6938 131.524 57.6338 131.212 57.5138 130.936C57.2258 130.276 56.5538 129.772 55.3778 129.772C54.6338 129.772 53.9138 129.988 53.5058 130.42C53.1938 130.744 52.9898 131.14 52.9778 131.692H53.9738C53.9738 131.392 54.0818 131.152 54.2738 130.96C54.4778 130.756 54.8258 130.6 55.3778 130.6C55.8698 130.6 56.1698 130.72 56.3738 130.912C56.6498 131.164 56.6858 131.536 56.6858 131.836V132.28L54.8378 132.388C53.1818 132.484 52.6778 133.504 52.6778 134.284C52.6778 135.22 53.3738 136.156 54.7658 136.156C55.6178 136.156 56.3738 135.772 56.7218 135.16H56.7458C56.7458 135.676 57.0818 136.084 57.6218 136.084C57.8738 136.084 58.0778 136.048 58.2938 135.94ZM56.6858 133.432C56.6858 133.936 56.5298 134.44 56.1698 134.812C55.8458 135.148 55.3898 135.304 54.9218 135.304C54.0578 135.304 53.7218 134.8 53.7218 134.26C53.7218 133.492 54.4418 133.204 55.0538 133.168L56.6858 133.072V133.432Z" fill="black" fill-opacity="0.7"/>
<path d="M3 163V143H335V163H3Z" fill="#FF7A58"/>
<path d="M9.36 183V182.004H5.268V174.492H4.2V183H9.36ZM15.7313 182.94V182.184C15.7313 182.184 15.5753 182.22 15.4673 182.22C15.2633 182.22 15.1313 182.136 15.1313 181.812V178.872C15.1313 178.524 15.0713 178.212 14.9513 177.936C14.6633 177.276 13.9913 176.772 12.8153 176.772C12.0713 176.772 11.3513 176.988 10.9433 177.42C10.6313 177.744 10.4273 178.14 10.4153 178.692H11.4113C11.4113 178.392 11.5193 178.152 11.7113 177.96C11.9153 177.756 12.2633 177.6 12.8153 177.6C13.3073 177.6 13.6073 177.72 13.8113 177.912C14.0873 178.164 14.1233 178.536 14.1233 178.836V179.28L12.2753 179.388C10.6193 179.484 10.1153 180.504 10.1153 181.284C10.1153 182.22 10.8113 183.156 12.2033 183.156C13.0553 183.156 13.8113 182.772 14.1593 182.16H14.1833C14.1833 182.676 14.5193 183.084 15.0593 183.084C15.3113 183.084 15.5153 183.048 15.7313 182.94ZM14.1233 180.432C14.1233 180.936 13.9673 181.44 13.6073 181.812C13.2833 182.148 12.8273 182.304 12.3593 182.304C11.4953 182.304 11.1593 181.8 11.1593 181.26C11.1593 180.492 11.8793 180.204 12.4913 180.168L14.1233 180.072V180.432ZM22.2199 179.964C22.2199 179.004 22.0159 178.128 21.3559 177.48C20.9119 177.048 20.2879 176.772 19.5199 176.772C18.7519 176.772 18.1279 177.048 17.6839 177.48C17.0239 178.128 16.8199 179.004 16.8199 179.964C16.8199 180.924 17.0239 181.8 17.6839 182.448C18.1279 182.88 18.7519 183.156 19.5199 183.156C20.2879 183.156 20.9119 182.88 21.3559 182.448C22.0159 181.8 22.2199 180.924 22.2199 179.964ZM21.1759 179.964C21.1759 180.672 21.0439 181.404 20.6119 181.848C20.3599 182.1 19.9999 182.28 19.5199 182.28C19.0399 182.28 18.6799 182.1 18.4279 181.848C17.9959 181.404 17.8639 180.672 17.8639 179.964C17.8639 179.256 17.9959 178.524 18.4279 178.08C18.6799 177.828 19.0399 177.648 19.5199 177.648C19.9999 177.648 20.3599 177.828 20.6119 178.08C21.0439 178.524 21.1759 179.256 21.1759 179.964ZM28.4793 181.236C28.4793 180.324 27.7953 179.7 26.9313 179.556C26.2833 179.448 25.8033 179.4 25.4673 179.352C24.9633 179.28 24.6513 179.064 24.6513 178.56C24.6513 178.224 24.8793 177.9 25.2633 177.744C25.5513 177.624 25.7313 177.624 25.9713 177.624C26.3793 177.624 26.7153 177.72 26.9673 177.948C27.1473 178.104 27.3033 178.392 27.3153 178.704H28.3353C28.3353 178.212 28.1673 177.864 27.9033 177.54C27.4953 177.024 26.7753 176.772 25.9713 176.772C25.2153 176.772 24.5793 177.036 24.1833 177.444C23.9073 177.72 23.6793 178.164 23.6793 178.632C23.6793 179.556 24.2553 180.12 25.1673 180.264L26.5353 180.444C27.1593 180.528 27.4833 180.852 27.4833 181.308C27.4833 181.584 27.3513 181.836 27.1833 181.968C26.8713 182.232 26.4873 182.304 26.0673 182.304C25.6833 182.304 25.2513 182.232 24.9753 182.028C24.6873 181.812 24.4953 181.5 24.4833 181.08H23.4633C23.4633 181.596 23.6793 182.112 24.0513 182.472C24.5673 182.976 25.2633 183.156 26.0193 183.156C26.8113 183.156 27.5313 182.952 27.9993 182.472C28.2873 182.172 28.4793 181.764 28.4793 181.236Z" fill="black" fill-opacity="0.7"/>
<path d="M3 210V190H199V210H3Z" fill="#FF7A58"/>
<path d="M12.36 230V221.492H10.86L8.304 228.416L5.736 221.492H4.2V230H5.22V222.764L7.86 229.88H8.7L11.34 222.824V230H12.36ZM19.4146 223.928H18.3466L16.6426 228.716L14.8546 223.928H13.7026L16.1266 230L15.7426 231.02C15.5746 231.476 15.2626 231.632 14.8306 231.632C14.4346 231.632 14.1106 231.536 14.1106 231.536V232.424C14.1946 232.448 14.5306 232.544 15.0346 232.544C15.9466 232.544 16.3906 232.028 16.6786 231.248L19.4146 223.928ZM25.5634 229.94V229.184C25.5634 229.184 25.4074 229.22 25.2994 229.22C25.0954 229.22 24.9634 229.136 24.9634 228.812V225.872C24.9634 225.524 24.9034 225.212 24.7834 224.936C24.4954 224.276 23.8234 223.772 22.6474 223.772C21.9034 223.772 21.1834 223.988 20.7754 224.42C20.4634 224.744 20.2594 225.14 20.2474 225.692H21.2434C21.2434 225.392 21.3514 225.152 21.5434 224.96C21.7474 224.756 22.0954 224.6 22.6474 224.6C23.1394 224.6 23.4394 224.72 23.6434 224.912C23.9194 225.164 23.9554 225.536 23.9554 225.836V226.28L22.1074 226.388C20.4514 226.484 19.9474 227.504 19.9474 228.284C19.9474 229.22 20.6434 230.156 22.0354 230.156C22.8874 230.156 23.6434 229.772 23.9914 229.16H24.0154C24.0154 229.676 24.3514 230.084 24.8914 230.084C25.1434 230.084 25.3474 230.048 25.5634 229.94ZM23.9554 227.432C23.9554 227.936 23.7994 228.44 23.4394 228.812C23.1154 229.148 22.6594 229.304 22.1914 229.304C21.3274 229.304 20.9914 228.8 20.9914 228.26C20.9914 227.492 21.7114 227.204 22.3234 227.168L23.9554 227.072V227.432ZM32.0865 230V226.004C32.0865 224.6 31.3665 223.772 29.9865 223.772C29.3025 223.772 28.4625 224.144 28.1505 224.84L28.0665 223.928H27.1785V230H28.1985V227.18C28.1985 226.712 28.2105 226.076 28.4145 225.632C28.6785 225.08 29.1465 224.696 29.7345 224.696C30.6945 224.696 31.0665 225.236 31.0665 226.148V230H32.0865ZM42.598 230V226.004C42.598 224.66 41.95 223.772 40.57 223.772C39.802 223.772 39.022 224.168 38.698 224.924C38.434 224.18 37.786 223.772 36.886 223.772C36.202 223.772 35.506 224.108 35.182 224.792L35.086 223.928H34.198V230H35.218V226.772C35.218 226.268 35.326 225.62 35.626 225.236C35.878 224.912 36.226 224.696 36.658 224.696C37.63 224.696 37.882 225.284 37.882 226.136V230H38.902V226.772C38.902 226.136 39.01 225.524 39.418 225.104C39.658 224.852 39.958 224.696 40.342 224.696C41.302 224.696 41.578 225.284 41.578 226.136V230H42.598ZM49.8212 229.94V229.184C49.8212 229.184 49.6652 229.22 49.5572 229.22C49.3532 229.22 49.2212 229.136 49.2212 228.812V225.872C49.2212 225.524 49.1612 225.212 49.0412 224.936C48.7532 224.276 48.0812 223.772 46.9052 223.772C46.1612 223.772 45.4412 223.988 45.0332 224.42C44.7212 224.744 44.5172 225.14 44.5052 225.692H45.5012C45.5012 225.392 45.6092 225.152 45.8012 224.96C46.0052 224.756 46.3532 224.6 46.9052 224.6C47.3972 224.6 47.6972 224.72 47.9012 224.912C48.1772 225.164 48.2132 225.536 48.2132 225.836V226.28L46.3652 226.388C44.7092 226.484 44.2052 227.504 44.2052 228.284C44.2052 229.22 44.9012 230.156 46.2932 230.156C47.1452 230.156 47.9012 229.772 48.2492 229.16H48.2732C48.2732 229.676 48.6092 230.084 49.1492 230.084C49.4012 230.084 49.6052 230.048 49.8212 229.94ZM48.2132 227.432C48.2132 227.936 48.0572 228.44 47.6972 228.812C47.3732 229.148 46.9172 229.304 46.4492 229.304C45.5852 229.304 45.2492 228.8 45.2492 228.26C45.2492 227.492 45.9692 227.204 46.5812 227.168L48.2132 227.072V227.432ZM54.7123 224.924V223.928C54.5563 223.904 54.3883 223.892 54.2323 223.892C53.4643 223.892 52.7323 224.252 52.4203 224.996L52.3363 223.928H51.4363V230H52.4443V227.3C52.4443 226.664 52.5043 225.824 52.9963 225.356C53.2723 225.092 53.6683 224.876 54.1483 224.876C54.3283 224.876 54.5323 224.888 54.7123 224.924Z" fill="black" fill-opacity="0.7"/>
<path d="M3 257V237H371V257H3Z" fill="#FF7A58"/>
<path d="M9.3 269.488V268.492H3.156V269.488H5.688V277H6.768V269.488H9.3ZM15.481 277V273.004C15.481 271.6 14.749 270.772 13.369 270.772C12.685 270.772 11.953 271.108 11.593 271.732V268.336H10.573V277H11.593V274.18C11.593 273.712 11.605 273.076 11.809 272.632C12.073 272.08 12.541 271.696 13.129 271.696C14.089 271.696 14.461 272.236 14.461 273.148V277H15.481ZM22.704 276.94V276.184C22.704 276.184 22.548 276.22 22.44 276.22C22.236 276.22 22.104 276.136 22.104 275.812V272.872C22.104 272.524 22.044 272.212 21.924 271.936C21.636 271.276 20.964 270.772 19.788 270.772C19.044 270.772 18.324 270.988 17.916 271.42C17.604 271.744 17.4 272.14 17.388 272.692H18.384C18.384 272.392 18.492 272.152 18.684 271.96C18.888 271.756 19.236 271.6 19.788 271.6C20.28 271.6 20.58 271.72 20.784 271.912C21.06 272.164 21.096 272.536 21.096 272.836V273.28L19.248 273.388C17.592 273.484 17.088 274.504 17.088 275.284C17.088 276.22 17.784 277.156 19.176 277.156C20.028 277.156 20.784 276.772 21.132 276.16H21.156C21.156 276.676 21.492 277.084 22.032 277.084C22.284 277.084 22.488 277.048 22.704 276.94ZM21.096 274.432C21.096 274.936 20.94 275.44 20.58 275.812C20.256 276.148 19.8 276.304 19.332 276.304C18.468 276.304 18.132 275.8 18.132 275.26C18.132 274.492 18.852 274.204 19.464 274.168L21.096 274.072V274.432ZM25.4351 269.536V268.336H24.2471V269.536H25.4351ZM25.3631 277V270.928H24.3191V277H25.3631ZM29.5564 277V276.136C29.5564 276.136 29.4724 276.148 29.1364 276.148C28.7164 276.148 28.5844 275.932 28.5844 275.524V268.336H27.5644V275.584C27.5644 276.544 27.9484 277.072 28.8364 277.072C29.3284 277.072 29.5564 277 29.5564 277ZM36.1806 276.94V276.184C36.1806 276.184 36.0246 276.22 35.9166 276.22C35.7126 276.22 35.5806 276.136 35.5806 275.812V272.872C35.5806 272.524 35.5206 272.212 35.4006 271.936C35.1126 271.276 34.4406 270.772 33.2646 270.772C32.5206 270.772 31.8006 270.988 31.3926 271.42C31.0806 271.744 30.8766 272.14 30.8646 272.692H31.8606C31.8606 272.392 31.9686 272.152 32.1606 271.96C32.3646 271.756 32.7126 271.6 33.2646 271.6C33.7566 271.6 34.0566 271.72 34.2606 271.912C34.5366 272.164 34.5726 272.536 34.5726 272.836V273.28L32.7246 273.388C31.0686 273.484 30.5646 274.504 30.5646 275.284C30.5646 276.22 31.2606 277.156 32.6526 277.156C33.5046 277.156 34.2606 276.772 34.6086 276.16H34.6326C34.6326 276.676 34.9686 277.084 35.5086 277.084C35.7606 277.084 35.9646 277.048 36.1806 276.94ZM34.5726 274.432C34.5726 274.936 34.4166 275.44 34.0566 275.812C33.7326 276.148 33.2766 276.304 32.8086 276.304C31.9446 276.304 31.6086 275.8 31.6086 275.26C31.6086 274.492 32.3286 274.204 32.9406 274.168L34.5726 274.072V274.432ZM42.7037 277V273.004C42.7037 271.6 41.9837 270.772 40.6037 270.772C39.9197 270.772 39.0797 271.144 38.7677 271.84L38.6837 270.928H37.7957V277H38.8157V274.18C38.8157 273.712 38.8277 273.076 39.0317 272.632C39.2957 272.08 39.7637 271.696 40.3517 271.696C41.3117 271.696 41.6837 272.236 41.6837 273.148V277H42.7037ZM49.7232 277V268.336H48.7032V271.636C48.3792 271.084 47.5992 270.772 46.9392 270.772C46.2312 270.772 45.6672 271.012 45.2712 271.384C44.6592 271.972 44.3472 272.932 44.3472 273.976C44.3472 274.984 44.6472 275.908 45.2232 276.496C45.6192 276.904 46.1952 277.156 46.9392 277.156C47.6232 277.156 48.4032 276.82 48.7512 276.208L48.8232 277H49.7232ZM48.7632 273.964C48.7632 274.72 48.5952 275.452 48.0912 275.896C47.8512 276.112 47.5512 276.292 47.1072 276.292C45.7512 276.292 45.3912 275.08 45.3912 273.964C45.3912 272.848 45.7512 271.636 47.1072 271.636C47.5512 271.636 47.8512 271.816 48.0912 272.032C48.5952 272.476 48.7632 273.208 48.7632 273.964Z" fill="black" fill-opacity="0.7"/>
<path d="M3 304V284H231V304H3Z" fill="#FF7A58"/>
<path d="M9.9 315.492H8.808L6.504 322.68L4.152 315.492H3.048L5.916 324H7.032L9.9 315.492ZM12.1812 316.536V315.336H10.9932V316.536H12.1812ZM12.1092 324V317.928H11.0652V324H12.1092ZM19.2425 320.688C19.2545 319.872 18.9665 319.092 18.4745 318.552C18.0305 318.072 17.4065 317.772 16.6265 317.772C15.5705 317.772 14.7665 318.312 14.3345 319.044C13.9985 319.608 13.8665 320.256 13.8665 320.988C13.8665 321.852 14.1185 322.656 14.6225 323.244C15.0905 323.796 15.7865 324.156 16.6385 324.156C17.2145 324.156 17.7545 323.988 18.1865 323.7C18.6785 323.364 19.0385 322.8 19.1225 322.2H18.1265C18.0425 322.524 17.9345 322.692 17.7665 322.86C17.5145 323.124 17.1185 323.256 16.6385 323.256C16.1705 323.256 15.7985 323.1 15.5225 322.824C15.1505 322.452 14.9345 321.852 14.9345 321.3H19.2305L19.2425 320.688ZM18.1985 320.424H14.9585C14.9825 319.536 15.5225 318.636 16.6265 318.636C17.1665 318.636 17.5745 318.852 17.8265 319.188C18.0665 319.512 18.1985 319.968 18.1985 320.424ZM24.0413 323.916V323.04C24.0413 323.04 23.4293 323.148 22.9973 323.148C22.4333 323.148 22.1813 322.908 22.1813 322.32V318.804H23.9813V317.928H22.1813V316.14L21.1613 316.38V317.928H19.9853V318.804H21.1613V322.44C21.1613 323.256 21.5213 324.084 22.8293 324.084C23.3933 324.084 23.7653 323.988 24.0413 323.916ZM30.4224 324V320.004C30.4224 318.6 29.7024 317.772 28.3224 317.772C27.6384 317.772 26.7984 318.144 26.4864 318.84L26.4024 317.928H25.5144V324H26.5344V321.18C26.5344 320.712 26.5464 320.076 26.7504 319.632C27.0144 319.08 27.4824 318.696 28.0704 318.696C29.0304 318.696 29.4024 319.236 29.4024 320.148V324H30.4224ZM37.622 323.94V323.184C37.622 323.184 37.466 323.22 37.358 323.22C37.154 323.22 37.022 323.136 37.022 322.812V319.872C37.022 319.524 36.962 319.212 36.842 318.936C36.554 318.276 35.882 317.772 34.706 317.772C33.962 317.772 33.242 317.988 32.834 318.42C32.522 318.744 32.318 319.14 32.306 319.692H33.302C33.302 319.392 33.41 319.152 33.602 318.96C33.806 318.756 34.154 318.6 34.706 318.6C35.198 318.6 35.498 318.72 35.702 318.912C35.978 319.164 36.014 319.536 36.014 319.836V320.28L34.166 320.388C32.51 320.484 32.006 321.504 32.006 322.284C32.006 323.22 32.702 324.156 34.094 324.156C34.946 324.156 35.702 323.772 36.05 323.16H36.074C36.074 323.676 36.41 324.084 36.95 324.084C37.202 324.084 37.406 324.048 37.622 323.94ZM36.014 321.432C36.014 321.936 35.858 322.44 35.498 322.812C35.174 323.148 34.718 323.304 34.25 323.304C33.386 323.304 33.05 322.8 33.05 322.26C33.05 321.492 33.77 321.204 34.382 321.168L36.014 321.072V321.432ZM47.6371 324V320.004C47.6371 318.66 46.9891 317.772 45.6091 317.772C44.8411 317.772 44.0611 318.168 43.7371 318.924C43.4731 318.18 42.8251 317.772 41.9251 317.772C41.2411 317.772 40.5451 318.108 40.2211 318.792L40.1251 317.928H39.2371V324H40.2571V320.772C40.2571 320.268 40.3651 319.62 40.6651 319.236C40.9171 318.912 41.2651 318.696 41.6971 318.696C42.6691 318.696 42.9211 319.284 42.9211 320.136V324H43.9411V320.772C43.9411 320.136 44.0491 319.524 44.4571 319.104C44.6971 318.852 44.9971 318.696 45.3811 318.696C46.3411 318.696 46.6171 319.284 46.6171 320.136V324H47.6371Z" fill="black" fill-opacity="0.7"/>
<path d="M3 351V331H296V351H3Z" fill="#FF7A58"/>
<path d="M10.314 15.344V13.238H1.494V26H3.816V20.87H9.612V18.764H3.816V15.344H10.314ZM14.362 15.344V13.022H11.95V15.344H14.362ZM14.308 26V16.64H12.022V26H14.308ZM24.4084 23.102C24.4084 21.626 23.3284 20.69 21.8524 20.456C20.9344 20.312 20.7004 20.294 19.8544 20.186C19.3504 20.114 18.7744 19.916 18.7744 19.25C18.7744 18.764 19.0984 18.422 19.4944 18.26C19.8364 18.116 20.1424 18.116 20.4664 18.116C20.9344 18.116 21.4204 18.278 21.6904 18.548C21.9064 18.782 22.0684 19.07 22.0684 19.43H24.2104C24.2104 18.746 23.8864 18.044 23.3824 17.504C22.6984 16.766 21.5644 16.406 20.4484 16.406C19.2784 16.406 18.2884 16.748 17.6044 17.342C17.0464 17.828 16.6504 18.494 16.6504 19.448C16.6504 20.636 17.5144 21.68 18.7924 21.95C19.6204 22.13 20.5564 22.184 21.3844 22.31C21.9604 22.4 22.3204 22.76 22.3204 23.3C22.3204 24.326 21.1684 24.488 20.4124 24.488C19.7644 24.488 19.3504 24.362 18.9904 24.074C18.7024 23.84 18.4864 23.39 18.4864 22.976H16.3804C16.3804 23.858 16.8304 24.632 17.3704 25.154C18.1444 25.892 19.2064 26.234 20.3944 26.234C21.6724 26.234 22.8424 25.91 23.5984 25.154C24.0844 24.668 24.4084 24.002 24.4084 23.102ZM34.4971 26V19.754C34.4971 17.828 33.3271 16.406 31.3291 16.406C30.3571 16.406 29.3131 16.838 28.7731 17.63V13.004H26.5231V26H28.7731V21.068C28.7731 19.916 29.3491 18.476 30.6991 18.476C31.8871 18.476 32.2471 19.142 32.2471 20.222V26H34.4971ZM49.0736 25.892V24.236C49.0736 24.236 48.9296 24.272 48.7856 24.272C48.4076 24.272 48.2636 24.11 48.2636 23.678V20.204C48.2636 19.574 48.2276 18.908 47.9936 18.314C47.4536 16.91 46.0856 16.406 44.4836 16.406C42.3956 16.406 40.7216 17.342 40.5956 19.448H42.7736C42.8276 18.584 43.4396 18.116 44.4836 18.116C45.7616 18.116 46.0676 18.71 46.0676 19.592V20.168L43.3136 20.366C41.5316 20.492 40.1456 21.518 40.1456 23.3C40.1456 24.83 41.2976 26.234 43.5296 26.234C44.8616 26.234 45.9416 25.586 46.3736 24.83C46.4456 25.532 46.9856 26.144 47.9576 26.144C48.4976 26.144 48.6956 26.054 49.0736 25.892ZM46.0676 22.274C46.0676 23.66 45.0776 24.416 43.6736 24.416C42.9716 24.416 42.3416 23.966 42.3416 23.246C42.3416 22.49 43.0076 22.076 43.6916 22.022L46.0676 21.842V22.274ZM59.001 26V19.754C59.001 17.81 57.831 16.406 55.833 16.406C54.753 16.406 53.637 16.856 53.079 17.846L52.917 16.64H51.027V26H53.277V22.184C53.277 21.392 53.259 20.42 53.583 19.682C53.889 18.998 54.411 18.494 55.203 18.494C56.391 18.494 56.751 19.16 56.751 20.258V26H59.001ZM69.6718 26V13.004H67.4218V17.288C67.0258 16.802 66.1618 16.406 64.9738 16.406C64.0198 16.406 63.2638 16.694 62.6878 17.162C61.5718 18.08 61.0138 19.502 61.0138 21.338C61.0138 23.102 61.5538 24.506 62.6698 25.424C63.2458 25.892 64.0198 26.216 64.9558 26.216C65.9818 26.216 67.0258 25.838 67.5838 24.974L67.7278 26H69.6718ZM67.5298 21.302C67.5298 22.652 67.1698 24.326 65.4058 24.326C64.7038 24.326 64.2178 24.002 63.8938 23.588C63.4258 22.976 63.2998 22.112 63.2998 21.302C63.2998 20.492 63.4258 19.646 63.8938 19.034C64.2178 18.62 64.7038 18.296 65.4058 18.296C67.1698 18.296 67.5298 19.952 67.5298 21.302ZM83.5061 23.102C83.5061 21.626 82.4261 20.69 80.9501 20.456C80.0321 20.312 79.7981 20.294 78.9521 20.186C78.4481 20.114 77.8721 19.916 77.8721 19.25C77.8721 18.764 78.1961 18.422 78.5921 18.26C78.9341 18.116 79.2401 18.116 79.5641 18.116C80.0321 18.116 80.5181 18.278 80.7881 18.548C81.0041 18.782 81.1661 19.07 81.1661 19.43H83.3081C83.3081 18.746 82.9841 18.044 82.4801 17.504C81.7961 16.766 80.6621 16.406 79.5461 16.406C78.3761 16.406 77.3861 16.748 76.7021 17.342C76.1441 17.828 75.7481 18.494 75.7481 19.448C75.7481 20.636 76.6121 21.68 77.8901 21.95C78.7181 22.13 79.6541 22.184 80.4821 22.31C81.0581 22.4 81.4181 22.76 81.4181 23.3C81.4181 24.326 80.2661 24.488 79.5101 24.488C78.8621 24.488 78.4481 24.362 78.0881 24.074C77.8001 23.84 77.5841 23.39 77.5841 22.976H75.4781C75.4781 23.858 75.9281 24.632 76.4681 25.154C77.2421 25.892 78.3041 26.234 79.4921 26.234C80.7701 26.234 81.9401 25.91 82.6961 25.154C83.1821 24.668 83.5061 24.002 83.5061 23.102ZM93.5408 21.392C93.5768 20.222 93.4148 19.16 92.7308 18.134C91.9568 16.964 90.6968 16.406 89.3108 16.406C88.0328 16.406 87.0248 16.874 86.3228 17.594C85.4228 18.512 84.9728 19.844 84.9728 21.338C84.9728 22.868 85.4768 24.182 86.4128 25.082C87.1508 25.784 88.0868 26.234 89.3648 26.234C90.5528 26.234 91.7228 25.856 92.5148 24.92C92.8748 24.488 93.2528 23.75 93.3068 23.192H91.1468C91.0568 23.534 90.8948 23.786 90.6968 23.984C90.3728 24.308 89.9768 24.434 89.3288 24.434C88.7168 24.434 88.2668 24.164 87.9428 23.858C87.4928 23.426 87.2408 22.742 87.2588 22.022H93.5228C93.5228 21.824 93.5408 21.392 93.5408 21.392ZM91.2908 20.384H87.2408C87.2588 19.772 87.4028 19.34 87.7268 18.926C88.0508 18.494 88.6088 18.206 89.2928 18.206C89.9408 18.206 90.4088 18.422 90.7148 18.746C91.0748 19.142 91.2728 19.682 91.2908 20.384ZM103.794 25.892V24.236C103.794 24.236 103.65 24.272 103.506 24.272C103.128 24.272 102.984 24.11 102.984 23.678V20.204C102.984 19.574 102.948 18.908 102.714 18.314C102.174 16.91 100.806 16.406 99.2043 16.406C97.1163 16.406 95.4423 17.342 95.3163 19.448H97.4943C97.5483 18.584 98.1603 18.116 99.2043 18.116C100.482 18.116 100.788 18.71 100.788 19.592V20.168L98.0343 20.366C96.2523 20.492 94.8663 21.518 94.8663 23.3C94.8663 24.83 96.0183 26.234 98.2503 26.234C99.5823 26.234 100.662 25.586 101.094 24.83C101.166 25.532 101.706 26.144 102.678 26.144C103.218 26.144 103.416 26.054 103.794 25.892ZM100.788 22.274C100.788 23.66 99.7983 24.416 98.3943 24.416C97.6923 24.416 97.0623 23.966 97.0623 23.246C97.0623 22.49 97.7283 22.076 98.4123 22.022L100.788 21.842V22.274ZM111.166 14.786V12.986C110.464 12.842 110.05 12.788 109.402 12.788C107.386 12.788 106.216 14.012 106.216 15.74V16.64H104.632V18.494H106.216V26H108.466V18.494H110.968V16.64H108.466V15.776C108.466 15.11 108.88 14.642 109.69 14.642C110.284 14.642 110.698 14.696 111.166 14.786ZM120.404 21.32C120.404 19.736 120.008 18.746 119.306 17.864C118.658 17.072 117.452 16.406 116.03 16.406C114.608 16.406 113.402 17.072 112.754 17.864C112.052 18.746 111.656 19.736 111.656 21.32C111.656 22.904 112.052 23.894 112.754 24.776C113.402 25.568 114.608 26.234 116.03 26.234C117.452 26.234 118.658 25.568 119.306 24.776C120.008 23.894 120.404 22.904 120.404 21.32ZM118.118 21.32C118.118 22.202 117.992 23.084 117.452 23.678C117.146 24.002 116.642 24.272 116.03 24.272C115.418 24.272 114.914 24.002 114.608 23.678C114.068 23.084 113.942 22.202 113.942 21.32C113.942 20.438 114.068 19.556 114.608 18.962C114.914 18.638 115.418 18.368 116.03 18.368C116.642 18.368 117.146 18.638 117.452 18.962C117.992 19.556 118.118 20.438 118.118 21.32ZM130.67 21.32C130.67 19.736 130.274 18.746 129.572 17.864C128.924 17.072 127.718 16.406 126.296 16.406C124.874 16.406 123.668 17.072 123.02 17.864C122.318 18.746 121.922 19.736 121.922 21.32C121.922 22.904 122.318 23.894 123.02 24.776C123.668 25.568 124.874 26.234 126.296 26.234C127.718 26.234 128.924 25.568 129.572 24.776C130.274 23.894 130.67 22.904 130.67 21.32ZM128.384 21.32C128.384 22.202 128.258 23.084 127.718 23.678C127.412 24.002 126.908 24.272 126.296 24.272C125.684 24.272 125.18 24.002 124.874 23.678C124.334 23.084 124.208 22.202 124.208 21.32C124.208 20.438 124.334 19.556 124.874 18.962C125.18 18.638 125.684 18.368 126.296 18.368C126.908 18.368 127.412 18.638 127.718 18.962C128.258 19.556 128.384 20.438 128.384 21.32ZM140.846 26V13.004H138.596V17.288C138.2 16.802 137.336 16.406 136.148 16.406C135.194 16.406 134.438 16.694 133.862 17.162C132.746 18.08 132.188 19.502 132.188 21.338C132.188 23.102 132.728 24.506 133.844 25.424C134.42 25.892 135.194 26.216 136.13 26.216C137.156 26.216 138.2 25.838 138.758 24.974L138.902 26H140.846ZM138.704 21.302C138.704 22.652 138.344 24.326 136.58 24.326C135.878 24.326 135.392 24.002 135.068 23.588C134.6 22.976 134.474 22.112 134.474 21.302C134.474 20.492 134.6 19.646 135.068 19.034C135.392 18.62 135.878 18.296 136.58 18.296C138.344 18.296 138.704 19.952 138.704 21.302ZM154.968 22.688H152.754C152.736 23.03 152.628 23.318 152.484 23.552C152.214 23.966 151.728 24.254 151.044 24.254C150.432 24.254 149.982 23.984 149.676 23.66C149.136 23.066 149.046 22.184 149.046 21.302C149.046 20.42 149.136 19.52 149.676 18.926C149.982 18.602 150.432 18.35 151.044 18.35C151.728 18.35 152.214 18.638 152.484 19.052C152.628 19.286 152.736 19.574 152.754 19.916H154.968C154.932 19.178 154.68 18.44 154.248 17.882C153.6 17.072 152.466 16.406 151.044 16.406C149.622 16.406 148.434 17.09 147.786 17.882C147.084 18.764 146.76 19.934 146.76 21.302C146.76 22.67 147.084 23.84 147.786 24.722C148.434 25.514 149.622 26.198 151.044 26.198C152.466 26.198 153.6 25.532 154.248 24.722C154.68 24.164 154.932 23.426 154.968 22.688ZM165.07 21.32C165.07 19.736 164.674 18.746 163.972 17.864C163.324 17.072 162.118 16.406 160.696 16.406C159.274 16.406 158.068 17.072 157.42 17.864C156.718 18.746 156.322 19.736 156.322 21.32C156.322 22.904 156.718 23.894 157.42 24.776C158.068 25.568 159.274 26.234 160.696 26.234C162.118 26.234 163.324 25.568 163.972 24.776C164.674 23.894 165.07 22.904 165.07 21.32ZM162.784 21.32C162.784 22.202 162.658 23.084 162.118 23.678C161.812 24.002 161.308 24.272 160.696 24.272C160.084 24.272 159.58 24.002 159.274 23.678C158.734 23.084 158.608 22.202 158.608 21.32C158.608 20.438 158.734 19.556 159.274 18.962C159.58 18.638 160.084 18.368 160.696 18.368C161.308 18.368 161.812 18.638 162.118 18.962C162.658 19.556 162.784 20.438 162.784 21.32ZM175.21 26V19.754C175.21 17.81 174.04 16.406 172.042 16.406C170.962 16.406 169.846 16.856 169.288 17.846L169.126 16.64H167.236V26H169.486V22.184C169.486 21.392 169.468 20.42 169.792 19.682C170.098 18.998 170.62 18.494 171.412 18.494C172.6 18.494 172.96 19.16 172.96 20.258V26H175.21ZM185.143 23.102C185.143 21.626 184.063 20.69 182.587 20.456C181.669 20.312 181.435 20.294 180.589 20.186C180.085 20.114 179.509 19.916 179.509 19.25C179.509 18.764 179.833 18.422 180.229 18.26C180.571 18.116 180.877 18.116 181.201 18.116C181.669 18.116 182.155 18.278 182.425 18.548C182.641 18.782 182.803 19.07 182.803 19.43H184.945C184.945 18.746 184.621 18.044 184.117 17.504C183.433 16.766 182.299 16.406 181.183 16.406C180.013 16.406 179.023 16.748 178.339 17.342C177.781 17.828 177.385 18.494 177.385 19.448C177.385 20.636 178.249 21.68 179.527 21.95C180.355 22.13 181.291 22.184 182.119 22.31C182.695 22.4 183.055 22.76 183.055 23.3C183.055 24.326 181.903 24.488 181.147 24.488C180.499 24.488 180.085 24.362 179.725 24.074C179.437 23.84 179.221 23.39 179.221 22.976H177.115C177.115 23.858 177.565 24.632 178.105 25.154C178.879 25.892 179.941 26.234 181.129 26.234C182.407 26.234 183.577 25.91 184.333 25.154C184.819 24.668 185.143 24.002 185.143 23.102ZM195.07 26V16.64H192.82V21.59C192.82 22.346 192.676 23.192 192.136 23.696C191.866 23.966 191.506 24.164 190.984 24.164C189.796 24.164 189.364 23.48 189.364 22.382V16.64H187.114V22.886C187.114 24.884 188.356 26.234 190.354 26.234C191.542 26.234 192.586 25.694 193.036 24.776L193.198 26H195.07ZM211.141 26V19.682C211.141 17.738 210.097 16.406 208.099 16.406C206.839 16.406 205.831 16.964 205.273 17.936C204.805 16.982 203.905 16.406 202.591 16.406C201.349 16.406 200.449 17.018 199.927 17.882L199.747 16.64H197.875V26H200.107V20.888C200.107 19.718 200.683 18.368 201.961 18.368C203.095 18.368 203.401 19.034 203.401 20.186V26H205.633V20.888C205.633 19.718 206.191 18.368 207.469 18.368C208.603 18.368 208.909 19.034 208.909 20.186V26H211.141ZM222.458 21.302C222.458 19.538 221.9 18.134 220.784 17.216C220.208 16.748 219.452 16.424 218.516 16.424C217.49 16.424 216.446 16.802 215.888 17.666L215.744 16.64H213.8V29.582H216.05V25.316C216.482 25.838 217.382 26.234 218.498 26.234C219.452 26.234 220.208 25.946 220.784 25.478C221.9 24.56 222.458 23.138 222.458 21.302ZM220.172 21.338C220.172 22.148 220.046 22.994 219.578 23.606C219.254 24.02 218.768 24.344 218.066 24.344C216.302 24.344 215.942 22.688 215.942 21.338C215.942 19.988 216.302 18.314 218.066 18.314C218.768 18.314 219.254 18.638 219.578 19.052C220.046 19.664 220.172 20.528 220.172 21.338ZM229.815 25.874V23.984C229.203 24.056 228.825 24.074 228.357 24.074C227.637 24.074 227.313 23.768 227.313 23.048V18.494H229.671V16.64H227.313V13.706L225.063 14.264V16.64H223.353V18.494H225.063V23.246C225.063 25.046 225.999 26.126 227.889 26.126C228.555 26.126 229.185 26.036 229.815 25.874ZM234.106 15.344V13.022H231.694V15.344H234.106ZM234.052 26V16.64H231.766V26H234.052ZM244.981 21.32C244.981 19.736 244.585 18.746 243.883 17.864C243.235 17.072 242.029 16.406 240.607 16.406C239.185 16.406 237.979 17.072 237.331 17.864C236.629 18.746 236.233 19.736 236.233 21.32C236.233 22.904 236.629 23.894 237.331 24.776C237.979 25.568 239.185 26.234 240.607 26.234C242.029 26.234 243.235 25.568 243.883 24.776C244.585 23.894 244.981 22.904 244.981 21.32ZM242.695 21.32C242.695 22.202 242.569 23.084 242.029 23.678C241.723 24.002 241.219 24.272 240.607 24.272C239.995 24.272 239.491 24.002 239.185 23.678C238.645 23.084 238.519 22.202 238.519 21.32C238.519 20.438 238.645 19.556 239.185 18.962C239.491 18.638 239.995 18.368 240.607 18.368C241.219 18.368 241.723 18.638 242.029 18.962C242.569 19.556 242.695 20.438 242.695 21.32ZM255.12 26V19.754C255.12 17.81 253.95 16.406 251.952 16.406C250.872 16.406 249.756 16.856 249.198 17.846L249.036 16.64H247.146V26H249.396V22.184C249.396 21.392 249.378 20.42 249.702 19.682C250.008 18.998 250.53 18.494 251.322 18.494C252.51 18.494 252.87 19.16 252.87 20.258V26H255.12ZM270.201 21.302C270.201 19.538 269.643 18.134 268.527 17.216C267.951 16.748 267.195 16.424 266.259 16.424C265.233 16.424 264.189 16.802 263.631 17.666L263.487 16.64H261.543V29.582H263.793V25.316C264.225 25.838 265.125 26.234 266.241 26.234C267.195 26.234 267.951 25.946 268.527 25.478C269.643 24.56 270.201 23.138 270.201 21.302ZM267.915 21.338C267.915 22.148 267.789 22.994 267.321 23.606C266.997 24.02 266.511 24.344 265.809 24.344C264.045 24.344 263.685 22.688 263.685 21.338C263.685 19.988 264.045 18.314 265.809 18.314C266.511 18.314 266.997 18.638 267.321 19.052C267.789 19.664 267.915 20.528 267.915 21.338ZM280.273 21.392C280.309 20.222 280.147 19.16 279.463 18.134C278.689 16.964 277.429 16.406 276.043 16.406C274.765 16.406 273.757 16.874 273.055 17.594C272.155 18.512 271.705 19.844 271.705 21.338C271.705 22.868 272.209 24.182 273.145 25.082C273.883 25.784 274.819 26.234 276.097 26.234C277.285 26.234 278.455 25.856 279.247 24.92C279.607 24.488 279.985 23.75 280.039 23.192H277.879C277.789 23.534 277.627 23.786 277.429 23.984C277.105 24.308 276.709 24.434 276.061 24.434C275.449 24.434 274.999 24.164 274.675 23.858C274.225 23.426 273.973 22.742 273.991 22.022H280.255C280.255 21.824 280.273 21.392 280.273 21.392ZM278.023 20.384H273.973C273.991 19.772 274.135 19.34 274.459 18.926C274.783 18.494 275.341 18.206 276.025 18.206C276.673 18.206 277.141 18.422 277.447 18.746C277.807 19.142 278.005 19.682 278.023 20.384ZM287.827 18.728V16.568C287.593 16.532 287.359 16.514 287.125 16.514C286.027 16.514 284.911 16.964 284.479 18.044L284.281 16.64H282.373V26H284.641V21.284C284.641 19.772 285.469 18.638 287.053 18.638C287.305 18.638 287.575 18.674 287.827 18.728ZM300.796 22.688H298.582C298.564 23.03 298.456 23.318 298.312 23.552C298.042 23.966 297.556 24.254 296.872 24.254C296.26 24.254 295.81 23.984 295.504 23.66C294.964 23.066 294.874 22.184 294.874 21.302C294.874 20.42 294.964 19.52 295.504 18.926C295.81 18.602 296.26 18.35 296.872 18.35C297.556 18.35 298.042 18.638 298.312 19.052C298.456 19.286 298.564 19.574 298.582 19.916H300.796C300.76 19.178 300.508 18.44 300.076 17.882C299.428 17.072 298.294 16.406 296.872 16.406C295.45 16.406 294.262 17.09 293.614 17.882C292.912 18.764 292.588 19.934 292.588 21.302C292.588 22.67 292.912 23.84 293.614 24.722C294.262 25.514 295.45 26.198 296.872 26.198C298.294 26.198 299.428 25.532 300.076 24.722C300.508 24.164 300.76 23.426 300.796 22.688ZM310.953 25.892V24.236C310.953 24.236 310.809 24.272 310.665 24.272C310.287 24.272 310.143 24.11 310.143 23.678V20.204C310.143 19.574 310.107 18.908 309.873 18.314C309.333 16.91 307.965 16.406 306.363 16.406C304.275 16.406 302.601 17.342 302.475 19.448H304.653C304.707 18.584 305.319 18.116 306.363 18.116C307.641 18.116 307.947 18.71 307.947 19.592V20.168L305.193 20.366C303.411 20.492 302.025 21.518 302.025 23.3C302.025 24.83 303.177 26.234 305.409 26.234C306.741 26.234 307.821 25.586 308.253 24.83C308.325 25.532 308.865 26.144 309.837 26.144C310.377 26.144 310.575 26.054 310.953 25.892ZM307.947 22.274C307.947 23.66 306.957 24.416 305.553 24.416C304.851 24.416 304.221 23.966 304.221 23.246C304.221 22.49 304.887 22.076 305.571 22.022L307.947 21.842V22.274ZM321.564 21.302C321.564 19.538 321.006 18.134 319.89 17.216C319.314 16.748 318.558 16.424 317.622 16.424C316.596 16.424 315.552 16.802 314.994 17.666L314.85 16.64H312.906V29.582H315.156V25.316C315.588 25.838 316.488 26.234 317.604 26.234C318.558 26.234 319.314 25.946 319.89 25.478C321.006 24.56 321.564 23.138 321.564 21.302ZM319.278 21.338C319.278 22.148 319.152 22.994 318.684 23.606C318.36 24.02 317.874 24.344 317.172 24.344C315.408 24.344 315.048 22.688 315.048 21.338C315.048 19.988 315.408 18.314 317.172 18.314C317.874 18.314 318.36 18.638 318.684 19.052C319.152 19.664 319.278 20.528 319.278 21.338ZM326.093 15.344V13.022H323.681V15.344H326.093ZM326.039 26V16.64H323.753V26H326.039ZM334.159 25.874V23.984C333.547 24.056 333.169 24.074 332.701 24.074C331.981 24.074 331.657 23.768 331.657 23.048V18.494H334.015V16.64H331.657V13.706L329.407 14.264V16.64H327.697V18.494H329.407V23.246C329.407 25.046 330.343 26.126 332.233 26.126C332.899 26.126 333.529 26.036 334.159 25.874ZM344.228 25.892V24.236C344.228 24.236 344.084 24.272 343.94 24.272C343.562 24.272 343.418 24.11 343.418 23.678V20.204C343.418 19.574 343.382 18.908 343.148 18.314C342.608 16.91 341.24 16.406 339.638 16.406C337.55 16.406 335.876 17.342 335.75 19.448H337.928C337.982 18.584 338.594 18.116 339.638 18.116C340.916 18.116 341.222 18.71 341.222 19.592V20.168L338.468 20.366C336.686 20.492 335.3 21.518 335.3 23.3C335.3 24.83 336.452 26.234 338.684 26.234C340.016 26.234 341.096 25.586 341.528 24.83C341.6 25.532 342.14 26.144 343.112 26.144C343.652 26.144 343.85 26.054 344.228 25.892ZM341.222 22.274C341.222 23.66 340.232 24.416 338.828 24.416C338.126 24.416 337.496 23.966 337.496 23.246C337.496 22.49 338.162 22.076 338.846 22.022L341.222 21.842V22.274ZM5.724 50.07C3.888 47.604 3.042 45.588 3.042 42.294C3.042 39 3.888 36.984 5.724 34.518L4.446 33.564C2.286 36.048 1.17 38.856 1.17 42.294C1.17 45.732 2.286 48.54 4.446 51.024L5.724 50.07ZM15.0143 48V45.966H10.0103L13.4663 41.826C14.1683 40.98 14.8343 39.882 14.8343 38.766C14.8343 36.57 13.1243 35.256 10.9823 35.256C8.40825 35.256 7.00425 36.822 6.98625 39.018H9.29025C9.29025 38.028 9.90225 37.218 10.9643 37.218C11.9903 37.218 12.5483 37.902 12.5483 38.784C12.5483 39.288 12.3323 39.882 11.9003 40.386L7.02225 46.2V48H15.0143ZM25.7119 41.736C25.7119 39.684 25.5139 37.596 24.2179 36.354C23.5699 35.724 22.6519 35.256 21.3019 35.256C19.9519 35.256 19.0339 35.724 18.3859 36.354C17.0899 37.596 16.8919 39.684 16.8919 41.736C16.8919 43.788 17.0899 45.876 18.3859 47.118C19.0339 47.748 19.9519 48.234 21.3019 48.234C22.6519 48.234 23.5699 47.748 24.2179 47.118C25.5139 45.876 25.7119 43.788 25.7119 41.736ZM23.4259 41.736C23.4259 43.356 23.6239 46.146 21.3019 46.146C18.9799 46.146 19.1779 43.356 19.1779 41.736C19.1779 40.116 18.9799 37.326 21.3019 37.326C23.6239 37.326 23.4259 40.116 23.4259 41.736ZM33.5295 48V35.49H31.6035L28.5255 37.704V40.152L31.2795 38.154V48H33.5295ZM46.1711 37.29V35.49H37.5491V37.506H43.7591L38.8631 48H41.2931L46.1711 37.29ZM51.7028 42.294C51.7028 38.856 50.5868 36.048 48.4268 33.564L47.1488 34.518C48.9848 36.984 49.8308 39 49.8308 42.294C49.8308 45.588 48.9848 47.604 47.1488 50.07L48.4268 51.024C50.5868 48.54 51.7028 45.732 51.7028 42.294ZM66.1947 47.892V46.236C66.1947 46.236 66.0507 46.272 65.9067 46.272C65.5287 46.272 65.3847 46.11 65.3847 45.678V42.204C65.3847 41.574 65.3487 40.908 65.1147 40.314C64.5747 38.91 63.2067 38.406 61.6047 38.406C59.5167 38.406 57.8427 39.342 57.7167 41.448H59.8947C59.9487 40.584 60.5607 40.116 61.6047 40.116C62.8827 40.116 63.1887 40.71 63.1887 41.592V42.168L60.4347 42.366C58.6527 42.492 57.2667 43.518 57.2667 45.3C57.2667 46.83 58.4187 48.234 60.6507 48.234C61.9827 48.234 63.0627 47.586 63.4947 46.83C63.5667 47.532 64.1067 48.144 65.0787 48.144C65.6187 48.144 65.8167 48.054 66.1947 47.892ZM63.1887 44.274C63.1887 45.66 62.1987 46.416 60.7947 46.416C60.0927 46.416 59.4627 45.966 59.4627 45.246C59.4627 44.49 60.1287 44.076 60.8127 44.022L63.1887 43.842V44.274ZM81.4141 48V41.682C81.4141 39.738 80.3701 38.406 78.3721 38.406C77.1121 38.406 76.1041 38.964 75.5461 39.936C75.0781 38.982 74.1781 38.406 72.8641 38.406C71.6221 38.406 70.7221 39.018 70.2001 39.882L70.0201 38.64H68.1481V48H70.3801V42.888C70.3801 41.718 70.9561 40.368 72.2341 40.368C73.3681 40.368 73.6741 41.034 73.6741 42.186V48H75.9061V42.888C75.9061 41.718 76.4641 40.368 77.7421 40.368C78.8761 40.368 79.1821 41.034 79.1821 42.186V48H81.4141ZM92.1739 43.32C92.1739 41.736 91.7779 40.746 91.0759 39.864C90.4279 39.072 89.2219 38.406 87.7999 38.406C86.3779 38.406 85.1719 39.072 84.5239 39.864C83.8219 40.746 83.4259 41.736 83.4259 43.32C83.4259 44.904 83.8219 45.894 84.5239 46.776C85.1719 47.568 86.3779 48.234 87.7999 48.234C89.2219 48.234 90.4279 47.568 91.0759 46.776C91.7779 45.894 92.1739 44.904 92.1739 43.32ZM89.8879 43.32C89.8879 44.202 89.7619 45.084 89.2219 45.678C88.9159 46.002 88.4119 46.272 87.7999 46.272C87.1879 46.272 86.6839 46.002 86.3779 45.678C85.8379 45.084 85.7119 44.202 85.7119 43.32C85.7119 42.438 85.8379 41.556 86.3779 40.962C86.6839 40.638 87.1879 40.368 87.7999 40.368C88.4119 40.368 88.9159 40.638 89.2219 40.962C89.7619 41.556 89.8879 42.438 89.8879 43.32ZM102.314 48V41.754C102.314 39.81 101.144 38.406 99.1455 38.406C98.0655 38.406 96.9495 38.856 96.3915 39.846L96.2295 38.64H94.3395V48H96.5895V44.184C96.5895 43.392 96.5715 42.42 96.8955 41.682C97.2015 40.998 97.7235 40.494 98.5155 40.494C99.7035 40.494 100.064 41.16 100.064 42.258V48H102.314ZM113.218 49.242C113.218 48.342 112.894 47.55 112.084 46.992C111.202 46.38 109.978 46.362 109.042 46.362H107.494C107.026 46.362 106.468 46.236 106.468 45.678C106.468 45.372 106.72 45.138 106.936 45.012C107.404 45.174 107.926 45.264 108.448 45.264C110.464 45.264 112.264 44.004 112.264 41.862C112.264 41.232 112.084 40.674 111.778 40.17C111.922 39.72 112.39 39.576 112.912 39.576C112.966 39.576 113.038 39.594 113.092 39.594V37.848C112.948 37.812 112.624 37.812 112.48 37.812C111.688 37.812 110.968 38.172 110.572 38.982C109.96 38.622 109.222 38.406 108.448 38.406C106.342 38.406 104.614 39.612 104.614 41.844C104.614 42.798 104.974 43.572 105.55 44.148C104.794 44.616 104.434 45.246 104.434 46.038C104.434 46.65 104.776 47.316 105.37 47.64C104.65 48 104.254 48.738 104.254 49.548C104.254 50.43 104.668 51.096 105.388 51.6C106.36 52.284 107.566 52.374 108.7 52.374C110.788 52.374 113.218 51.708 113.218 49.242ZM110.104 41.844C110.104 42.852 109.474 43.572 108.448 43.572C107.422 43.572 106.792 42.852 106.792 41.844C106.792 40.836 107.422 40.098 108.448 40.098C109.474 40.098 110.104 40.836 110.104 41.844ZM111.094 49.296C111.094 50.538 109.51 50.592 108.61 50.592C107.728 50.592 106.252 50.484 106.252 49.296C106.252 48.702 106.612 48.288 107.098 48.144H108.862C109.708 48.144 111.094 48.144 111.094 49.296ZM123.942 47.874V45.984C123.33 46.056 122.952 46.074 122.484 46.074C121.764 46.074 121.44 45.768 121.44 45.048V40.494H123.798V38.64H121.44V35.706L119.19 36.264V38.64H117.48V40.494H119.19V45.246C119.19 47.046 120.126 48.126 122.016 48.126C122.682 48.126 123.312 48.036 123.942 47.874ZM133.831 48V41.754C133.831 39.828 132.661 38.406 130.663 38.406C129.691 38.406 128.647 38.838 128.107 39.63V35.004H125.857V48H128.107V43.068C128.107 41.916 128.683 40.476 130.033 40.476C131.221 40.476 131.581 41.142 131.581 42.222V48H133.831ZM144.412 43.392C144.448 42.222 144.286 41.16 143.602 40.134C142.828 38.964 141.568 38.406 140.182 38.406C138.904 38.406 137.896 38.874 137.194 39.594C136.294 40.512 135.844 41.844 135.844 43.338C135.844 44.868 136.348 46.182 137.284 47.082C138.022 47.784 138.958 48.234 140.236 48.234C141.424 48.234 142.594 47.856 143.386 46.92C143.746 46.488 144.124 45.75 144.178 45.192H142.018C141.928 45.534 141.766 45.786 141.568 45.984C141.244 46.308 140.848 46.434 140.2 46.434C139.588 46.434 139.138 46.164 138.814 45.858C138.364 45.426 138.112 44.742 138.13 44.022H144.394C144.394 43.824 144.412 43.392 144.412 43.392ZM142.162 42.384H138.112C138.13 41.772 138.274 41.34 138.598 40.926C138.922 40.494 139.48 40.206 140.164 40.206C140.812 40.206 141.28 40.422 141.586 40.746C141.946 41.142 142.144 41.682 142.162 42.384ZM158.607 48V45.804H152.685V35.238H150.363V48H158.607ZM168.006 43.32C168.006 41.736 167.61 40.746 166.908 39.864C166.26 39.072 165.054 38.406 163.632 38.406C162.21 38.406 161.004 39.072 160.356 39.864C159.654 40.746 159.258 41.736 159.258 43.32C159.258 44.904 159.654 45.894 160.356 46.776C161.004 47.568 162.21 48.234 163.632 48.234C165.054 48.234 166.26 47.568 166.908 46.776C167.61 45.894 168.006 44.904 168.006 43.32ZM165.72 43.32C165.72 44.202 165.594 45.084 165.054 45.678C164.748 46.002 164.244 46.272 163.632 46.272C163.02 46.272 162.516 46.002 162.21 45.678C161.67 45.084 161.544 44.202 161.544 43.32C161.544 42.438 161.67 41.556 162.21 40.962C162.516 40.638 163.02 40.368 163.632 40.368C164.244 40.368 164.748 40.638 165.054 40.962C165.594 41.556 165.72 42.438 165.72 43.32ZM182.144 38.64H180.002L178.562 44.76L176.582 38.73H174.728L172.766 44.778L171.272 38.64H169.094L171.47 48H173.558L175.646 41.682L177.77 48H179.858L182.144 38.64ZM191.803 43.392C191.839 42.222 191.677 41.16 190.993 40.134C190.219 38.964 188.959 38.406 187.573 38.406C186.295 38.406 185.287 38.874 184.585 39.594C183.685 40.512 183.235 41.844 183.235 43.338C183.235 44.868 183.739 46.182 184.675 47.082C185.413 47.784 186.349 48.234 187.627 48.234C188.815 48.234 189.985 47.856 190.777 46.92C191.137 46.488 191.515 45.75 191.569 45.192H189.409C189.319 45.534 189.157 45.786 188.959 45.984C188.635 46.308 188.239 46.434 187.591 46.434C186.979 46.434 186.529 46.164 186.205 45.858C185.755 45.426 185.503 44.742 185.521 44.022H191.785C191.785 43.824 191.803 43.392 191.803 43.392ZM189.553 42.384H185.503C185.521 41.772 185.665 41.34 185.989 40.926C186.313 40.494 186.871 40.206 187.555 40.206C188.203 40.206 188.671 40.422 188.977 40.746C189.337 41.142 189.535 41.682 189.553 42.384ZM199.356 40.728V38.568C199.122 38.532 198.888 38.514 198.654 38.514C197.556 38.514 196.44 38.964 196.008 40.044L195.81 38.64H193.902V48H196.17V43.284C196.17 41.772 196.998 40.638 198.582 40.638C198.834 40.638 199.104 40.674 199.356 40.728ZM217.671 48V35.238H214.701L211.335 44.328L207.987 35.238H204.855V48H207.105V38.784L210.399 47.82H212.109L215.421 38.892V48H217.671ZM228.488 43.392C228.524 42.222 228.362 41.16 227.678 40.134C226.904 38.964 225.644 38.406 224.258 38.406C222.98 38.406 221.972 38.874 221.27 39.594C220.37 40.512 219.92 41.844 219.92 43.338C219.92 44.868 220.424 46.182 221.36 47.082C222.098 47.784 223.034 48.234 224.312 48.234C225.5 48.234 226.67 47.856 227.462 46.92C227.822 46.488 228.2 45.75 228.254 45.192H226.094C226.004 45.534 225.842 45.786 225.644 45.984C225.32 46.308 224.924 46.434 224.276 46.434C223.664 46.434 223.214 46.164 222.89 45.858C222.44 45.426 222.188 44.742 222.206 44.022H228.47C228.47 43.824 228.488 43.392 228.488 43.392ZM226.238 42.384H222.188C222.206 41.772 222.35 41.34 222.674 40.926C222.998 40.494 223.556 40.206 224.24 40.206C224.888 40.206 225.356 40.422 225.662 40.746C226.022 41.142 226.22 41.682 226.238 42.384ZM239.57 48L235.862 42.258L239.21 38.64H236.384L232.838 42.438V35.004H230.588V48H232.838V45.534L234.332 43.914L236.96 48H239.57ZM248.9 43.32C248.9 41.736 248.504 40.746 247.802 39.864C247.154 39.072 245.948 38.406 244.526 38.406C243.104 38.406 241.898 39.072 241.25 39.864C240.548 40.746 240.152 41.736 240.152 43.32C240.152 44.904 240.548 45.894 241.25 46.776C241.898 47.568 243.104 48.234 244.526 48.234C245.948 48.234 247.154 47.568 247.802 46.776C248.504 45.894 248.9 44.904 248.9 43.32ZM246.614 43.32C246.614 44.202 246.488 45.084 245.948 45.678C245.642 46.002 245.138 46.272 244.526 46.272C243.914 46.272 243.41 46.002 243.104 45.678C242.564 45.084 242.438 44.202 242.438 43.32C242.438 42.438 242.564 41.556 243.104 40.962C243.41 40.638 243.914 40.368 244.526 40.368C245.138 40.368 245.642 40.638 245.948 40.962C246.488 41.556 246.614 42.438 246.614 43.32ZM259.04 48V41.754C259.04 39.81 257.87 38.406 255.872 38.406C254.792 38.406 253.676 38.856 253.118 39.846L252.956 38.64H251.066V48H253.316V44.184C253.316 43.392 253.298 42.42 253.622 41.682C253.928 40.998 254.45 40.494 255.242 40.494C256.43 40.494 256.79 41.16 256.79 42.258V48H259.04ZM269.945 49.242C269.945 48.342 269.621 47.55 268.811 46.992C267.929 46.38 266.705 46.362 265.769 46.362H264.221C263.753 46.362 263.195 46.236 263.195 45.678C263.195 45.372 263.447 45.138 263.663 45.012C264.131 45.174 264.653 45.264 265.175 45.264C267.191 45.264 268.991 44.004 268.991 41.862C268.991 41.232 268.811 40.674 268.505 40.17C268.649 39.72 269.117 39.576 269.639 39.576C269.693 39.576 269.765 39.594 269.819 39.594V37.848C269.675 37.812 269.351 37.812 269.207 37.812C268.415 37.812 267.695 38.172 267.299 38.982C266.687 38.622 265.949 38.406 265.175 38.406C263.069 38.406 261.341 39.612 261.341 41.844C261.341 42.798 261.701 43.572 262.277 44.148C261.521 44.616 261.161 45.246 261.161 46.038C261.161 46.65 261.503 47.316 262.097 47.64C261.377 48 260.981 48.738 260.981 49.548C260.981 50.43 261.395 51.096 262.115 51.6C263.087 52.284 264.293 52.374 265.427 52.374C267.515 52.374 269.945 51.708 269.945 49.242ZM266.831 41.844C266.831 42.852 266.201 43.572 265.175 43.572C264.149 43.572 263.519 42.852 263.519 41.844C263.519 40.836 264.149 40.098 265.175 40.098C266.201 40.098 266.831 40.836 266.831 41.844ZM267.821 49.296C267.821 50.538 266.237 50.592 265.337 50.592C264.455 50.592 262.979 50.484 262.979 49.296C262.979 48.702 263.339 48.288 263.825 48.144H265.589C266.435 48.144 267.821 48.144 267.821 49.296ZM285.241 44.292C285.241 43.104 284.611 41.97 283.405 41.412C284.485 40.926 284.971 39.756 284.971 38.712C284.971 37.614 284.431 36.552 283.495 35.94C282.631 35.382 281.569 35.238 280.543 35.238H275.467V48.018H280.543C281.767 48.018 282.955 47.91 283.945 47.154C284.863 46.452 285.241 45.426 285.241 44.292ZM282.613 38.856C282.613 40.062 281.731 40.44 280.687 40.44H277.771V37.236H280.633C281.677 37.236 282.613 37.632 282.613 38.856ZM282.883 44.238C282.883 45.534 281.713 45.93 280.633 45.93H277.771V42.384H280.705C281.929 42.384 282.883 42.87 282.883 44.238ZM295.484 47.892V46.236C295.484 46.236 295.34 46.272 295.196 46.272C294.818 46.272 294.674 46.11 294.674 45.678V42.204C294.674 41.574 294.638 40.908 294.404 40.314C293.864 38.91 292.496 38.406 290.894 38.406C288.806 38.406 287.132 39.342 287.006 41.448H289.184C289.238 40.584 289.85 40.116 290.894 40.116C292.172 40.116 292.478 40.71 292.478 41.592V42.168L289.724 42.366C287.942 42.492 286.556 43.518 286.556 45.3C286.556 46.83 287.708 48.234 289.94 48.234C291.272 48.234 292.352 47.586 292.784 46.83C292.856 47.532 293.396 48.144 294.368 48.144C294.908 48.144 295.106 48.054 295.484 47.892ZM292.478 44.274C292.478 45.66 291.488 46.416 290.084 46.416C289.382 46.416 288.752 45.966 288.752 45.246C288.752 44.49 289.418 44.076 290.102 44.022L292.478 43.842V44.274ZM304.709 45.102C304.709 43.626 303.629 42.69 302.153 42.456C301.235 42.312 301.001 42.294 300.155 42.186C299.651 42.114 299.075 41.916 299.075 41.25C299.075 40.764 299.399 40.422 299.795 40.26C300.137 40.116 300.443 40.116 300.767 40.116C301.235 40.116 301.721 40.278 301.991 40.548C302.207 40.782 302.369 41.07 302.369 41.43H304.511C304.511 40.746 304.187 40.044 303.683 39.504C302.999 38.766 301.865 38.406 300.749 38.406C299.579 38.406 298.589 38.748 297.905 39.342C297.347 39.828 296.951 40.494 296.951 41.448C296.951 42.636 297.815 43.68 299.093 43.95C299.921 44.13 300.857 44.184 301.685 44.31C302.261 44.4 302.621 44.76 302.621 45.3C302.621 46.326 301.469 46.488 300.713 46.488C300.065 46.488 299.651 46.362 299.291 46.074C299.003 45.84 298.787 45.39 298.787 44.976H296.681C296.681 45.858 297.131 46.632 297.671 47.154C298.445 47.892 299.507 48.234 300.695 48.234C301.973 48.234 303.143 47.91 303.899 47.154C304.385 46.668 304.709 46.002 304.709 45.102ZM309.2 37.344V35.022H306.788V37.344H309.2ZM309.146 48V38.64H306.86V48H309.146ZM319.948 48V41.754C319.948 39.81 318.778 38.406 316.78 38.406C315.7 38.406 314.584 38.856 314.026 39.846L313.864 38.64H311.974V48H314.224V44.184C314.224 43.392 314.206 42.42 314.53 41.682C314.836 40.998 315.358 40.494 316.15 40.494C317.338 40.494 317.698 41.16 317.698 42.258V48H319.948ZM8.964 66.688H6.75C6.732 67.03 6.624 67.318 6.48 67.552C6.21 67.966 5.724 68.254 5.04 68.254C4.428 68.254 3.978 67.984 3.672 67.66C3.132 67.066 3.042 66.184 3.042 65.302C3.042 64.42 3.132 63.52 3.672 62.926C3.978 62.602 4.428 62.35 5.04 62.35C5.724 62.35 6.21 62.638 6.48 63.052C6.624 63.286 6.732 63.574 6.75 63.916H8.964C8.928 63.178 8.676 62.44 8.244 61.882C7.596 61.072 6.462 60.406 5.04 60.406C3.618 60.406 2.43 61.09 1.782 61.882C1.08 62.764 0.756 63.934 0.756 65.302C0.756 66.67 1.08 67.84 1.782 68.722C2.43 69.514 3.618 70.198 5.04 70.198C6.462 70.198 7.596 69.532 8.244 68.722C8.676 68.164 8.928 67.426 8.964 66.688ZM19.0665 65.32C19.0665 63.736 18.6705 62.746 17.9685 61.864C17.3205 61.072 16.1145 60.406 14.6925 60.406C13.2705 60.406 12.0645 61.072 11.4165 61.864C10.7145 62.746 10.3185 63.736 10.3185 65.32C10.3185 66.904 10.7145 67.894 11.4165 68.776C12.0645 69.568 13.2705 70.234 14.6925 70.234C16.1145 70.234 17.3205 69.568 17.9685 68.776C18.6705 67.894 19.0665 66.904 19.0665 65.32ZM16.7805 65.32C16.7805 66.202 16.6545 67.084 16.1145 67.678C15.8085 68.002 15.3045 68.272 14.6925 68.272C14.0805 68.272 13.5765 68.002 13.2705 67.678C12.7305 67.084 12.6045 66.202 12.6045 65.32C12.6045 64.438 12.7305 63.556 13.2705 62.962C13.5765 62.638 14.0805 62.368 14.6925 62.368C15.3045 62.368 15.8085 62.638 16.1145 62.962C16.6545 63.556 16.7805 64.438 16.7805 65.32ZM29.0441 70V60.64H26.7941V65.59C26.7941 66.346 26.6501 67.192 26.1101 67.696C25.8401 67.966 25.4801 68.164 24.9581 68.164C23.7701 68.164 23.3381 67.48 23.3381 66.382V60.64H21.0881V66.886C21.0881 68.884 22.3301 70.234 24.3281 70.234C25.5161 70.234 26.5601 69.694 27.0101 68.776L27.1721 70H29.0441ZM39.8233 70V63.754C39.8233 61.81 38.6533 60.406 36.6553 60.406C35.5753 60.406 34.4593 60.856 33.9013 61.846L33.7393 60.64H31.8493V70H34.0993V66.184C34.0993 65.392 34.0813 64.42 34.4053 63.682C34.7113 62.998 35.2333 62.494 36.0253 62.494C37.2133 62.494 37.5733 63.16 37.5733 64.258V70H39.8233ZM47.7761 69.874V67.984C47.1641 68.056 46.7861 68.074 46.3181 68.074C45.5981 68.074 45.2741 67.768 45.2741 67.048V62.494H47.6321V60.64H45.2741V57.706L43.0241 58.264V60.64H41.3141V62.494H43.0241V67.246C43.0241 69.046 43.9601 70.126 45.8501 70.126C46.5161 70.126 47.1461 70.036 47.7761 69.874ZM55.1451 62.728V60.568C54.9111 60.532 54.6771 60.514 54.4431 60.514C53.3451 60.514 52.2291 60.964 51.7971 62.044L51.5991 60.64H49.6911V70H51.9591V65.284C51.9591 63.772 52.7871 62.638 54.3711 62.638C54.6231 62.638 54.8931 62.674 55.1451 62.728ZM59.1687 59.344V57.022H56.7567V59.344H59.1687ZM59.1147 70V60.64H56.8287V70H59.1147ZM69.8631 65.392C69.8991 64.222 69.7371 63.16 69.0531 62.134C68.2791 60.964 67.0191 60.406 65.6331 60.406C64.3551 60.406 63.3471 60.874 62.6451 61.594C61.7451 62.512 61.2951 63.844 61.2951 65.338C61.2951 66.868 61.7991 68.182 62.7351 69.082C63.4731 69.784 64.4091 70.234 65.6871 70.234C66.8751 70.234 68.0451 69.856 68.8371 68.92C69.1971 68.488 69.5751 67.75 69.6291 67.192H67.4691C67.3791 67.534 67.2171 67.786 67.0191 67.984C66.6951 68.308 66.2991 68.434 65.6511 68.434C65.0391 68.434 64.5891 68.164 64.2651 67.858C63.8151 67.426 63.5631 66.742 63.5811 66.022H69.8451C69.8451 65.824 69.8631 65.392 69.8631 65.392ZM67.6131 64.384H63.5631C63.5811 63.772 63.7251 63.34 64.0491 62.926C64.3731 62.494 64.9311 62.206 65.6151 62.206C66.2631 62.206 66.7311 62.422 67.0371 62.746C67.3971 63.142 67.5951 63.682 67.6131 64.384ZM79.2346 67.102C79.2346 65.626 78.1546 64.69 76.6786 64.456C75.7606 64.312 75.5266 64.294 74.6806 64.186C74.1766 64.114 73.6006 63.916 73.6006 63.25C73.6006 62.764 73.9246 62.422 74.3206 62.26C74.6626 62.116 74.9686 62.116 75.2926 62.116C75.7606 62.116 76.2466 62.278 76.5166 62.548C76.7326 62.782 76.8946 63.07 76.8946 63.43H79.0366C79.0366 62.746 78.7126 62.044 78.2086 61.504C77.5246 60.766 76.3906 60.406 75.2746 60.406C74.1046 60.406 73.1146 60.748 72.4306 61.342C71.8726 61.828 71.4766 62.494 71.4766 63.448C71.4766 64.636 72.3406 65.68 73.6186 65.95C74.4466 66.13 75.3826 66.184 76.2106 66.31C76.7866 66.4 77.1466 66.76 77.1466 67.3C77.1466 68.326 75.9946 68.488 75.2386 68.488C74.5906 68.488 74.1766 68.362 73.8166 68.074C73.5286 67.84 73.3126 67.39 73.3126 66.976H71.2066C71.2066 67.858 71.6566 68.632 72.1966 69.154C72.9706 69.892 74.0326 70.234 75.2206 70.234C76.4986 70.234 77.6686 69.91 78.4246 69.154C78.9106 68.668 79.2346 68.002 79.2346 67.102Z" fill="black" fill-opacity="0.7"/>
<path d="M7.935 96L4.95 91.41L7.65 88.41H6.105L2.67 92.235V85.17H1.395V96H2.67V93.96L4.125 92.34L6.495 96H7.935ZM16.0488 97.125C16.0488 96.495 15.8088 96 15.4488 95.64C14.8488 95.025 13.8438 94.845 12.9438 94.845H11.4438C10.9638 94.845 10.3038 94.755 10.3038 94.095C10.3038 93.735 10.6638 93.51 10.9488 93.42C11.4288 93.585 11.7138 93.63 12.2238 93.63C13.2288 93.63 13.9938 93.27 14.4888 92.73C14.9088 92.265 15.1788 91.635 15.1788 90.915C15.1788 90.24 14.9988 89.745 14.6838 89.34C14.7588 88.92 15.1188 88.65 15.6138 88.65C15.7188 88.65 15.8238 88.65 15.8988 88.665V87.63C15.7788 87.615 15.6438 87.6 15.5238 87.6C14.8038 87.6 14.2188 87.99 13.9638 88.665C13.4988 88.38 12.9438 88.215 12.2238 88.215C11.2188 88.215 10.4988 88.53 9.97383 89.07C9.53883 89.52 9.25383 90.09 9.25383 90.915C9.25383 91.635 9.56883 92.385 10.1238 92.88C9.55383 93.15 9.11883 93.675 9.11883 94.35C9.11883 94.935 9.49383 95.43 10.0038 95.625C9.40383 95.925 8.92383 96.51 8.92383 97.305C8.92383 97.905 9.14883 98.34 9.46383 98.655C10.1988 99.39 11.3388 99.54 12.3438 99.54C13.4088 99.54 14.6688 99.375 15.4038 98.655C15.7638 98.295 16.0488 97.785 16.0488 97.125ZM13.9338 90.915C13.9338 91.875 13.2438 92.61 12.2088 92.61C11.1288 92.61 10.4838 91.875 10.4838 90.915C10.4838 89.955 11.1738 89.25 12.2088 89.25C13.2888 89.25 13.9338 89.955 13.9338 90.915ZM14.8038 97.125C14.8038 97.455 14.6838 97.71 14.4888 97.905C14.0088 98.385 13.0638 98.445 12.4188 98.445C11.7588 98.445 10.8888 98.415 10.3938 97.92C10.1988 97.725 10.0788 97.47 10.0788 97.125C10.0788 96.54 10.5288 96.09 11.0388 95.925H12.7938C13.7088 95.925 14.8038 96 14.8038 97.125ZM27.8464 92.205C27.8464 90.945 27.4714 89.79 26.7514 89.055C26.2564 88.545 25.5364 88.23 24.6064 88.23C23.7514 88.23 22.7764 88.65 22.3414 89.415L22.2514 88.425H21.1264V99.255H22.4014V95.13C22.8064 95.82 23.7814 96.21 24.6064 96.21C25.4914 96.21 26.1964 95.91 26.6914 95.445C27.4564 94.71 27.8464 93.51 27.8464 92.205ZM26.5414 92.22C26.5414 93.615 26.0914 95.13 24.3964 95.13C23.8414 95.13 23.4664 94.905 23.1664 94.635C22.5364 94.08 22.3264 93.165 22.3264 92.22C22.3264 91.275 22.5364 90.36 23.1664 89.805C23.4664 89.535 23.8414 89.31 24.3964 89.31C26.0914 89.31 26.5414 90.825 26.5414 92.22ZM36.1673 91.86C36.1823 90.84 35.8223 89.865 35.2073 89.19C34.6523 88.59 33.8723 88.215 32.8973 88.215C31.5773 88.215 30.5723 88.89 30.0323 89.805C29.6123 90.51 29.4473 91.32 29.4473 92.235C29.4473 93.315 29.7623 94.32 30.3923 95.055C30.9773 95.745 31.8473 96.195 32.9123 96.195C33.6323 96.195 34.3073 95.985 34.8473 95.625C35.4623 95.205 35.9123 94.5 36.0173 93.75H34.7723C34.6673 94.155 34.5323 94.365 34.3223 94.575C34.0073 94.905 33.5123 95.07 32.9123 95.07C32.3273 95.07 31.8623 94.875 31.5173 94.53C31.0523 94.065 30.7823 93.315 30.7823 92.625H36.1523L36.1673 91.86ZM34.8623 91.53H30.8123C30.8423 90.42 31.5173 89.295 32.8973 89.295C33.5723 89.295 34.0823 89.565 34.3973 89.985C34.6973 90.39 34.8623 90.96 34.8623 91.53ZM42.4041 89.655V88.41C42.2091 88.38 41.9991 88.365 41.8041 88.365C40.8441 88.365 39.9291 88.815 39.5391 89.745L39.4341 88.41H38.3091V96H39.5691V92.625C39.5691 91.83 39.6441 90.78 40.2591 90.195C40.6041 89.865 41.0991 89.595 41.6991 89.595C41.9241 89.595 42.1791 89.61 42.4041 89.655ZM53.4479 88.41H52.1129L49.9829 94.395L47.7479 88.41H46.3079L49.3379 96L48.8579 97.275C48.6479 97.845 48.2579 98.04 47.7179 98.04C47.2229 98.04 46.8179 97.92 46.8179 97.92V99.03C46.9229 99.06 47.3429 99.18 47.9729 99.18C49.1129 99.18 49.6679 98.535 50.0279 97.56L53.4479 88.41ZM60.8939 91.86C60.9089 90.84 60.5489 89.865 59.9339 89.19C59.3789 88.59 58.5989 88.215 57.6239 88.215C56.3039 88.215 55.2989 88.89 54.7589 89.805C54.3389 90.51 54.1739 91.32 54.1739 92.235C54.1739 93.315 54.4889 94.32 55.1189 95.055C55.7039 95.745 56.5739 96.195 57.6389 96.195C58.3589 96.195 59.0339 95.985 59.5739 95.625C60.1889 95.205 60.6389 94.5 60.7439 93.75H59.4989C59.3939 94.155 59.2589 94.365 59.0489 94.575C58.7339 94.905 58.2389 95.07 57.6389 95.07C57.0539 95.07 56.5889 94.875 56.2439 94.53C55.7789 94.065 55.5089 93.315 55.5089 92.625H60.8789L60.8939 91.86ZM59.5889 91.53H55.5389C55.5689 90.42 56.2439 89.295 57.6239 89.295C58.2989 89.295 58.8089 89.565 59.1239 89.985C59.4239 90.39 59.5889 90.96 59.5889 91.53ZM69.3956 95.925V94.98C69.3956 94.98 69.2006 95.025 69.0656 95.025C68.8106 95.025 68.6456 94.92 68.6456 94.515V90.84C68.6456 90.405 68.5706 90.015 68.4206 89.67C68.0606 88.845 67.2206 88.215 65.7506 88.215C64.8206 88.215 63.9206 88.485 63.4106 89.025C63.0206 89.43 62.7656 89.925 62.7506 90.615H63.9956C63.9956 90.24 64.1306 89.94 64.3706 89.7C64.6256 89.445 65.0606 89.25 65.7506 89.25C66.3656 89.25 66.7406 89.4 66.9956 89.64C67.3406 89.955 67.3856 90.42 67.3856 90.795V91.35L65.0756 91.485C63.0056 91.605 62.3756 92.88 62.3756 93.855C62.3756 95.025 63.2456 96.195 64.9856 96.195C66.0506 96.195 66.9956 95.715 67.4306 94.95H67.4606C67.4606 95.595 67.8806 96.105 68.5556 96.105C68.8706 96.105 69.1256 96.06 69.3956 95.925ZM67.3856 92.79C67.3856 93.42 67.1906 94.05 66.7406 94.515C66.3356 94.935 65.7656 95.13 65.1806 95.13C64.1006 95.13 63.6806 94.5 63.6806 93.825C63.6806 92.865 64.5806 92.505 65.3456 92.46L67.3856 92.34V92.79ZM75.5095 89.655V88.41C75.3145 88.38 75.1045 88.365 74.9095 88.365C73.9495 88.365 73.0345 88.815 72.6445 89.745L72.5395 88.41H71.4145V96H72.6745V92.625C72.6745 91.83 72.7495 90.78 73.3645 90.195C73.7095 89.865 74.2045 89.595 74.8045 89.595C75.0295 89.595 75.2845 89.61 75.5095 89.655Z" fill="black" fill-opacity="0.5"/>
</g>
<defs>
<clipPath id="clip0">
<rect width="400" height="387" fill="white"/>
</clipPath>
</defs>
</svg>
