<svg width="400" height="35" viewBox="0 0 400 35" fill="none" xmlns="http://www.w3.org/2000/svg">
<rect width="400" height="35" fill="white"/>
<path d="M68.022 13.712V12.074H61.162V22H62.968V18.01H67.476V16.372H62.968V13.712H68.022ZM72.0385 21.986V20.516C71.9405 20.516 71.8985 20.53 71.7445 20.53C71.1425 20.53 71.0445 20.25 71.0445 19.83V11.878H69.2805V20.124C69.2805 21.51 70.0785 22.084 71.2685 22.084C71.6185 22.084 71.6885 22.056 72.0385 21.986ZM79.7787 18.36C79.7787 17.128 79.4707 16.358 78.9247 15.672C78.4207 15.056 77.4827 14.538 76.3767 14.538C75.2707 14.538 74.3327 15.056 73.8287 15.672C73.2827 16.358 72.9747 17.128 72.9747 18.36C72.9747 19.592 73.2827 20.362 73.8287 21.048C74.3327 21.664 75.2707 22.182 76.3767 22.182C77.4827 22.182 78.4207 21.664 78.9247 21.048C79.4707 20.362 79.7787 19.592 79.7787 18.36ZM78.0007 18.36C78.0007 19.046 77.9027 19.732 77.4827 20.194C77.2447 20.446 76.8527 20.656 76.3767 20.656C75.9007 20.656 75.5087 20.446 75.2707 20.194C74.8507 19.732 74.7527 19.046 74.7527 18.36C74.7527 17.674 74.8507 16.988 75.2707 16.526C75.5087 16.274 75.9007 16.064 76.3767 16.064C76.8527 16.064 77.2447 16.274 77.4827 16.526C77.9027 16.988 78.0007 17.674 78.0007 18.36ZM87.7631 18.36C87.7631 17.128 87.4551 16.358 86.9091 15.672C86.4051 15.056 85.4671 14.538 84.3611 14.538C83.2551 14.538 82.3171 15.056 81.8131 15.672C81.2671 16.358 80.9591 17.128 80.9591 18.36C80.9591 19.592 81.2671 20.362 81.8131 21.048C82.3171 21.664 83.2551 22.182 84.3611 22.182C85.4671 22.182 86.4051 21.664 86.9091 21.048C87.4551 20.362 87.7631 19.592 87.7631 18.36ZM85.9851 18.36C85.9851 19.046 85.8871 19.732 85.4671 20.194C85.2291 20.446 84.8371 20.656 84.3611 20.656C83.8851 20.656 83.4931 20.446 83.2551 20.194C82.8351 19.732 82.7371 19.046 82.7371 18.36C82.7371 17.674 82.8351 16.988 83.2551 16.526C83.4931 16.274 83.8851 16.064 84.3611 16.064C84.8371 16.064 85.2291 16.274 85.4671 16.526C85.8871 16.988 85.9851 17.674 85.9851 18.36ZM95.6775 22V11.892H93.9275V15.224C93.6195 14.846 92.9475 14.538 92.0235 14.538C91.2815 14.538 90.6935 14.762 90.2455 15.126C89.3775 15.84 88.9435 16.946 88.9435 18.374C88.9435 19.746 89.3635 20.838 90.2315 21.552C90.6795 21.916 91.2815 22.168 92.0095 22.168C92.8075 22.168 93.6195 21.874 94.0535 21.202L94.1655 22H95.6775ZM94.0115 18.346C94.0115 19.396 93.7315 20.698 92.3595 20.698C91.8135 20.698 91.4355 20.446 91.1835 20.124C90.8195 19.648 90.7215 18.976 90.7215 18.346C90.7215 17.716 90.8195 17.058 91.1835 16.582C91.4355 16.26 91.8135 16.008 92.3595 16.008C93.7315 16.008 94.0115 17.296 94.0115 18.346ZM106.941 18.416C106.969 17.506 106.843 16.68 106.311 15.882C105.709 14.972 104.729 14.538 103.651 14.538C102.657 14.538 101.873 14.902 101.327 15.462C100.627 16.176 100.277 17.212 100.277 18.374C100.277 19.564 100.669 20.586 101.397 21.286C101.971 21.832 102.699 22.182 103.693 22.182C104.617 22.182 105.527 21.888 106.143 21.16C106.423 20.824 106.717 20.25 106.759 19.816H105.079C105.009 20.082 104.883 20.278 104.729 20.432C104.477 20.684 104.169 20.782 103.665 20.782C103.189 20.782 102.839 20.572 102.587 20.334C102.237 19.998 102.041 19.466 102.055 18.906H106.927C106.927 18.752 106.941 18.416 106.941 18.416ZM105.191 17.632H102.041C102.055 17.156 102.167 16.82 102.419 16.498C102.671 16.162 103.105 15.938 103.637 15.938C104.141 15.938 104.505 16.106 104.743 16.358C105.023 16.666 105.177 17.086 105.191 17.632ZM114.528 14.72H112.61L111.028 17.072L109.404 14.72H107.388L109.95 18.29L107.402 22H109.32L110.916 19.564L112.54 22H114.514L112.022 18.304L114.528 14.72ZM119.772 21.902V20.432C119.296 20.488 119.002 20.502 118.638 20.502C118.078 20.502 117.826 20.264 117.826 19.704V16.162H119.66V14.72H117.826V12.438L116.076 12.872V14.72H114.746V16.162H116.076V19.858C116.076 21.258 116.804 22.098 118.274 22.098C118.792 22.098 119.282 22.028 119.772 21.902ZM127.285 18.416C127.313 17.506 127.187 16.68 126.655 15.882C126.053 14.972 125.073 14.538 123.995 14.538C123.001 14.538 122.217 14.902 121.671 15.462C120.971 16.176 120.621 17.212 120.621 18.374C120.621 19.564 121.013 20.586 121.741 21.286C122.315 21.832 123.043 22.182 124.037 22.182C124.961 22.182 125.871 21.888 126.487 21.16C126.767 20.824 127.061 20.25 127.103 19.816H125.423C125.353 20.082 125.227 20.278 125.073 20.432C124.821 20.684 124.513 20.782 124.009 20.782C123.533 20.782 123.183 20.572 122.931 20.334C122.581 19.998 122.385 19.466 122.399 18.906H127.271C127.271 18.752 127.285 18.416 127.285 18.416ZM125.535 17.632H122.385C122.399 17.156 122.511 16.82 122.763 16.498C123.015 16.162 123.449 15.938 123.981 15.938C124.485 15.938 124.849 16.106 125.087 16.358C125.367 16.666 125.521 17.086 125.535 17.632ZM135.12 22V17.142C135.12 15.63 134.21 14.538 132.656 14.538C131.816 14.538 130.948 14.888 130.514 15.658L130.388 14.72H128.918V22H130.668V19.032C130.668 18.416 130.654 17.66 130.906 17.086C131.144 16.554 131.55 16.162 132.166 16.162C133.09 16.162 133.37 16.68 133.37 17.534V22H135.12ZM141.306 21.902V20.432C140.83 20.488 140.536 20.502 140.172 20.502C139.612 20.502 139.36 20.264 139.36 19.704V16.162H141.194V14.72H139.36V12.438L137.61 12.872V14.72H136.28V16.162H137.61V19.858C137.61 21.258 138.338 22.098 139.808 22.098C140.326 22.098 140.816 22.028 141.306 21.902ZM152.021 18.36C152.021 17.128 151.713 16.358 151.167 15.672C150.663 15.056 149.725 14.538 148.619 14.538C147.513 14.538 146.575 15.056 146.071 15.672C145.525 16.358 145.217 17.128 145.217 18.36C145.217 19.592 145.525 20.362 146.071 21.048C146.575 21.664 147.513 22.182 148.619 22.182C149.725 22.182 150.663 21.664 151.167 21.048C151.713 20.362 152.021 19.592 152.021 18.36ZM150.243 18.36C150.243 19.046 150.145 19.732 149.725 20.194C149.487 20.446 149.095 20.656 148.619 20.656C148.143 20.656 147.751 20.446 147.513 20.194C147.093 19.732 146.995 19.046 146.995 18.36C146.995 17.674 147.093 16.988 147.513 16.526C147.751 16.274 148.143 16.064 148.619 16.064C149.095 16.064 149.487 16.274 149.725 16.526C150.145 16.988 150.243 17.674 150.243 18.36ZM157.851 13.278V11.878C157.305 11.766 156.983 11.724 156.479 11.724C154.911 11.724 154.001 12.676 154.001 14.02V14.72H152.769V16.162H154.001V22H155.751V16.162H157.697V14.72H155.751V14.048C155.751 13.53 156.073 13.166 156.703 13.166C157.165 13.166 157.487 13.208 157.851 13.278ZM165.983 21.902V20.432C165.507 20.488 165.213 20.502 164.849 20.502C164.289 20.502 164.037 20.264 164.037 19.704V16.162H165.871V14.72H164.037V12.438L162.287 12.872V14.72H160.957V16.162H162.287V19.858C162.287 21.258 163.015 22.098 164.485 22.098C165.003 22.098 165.493 22.028 165.983 21.902ZM173.675 22V17.142C173.675 15.644 172.765 14.538 171.211 14.538C170.455 14.538 169.643 14.874 169.223 15.49V11.892H167.473V22H169.223V18.164C169.223 17.268 169.671 16.148 170.721 16.148C171.645 16.148 171.925 16.666 171.925 17.506V22H173.675ZM181.904 18.416C181.932 17.506 181.806 16.68 181.274 15.882C180.672 14.972 179.692 14.538 178.614 14.538C177.62 14.538 176.836 14.902 176.29 15.462C175.59 16.176 175.24 17.212 175.24 18.374C175.24 19.564 175.632 20.586 176.36 21.286C176.934 21.832 177.662 22.182 178.656 22.182C179.58 22.182 180.49 21.888 181.106 21.16C181.386 20.824 181.68 20.25 181.722 19.816H180.042C179.972 20.082 179.846 20.278 179.692 20.432C179.44 20.684 179.132 20.782 178.628 20.782C178.152 20.782 177.802 20.572 177.55 20.334C177.2 19.998 177.004 19.466 177.018 18.906H181.89C181.89 18.752 181.904 18.416 181.904 18.416ZM180.154 17.632H177.004C177.018 17.156 177.13 16.82 177.382 16.498C177.634 16.162 178.068 15.938 178.6 15.938C179.104 15.938 179.468 16.106 179.706 16.358C179.986 16.666 180.14 17.086 180.154 17.632ZM192.786 13.754V12.074H185.1V13.754H188.04V22H189.846V13.754H192.786ZM198.997 18.36C198.997 17.128 198.689 16.358 198.143 15.672C197.639 15.056 196.701 14.538 195.595 14.538C194.489 14.538 193.551 15.056 193.047 15.672C192.501 16.358 192.193 17.128 192.193 18.36C192.193 19.592 192.501 20.362 193.047 21.048C193.551 21.664 194.489 22.182 195.595 22.182C196.701 22.182 197.639 21.664 198.143 21.048C198.689 20.362 198.997 19.592 198.997 18.36ZM197.219 18.36C197.219 19.046 197.121 19.732 196.701 20.194C196.463 20.446 196.071 20.656 195.595 20.656C195.119 20.656 194.727 20.446 194.489 20.194C194.069 19.732 193.971 19.046 193.971 18.36C193.971 17.674 194.069 16.988 194.489 16.526C194.727 16.274 195.119 16.064 195.595 16.064C196.071 16.064 196.463 16.274 196.701 16.526C197.121 16.988 197.219 17.674 197.219 18.36ZM206.884 22V17.142C206.884 15.63 205.974 14.538 204.42 14.538C203.58 14.538 202.712 14.888 202.278 15.658L202.152 14.72H200.682V22H202.432V19.032C202.432 18.416 202.418 17.66 202.67 17.086C202.908 16.554 203.314 16.162 203.93 16.162C204.854 16.162 205.134 16.68 205.134 17.534V22H206.884ZM211.669 21.986V20.516C211.571 20.516 211.529 20.53 211.375 20.53C210.773 20.53 210.675 20.25 210.675 19.83V11.878H208.911V20.124C208.911 21.51 209.709 22.084 210.899 22.084C211.249 22.084 211.319 22.056 211.669 21.986ZM219.27 18.416C219.298 17.506 219.172 16.68 218.64 15.882C218.038 14.972 217.058 14.538 215.98 14.538C214.986 14.538 214.202 14.902 213.656 15.462C212.956 16.176 212.606 17.212 212.606 18.374C212.606 19.564 212.998 20.586 213.726 21.286C214.3 21.832 215.028 22.182 216.022 22.182C216.946 22.182 217.856 21.888 218.472 21.16C218.752 20.824 219.046 20.25 219.088 19.816H217.408C217.338 20.082 217.212 20.278 217.058 20.432C216.806 20.684 216.498 20.782 215.994 20.782C215.518 20.782 215.168 20.572 214.916 20.334C214.566 19.998 214.37 19.466 214.384 18.906H219.256C219.256 18.752 219.27 18.416 219.27 18.416ZM217.52 17.632H214.37C214.384 17.156 214.496 16.82 214.748 16.498C215 16.162 215.434 15.938 215.966 15.938C216.47 15.938 216.834 16.106 217.072 16.358C217.352 16.666 217.506 17.086 217.52 17.632ZM217.744 12.508L216.96 11.234L214.384 13.166L214.944 14.076L217.744 12.508ZM231.122 19.046C231.122 17.352 229.876 16.386 228.392 16.176C227.748 16.092 226.866 16.022 226.236 15.924C225.648 15.826 225.228 15.49 225.228 14.846C225.228 14.482 225.354 14.23 225.564 14.006C225.97 13.586 226.614 13.46 227.174 13.46C227.706 13.46 228.364 13.656 228.686 13.992C228.924 14.244 229.106 14.622 229.12 14.972H230.968C230.954 14.146 230.548 13.418 229.96 12.858C229.288 12.228 228.252 11.892 227.188 11.892C226.026 11.892 224.934 12.298 224.276 12.942C223.758 13.46 223.408 14.118 223.408 14.902C223.408 16.554 224.556 17.45 225.928 17.674C226.586 17.786 227.454 17.814 228.126 17.94C228.742 18.052 229.302 18.388 229.302 19.116C229.302 19.592 229.134 19.83 228.91 20.068C228.532 20.46 227.874 20.6 227.188 20.6C226.614 20.6 225.942 20.488 225.522 20.068C225.228 19.774 225.004 19.34 225.004 18.85H223.156C223.156 19.788 223.604 20.628 224.192 21.16C225.004 21.902 226.11 22.182 227.16 22.182C228.378 22.182 229.54 21.874 230.296 21.118C230.786 20.628 231.122 19.97 231.122 19.046ZM239.016 21.916V20.628C239.016 20.628 238.904 20.656 238.792 20.656C238.498 20.656 238.386 20.53 238.386 20.194V17.492C238.386 17.002 238.358 16.484 238.176 16.022C237.756 14.93 236.692 14.538 235.446 14.538C233.822 14.538 232.52 15.266 232.422 16.904H234.116C234.158 16.232 234.634 15.868 235.446 15.868C236.44 15.868 236.678 16.33 236.678 17.016V17.464L234.536 17.618C233.15 17.716 232.072 18.514 232.072 19.9C232.072 21.09 232.968 22.182 234.704 22.182C235.74 22.182 236.58 21.678 236.916 21.09C236.972 21.636 237.392 22.112 238.148 22.112C238.568 22.112 238.722 22.042 239.016 21.916ZM236.678 19.102C236.678 20.18 235.908 20.768 234.816 20.768C234.27 20.768 233.78 20.418 233.78 19.858C233.78 19.27 234.298 18.948 234.83 18.906L236.678 18.766V19.102ZM247.269 18.346C247.269 16.974 246.835 15.882 245.967 15.168C245.519 14.804 244.931 14.552 244.203 14.552C243.405 14.552 242.593 14.846 242.159 15.518L242.047 14.72H240.535V24.786H242.285V21.468C242.621 21.874 243.321 22.182 244.189 22.182C244.931 22.182 245.519 21.958 245.967 21.594C246.835 20.88 247.269 19.774 247.269 18.346ZM245.491 18.374C245.491 19.004 245.393 19.662 245.029 20.138C244.777 20.46 244.399 20.712 243.853 20.712C242.481 20.712 242.201 19.424 242.201 18.374C242.201 17.324 242.481 16.022 243.853 16.022C244.399 16.022 244.777 16.274 245.029 16.596C245.393 17.072 245.491 17.744 245.491 18.374Z" fill="black" fill-opacity="0.7"/>
<rect y="8" width="50" height="19" fill="#69B0C3"/>
</svg>
