<svg width="400" height="116" viewBox="0 0 400 116" fill="none" xmlns="http://www.w3.org/2000/svg">
<rect width="400" height="116" fill="white"/>
<path d="M8.694 22V16.568H4.578V18.066H6.944C6.944 18.822 6.832 19.438 6.3 19.998C5.964 20.348 5.46 20.572 4.816 20.572C4.242 20.572 3.598 20.362 3.206 19.942C2.52 19.228 2.422 17.954 2.422 17.044C2.422 16.134 2.506 14.902 3.192 14.188C3.584 13.768 4.242 13.516 4.816 13.516C5.502 13.516 6.048 13.712 6.398 14.118C6.608 14.37 6.804 14.636 6.832 15.028H8.68C8.624 14.16 8.26 13.53 7.77 13.026C7.098 12.34 6.048 11.892 4.83 11.892C3.766 11.892 2.632 12.298 1.876 13.054C0.798 14.132 0.588 15.42 0.588 17.044C0.588 18.668 0.84 19.998 1.876 21.076C2.66 21.902 3.682 22.196 4.83 22.182C6.076 22.168 7.028 21.482 7.322 20.908L7.532 22H8.694ZM13.3783 21.986V20.516C13.2803 20.516 13.2383 20.53 13.0843 20.53C12.4823 20.53 12.3843 20.25 12.3843 19.83V11.878H10.6203V20.124C10.6203 21.51 11.4183 22.084 12.6083 22.084C12.9583 22.084 13.0283 22.056 13.3783 21.986ZM21.1186 18.36C21.1186 17.128 20.8106 16.358 20.2646 15.672C19.7606 15.056 18.8226 14.538 17.7166 14.538C16.6106 14.538 15.6726 15.056 15.1686 15.672C14.6226 16.358 14.3146 17.128 14.3146 18.36C14.3146 19.592 14.6226 20.362 15.1686 21.048C15.6726 21.664 16.6106 22.182 17.7166 22.182C18.8226 22.182 19.7606 21.664 20.2646 21.048C20.8106 20.362 21.1186 19.592 21.1186 18.36ZM19.3406 18.36C19.3406 19.046 19.2426 19.732 18.8226 20.194C18.5846 20.446 18.1926 20.656 17.7166 20.656C17.2406 20.656 16.8486 20.446 16.6106 20.194C16.1906 19.732 16.0926 19.046 16.0926 18.36C16.0926 17.674 16.1906 16.988 16.6106 16.526C16.8486 16.274 17.2406 16.064 17.7166 16.064C18.1926 16.064 18.5846 16.274 18.8226 16.526C19.2426 16.988 19.3406 17.674 19.3406 18.36ZM29.5369 18.374C29.5369 16.946 29.1029 15.84 28.2349 15.126C27.7869 14.762 27.1989 14.538 26.4569 14.538C25.5889 14.538 24.8889 14.846 24.5529 15.252V11.892H22.8029V22H24.3149L24.4269 21.202C24.8609 21.874 25.6729 22.168 26.4709 22.168C27.1989 22.168 27.7869 21.916 28.2349 21.552C29.1029 20.838 29.5369 19.746 29.5369 18.374ZM27.7589 18.346C27.7589 18.976 27.6609 19.648 27.2969 20.124C27.0449 20.446 26.6669 20.698 26.1209 20.698C25.6729 20.698 25.3369 20.558 25.0989 20.334C24.5949 19.872 24.4689 19.06 24.4689 18.346C24.4689 17.296 24.7489 16.008 26.1209 16.008C26.6669 16.008 27.0449 16.26 27.2969 16.582C27.6609 17.058 27.7589 17.716 27.7589 18.346ZM37.5531 21.916V20.628C37.5531 20.628 37.4411 20.656 37.3291 20.656C37.0351 20.656 36.9231 20.53 36.9231 20.194V17.492C36.9231 17.002 36.8951 16.484 36.7131 16.022C36.2931 14.93 35.2291 14.538 33.9831 14.538C32.3591 14.538 31.0571 15.266 30.9591 16.904H32.6531C32.6951 16.232 33.1711 15.868 33.9831 15.868C34.9771 15.868 35.2151 16.33 35.2151 17.016V17.464L33.0731 17.618C31.6871 17.716 30.6091 18.514 30.6091 19.9C30.6091 21.09 31.5051 22.182 33.2411 22.182C34.2771 22.182 35.1171 21.678 35.4531 21.09C35.5091 21.636 35.9291 22.112 36.6851 22.112C37.1051 22.112 37.2591 22.042 37.5531 21.916ZM35.2151 19.102C35.2151 20.18 34.4451 20.768 33.3531 20.768C32.8071 20.768 32.3171 20.418 32.3171 19.858C32.3171 19.27 32.8351 18.948 33.3671 18.906L35.2151 18.766V19.102ZM41.7885 21.986V20.516C41.6905 20.516 41.6485 20.53 41.4945 20.53C40.8925 20.53 40.7945 20.25 40.7945 19.83V11.878H39.0305V20.124C39.0305 21.51 39.8285 22.084 41.0185 22.084C41.3685 22.084 41.4385 22.056 41.7885 21.986ZM53.9789 22V12.074H52.1729V15.952H48.0989V12.074H46.2929V22H48.0989V17.674H52.1729V22H53.9789ZM62.3067 22V14.72H60.5567V18.57C60.5567 19.158 60.4447 19.816 60.0247 20.208C59.8147 20.418 59.5347 20.572 59.1287 20.572C58.2047 20.572 57.8687 20.04 57.8687 19.186V14.72H56.1187V19.578C56.1187 21.132 57.0847 22.182 58.6387 22.182C59.5627 22.182 60.3747 21.762 60.7247 21.048L60.8507 22H62.3067ZM70.6905 22V17.142C70.6905 15.63 69.7805 14.538 68.2265 14.538C67.3865 14.538 66.5185 14.888 66.0845 15.658L65.9585 14.72H64.4885V22H66.2385V19.032C66.2385 18.416 66.2245 17.66 66.4765 17.086C66.7145 16.554 67.1205 16.162 67.7365 16.162C68.6605 16.162 68.9405 16.68 68.9405 17.534V22H70.6905ZM79.172 22.966C79.172 22.266 78.92 21.65 78.29 21.216C77.604 20.74 76.652 20.726 75.924 20.726H74.72C74.356 20.726 73.922 20.628 73.922 20.194C73.922 19.956 74.118 19.774 74.286 19.676C74.65 19.802 75.056 19.872 75.462 19.872C77.03 19.872 78.43 18.892 78.43 17.226C78.43 16.736 78.29 16.302 78.052 15.91C78.164 15.56 78.528 15.448 78.934 15.448C78.976 15.448 79.032 15.462 79.074 15.462V14.104C78.962 14.076 78.71 14.076 78.598 14.076C77.982 14.076 77.422 14.356 77.114 14.986C76.638 14.706 76.064 14.538 75.462 14.538C73.824 14.538 72.48 15.476 72.48 17.212C72.48 17.954 72.76 18.556 73.208 19.004C72.62 19.368 72.34 19.858 72.34 20.474C72.34 20.95 72.606 21.468 73.068 21.72C72.508 22 72.2 22.574 72.2 23.204C72.2 23.89 72.522 24.408 73.082 24.8C73.838 25.332 74.776 25.402 75.658 25.402C77.282 25.402 79.172 24.884 79.172 22.966ZM76.75 17.212C76.75 17.996 76.26 18.556 75.462 18.556C74.664 18.556 74.174 17.996 74.174 17.212C74.174 16.428 74.664 15.854 75.462 15.854C76.26 15.854 76.75 16.428 76.75 17.212ZM77.52 23.008C77.52 23.974 76.288 24.016 75.588 24.016C74.902 24.016 73.754 23.932 73.754 23.008C73.754 22.546 74.034 22.224 74.412 22.112H75.784C76.442 22.112 77.52 22.112 77.52 23.008ZM86.4942 18.416C86.5222 17.506 86.3962 16.68 85.8642 15.882C85.2622 14.972 84.2822 14.538 83.2042 14.538C82.2102 14.538 81.4262 14.902 80.8802 15.462C80.1802 16.176 79.8302 17.212 79.8302 18.374C79.8302 19.564 80.2222 20.586 80.9502 21.286C81.5242 21.832 82.2522 22.182 83.2462 22.182C84.1702 22.182 85.0802 21.888 85.6962 21.16C85.9762 20.824 86.2702 20.25 86.3122 19.816H84.6322C84.5622 20.082 84.4362 20.278 84.2822 20.432C84.0302 20.684 83.7222 20.782 83.2182 20.782C82.7422 20.782 82.3922 20.572 82.1402 20.334C81.7902 19.998 81.5942 19.466 81.6082 18.906H86.4802C86.4802 18.752 86.4942 18.416 86.4942 18.416ZM84.7442 17.632H81.5942C81.6082 17.156 81.7202 16.82 81.9722 16.498C82.2242 16.162 82.6582 15.938 83.1902 15.938C83.6942 15.938 84.0582 16.106 84.2962 16.358C84.5762 16.666 84.7302 17.086 84.7442 17.632ZM92.3692 16.344V14.664C92.1872 14.636 92.0052 14.622 91.8232 14.622C90.9692 14.622 90.1012 14.972 89.7652 15.812L89.6112 14.72H88.1272V22H89.8912V18.332C89.8912 17.156 90.5352 16.274 91.7672 16.274C91.9632 16.274 92.1732 16.302 92.3692 16.344ZM98.4804 22V12.074H96.6464V22H98.4804ZM106.935 22V17.142C106.935 15.63 106.025 14.538 104.471 14.538C103.631 14.538 102.763 14.888 102.329 15.658L102.203 14.72H100.733V22H102.483V19.032C102.483 18.416 102.469 17.66 102.721 17.086C102.959 16.554 103.365 16.162 103.981 16.162C104.905 16.162 105.185 16.68 105.185 17.534V22H106.935ZM115.234 22V11.892H113.484V15.224C113.176 14.846 112.504 14.538 111.58 14.538C110.838 14.538 110.25 14.762 109.802 15.126C108.934 15.84 108.5 16.946 108.5 18.374C108.5 19.746 108.92 20.838 109.788 21.552C110.236 21.916 110.838 22.168 111.566 22.168C112.364 22.168 113.176 21.874 113.61 21.202L113.722 22H115.234ZM113.568 18.346C113.568 19.396 113.288 20.698 111.916 20.698C111.37 20.698 110.992 20.446 110.74 20.124C110.376 19.648 110.278 18.976 110.278 18.346C110.278 17.716 110.376 17.058 110.74 16.582C110.992 16.26 111.37 16.008 111.916 16.008C113.288 16.008 113.568 17.296 113.568 18.346ZM123.572 18.416C123.6 17.506 123.474 16.68 122.942 15.882C122.34 14.972 121.36 14.538 120.282 14.538C119.288 14.538 118.504 14.902 117.958 15.462C117.258 16.176 116.908 17.212 116.908 18.374C116.908 19.564 117.3 20.586 118.028 21.286C118.602 21.832 119.33 22.182 120.324 22.182C121.248 22.182 122.158 21.888 122.774 21.16C123.054 20.824 123.348 20.25 123.39 19.816H121.71C121.64 20.082 121.514 20.278 121.36 20.432C121.108 20.684 120.8 20.782 120.296 20.782C119.82 20.782 119.47 20.572 119.218 20.334C118.868 19.998 118.672 19.466 118.686 18.906H123.558C123.558 18.752 123.572 18.416 123.572 18.416ZM121.822 17.632H118.672C118.686 17.156 118.798 16.82 119.05 16.498C119.302 16.162 119.736 15.938 120.268 15.938C120.772 15.938 121.136 16.106 121.374 16.358C121.654 16.666 121.808 17.086 121.822 17.632ZM131.159 14.72H129.241L127.659 17.072L126.035 14.72H124.019L126.581 18.29L124.033 22H125.951L127.547 19.564L129.171 22H131.145L128.653 18.304L131.159 14.72Z" fill="black" fill-opacity="0.7"/>
<path d="M66.02 48.66C66.02 47.316 65.072 46.452 63.656 46.248C63.188 46.176 62.72 46.092 62.24 46.032C61.604 45.948 60.968 45.6 60.968 44.832C60.968 44.448 61.1 44.16 61.316 43.908C61.688 43.488 62.216 43.32 62.828 43.32C63.488 43.32 64.004 43.536 64.328 43.908C64.568 44.184 64.724 44.556 64.748 44.976H65.864C65.84 44.256 65.564 43.644 65.048 43.152C64.484 42.612 63.668 42.336 62.84 42.336C61.952 42.336 61.196 42.624 60.608 43.176C60.152 43.608 59.864 44.22 59.864 44.856C59.864 46.212 60.86 46.92 62.132 47.112L63.476 47.316C64.484 47.472 64.904 48.024 64.904 48.684C64.904 49.14 64.736 49.44 64.472 49.68C64.088 50.04 63.536 50.172 62.888 50.172C62.288 50.172 61.64 50.016 61.256 49.644C60.908 49.308 60.656 48.804 60.656 48.3H59.54C59.54 49.104 59.912 49.836 60.452 50.34C61.028 50.868 61.856 51.156 62.888 51.156C63.8 51.156 64.712 50.88 65.3 50.304C65.72 49.896 66.02 49.368 66.02 48.66ZM72.6292 47.688C72.6412 46.872 72.3532 46.092 71.8612 45.552C71.4172 45.072 70.7932 44.772 70.0132 44.772C68.9572 44.772 68.1532 45.312 67.7212 46.044C67.3852 46.608 67.2532 47.256 67.2532 47.988C67.2532 48.852 67.5052 49.656 68.0092 50.244C68.4772 50.796 69.1732 51.156 70.0252 51.156C70.6012 51.156 71.1412 50.988 71.5732 50.7C72.0652 50.364 72.4252 49.8 72.5092 49.2H71.5132C71.4292 49.524 71.3212 49.692 71.1532 49.86C70.9012 50.124 70.5052 50.256 70.0252 50.256C69.5572 50.256 69.1852 50.1 68.9092 49.824C68.5372 49.452 68.3212 48.852 68.3212 48.3H72.6172L72.6292 47.688ZM71.5852 47.424H68.3452C68.3692 46.536 68.9092 45.636 70.0132 45.636C70.5532 45.636 70.9612 45.852 71.2132 46.188C71.4532 46.512 71.5852 46.968 71.5852 47.424ZM77.6186 45.924V44.928C77.4626 44.904 77.2946 44.892 77.1386 44.892C76.3706 44.892 75.6386 45.252 75.3266 45.996L75.2426 44.928H74.3426V51H75.3506V48.3C75.3506 47.664 75.4106 46.824 75.9026 46.356C76.1786 46.092 76.5746 45.876 77.0546 45.876C77.2346 45.876 77.4386 45.888 77.6186 45.924ZM80.064 43.536V42.336H78.876V43.536H80.064ZM79.992 51V44.928H78.948V51H79.992ZM87.1613 47.964C87.1613 47.004 86.9573 46.128 86.2973 45.48C85.8533 45.048 85.2293 44.772 84.4613 44.772C83.6933 44.772 83.0693 45.048 82.6253 45.48C81.9653 46.128 81.7613 47.004 81.7613 47.964C81.7613 48.924 81.9653 49.8 82.6253 50.448C83.0693 50.88 83.6933 51.156 84.4613 51.156C85.2293 51.156 85.8533 50.88 86.2973 50.448C86.9573 49.8 87.1613 48.924 87.1613 47.964ZM86.1173 47.964C86.1173 48.672 85.9853 49.404 85.5533 49.848C85.3013 50.1 84.9413 50.28 84.4613 50.28C83.9813 50.28 83.6213 50.1 83.3693 49.848C82.9373 49.404 82.8053 48.672 82.8053 47.964C82.8053 47.256 82.9373 46.524 83.3693 46.08C83.6213 45.828 83.9813 45.648 84.4613 45.648C84.9413 45.648 85.3013 45.828 85.5533 46.08C85.9853 46.524 86.1173 47.256 86.1173 47.964ZM93.6727 51V44.928H92.6527V48.084C92.6527 48.708 92.5327 49.368 92.1487 49.764C91.8847 50.04 91.5487 50.22 91.1407 50.22C90.1807 50.22 89.8447 49.68 89.8447 48.768V44.928H88.8247V48.912C88.8247 50.316 89.5207 51.144 90.9007 51.144C91.6087 51.144 92.3887 50.772 92.7007 50.076L92.7847 51H93.6727ZM100.405 49.236C100.405 48.324 99.7211 47.7 98.8571 47.556C98.2091 47.448 97.7291 47.4 97.3931 47.352C96.8891 47.28 96.5771 47.064 96.5771 46.56C96.5771 46.224 96.8051 45.9 97.1891 45.744C97.4771 45.624 97.6571 45.624 97.8971 45.624C98.3051 45.624 98.6411 45.72 98.8931 45.948C99.0731 46.104 99.2291 46.392 99.2411 46.704H100.261C100.261 46.212 100.093 45.864 99.8291 45.54C99.4211 45.024 98.7011 44.772 97.8971 44.772C97.1411 44.772 96.5051 45.036 96.1091 45.444C95.8331 45.72 95.6051 46.164 95.6051 46.632C95.6051 47.556 96.1811 48.12 97.0931 48.264L98.4611 48.444C99.0851 48.528 99.4091 48.852 99.4091 49.308C99.4091 49.584 99.2771 49.836 99.1091 49.968C98.7971 50.232 98.4131 50.304 97.9931 50.304C97.6091 50.304 97.1771 50.232 96.9011 50.028C96.6131 49.812 96.4211 49.5 96.4091 49.08H95.3891C95.3891 49.596 95.6051 50.112 95.9771 50.472C96.4931 50.976 97.1891 51.156 97.9451 51.156C98.7371 51.156 99.4571 50.952 99.9251 50.472C100.213 50.172 100.405 49.764 100.405 49.236Z" fill="black" fill-opacity="0.7"/>
<path d="M65.36 103V102.004H61.268V94.492H60.2V103H65.36ZM71.3996 99.964C71.3996 99.004 71.1956 98.128 70.5356 97.48C70.0916 97.048 69.4676 96.772 68.6996 96.772C67.9316 96.772 67.3076 97.048 66.8636 97.48C66.2036 98.128 65.9996 99.004 65.9996 99.964C65.9996 100.924 66.2036 101.8 66.8636 102.448C67.3076 102.88 67.9316 103.156 68.6996 103.156C69.4676 103.156 70.0916 102.88 70.5356 102.448C71.1956 101.8 71.3996 100.924 71.3996 99.964ZM70.3556 99.964C70.3556 100.672 70.2236 101.404 69.7916 101.848C69.5396 102.1 69.1796 102.28 68.6996 102.28C68.2196 102.28 67.8596 102.1 67.6076 101.848C67.1756 101.404 67.0436 100.672 67.0436 99.964C67.0436 99.256 67.1756 98.524 67.6076 98.08C67.8596 97.828 68.2196 97.648 68.6996 97.648C69.1796 97.648 69.5396 97.828 69.7916 98.08C70.2236 98.524 70.3556 99.256 70.3556 99.964ZM80.7324 96.928H79.7364L78.5604 101.512L77.0364 97H76.1604L74.6124 101.512L73.4484 96.928H72.4404L74.0004 103H74.9724L76.5924 98.356L78.1764 103H79.1604L80.7324 96.928Z" fill="black" fill-opacity="0.7"/>
<path d="M68.36 77V68.492H66.86L64.304 75.416L61.736 68.492H60.2V77H61.22V69.764L63.86 76.88H64.7L67.34 69.824V77H68.36ZM75.6066 73.964C75.6066 73.004 75.4026 72.128 74.7426 71.48C74.2986 71.048 73.6746 70.772 72.9066 70.772C72.1386 70.772 71.5146 71.048 71.0706 71.48C70.4106 72.128 70.2066 73.004 70.2066 73.964C70.2066 74.924 70.4106 75.8 71.0706 76.448C71.5146 76.88 72.1386 77.156 72.9066 77.156C73.6746 77.156 74.2986 76.88 74.7426 76.448C75.4026 75.8 75.6066 74.924 75.6066 73.964ZM74.5626 73.964C74.5626 74.672 74.4306 75.404 73.9986 75.848C73.7466 76.1 73.3866 76.28 72.9066 76.28C72.4266 76.28 72.0666 76.1 71.8146 75.848C71.3826 75.404 71.2506 74.672 71.2506 73.964C71.2506 73.256 71.3826 72.524 71.8146 72.08C72.0666 71.828 72.4266 71.648 72.9066 71.648C73.3866 71.648 73.7466 71.828 73.9986 72.08C74.4306 72.524 74.5626 73.256 74.5626 73.964ZM82.274 77V68.336H81.254V71.636C80.93 71.084 80.15 70.772 79.49 70.772C78.782 70.772 78.218 71.012 77.822 71.384C77.21 71.972 76.898 72.932 76.898 73.976C76.898 74.984 77.198 75.908 77.774 76.496C78.17 76.904 78.746 77.156 79.49 77.156C80.174 77.156 80.954 76.82 81.302 76.208L81.374 77H82.274ZM81.314 73.964C81.314 74.72 81.146 75.452 80.642 75.896C80.402 76.112 80.102 76.292 79.658 76.292C78.302 76.292 77.942 75.08 77.942 73.964C77.942 72.848 78.302 71.636 79.658 71.636C80.102 71.636 80.402 71.816 80.642 72.032C81.146 72.476 81.314 73.208 81.314 73.964ZM89.3987 73.688C89.4107 72.872 89.1227 72.092 88.6307 71.552C88.1867 71.072 87.5627 70.772 86.7827 70.772C85.7267 70.772 84.9227 71.312 84.4907 72.044C84.1547 72.608 84.0227 73.256 84.0227 73.988C84.0227 74.852 84.2747 75.656 84.7787 76.244C85.2467 76.796 85.9427 77.156 86.7947 77.156C87.3707 77.156 87.9107 76.988 88.3427 76.7C88.8347 76.364 89.1947 75.8 89.2787 75.2H88.2827C88.1987 75.524 88.0907 75.692 87.9227 75.86C87.6707 76.124 87.2747 76.256 86.7947 76.256C86.3267 76.256 85.9547 76.1 85.6787 75.824C85.3067 75.452 85.0907 74.852 85.0907 74.3H89.3867L89.3987 73.688ZM88.3547 73.424H85.1147C85.1387 72.536 85.6787 71.636 86.7827 71.636C87.3227 71.636 87.7307 71.852 87.9827 72.188C88.2227 72.512 88.3547 72.968 88.3547 73.424ZM94.3881 71.924V70.928C94.2321 70.904 94.0641 70.892 93.9081 70.892C93.1401 70.892 92.4081 71.252 92.0961 71.996L92.0121 70.928H91.1121V77H92.1201V74.3C92.1201 73.664 92.1801 72.824 92.6721 72.356C92.9481 72.092 93.3441 71.876 93.8241 71.876C94.0041 71.876 94.2081 71.888 94.3881 71.924ZM100.688 76.94V76.184C100.688 76.184 100.532 76.22 100.424 76.22C100.22 76.22 100.088 76.136 100.088 75.812V72.872C100.088 72.524 100.028 72.212 99.9084 71.936C99.6204 71.276 98.9484 70.772 97.7724 70.772C97.0284 70.772 96.3084 70.988 95.9004 71.42C95.5884 71.744 95.3844 72.14 95.3724 72.692H96.3684C96.3684 72.392 96.4764 72.152 96.6684 71.96C96.8724 71.756 97.2204 71.6 97.7724 71.6C98.2644 71.6 98.5644 71.72 98.7684 71.912C99.0444 72.164 99.0804 72.536 99.0804 72.836V73.28L97.2324 73.388C95.5764 73.484 95.0724 74.504 95.0724 75.284C95.0724 76.22 95.7684 77.156 97.1604 77.156C98.0124 77.156 98.7684 76.772 99.1164 76.16H99.1404C99.1404 76.676 99.4764 77.084 100.016 77.084C100.268 77.084 100.472 77.048 100.688 76.94ZM99.0804 74.432C99.0804 74.936 98.9244 75.44 98.5644 75.812C98.2404 76.148 97.7844 76.304 97.3164 76.304C96.4524 76.304 96.1164 75.8 96.1164 75.26C96.1164 74.492 96.8364 74.204 97.4484 74.168L99.0804 74.072V74.432ZM105.389 76.916V76.04C105.389 76.04 104.777 76.148 104.345 76.148C103.781 76.148 103.529 75.908 103.529 75.32V71.804H105.329V70.928H103.529V69.14L102.509 69.38V70.928H101.333V71.804H102.509V75.44C102.509 76.256 102.869 77.084 104.177 77.084C104.741 77.084 105.113 76.988 105.389 76.916ZM111.641 73.688C111.653 72.872 111.365 72.092 110.873 71.552C110.429 71.072 109.805 70.772 109.025 70.772C107.969 70.772 107.165 71.312 106.733 72.044C106.397 72.608 106.265 73.256 106.265 73.988C106.265 74.852 106.517 75.656 107.021 76.244C107.489 76.796 108.185 77.156 109.037 77.156C109.613 77.156 110.153 76.988 110.585 76.7C111.077 76.364 111.437 75.8 111.521 75.2H110.525C110.441 75.524 110.333 75.692 110.165 75.86C109.913 76.124 109.517 76.256 109.037 76.256C108.569 76.256 108.197 76.1 107.921 75.824C107.549 75.452 107.333 74.852 107.333 74.3H111.629L111.641 73.688ZM110.597 73.424H107.357C107.381 72.536 107.921 71.636 109.025 71.636C109.565 71.636 109.973 71.852 110.225 72.188C110.465 72.512 110.597 72.968 110.597 73.424Z" fill="black" fill-opacity="0.7"/>
<rect y="37" width="50" height="19" fill="#EBDF37" fill-opacity="0.8"/>
<rect y="63" width="50" height="19" fill="#90CB93" fill-opacity="0.8"/>
<rect y="89" width="50" height="19" fill="#29754D" fill-opacity="0.8"/>
</svg>
