<svg width="400" height="91" viewBox="0 0 400 91" fill="none" xmlns="http://www.w3.org/2000/svg">
<rect width="400" height="91" fill="white"/>
<path d="M11.956 18.452C11.956 17.836 11.858 17.262 11.522 16.772C11.088 16.142 10.458 15.764 9.548 15.764C8.638 15.764 8.008 16.142 7.574 16.772C7.238 17.262 7.14 17.836 7.14 18.452C7.14 19.068 7.238 19.642 7.574 20.132C8.008 20.762 8.638 21.14 9.548 21.14C10.458 21.14 11.088 20.762 11.522 20.132C11.858 19.642 11.956 19.068 11.956 18.452ZM10.402 11.62L9.338 10.878L2.268 20.496L3.304 21.28L10.402 11.62ZM5.446 13.622C5.446 13.006 5.348 12.432 5.012 11.942C4.578 11.312 3.948 10.934 3.038 10.934C2.128 10.934 1.498 11.312 1.064 11.942C0.728 12.432 0.63 13.006 0.63 13.622C0.63 14.238 0.728 14.812 1.064 15.302C1.498 15.932 2.128 16.31 3.038 16.31C3.948 16.31 4.578 15.932 5.012 15.302C5.348 14.812 5.446 14.238 5.446 13.622ZM10.57 18.452C10.57 19.208 10.416 19.936 9.548 19.936C8.68 19.936 8.526 19.208 8.526 18.452C8.526 17.696 8.68 16.968 9.548 16.968C10.416 16.968 10.57 17.696 10.57 18.452ZM4.06 13.622C4.06 14.378 3.906 15.106 3.038 15.106C2.17 15.106 2.016 14.378 2.016 13.622C2.016 12.866 2.17 12.138 3.038 12.138C3.906 12.138 4.06 12.866 4.06 13.622ZM23.9859 17.836H22.1379C22.0959 18.27 21.9419 18.62 21.6899 18.928C21.3679 19.334 20.8079 19.558 20.1919 19.558C19.6179 19.558 19.0579 19.32 18.6659 18.9C17.9799 18.186 17.9799 16.954 17.9799 16.044C17.9799 15.134 17.9799 13.902 18.6659 13.188C19.0579 12.768 19.6179 12.53 20.1919 12.53C20.8079 12.53 21.3679 12.74 21.6899 13.146C21.9419 13.454 22.0959 13.762 22.1379 14.196H23.9859C23.9019 13.412 23.6079 12.628 23.0339 12.04C22.2919 11.284 21.2559 10.892 20.1919 10.892C19.1279 10.892 18.1339 11.256 17.3779 12.012C16.2999 13.09 16.1459 14.42 16.1459 16.044C16.1459 17.668 16.2999 18.998 17.3779 20.076C18.1339 20.832 19.1279 21.182 20.1919 21.182C21.2559 21.182 22.2919 20.762 23.0339 20.006C23.6079 19.418 23.9019 18.62 23.9859 17.836ZM31.671 21V16.142C31.671 14.644 30.761 13.538 29.207 13.538C28.451 13.538 27.639 13.874 27.219 14.49V10.892H25.469V21H27.219V17.164C27.219 16.268 27.667 15.148 28.717 15.148C29.641 15.148 29.921 15.666 29.921 16.506V21H31.671ZM40.0824 20.916V19.628C40.0824 19.628 39.9704 19.656 39.8584 19.656C39.5644 19.656 39.4524 19.53 39.4524 19.194V16.492C39.4524 16.002 39.4244 15.484 39.2424 15.022C38.8224 13.93 37.7584 13.538 36.5124 13.538C34.8884 13.538 33.5864 14.266 33.4884 15.904H35.1824C35.2244 15.232 35.7004 14.868 36.5124 14.868C37.5064 14.868 37.7444 15.33 37.7444 16.016V16.464L35.6024 16.618C34.2164 16.716 33.1384 17.514 33.1384 18.9C33.1384 20.09 34.0344 21.182 35.7704 21.182C36.8064 21.182 37.6464 20.678 37.9824 20.09C38.0384 20.636 38.4584 21.112 39.2144 21.112C39.6344 21.112 39.7884 21.042 40.0824 20.916ZM37.7444 18.102C37.7444 19.18 36.9744 19.768 35.8824 19.768C35.3364 19.768 34.8464 19.418 34.8464 18.858C34.8464 18.27 35.3644 17.948 35.8964 17.906L37.7444 17.766V18.102ZM47.8038 21V16.142C47.8038 14.63 46.8938 13.538 45.3398 13.538C44.4998 13.538 43.6318 13.888 43.1978 14.658L43.0718 13.72H41.6018V21H43.3518V18.032C43.3518 17.416 43.3378 16.66 43.5898 16.086C43.8278 15.554 44.2338 15.162 44.8498 15.162C45.7738 15.162 46.0538 15.68 46.0538 16.534V21H47.8038ZM56.2853 21.966C56.2853 21.266 56.0333 20.65 55.4033 20.216C54.7173 19.74 53.7653 19.726 53.0373 19.726H51.8333C51.4693 19.726 51.0353 19.628 51.0353 19.194C51.0353 18.956 51.2313 18.774 51.3993 18.676C51.7633 18.802 52.1693 18.872 52.5753 18.872C54.1433 18.872 55.5433 17.892 55.5433 16.226C55.5433 15.736 55.4033 15.302 55.1653 14.91C55.2773 14.56 55.6413 14.448 56.0473 14.448C56.0893 14.448 56.1453 14.462 56.1873 14.462V13.104C56.0753 13.076 55.8233 13.076 55.7113 13.076C55.0953 13.076 54.5353 13.356 54.2273 13.986C53.7513 13.706 53.1773 13.538 52.5753 13.538C50.9373 13.538 49.5933 14.476 49.5933 16.212C49.5933 16.954 49.8733 17.556 50.3213 18.004C49.7333 18.368 49.4533 18.858 49.4533 19.474C49.4533 19.95 49.7193 20.468 50.1813 20.72C49.6213 21 49.3133 21.574 49.3133 22.204C49.3133 22.89 49.6353 23.408 50.1953 23.8C50.9513 24.332 51.8893 24.402 52.7713 24.402C54.3953 24.402 56.2853 23.884 56.2853 21.966ZM53.8633 16.212C53.8633 16.996 53.3733 17.556 52.5753 17.556C51.7773 17.556 51.2873 16.996 51.2873 16.212C51.2873 15.428 51.7773 14.854 52.5753 14.854C53.3733 14.854 53.8633 15.428 53.8633 16.212ZM54.6333 22.008C54.6333 22.974 53.4013 23.016 52.7013 23.016C52.0153 23.016 50.8673 22.932 50.8673 22.008C50.8673 21.546 51.1473 21.224 51.5253 21.112H52.8972C53.5553 21.112 54.6333 21.112 54.6333 22.008ZM63.6075 17.416C63.6355 16.506 63.5095 15.68 62.9775 14.882C62.3755 13.972 61.3955 13.538 60.3175 13.538C59.3235 13.538 58.5395 13.902 57.9935 14.462C57.2935 15.176 56.9435 16.212 56.9435 17.374C56.9435 18.564 57.3355 19.586 58.0635 20.286C58.6375 20.832 59.3655 21.182 60.3595 21.182C61.2835 21.182 62.1935 20.888 62.8095 20.16C63.0895 19.824 63.3835 19.25 63.4255 18.816H61.7455C61.6755 19.082 61.5495 19.278 61.3955 19.432C61.1435 19.684 60.8355 19.782 60.3315 19.782C59.8555 19.782 59.5055 19.572 59.2535 19.334C58.9035 18.998 58.7075 18.466 58.7215 17.906H63.5935C63.5935 17.752 63.6075 17.416 63.6075 17.416ZM61.8575 16.632H58.7075C58.7215 16.156 58.8335 15.82 59.0855 15.498C59.3375 15.162 59.7715 14.938 60.3035 14.938C60.8075 14.938 61.1715 15.106 61.4095 15.358C61.6895 15.666 61.8435 16.086 61.8575 16.632ZM70.0142 12.712V10.906H68.1382V12.712H70.0142ZM69.9722 21V13.72H68.1942V21H69.9722ZM78.3741 21V16.142C78.3741 14.63 77.4641 13.538 75.9101 13.538C75.0701 13.538 74.2021 13.888 73.7681 14.658L73.6421 13.72H72.1721V21H73.9221V18.032C73.9221 17.416 73.9081 16.66 74.1601 16.086C74.3981 15.554 74.8041 15.162 75.4201 15.162C76.3441 15.162 76.6241 15.68 76.6241 16.534V21H78.3741ZM91.2233 21L87.7373 11.074H85.7633L82.2773 21H84.0973L84.7413 19.096H88.6893L89.3333 21H91.2233ZM88.1293 17.472H85.3013L86.7153 13.286L88.1293 17.472ZM98.2097 13.72H96.4037L94.6817 18.844L92.8617 13.72H91.0137L93.7157 21H95.5777L98.2097 13.72ZM105.389 17.416C105.417 16.506 105.291 15.68 104.759 14.882C104.157 13.972 103.177 13.538 102.099 13.538C101.105 13.538 100.321 13.902 99.7747 14.462C99.0747 15.176 98.7247 16.212 98.7247 17.374C98.7247 18.564 99.1167 19.586 99.8447 20.286C100.419 20.832 101.147 21.182 102.141 21.182C103.065 21.182 103.975 20.888 104.591 20.16C104.871 19.824 105.165 19.25 105.207 18.816H103.527C103.457 19.082 103.331 19.278 103.177 19.432C102.925 19.684 102.617 19.782 102.113 19.782C101.637 19.782 101.287 19.572 101.035 19.334C100.685 18.998 100.489 18.466 100.503 17.906H105.375C105.375 17.752 105.389 17.416 105.389 17.416ZM103.639 16.632H100.489C100.503 16.156 100.615 15.82 100.867 15.498C101.119 15.162 101.553 14.938 102.085 14.938C102.589 14.938 102.953 15.106 103.191 15.358C103.471 15.666 103.625 16.086 103.639 16.632ZM111.264 15.344V13.664C111.082 13.636 110.9 13.622 110.718 13.622C109.864 13.622 108.996 13.972 108.66 14.812L108.506 13.72H107.022V21H108.786V17.332C108.786 16.156 109.43 15.274 110.662 15.274C110.858 15.274 111.068 15.302 111.264 15.344ZM118.75 20.916V19.628C118.75 19.628 118.638 19.656 118.526 19.656C118.232 19.656 118.12 19.53 118.12 19.194V16.492C118.12 16.002 118.092 15.484 117.91 15.022C117.49 13.93 116.426 13.538 115.18 13.538C113.556 13.538 112.254 14.266 112.156 15.904H113.85C113.892 15.232 114.368 14.868 115.18 14.868C116.174 14.868 116.412 15.33 116.412 16.016V16.464L114.27 16.618C112.884 16.716 111.806 17.514 111.806 18.9C111.806 20.09 112.702 21.182 114.438 21.182C115.474 21.182 116.314 20.678 116.65 20.09C116.706 20.636 117.126 21.112 117.882 21.112C118.302 21.112 118.456 21.042 118.75 20.916ZM116.412 18.102C116.412 19.18 115.642 19.768 114.55 19.768C114.004 19.768 113.514 19.418 113.514 18.858C113.514 18.27 114.032 17.948 114.564 17.906L116.412 17.766V18.102ZM126.682 21.966C126.682 21.266 126.43 20.65 125.8 20.216C125.114 19.74 124.162 19.726 123.434 19.726H122.23C121.866 19.726 121.432 19.628 121.432 19.194C121.432 18.956 121.628 18.774 121.796 18.676C122.16 18.802 122.566 18.872 122.972 18.872C124.54 18.872 125.94 17.892 125.94 16.226C125.94 15.736 125.8 15.302 125.562 14.91C125.674 14.56 126.038 14.448 126.444 14.448C126.486 14.448 126.542 14.462 126.584 14.462V13.104C126.472 13.076 126.22 13.076 126.108 13.076C125.492 13.076 124.932 13.356 124.624 13.986C124.148 13.706 123.574 13.538 122.972 13.538C121.334 13.538 119.99 14.476 119.99 16.212C119.99 16.954 120.27 17.556 120.718 18.004C120.13 18.368 119.85 18.858 119.85 19.474C119.85 19.95 120.116 20.468 120.578 20.72C120.018 21 119.71 21.574 119.71 22.204C119.71 22.89 120.032 23.408 120.592 23.8C121.348 24.332 122.286 24.402 123.168 24.402C124.792 24.402 126.682 23.884 126.682 21.966ZM124.26 16.212C124.26 16.996 123.77 17.556 122.972 17.556C122.174 17.556 121.684 16.996 121.684 16.212C121.684 15.428 122.174 14.854 122.972 14.854C123.77 14.854 124.26 15.428 124.26 16.212ZM125.03 22.008C125.03 22.974 123.798 23.016 123.098 23.016C122.412 23.016 121.264 22.932 121.264 22.008C121.264 21.546 121.544 21.224 121.922 21.112H123.294C123.952 21.112 125.03 21.112 125.03 22.008ZM134.004 17.416C134.032 16.506 133.906 15.68 133.374 14.882C132.772 13.972 131.792 13.538 130.714 13.538C129.72 13.538 128.936 13.902 128.39 14.462C127.69 15.176 127.34 16.212 127.34 17.374C127.34 18.564 127.732 19.586 128.46 20.286C129.034 20.832 129.762 21.182 130.756 21.182C131.68 21.182 132.59 20.888 133.206 20.16C133.486 19.824 133.78 19.25 133.822 18.816H132.142C132.072 19.082 131.946 19.278 131.792 19.432C131.54 19.684 131.232 19.782 130.728 19.782C130.252 19.782 129.902 19.572 129.65 19.334C129.3 18.998 129.104 18.466 129.118 17.906H133.99C133.99 17.752 134.004 17.416 134.004 17.416ZM132.254 16.632H129.104C129.118 16.156 129.23 15.82 129.482 15.498C129.734 15.162 130.168 14.938 130.7 14.938C131.204 14.938 131.568 15.106 131.806 15.358C132.086 15.666 132.24 16.086 132.254 16.632ZM146.025 14.252C146.025 12.348 144.807 11.074 142.525 11.074H138.633V21H140.425V17.444H142.525C144.807 17.444 146.025 16.156 146.025 14.252ZM144.205 14.266C144.205 15.218 143.659 15.862 142.455 15.862H140.425V12.656H142.455C143.659 12.656 144.205 13.314 144.205 14.266ZM151.541 15.344V13.664C151.359 13.636 151.177 13.622 150.995 13.622C150.141 13.622 149.273 13.972 148.937 14.812L148.783 13.72H147.299V21H149.063V17.332C149.063 16.156 149.707 15.274 150.939 15.274C151.135 15.274 151.345 15.302 151.541 15.344ZM158.846 17.416C158.874 16.506 158.748 15.68 158.216 14.882C157.614 13.972 156.634 13.538 155.556 13.538C154.562 13.538 153.778 13.902 153.232 14.462C152.532 15.176 152.182 16.212 152.182 17.374C152.182 18.564 152.574 19.586 153.302 20.286C153.876 20.832 154.604 21.182 155.598 21.182C156.522 21.182 157.432 20.888 158.048 20.16C158.328 19.824 158.622 19.25 158.664 18.816H156.984C156.914 19.082 156.788 19.278 156.634 19.432C156.382 19.684 156.074 19.782 155.57 19.782C155.094 19.782 154.744 19.572 154.492 19.334C154.142 18.998 153.946 18.466 153.96 17.906H158.832C158.832 17.752 158.846 17.416 158.846 17.416ZM157.096 16.632H153.946C153.96 16.156 154.072 15.82 154.324 15.498C154.576 15.162 155.01 14.938 155.542 14.938C156.046 14.938 156.41 15.106 156.648 15.358C156.928 15.666 157.082 16.086 157.096 16.632ZM166.359 18.424H164.637C164.623 18.69 164.539 18.914 164.427 19.096C164.217 19.418 163.839 19.642 163.307 19.642C162.831 19.642 162.481 19.432 162.243 19.18C161.823 18.718 161.753 18.032 161.753 17.346C161.753 16.66 161.823 15.96 162.243 15.498C162.481 15.246 162.831 15.05 163.307 15.05C163.839 15.05 164.217 15.274 164.427 15.596C164.539 15.778 164.623 16.002 164.637 16.268H166.359C166.331 15.694 166.135 15.12 165.799 14.686C165.295 14.056 164.413 13.538 163.307 13.538C162.201 13.538 161.277 14.07 160.773 14.686C160.227 15.372 159.975 16.282 159.975 17.346C159.975 18.41 160.227 19.32 160.773 20.006C161.277 20.622 162.201 21.154 163.307 21.154C164.413 21.154 165.295 20.636 165.799 20.006C166.135 19.572 166.331 18.998 166.359 18.424ZM169.764 12.712V10.906H167.888V12.712H169.764ZM169.722 21V13.72H167.944V21H169.722ZM178.656 17.346C178.656 15.974 178.222 14.882 177.354 14.168C176.906 13.804 176.318 13.552 175.59 13.552C174.792 13.552 173.98 13.846 173.546 14.518L173.434 13.72H171.922V23.786H173.672V20.468C174.008 20.874 174.708 21.182 175.576 21.182C176.318 21.182 176.906 20.958 177.354 20.594C178.222 19.88 178.656 18.774 178.656 17.346ZM176.878 17.374C176.878 18.004 176.78 18.662 176.416 19.138C176.164 19.46 175.786 19.712 175.24 19.712C173.868 19.712 173.588 18.424 173.588 17.374C173.588 16.324 173.868 15.022 175.24 15.022C175.786 15.022 176.164 15.274 176.416 15.596C176.78 16.072 176.878 16.744 176.878 17.374ZM182.178 12.712V10.906H180.302V12.712H182.178ZM182.136 21V13.72H180.358V21H182.136ZM188.452 20.902V19.432C187.976 19.488 187.682 19.502 187.318 19.502C186.758 19.502 186.506 19.264 186.506 18.704V15.162H188.34V13.72H186.506V11.438L184.756 11.872V13.72H183.426V15.162H184.756V18.858C184.756 20.258 185.484 21.098 186.954 21.098C187.472 21.098 187.962 21.028 188.452 20.902ZM196.284 20.916V19.628C196.284 19.628 196.172 19.656 196.06 19.656C195.766 19.656 195.654 19.53 195.654 19.194V16.492C195.654 16.002 195.626 15.484 195.444 15.022C195.024 13.93 193.96 13.538 192.714 13.538C191.09 13.538 189.788 14.266 189.69 15.904H191.384C191.426 15.232 191.902 14.868 192.714 14.868C193.708 14.868 193.946 15.33 193.946 16.016V16.464L191.804 16.618C190.418 16.716 189.34 17.514 189.34 18.9C189.34 20.09 190.236 21.182 191.972 21.182C193.008 21.182 193.848 20.678 194.184 20.09C194.24 20.636 194.66 21.112 195.416 21.112C195.836 21.112 195.99 21.042 196.284 20.916ZM193.946 18.102C193.946 19.18 193.176 19.768 192.084 19.768C191.538 19.768 191.048 19.418 191.048 18.858C191.048 18.27 191.566 17.948 192.098 17.906L193.946 17.766V18.102ZM201.851 20.902V19.432C201.375 19.488 201.081 19.502 200.717 19.502C200.157 19.502 199.905 19.264 199.905 18.704V15.162H201.739V13.72H199.905V11.438L198.155 11.872V13.72H196.825V15.162H198.155V18.858C198.155 20.258 198.883 21.098 200.353 21.098C200.871 21.098 201.361 21.028 201.851 20.902ZM205.188 12.712V10.906H203.312V12.712H205.188ZM205.146 21V13.72H203.368V21H205.146ZM213.646 17.36C213.646 16.128 213.338 15.358 212.792 14.672C212.288 14.056 211.35 13.538 210.244 13.538C209.138 13.538 208.2 14.056 207.696 14.672C207.15 15.358 206.842 16.128 206.842 17.36C206.842 18.592 207.15 19.362 207.696 20.048C208.2 20.664 209.138 21.182 210.244 21.182C211.35 21.182 212.288 20.664 212.792 20.048C213.338 19.362 213.646 18.592 213.646 17.36ZM211.868 17.36C211.868 18.046 211.77 18.732 211.35 19.194C211.112 19.446 210.72 19.656 210.244 19.656C209.768 19.656 209.376 19.446 209.138 19.194C208.718 18.732 208.62 18.046 208.62 17.36C208.62 16.674 208.718 15.988 209.138 15.526C209.376 15.274 209.768 15.064 210.244 15.064C210.72 15.064 211.112 15.274 211.35 15.526C211.77 15.988 211.868 16.674 211.868 17.36ZM221.532 21V16.142C221.532 14.63 220.622 13.538 219.068 13.538C218.228 13.538 217.36 13.888 216.926 14.658L216.8 13.72H215.33V21H217.08V18.032C217.08 17.416 217.066 16.66 217.318 16.086C217.556 15.554 217.962 15.162 218.578 15.162C219.502 15.162 219.782 15.68 219.782 16.534V21H221.532ZM228.376 12.712V10.906H226.5V12.712H228.376ZM228.334 21V13.72H226.556V21H228.334ZM236.735 21V16.142C236.735 14.63 235.825 13.538 234.271 13.538C233.431 13.538 232.563 13.888 232.129 14.658L232.003 13.72H230.533V21H232.283V18.032C232.283 17.416 232.269 16.66 232.521 16.086C232.759 15.554 233.165 15.162 233.781 15.162C234.705 15.162 234.985 15.68 234.985 16.534V21H236.735ZM252.609 11.074H250.957L249.543 17.976L247.541 11.228H246.029L243.985 17.976L242.599 11.074H240.877L242.879 21H244.685L246.757 14.154L248.829 21H250.635L252.609 11.074ZM259.895 17.416C259.923 16.506 259.797 15.68 259.265 14.882C258.663 13.972 257.683 13.538 256.605 13.538C255.611 13.538 254.827 13.902 254.281 14.462C253.581 15.176 253.231 16.212 253.231 17.374C253.231 18.564 253.623 19.586 254.351 20.286C254.925 20.832 255.653 21.182 256.647 21.182C257.571 21.182 258.481 20.888 259.097 20.16C259.377 19.824 259.671 19.25 259.713 18.816H258.033C257.963 19.082 257.837 19.278 257.683 19.432C257.431 19.684 257.123 19.782 256.619 19.782C256.143 19.782 255.793 19.572 255.541 19.334C255.191 18.998 254.995 18.466 255.009 17.906H259.881C259.881 17.752 259.895 17.416 259.895 17.416ZM258.145 16.632H254.995C255.009 16.156 255.121 15.82 255.373 15.498C255.625 15.162 256.059 14.938 256.591 14.938C257.095 14.938 257.459 15.106 257.697 15.358C257.977 15.666 258.131 16.086 258.145 16.632ZM265.575 20.902V19.432C265.099 19.488 264.805 19.502 264.441 19.502C263.881 19.502 263.629 19.264 263.629 18.704V15.162H265.463V13.72H263.629V11.438L261.879 11.872V13.72H260.549V15.162H261.879V18.858C261.879 20.258 262.607 21.098 264.077 21.098C264.595 21.098 265.085 21.028 265.575 20.902ZM277.284 18.046C277.284 16.352 276.038 15.386 274.554 15.176C273.91 15.092 273.028 15.022 272.398 14.924C271.81 14.826 271.39 14.49 271.39 13.846C271.39 13.482 271.516 13.23 271.726 13.006C272.132 12.586 272.776 12.46 273.336 12.46C273.868 12.46 274.526 12.656 274.848 12.992C275.086 13.244 275.268 13.622 275.282 13.972H277.13C277.116 13.146 276.71 12.418 276.122 11.858C275.45 11.228 274.414 10.892 273.35 10.892C272.188 10.892 271.096 11.298 270.438 11.942C269.92 12.46 269.57 13.118 269.57 13.902C269.57 15.554 270.718 16.45 272.09 16.674C272.748 16.786 273.616 16.814 274.288 16.94C274.904 17.052 275.464 17.388 275.464 18.116C275.464 18.592 275.296 18.83 275.072 19.068C274.694 19.46 274.036 19.6 273.35 19.6C272.776 19.6 272.104 19.488 271.684 19.068C271.39 18.774 271.166 18.34 271.166 17.85H269.318C269.318 18.788 269.766 19.628 270.354 20.16C271.166 20.902 272.272 21.182 273.322 21.182C274.54 21.182 275.702 20.874 276.458 20.118C276.948 19.628 277.284 18.97 277.284 18.046ZM284.996 17.416C285.024 16.506 284.898 15.68 284.366 14.882C283.764 13.972 282.784 13.538 281.706 13.538C280.712 13.538 279.928 13.902 279.382 14.462C278.682 15.176 278.332 16.212 278.332 17.374C278.332 18.564 278.724 19.586 279.452 20.286C280.026 20.832 280.754 21.182 281.748 21.182C282.672 21.182 283.582 20.888 284.198 20.16C284.478 19.824 284.772 19.25 284.814 18.816H283.134C283.064 19.082 282.938 19.278 282.784 19.432C282.532 19.684 282.224 19.782 281.72 19.782C281.244 19.782 280.894 19.572 280.642 19.334C280.292 18.998 280.096 18.466 280.11 17.906H284.982C284.982 17.752 284.996 17.416 284.996 17.416ZM283.246 16.632H280.096C280.11 16.156 280.222 15.82 280.474 15.498C280.726 15.162 281.16 14.938 281.692 14.938C282.196 14.938 282.56 15.106 282.798 15.358C283.078 15.666 283.232 16.086 283.246 16.632ZM292.971 20.916V19.628C292.971 19.628 292.859 19.656 292.747 19.656C292.453 19.656 292.341 19.53 292.341 19.194V16.492C292.341 16.002 292.313 15.484 292.131 15.022C291.711 13.93 290.647 13.538 289.401 13.538C287.777 13.538 286.475 14.266 286.377 15.904H288.071C288.113 15.232 288.589 14.868 289.401 14.868C290.395 14.868 290.633 15.33 290.633 16.016V16.464L288.491 16.618C287.105 16.716 286.027 17.514 286.027 18.9C286.027 20.09 286.923 21.182 288.659 21.182C289.695 21.182 290.535 20.678 290.871 20.09C290.927 20.636 291.347 21.112 292.103 21.112C292.523 21.112 292.677 21.042 292.971 20.916ZM290.633 18.102C290.633 19.18 289.863 19.768 288.771 19.768C288.225 19.768 287.735 19.418 287.735 18.858C287.735 18.27 288.253 17.948 288.785 17.906L290.633 17.766V18.102ZM300.146 18.746C300.146 17.598 299.306 16.87 298.158 16.688C297.444 16.576 297.262 16.562 296.604 16.478C296.212 16.422 295.764 16.268 295.764 15.75C295.764 15.372 296.016 15.106 296.324 14.98C296.59 14.868 296.828 14.868 297.08 14.868C297.444 14.868 297.822 14.994 298.032 15.204C298.2 15.386 298.326 15.61 298.326 15.89H299.992C299.992 15.358 299.74 14.812 299.348 14.392C298.816 13.818 297.934 13.538 297.066 13.538C296.156 13.538 295.386 13.804 294.854 14.266C294.42 14.644 294.112 15.162 294.112 15.904C294.112 16.828 294.784 17.64 295.778 17.85C296.422 17.99 297.15 18.032 297.794 18.13C298.242 18.2 298.522 18.48 298.522 18.9C298.522 19.698 297.626 19.824 297.038 19.824C296.534 19.824 296.212 19.726 295.932 19.502C295.708 19.32 295.54 18.97 295.54 18.648H293.902C293.902 19.334 294.252 19.936 294.672 20.342C295.274 20.916 296.1 21.182 297.024 21.182C298.018 21.182 298.928 20.93 299.516 20.342C299.894 19.964 300.146 19.446 300.146 18.746ZM308.091 17.36C308.091 16.128 307.783 15.358 307.237 14.672C306.733 14.056 305.795 13.538 304.689 13.538C303.583 13.538 302.645 14.056 302.141 14.672C301.595 15.358 301.287 16.128 301.287 17.36C301.287 18.592 301.595 19.362 302.141 20.048C302.645 20.664 303.583 21.182 304.689 21.182C305.795 21.182 306.733 20.664 307.237 20.048C307.783 19.362 308.091 18.592 308.091 17.36ZM306.313 17.36C306.313 18.046 306.215 18.732 305.795 19.194C305.557 19.446 305.165 19.656 304.689 19.656C304.213 19.656 303.821 19.446 303.583 19.194C303.163 18.732 303.065 18.046 303.065 17.36C303.065 16.674 303.163 15.988 303.583 15.526C303.821 15.274 304.213 15.064 304.689 15.064C305.165 15.064 305.557 15.274 305.795 15.526C306.215 15.988 306.313 16.674 306.313 17.36ZM315.978 21V16.142C315.978 14.63 315.068 13.538 313.514 13.538C312.674 13.538 311.806 13.888 311.372 14.658L311.246 13.72H309.776V21H311.526V18.032C311.526 17.416 311.512 16.66 311.764 16.086C312.002 15.554 312.408 15.162 313.024 15.162C313.948 15.162 314.228 15.68 314.228 16.534V21H315.978Z" fill="black" fill-opacity="0.7"/>
<path d="M30.8743 72.202V71.355H25.9683V72.202H29.8843L26.7053 79H27.7173L30.8743 72.202Z" fill="black" fill-opacity="0.7"/>
<path d="M87.9733 76.899C87.9733 76.063 87.4783 75.337 86.7743 75.018C87.4013 74.688 87.8193 74.028 87.8193 73.291C87.8193 72.664 87.5663 72.169 87.1923 71.817C86.7633 71.421 86.1693 71.212 85.4983 71.212C84.8273 71.212 84.2333 71.421 83.8043 71.817C83.4303 72.169 83.1773 72.664 83.1773 73.291C83.1773 74.028 83.5953 74.688 84.2223 75.018C83.5183 75.337 83.0233 76.063 83.0233 76.899C83.0233 77.482 83.2213 77.944 83.5293 78.307C83.9803 78.846 84.6953 79.143 85.4983 79.143C86.3013 79.143 87.0163 78.846 87.4673 78.307C87.7753 77.944 87.9733 77.482 87.9733 76.899ZM86.8733 73.291C86.8733 73.995 86.3783 74.611 85.4983 74.611C84.6183 74.611 84.1233 73.995 84.1233 73.291C84.1233 72.51 84.7393 72.026 85.4983 72.026C86.2573 72.026 86.8733 72.51 86.8733 73.291ZM87.0273 76.855C87.0273 77.757 86.3893 78.318 85.4983 78.318C84.6073 78.318 83.9693 77.757 83.9693 76.855C83.9693 76.041 84.5303 75.425 85.4983 75.425C86.4663 75.425 87.0273 76.041 87.0273 76.855Z" fill="black" fill-opacity="0.7"/>
<path d="M144.973 75.062C144.973 73.984 144.874 72.906 144.324 72.147C143.95 71.641 143.312 71.212 142.454 71.212C141.662 71.212 141.057 71.498 140.65 71.938C140.221 72.411 139.957 73.038 139.957 73.808C139.957 74.622 140.232 75.315 140.727 75.788C141.09 76.14 141.64 76.382 142.333 76.382C143.059 76.382 143.785 76.019 144.027 75.491C144.016 76.294 143.972 77.284 143.488 77.834C143.257 78.098 142.927 78.296 142.443 78.296C142.08 78.296 141.805 78.197 141.585 77.999C141.354 77.801 141.178 77.515 141.156 77.141H140.21C140.232 77.702 140.485 78.175 140.826 78.516C141.211 78.912 141.761 79.143 142.41 79.143C143.378 79.143 144.038 78.681 144.401 78.109C144.918 77.284 144.973 76.151 144.973 75.062ZM143.928 73.797C143.928 74.336 143.785 74.765 143.499 75.084C143.268 75.348 142.916 75.546 142.432 75.546C141.948 75.546 141.585 75.37 141.354 75.106C141.068 74.787 140.903 74.336 140.903 73.797C140.903 73.258 141.057 72.807 141.354 72.488C141.596 72.224 141.926 72.048 142.41 72.048C142.894 72.048 143.235 72.246 143.477 72.51C143.774 72.829 143.928 73.258 143.928 73.797Z" fill="black" fill-opacity="0.7"/>
<path d="M197.83 79V71.355H196.928L195.058 72.708V73.753L196.873 72.422V79H197.83ZM205.687 75.172C205.687 73.698 205.555 72.62 204.785 71.839C204.411 71.465 203.894 71.212 203.135 71.212C202.376 71.212 201.859 71.465 201.485 71.839C200.715 72.62 200.583 73.698 200.583 75.172C200.583 76.646 200.715 77.713 201.485 78.494C201.859 78.868 202.376 79.143 203.135 79.143C203.894 79.143 204.411 78.868 204.785 78.494C205.555 77.713 205.687 76.646 205.687 75.172ZM204.708 75.172C204.708 76.206 204.73 77.317 204.081 77.933C203.861 78.142 203.542 78.285 203.135 78.285C202.728 78.285 202.409 78.142 202.189 77.933C201.54 77.317 201.562 76.206 201.562 75.172C201.562 74.138 201.54 73.027 202.189 72.411C202.409 72.202 202.728 72.059 203.135 72.059C203.542 72.059 203.861 72.202 204.081 72.411C204.73 73.027 204.708 74.138 204.708 75.172Z" fill="black" fill-opacity="0.7"/>
<path d="M311.83 79V71.355H310.928L309.058 72.708V73.753L310.873 72.422V79H311.83ZM319.434 79V78.12H316.068L318.664 74.897C319.082 74.38 319.313 73.874 319.313 73.269C319.313 72.785 319.192 72.411 318.961 72.081C318.576 71.542 317.927 71.212 317.091 71.212C315.738 71.212 314.836 72.103 314.836 73.434H315.804C315.804 72.422 316.42 72.048 317.102 72.048C317.905 72.048 318.356 72.499 318.356 73.28C318.356 73.676 318.224 74.017 317.938 74.38L314.847 78.197V79H319.434Z" fill="black" fill-opacity="0.7"/>
<path d="M360.155 79V71.355H359.253L357.383 72.708V73.753L359.198 72.422V79H360.155ZM367.815 76.91C367.815 76.118 367.353 75.315 366.539 75.04C367.166 74.776 367.661 74.028 367.661 73.313C367.661 72.653 367.43 72.169 367.045 71.817C366.638 71.432 366.055 71.212 365.417 71.212C364.757 71.212 364.207 71.399 363.778 71.751C363.327 72.125 363.052 72.675 363.041 73.434H363.998C364.009 72.972 364.163 72.598 364.46 72.356C364.691 72.169 364.977 72.048 365.395 72.048C365.813 72.048 366.121 72.213 366.33 72.422C366.572 72.653 366.693 72.961 366.693 73.313C366.693 74.116 366.165 74.6 365.285 74.6H364.823V75.469H365.285C366.22 75.469 366.858 75.953 366.858 76.888C366.858 77.306 366.704 77.625 366.495 77.856C366.231 78.153 365.846 78.296 365.384 78.296C364.9 78.296 364.57 78.12 364.339 77.867C364.086 77.603 363.965 77.24 363.943 76.811H362.986C362.997 77.515 363.239 78.054 363.635 78.45C364.064 78.879 364.647 79.143 365.384 79.143C366.242 79.143 366.825 78.879 367.232 78.45C367.606 78.054 367.815 77.504 367.815 76.91ZM372.636 76.118V75.249H369.369V76.118H372.636ZM377.504 79V71.355H376.602L374.732 72.708V73.753L376.547 72.422V79H377.504ZM385.548 77.372V76.525H384.514V74.248H383.568V76.525H380.961L383.953 71.355H382.963L380.059 76.393V77.372H383.568V79H384.514V77.372H385.548Z" fill="black" fill-opacity="0.7"/>
<path d="M254.83 79V71.355H253.928L252.058 72.708V73.753L253.873 72.422V79H254.83ZM261.103 79V71.355H260.201L258.331 72.708V73.753L260.146 72.422V79H261.103Z" fill="black" fill-opacity="0.7"/>
<rect y="36" width="57" height="30" fill="#1081E5" fill-opacity="0.5"/>
<rect x="57" y="36" width="57" height="30" fill="#66B2F4" fill-opacity="0.5"/>
<rect x="114" y="36" width="57" height="30" fill="#98E6CA" fill-opacity="0.5"/>
<rect x="343" y="36" width="57" height="30" fill="#E41111" fill-opacity="0.5"/>
<rect x="171" y="36" width="58" height="30" fill="#E8EB8E" fill-opacity="0.5"/>
<rect x="229" y="36" width="57" height="30" fill="#F1C937" fill-opacity="0.5"/>
<rect x="286" y="36" width="57" height="30" fill="#F0750A" fill-opacity="0.5"/>
</svg>
