<svg width="400" height="93" viewBox="0 0 400 93" fill="none" xmlns="http://www.w3.org/2000/svg">
<rect width="400" height="93" fill="white"/>
<path d="M11.97 12.074H10.318L8.904 18.976L6.902 12.228H5.39L3.346 18.976L1.96 12.074H0.238L2.24 22H4.046L6.118 15.154L8.19 22H9.996L11.97 12.074ZM19.3959 18.36C19.3959 17.128 19.0879 16.358 18.5419 15.672C18.0379 15.056 17.0999 14.538 15.9939 14.538C14.8879 14.538 13.9499 15.056 13.4459 15.672C12.8999 16.358 12.5919 17.128 12.5919 18.36C12.5919 19.592 12.8999 20.362 13.4459 21.048C13.9499 21.664 14.8879 22.182 15.9939 22.182C17.0999 22.182 18.0379 21.664 18.5419 21.048C19.0879 20.362 19.3959 19.592 19.3959 18.36ZM17.6179 18.36C17.6179 19.046 17.5199 19.732 17.0999 20.194C16.8619 20.446 16.4699 20.656 15.9939 20.656C15.5179 20.656 15.1259 20.446 14.8879 20.194C14.4679 19.732 14.3699 19.046 14.3699 18.36C14.3699 17.674 14.4679 16.988 14.8879 16.526C15.1259 16.274 15.5179 16.064 15.9939 16.064C16.4699 16.064 16.8619 16.274 17.0999 16.526C17.5199 16.988 17.6179 17.674 17.6179 18.36ZM25.3223 16.344V14.664C25.1403 14.636 24.9583 14.622 24.7763 14.622C23.9223 14.622 23.0543 14.972 22.7183 15.812L22.5643 14.72H21.0803V22H22.8443V18.332C22.8443 17.156 23.4883 16.274 24.7203 16.274C24.9163 16.274 25.1263 16.302 25.3223 16.344ZM33.5897 22L30.7057 17.534L33.3097 14.72H31.1117L28.3537 17.674V11.892H26.6037V22H28.3537V20.082L29.5157 18.822L31.5597 22H33.5897ZM36.5318 13.712V11.906H34.6558V13.712H36.5318ZM36.4898 22V14.72H34.7118V22H36.4898ZM44.8917 22V17.142C44.8917 15.63 43.9817 14.538 42.4277 14.538C41.5877 14.538 40.7197 14.888 40.2857 15.658L40.1597 14.72H38.6897V22H40.4397V19.032C40.4397 18.416 40.4257 17.66 40.6777 17.086C40.9157 16.554 41.3217 16.162 41.9377 16.162C42.8617 16.162 43.1417 16.68 43.1417 17.534V22H44.8917ZM53.3731 22.966C53.3731 22.266 53.1211 21.65 52.4911 21.216C51.8051 20.74 50.8531 20.726 50.1251 20.726H48.9211C48.5571 20.726 48.1231 20.628 48.1231 20.194C48.1231 19.956 48.3191 19.774 48.4871 19.676C48.8511 19.802 49.2571 19.872 49.6631 19.872C51.2311 19.872 52.6311 18.892 52.6311 17.226C52.6311 16.736 52.4911 16.302 52.2531 15.91C52.3651 15.56 52.7291 15.448 53.1351 15.448C53.1771 15.448 53.2331 15.462 53.2751 15.462V14.104C53.1631 14.076 52.9111 14.076 52.7991 14.076C52.1831 14.076 51.6231 14.356 51.3151 14.986C50.8391 14.706 50.2651 14.538 49.6631 14.538C48.0251 14.538 46.6811 15.476 46.6811 17.212C46.6811 17.954 46.9611 18.556 47.4091 19.004C46.8211 19.368 46.5411 19.858 46.5411 20.474C46.5411 20.95 46.8071 21.468 47.2691 21.72C46.7091 22 46.4011 22.574 46.4011 23.204C46.4011 23.89 46.7231 24.408 47.2831 24.8C48.0391 25.332 48.9771 25.402 49.8591 25.402C51.4831 25.402 53.3731 24.884 53.3731 22.966ZM50.9511 17.212C50.9511 17.996 50.4611 18.556 49.6631 18.556C48.8651 18.556 48.3751 17.996 48.3751 17.212C48.3751 16.428 48.8651 15.854 49.6631 15.854C50.4611 15.854 50.9511 16.428 50.9511 17.212ZM51.7211 23.008C51.7211 23.974 50.4891 24.016 49.7891 24.016C49.1031 24.016 47.9551 23.932 47.9551 23.008C47.9551 22.546 48.2351 22.224 48.6131 22.112H49.9851C50.6431 22.112 51.7211 22.112 51.7211 23.008ZM65.0599 15.252C65.0599 13.348 63.8419 12.074 61.5599 12.074H57.6679V22H59.4599V18.444H61.5599C63.8419 18.444 65.0599 17.156 65.0599 15.252ZM63.2399 15.266C63.2399 16.218 62.6939 16.862 61.4899 16.862H59.4599V13.656H61.4899C62.6939 13.656 63.2399 14.314 63.2399 15.266ZM72.4291 18.36C72.4291 17.128 72.1211 16.358 71.5751 15.672C71.0711 15.056 70.1331 14.538 69.0271 14.538C67.9211 14.538 66.9831 15.056 66.4791 15.672C65.9331 16.358 65.6251 17.128 65.6251 18.36C65.6251 19.592 65.9331 20.362 66.4791 21.048C66.9831 21.664 67.9211 22.182 69.0271 22.182C70.1331 22.182 71.0711 21.664 71.5751 21.048C72.1211 20.362 72.4291 19.592 72.4291 18.36ZM70.6511 18.36C70.6511 19.046 70.5531 19.732 70.1331 20.194C69.8951 20.446 69.5031 20.656 69.0271 20.656C68.5511 20.656 68.1591 20.446 67.9211 20.194C67.5011 19.732 67.4031 19.046 67.4031 18.36C67.4031 17.674 67.5011 16.988 67.9211 16.526C68.1591 16.274 68.5511 16.064 69.0271 16.064C69.5031 16.064 69.8951 16.274 70.1331 16.526C70.5531 16.988 70.6511 17.674 70.6511 18.36ZM80.4135 18.36C80.4135 17.128 80.1055 16.358 79.5595 15.672C79.0555 15.056 78.1175 14.538 77.0115 14.538C75.9055 14.538 74.9675 15.056 74.4635 15.672C73.9175 16.358 73.6095 17.128 73.6095 18.36C73.6095 19.592 73.9175 20.362 74.4635 21.048C74.9675 21.664 75.9055 22.182 77.0115 22.182C78.1175 22.182 79.0555 21.664 79.5595 21.048C80.1055 20.362 80.4135 19.592 80.4135 18.36ZM78.6355 18.36C78.6355 19.046 78.5375 19.732 78.1175 20.194C77.8795 20.446 77.4875 20.656 77.0115 20.656C76.5355 20.656 76.1435 20.446 75.9055 20.194C75.4855 19.732 75.3875 19.046 75.3875 18.36C75.3875 17.674 75.4855 16.988 75.9055 16.526C76.1435 16.274 76.5355 16.064 77.0115 16.064C77.4875 16.064 77.8795 16.274 78.1175 16.526C78.5375 16.988 78.6355 17.674 78.6355 18.36ZM86.3399 16.344V14.664C86.1579 14.636 85.9759 14.622 85.7939 14.622C84.9399 14.622 84.0719 14.972 83.7359 15.812L83.5819 14.72H82.0979V22H83.8619V18.332C83.8619 17.156 84.5059 16.274 85.7379 16.274C85.9339 16.274 86.1439 16.302 86.3399 16.344ZM96.8891 21.916V20.628C96.8891 20.628 96.7771 20.656 96.6651 20.656C96.3711 20.656 96.2591 20.53 96.2591 20.194V17.492C96.2591 17.002 96.2311 16.484 96.0491 16.022C95.6291 14.93 94.5651 14.538 93.3191 14.538C91.6951 14.538 90.3931 15.266 90.2951 16.904H91.9891C92.0311 16.232 92.5071 15.868 93.3191 15.868C94.3131 15.868 94.5511 16.33 94.5511 17.016V17.464L92.4091 17.618C91.0231 17.716 89.9451 18.514 89.9451 19.9C89.9451 21.09 90.8411 22.182 92.5771 22.182C93.6131 22.182 94.4531 21.678 94.7891 21.09C94.8451 21.636 95.2651 22.112 96.0211 22.112C96.4411 22.112 96.5951 22.042 96.8891 21.916ZM94.5511 19.102C94.5511 20.18 93.7811 20.768 92.6891 20.768C92.1431 20.768 91.6531 20.418 91.6531 19.858C91.6531 19.27 92.1711 18.948 92.7031 18.906L94.5511 18.766V19.102ZM102.456 21.902V20.432C101.98 20.488 101.686 20.502 101.322 20.502C100.762 20.502 100.51 20.264 100.51 19.704V16.162H102.344V14.72H100.51V12.438L98.76 12.872V14.72H97.43V16.162H98.76V19.858C98.76 21.258 99.488 22.098 100.958 22.098C101.476 22.098 101.966 22.028 102.456 21.902ZM114.333 15.252C114.333 13.348 113.115 12.074 110.833 12.074H106.941V22H108.733V18.444H110.833C113.115 18.444 114.333 17.156 114.333 15.252ZM112.513 15.266C112.513 16.218 111.967 16.862 110.763 16.862H108.733V13.656H110.763C111.967 13.656 112.513 14.314 112.513 15.266ZM121.547 22V14.72H119.797V18.57C119.797 19.158 119.685 19.816 119.265 20.208C119.055 20.418 118.775 20.572 118.369 20.572C117.445 20.572 117.109 20.04 117.109 19.186V14.72H115.359V19.578C115.359 21.132 116.325 22.182 117.879 22.182C118.803 22.182 119.615 21.762 119.965 21.048L120.091 22H121.547ZM127.971 16.344V14.664C127.789 14.636 127.607 14.622 127.425 14.622C126.571 14.622 125.703 14.972 125.367 15.812L125.213 14.72H123.729V22H125.493V18.332C125.493 17.156 126.137 16.274 127.369 16.274C127.565 16.274 127.775 16.302 127.971 16.344ZM134.886 19.424H133.164C133.15 19.69 133.066 19.914 132.954 20.096C132.744 20.418 132.366 20.642 131.834 20.642C131.358 20.642 131.008 20.432 130.77 20.18C130.35 19.718 130.28 19.032 130.28 18.346C130.28 17.66 130.35 16.96 130.77 16.498C131.008 16.246 131.358 16.05 131.834 16.05C132.366 16.05 132.744 16.274 132.954 16.596C133.066 16.778 133.15 17.002 133.164 17.268H134.886C134.858 16.694 134.662 16.12 134.326 15.686C133.822 15.056 132.94 14.538 131.834 14.538C130.728 14.538 129.804 15.07 129.3 15.686C128.754 16.372 128.502 17.282 128.502 18.346C128.502 19.41 128.754 20.32 129.3 21.006C129.804 21.622 130.728 22.154 131.834 22.154C132.94 22.154 133.822 21.636 134.326 21.006C134.662 20.572 134.858 19.998 134.886 19.424ZM142.577 22V17.142C142.577 15.644 141.667 14.538 140.113 14.538C139.357 14.538 138.545 14.874 138.125 15.49V11.892H136.375V22H138.125V18.164C138.125 17.268 138.573 16.148 139.623 16.148C140.547 16.148 140.827 16.666 140.827 17.506V22H142.577ZM150.989 21.916V20.628C150.989 20.628 150.877 20.656 150.765 20.656C150.471 20.656 150.359 20.53 150.359 20.194V17.492C150.359 17.002 150.331 16.484 150.149 16.022C149.729 14.93 148.665 14.538 147.419 14.538C145.795 14.538 144.493 15.266 144.395 16.904H146.089C146.131 16.232 146.607 15.868 147.419 15.868C148.413 15.868 148.651 16.33 148.651 17.016V17.464L146.509 17.618C145.123 17.716 144.045 18.514 144.045 19.9C144.045 21.09 144.941 22.182 146.677 22.182C147.713 22.182 148.553 21.678 148.889 21.09C148.945 21.636 149.365 22.112 150.121 22.112C150.541 22.112 150.695 22.042 150.989 21.916ZM148.651 19.102C148.651 20.18 147.881 20.768 146.789 20.768C146.243 20.768 145.753 20.418 145.753 19.858C145.753 19.27 146.271 18.948 146.803 18.906L148.651 18.766V19.102ZM158.164 19.746C158.164 18.598 157.324 17.87 156.176 17.688C155.462 17.576 155.28 17.562 154.622 17.478C154.23 17.422 153.782 17.268 153.782 16.75C153.782 16.372 154.034 16.106 154.342 15.98C154.608 15.868 154.846 15.868 155.098 15.868C155.462 15.868 155.84 15.994 156.05 16.204C156.218 16.386 156.344 16.61 156.344 16.89H158.01C158.01 16.358 157.758 15.812 157.366 15.392C156.834 14.818 155.952 14.538 155.084 14.538C154.174 14.538 153.404 14.804 152.872 15.266C152.438 15.644 152.13 16.162 152.13 16.904C152.13 17.828 152.802 18.64 153.796 18.85C154.44 18.99 155.168 19.032 155.812 19.13C156.26 19.2 156.54 19.48 156.54 19.9C156.54 20.698 155.644 20.824 155.056 20.824C154.552 20.824 154.23 20.726 153.95 20.502C153.726 20.32 153.558 19.97 153.558 19.648H151.92C151.92 20.334 152.27 20.936 152.69 21.342C153.292 21.916 154.118 22.182 155.042 22.182C156.036 22.182 156.946 21.93 157.534 21.342C157.912 20.964 158.164 20.446 158.164 19.746ZM161.657 13.712V11.906H159.781V13.712H161.657ZM161.615 22V14.72H159.837V22H161.615ZM170.017 22V17.142C170.017 15.63 169.107 14.538 167.553 14.538C166.713 14.538 165.845 14.888 165.411 15.658L165.285 14.72H163.815V22H165.565V19.032C165.565 18.416 165.551 17.66 165.803 17.086C166.041 16.554 166.447 16.162 167.063 16.162C167.987 16.162 168.267 16.68 168.267 17.534V22H170.017ZM178.498 22.966C178.498 22.266 178.246 21.65 177.616 21.216C176.93 20.74 175.978 20.726 175.25 20.726H174.046C173.682 20.726 173.248 20.628 173.248 20.194C173.248 19.956 173.444 19.774 173.612 19.676C173.976 19.802 174.382 19.872 174.788 19.872C176.356 19.872 177.756 18.892 177.756 17.226C177.756 16.736 177.616 16.302 177.378 15.91C177.49 15.56 177.854 15.448 178.26 15.448C178.302 15.448 178.358 15.462 178.4 15.462V14.104C178.288 14.076 178.036 14.076 177.924 14.076C177.308 14.076 176.748 14.356 176.44 14.986C175.964 14.706 175.39 14.538 174.788 14.538C173.15 14.538 171.806 15.476 171.806 17.212C171.806 17.954 172.086 18.556 172.534 19.004C171.946 19.368 171.666 19.858 171.666 20.474C171.666 20.95 171.932 21.468 172.394 21.72C171.834 22 171.526 22.574 171.526 23.204C171.526 23.89 171.848 24.408 172.408 24.8C173.164 25.332 174.102 25.402 174.984 25.402C176.608 25.402 178.498 24.884 178.498 22.966ZM176.076 17.212C176.076 17.996 175.586 18.556 174.788 18.556C173.99 18.556 173.5 17.996 173.5 17.212C173.5 16.428 173.99 15.854 174.788 15.854C175.586 15.854 176.076 16.428 176.076 17.212ZM176.846 23.008C176.846 23.974 175.614 24.016 174.914 24.016C174.228 24.016 173.08 23.932 173.08 23.008C173.08 22.546 173.36 22.224 173.738 22.112H175.11C175.768 22.112 176.846 22.112 176.846 23.008ZM190.185 15.252C190.185 13.348 188.967 12.074 186.685 12.074H182.793V22H184.585V18.444H186.685C188.967 18.444 190.185 17.156 190.185 15.252ZM188.365 15.266C188.365 16.218 187.819 16.862 186.615 16.862H184.585V13.656H186.615C187.819 13.656 188.365 14.314 188.365 15.266ZM197.554 18.36C197.554 17.128 197.246 16.358 196.7 15.672C196.196 15.056 195.258 14.538 194.152 14.538C193.046 14.538 192.108 15.056 191.604 15.672C191.058 16.358 190.75 17.128 190.75 18.36C190.75 19.592 191.058 20.362 191.604 21.048C192.108 21.664 193.046 22.182 194.152 22.182C195.258 22.182 196.196 21.664 196.7 21.048C197.246 20.362 197.554 19.592 197.554 18.36ZM195.776 18.36C195.776 19.046 195.678 19.732 195.258 20.194C195.02 20.446 194.628 20.656 194.152 20.656C193.676 20.656 193.284 20.446 193.046 20.194C192.626 19.732 192.528 19.046 192.528 18.36C192.528 17.674 192.626 16.988 193.046 16.526C193.284 16.274 193.676 16.064 194.152 16.064C194.628 16.064 195.02 16.274 195.258 16.526C195.678 16.988 195.776 17.674 195.776 18.36ZM208.55 14.72H206.884L205.764 19.48L204.224 14.79H202.782L201.256 19.494L200.094 14.72H198.4L200.248 22H201.872L203.496 17.086L205.148 22H206.772L208.55 14.72ZM216.063 18.416C216.091 17.506 215.965 16.68 215.433 15.882C214.831 14.972 213.851 14.538 212.773 14.538C211.779 14.538 210.995 14.902 210.449 15.462C209.749 16.176 209.399 17.212 209.399 18.374C209.399 19.564 209.791 20.586 210.519 21.286C211.093 21.832 211.821 22.182 212.815 22.182C213.739 22.182 214.649 21.888 215.265 21.16C215.545 20.824 215.839 20.25 215.881 19.816H214.201C214.131 20.082 214.005 20.278 213.851 20.432C213.599 20.684 213.291 20.782 212.787 20.782C212.311 20.782 211.961 20.572 211.709 20.334C211.359 19.998 211.163 19.466 211.177 18.906H216.049C216.049 18.752 216.063 18.416 216.063 18.416ZM214.313 17.632H211.163C211.177 17.156 211.289 16.82 211.541 16.498C211.793 16.162 212.227 15.938 212.759 15.938C213.263 15.938 213.627 16.106 213.865 16.358C214.145 16.666 214.299 17.086 214.313 17.632ZM221.938 16.344V14.664C221.756 14.636 221.574 14.622 221.392 14.622C220.538 14.622 219.67 14.972 219.334 15.812L219.18 14.72H217.696V22H219.46V18.332C219.46 17.156 220.104 16.274 221.336 16.274C221.532 16.274 221.742 16.302 221.938 16.344ZM233.607 15.252C233.607 13.348 232.389 12.074 230.107 12.074H226.215V22H228.007V18.444H230.107C232.389 18.444 233.607 17.156 233.607 15.252ZM231.787 15.266C231.787 16.218 231.241 16.862 230.037 16.862H228.007V13.656H230.037C231.241 13.656 231.787 14.314 231.787 15.266ZM241.086 21.916V20.628C241.086 20.628 240.974 20.656 240.862 20.656C240.568 20.656 240.456 20.53 240.456 20.194V17.492C240.456 17.002 240.428 16.484 240.246 16.022C239.826 14.93 238.762 14.538 237.516 14.538C235.892 14.538 234.59 15.266 234.492 16.904H236.186C236.228 16.232 236.704 15.868 237.516 15.868C238.51 15.868 238.748 16.33 238.748 17.016V17.464L236.606 17.618C235.22 17.716 234.142 18.514 234.142 19.9C234.142 21.09 235.038 22.182 236.774 22.182C237.81 22.182 238.65 21.678 238.986 21.09C239.042 21.636 239.462 22.112 240.218 22.112C240.638 22.112 240.792 22.042 241.086 21.916ZM238.748 19.102C238.748 20.18 237.978 20.768 236.886 20.768C236.34 20.768 235.85 20.418 235.85 19.858C235.85 19.27 236.368 18.948 236.9 18.906L238.748 18.766V19.102ZM246.848 16.344V14.664C246.666 14.636 246.484 14.622 246.302 14.622C245.448 14.622 244.58 14.972 244.244 15.812L244.09 14.72H242.606V22H244.37V18.332C244.37 17.156 245.014 16.274 246.246 16.274C246.442 16.274 246.652 16.302 246.848 16.344ZM249.977 13.712V11.906H248.101V13.712H249.977ZM249.935 22V14.72H248.157V22H249.935ZM256.251 21.902V20.432C255.775 20.488 255.481 20.502 255.117 20.502C254.557 20.502 254.305 20.264 254.305 19.704V16.162H256.139V14.72H254.305V12.438L252.555 12.872V14.72H251.225V16.162H252.555V19.858C252.555 21.258 253.283 22.098 254.753 22.098C255.271 22.098 255.761 22.028 256.251 21.902ZM264.068 14.72H262.29L260.47 19.984L258.566 14.72H256.648L259.518 21.986L259.098 23.008C258.916 23.442 258.58 23.554 258.258 23.554C257.866 23.554 257.74 23.512 257.278 23.428V24.884C257.656 24.982 258.048 25.066 258.622 25.066C259.896 25.066 260.498 24.198 260.862 23.246L264.068 14.72ZM274.726 18.962C274.726 17.38 273.55 16.484 272.122 16.26L271.646 16.19V13.628C271.968 13.712 272.262 13.852 272.458 14.062C272.682 14.3 272.878 14.678 272.892 15.014H274.614C274.586 14.244 274.208 13.53 273.648 13.012C273.13 12.536 272.43 12.242 271.646 12.144V10.814H270.624V12.116C269.686 12.2 268.902 12.578 268.356 13.124C267.852 13.614 267.502 14.23 267.502 14.972C267.502 16.4 268.426 17.366 269.938 17.604C270.162 17.646 270.4 17.674 270.624 17.702V20.474C270.204 20.432 269.812 20.292 269.49 19.984C269.196 19.704 268.986 19.284 268.972 18.808H267.25C267.264 19.69 267.684 20.46 268.244 20.964C268.93 21.594 269.742 21.888 270.624 21.958V23.218H271.646V21.944C272.556 21.846 273.354 21.51 273.928 20.922C274.39 20.446 274.726 19.844 274.726 18.962ZM273.032 19.032C273.032 19.494 272.864 19.774 272.64 19.998C272.388 20.25 272.052 20.39 271.646 20.46V17.856L271.884 17.898C272.486 18.01 273.032 18.318 273.032 19.032ZM270.624 16.05C270.484 16.036 270.344 16.008 270.204 15.98C269.616 15.882 269.21 15.574 269.21 14.93C269.21 14.566 269.364 14.258 269.588 14.048C269.868 13.782 270.246 13.642 270.624 13.586V16.05ZM282.066 22V20.418H278.174L280.862 17.198C281.408 16.54 281.926 15.686 281.926 14.818C281.926 13.11 280.596 12.088 278.93 12.088C276.928 12.088 275.836 13.306 275.822 15.014H277.614C277.614 14.244 278.09 13.614 278.916 13.614C279.714 13.614 280.148 14.146 280.148 14.832C280.148 15.224 279.98 15.686 279.644 16.078L275.85 20.6V22H282.066ZM293.327 21.916V20.628C293.327 20.628 293.215 20.656 293.103 20.656C292.809 20.656 292.697 20.53 292.697 20.194V17.492C292.697 17.002 292.669 16.484 292.487 16.022C292.067 14.93 291.003 14.538 289.757 14.538C288.133 14.538 286.831 15.266 286.733 16.904H288.427C288.469 16.232 288.945 15.868 289.757 15.868C290.751 15.868 290.989 16.33 290.989 17.016V17.464L288.847 17.618C287.461 17.716 286.383 18.514 286.383 19.9C286.383 21.09 287.279 22.182 289.015 22.182C290.051 22.182 290.891 21.678 291.227 21.09C291.283 21.636 291.703 22.112 292.459 22.112C292.879 22.112 293.033 22.042 293.327 21.916ZM290.989 19.102C290.989 20.18 290.219 20.768 289.127 20.768C288.581 20.768 288.091 20.418 288.091 19.858C288.091 19.27 288.609 18.948 289.141 18.906L290.989 18.766V19.102ZM304.002 22V11.892H302.252V15.224C301.944 14.846 301.272 14.538 300.348 14.538C299.606 14.538 299.018 14.762 298.57 15.126C297.702 15.84 297.268 16.946 297.268 18.374C297.268 19.746 297.688 20.838 298.556 21.552C299.004 21.916 299.606 22.168 300.334 22.168C301.132 22.168 301.944 21.874 302.378 21.202L302.49 22H304.002ZM302.336 18.346C302.336 19.396 302.056 20.698 300.684 20.698C300.138 20.698 299.76 20.446 299.508 20.124C299.144 19.648 299.046 18.976 299.046 18.346C299.046 17.716 299.144 17.058 299.508 16.582C299.76 16.26 300.138 16.008 300.684 16.008C302.056 16.008 302.336 17.296 302.336 18.346ZM312.522 21.916V20.628C312.522 20.628 312.41 20.656 312.298 20.656C312.004 20.656 311.892 20.53 311.892 20.194V17.492C311.892 17.002 311.864 16.484 311.682 16.022C311.262 14.93 310.198 14.538 308.952 14.538C307.328 14.538 306.026 15.266 305.928 16.904H307.622C307.664 16.232 308.14 15.868 308.952 15.868C309.946 15.868 310.184 16.33 310.184 17.016V17.464L308.042 17.618C306.656 17.716 305.578 18.514 305.578 19.9C305.578 21.09 306.474 22.182 308.21 22.182C309.246 22.182 310.086 21.678 310.422 21.09C310.478 21.636 310.898 22.112 311.654 22.112C312.074 22.112 312.228 22.042 312.522 21.916ZM310.184 19.102C310.184 20.18 309.414 20.768 308.322 20.768C307.776 20.768 307.286 20.418 307.286 19.858C307.286 19.27 307.804 18.948 308.336 18.906L310.184 18.766V19.102ZM320.233 14.72H318.455L316.635 19.984L314.731 14.72H312.812L315.683 21.986L315.263 23.008C315.081 23.442 314.745 23.554 314.423 23.554C314.031 23.554 313.905 23.512 313.443 23.428V24.884C313.821 24.982 314.213 25.066 314.787 25.066C316.061 25.066 316.663 24.198 317.027 23.246L320.233 14.72ZM10.248 34.864C10.248 34.312 10.152 33.808 9.876 33.4C9.552 32.932 9.048 32.56 8.292 32.56C7.536 32.56 7.032 32.932 6.708 33.4C6.432 33.808 6.336 34.312 6.336 34.864C6.336 35.416 6.432 35.908 6.708 36.316C7.032 36.784 7.536 37.156 8.292 37.156C9.048 37.156 9.552 36.784 9.876 36.316C10.152 35.908 10.248 35.416 10.248 34.864ZM8.952 28.78L8.292 28.312L2.112 36.76L2.76 37.252L8.952 28.78ZM4.632 30.628C4.632 30.076 4.536 29.572 4.26 29.164C3.936 28.696 3.432 28.324 2.676 28.324C1.92 28.324 1.416 28.696 1.092 29.164C0.816 29.572 0.72 30.076 0.72 30.628C0.72 31.18 0.816 31.672 1.092 32.08C1.416 32.548 1.92 32.92 2.676 32.92C3.432 32.92 3.936 32.548 4.26 32.08C4.536 31.672 4.632 31.18 4.632 30.628ZM9.324 34.864C9.324 35.356 9.24 35.788 8.976 36.064C8.82 36.232 8.628 36.352 8.292 36.352C7.956 36.352 7.752 36.232 7.596 36.064C7.332 35.788 7.248 35.356 7.248 34.864C7.248 34.372 7.332 33.928 7.596 33.652C7.752 33.484 7.956 33.364 8.292 33.364C8.628 33.364 8.82 33.484 8.976 33.652C9.24 33.928 9.324 34.372 9.324 34.864ZM3.708 30.628C3.708 31.12 3.624 31.552 3.36 31.828C3.204 31.996 3.012 32.116 2.676 32.116C2.34 32.116 2.136 31.996 1.98 31.828C1.716 31.552 1.632 31.12 1.632 30.628C1.632 30.136 1.716 29.692 1.98 29.416C2.136 29.248 2.34 29.128 2.676 29.128C3.012 29.128 3.204 29.248 3.36 29.416C3.624 29.692 3.708 30.136 3.708 30.628ZM19.841 33.964C19.841 33.004 19.637 32.128 18.977 31.48C18.533 31.048 17.909 30.772 17.141 30.772C16.373 30.772 15.749 31.048 15.305 31.48C14.645 32.128 14.441 33.004 14.441 33.964C14.441 34.924 14.645 35.8 15.305 36.448C15.749 36.88 16.373 37.156 17.141 37.156C17.909 37.156 18.533 36.88 18.977 36.448C19.637 35.8 19.841 34.924 19.841 33.964ZM18.797 33.964C18.797 34.672 18.665 35.404 18.233 35.848C17.981 36.1 17.621 36.28 17.141 36.28C16.661 36.28 16.301 36.1 16.049 35.848C15.617 35.404 15.485 34.672 15.485 33.964C15.485 33.256 15.617 32.524 16.049 32.08C16.301 31.828 16.661 31.648 17.141 31.648C17.621 31.648 17.981 31.828 18.233 32.08C18.665 32.524 18.797 33.256 18.797 33.964ZM24.7578 29.176V28.324C24.4218 28.264 24.0498 28.216 23.6298 28.216C22.5738 28.216 21.8658 28.936 21.8658 29.848V30.928H20.7618V31.792H21.8658V37H22.8858V31.792H24.6378V30.928H22.8858V29.908C22.8858 29.416 23.2098 29.08 23.7498 29.08C24.1818 29.08 24.4338 29.14 24.7578 29.176ZM31.8459 36.916V36.04C31.8459 36.04 31.2339 36.148 30.8019 36.148C30.2379 36.148 29.9859 35.908 29.9859 35.32V31.804H31.7859V30.928H29.9859V29.14L28.9659 29.38V30.928H27.7899V31.804H28.9659V35.44C28.9659 36.256 29.3259 37.084 30.6339 37.084C31.1979 37.084 31.5699 36.988 31.8459 36.916ZM38.1339 33.964C38.1339 33.004 37.9299 32.128 37.2699 31.48C36.8259 31.048 36.2019 30.772 35.4339 30.772C34.6659 30.772 34.0419 31.048 33.5979 31.48C32.9379 32.128 32.7339 33.004 32.7339 33.964C32.7339 34.924 32.9379 35.8 33.5979 36.448C34.0419 36.88 34.6659 37.156 35.4339 37.156C36.2019 37.156 36.8259 36.88 37.2699 36.448C37.9299 35.8 38.1339 34.924 38.1339 33.964ZM37.0899 33.964C37.0899 34.672 36.9579 35.404 36.5259 35.848C36.2739 36.1 35.9139 36.28 35.4339 36.28C34.9539 36.28 34.5939 36.1 34.3419 35.848C33.9099 35.404 33.7779 34.672 33.7779 33.964C33.7779 33.256 33.9099 32.524 34.3419 32.08C34.5939 31.828 34.9539 31.648 35.4339 31.648C35.9139 31.648 36.2739 31.828 36.5259 32.08C36.9579 32.524 37.0899 33.256 37.0899 33.964ZM42.9788 36.916V36.04C42.9788 36.04 42.3668 36.148 41.9348 36.148C41.3708 36.148 41.1188 35.908 41.1188 35.32V31.804H42.9188V30.928H41.1188V29.14L40.0988 29.38V30.928H38.9228V31.804H40.0988V35.44C40.0988 36.256 40.4588 37.084 41.7668 37.084C42.3308 37.084 42.7028 36.988 42.9788 36.916ZM49.5399 36.94V36.184C49.5399 36.184 49.3839 36.22 49.2759 36.22C49.0719 36.22 48.9399 36.136 48.9399 35.812V32.872C48.9399 32.524 48.8799 32.212 48.7599 31.936C48.4719 31.276 47.7999 30.772 46.6239 30.772C45.8799 30.772 45.1599 30.988 44.7519 31.42C44.4399 31.744 44.2359 32.14 44.2239 32.692H45.2199C45.2199 32.392 45.3279 32.152 45.5199 31.96C45.7239 31.756 46.0719 31.6 46.6239 31.6C47.1159 31.6 47.4159 31.72 47.6199 31.912C47.8959 32.164 47.9319 32.536 47.9319 32.836V33.28L46.0839 33.388C44.4279 33.484 43.9239 34.504 43.9239 35.284C43.9239 36.22 44.6199 37.156 46.0119 37.156C46.8639 37.156 47.6199 36.772 47.9679 36.16H47.9919C47.9919 36.676 48.3279 37.084 48.8679 37.084C49.1199 37.084 49.3239 37.048 49.5399 36.94ZM47.9319 34.432C47.9319 34.936 47.7759 35.44 47.4159 35.812C47.0919 36.148 46.6359 36.304 46.1679 36.304C45.3039 36.304 44.9679 35.8 44.9679 35.26C44.9679 34.492 45.6879 34.204 46.2999 34.168L47.9319 34.072V34.432ZM53.1111 37V36.136C53.1111 36.136 53.0271 36.148 52.6911 36.148C52.2711 36.148 52.1391 35.932 52.1391 35.524V28.336H51.1191V35.584C51.1191 36.544 51.5031 37.072 52.3911 37.072C52.8831 37.072 53.1111 37 53.1111 37ZM62.3089 33.688C62.3209 32.872 62.0329 32.092 61.5409 31.552C61.0969 31.072 60.4729 30.772 59.6929 30.772C58.6369 30.772 57.8329 31.312 57.4009 32.044C57.0649 32.608 56.9329 33.256 56.9329 33.988C56.9329 34.852 57.1849 35.656 57.6889 36.244C58.1569 36.796 58.8529 37.156 59.7049 37.156C60.2809 37.156 60.8209 36.988 61.2529 36.7C61.7449 36.364 62.1049 35.8 62.1889 35.2H61.1929C61.1089 35.524 61.0009 35.692 60.8329 35.86C60.5809 36.124 60.1849 36.256 59.7049 36.256C59.2369 36.256 58.8649 36.1 58.5889 35.824C58.2169 35.452 58.0009 34.852 58.0009 34.3H62.2969L62.3089 33.688ZM61.2649 33.424H58.0249C58.0489 32.536 58.5889 31.636 59.6929 31.636C60.2329 31.636 60.6409 31.852 60.8929 32.188C61.1329 32.512 61.2649 32.968 61.2649 33.424ZM72.4223 37V33.004C72.4223 31.66 71.7743 30.772 70.3943 30.772C69.6263 30.772 68.8463 31.168 68.5223 31.924C68.2583 31.18 67.6103 30.772 66.7103 30.772C66.0263 30.772 65.3303 31.108 65.0063 31.792L64.9103 30.928H64.0223V37H65.0423V33.772C65.0423 33.268 65.1503 32.62 65.4503 32.236C65.7023 31.912 66.0503 31.696 66.4823 31.696C67.4543 31.696 67.7063 32.284 67.7063 33.136V37H68.7263V33.772C68.7263 33.136 68.8343 32.524 69.2422 32.104C69.4823 31.852 69.7823 31.696 70.1663 31.696C71.1263 31.696 71.4023 32.284 71.4023 33.136V37H72.4223ZM79.9334 33.964C79.9334 32.956 79.6334 32.032 79.0574 31.444C78.6614 31.036 78.0854 30.784 77.3414 30.784C76.6574 30.784 75.8774 31.12 75.5294 31.732L75.4574 30.94H74.5574V39.604H75.5774V36.304C75.9014 36.856 76.6814 37.168 77.3414 37.168C78.0494 37.168 78.6134 36.928 79.0094 36.556C79.6214 35.968 79.9334 35.008 79.9334 33.964ZM78.8894 33.976C78.8894 35.092 78.5294 36.304 77.1734 36.304C76.7294 36.304 76.4294 36.124 76.1894 35.908C75.6854 35.464 75.5174 34.732 75.5174 33.976C75.5174 33.22 75.6854 32.488 76.1894 32.044C76.4294 31.828 76.7294 31.648 77.1734 31.648C78.5294 31.648 78.8894 32.86 78.8894 33.976ZM83.6501 37V36.136C83.6501 36.136 83.5661 36.148 83.2301 36.148C82.8101 36.148 82.6781 35.932 82.6781 35.524V28.336H81.6581V35.584C81.6581 36.544 82.0421 37.072 82.9301 37.072C83.4221 37.072 83.6501 37 83.6501 37ZM90.0597 33.964C90.0597 33.004 89.8557 32.128 89.1957 31.48C88.7517 31.048 88.1277 30.772 87.3597 30.772C86.5917 30.772 85.9677 31.048 85.5237 31.48C84.8637 32.128 84.6597 33.004 84.6597 33.964C84.6597 34.924 84.8637 35.8 85.5237 36.448C85.9677 36.88 86.5917 37.156 87.3597 37.156C88.1277 37.156 88.7517 36.88 89.1957 36.448C89.8557 35.8 90.0597 34.924 90.0597 33.964ZM89.0157 33.964C89.0157 34.672 88.8837 35.404 88.4517 35.848C88.1997 36.1 87.8397 36.28 87.3597 36.28C86.8797 36.28 86.5197 36.1 86.2677 35.848C85.8357 35.404 85.7037 34.672 85.7037 33.964C85.7037 33.256 85.8357 32.524 86.2677 32.08C86.5197 31.828 86.8797 31.648 87.3597 31.648C87.8397 31.648 88.1997 31.828 88.4517 32.08C88.8837 32.524 89.0157 33.256 89.0157 33.964ZM96.3833 30.928H95.3153L93.6113 35.716L91.8233 30.928H90.6713L93.0953 37L92.7113 38.02C92.5433 38.476 92.2313 38.632 91.7993 38.632C91.4033 38.632 91.0793 38.536 91.0793 38.536V39.424C91.1633 39.448 91.4993 39.544 92.0033 39.544C92.9153 39.544 93.3593 39.028 93.6473 38.248L96.3833 30.928ZM106.02 37V33.004C106.02 31.66 105.372 30.772 103.992 30.772C103.224 30.772 102.444 31.168 102.12 31.924C101.856 31.18 101.208 30.772 100.308 30.772C99.6239 30.772 98.9279 31.108 98.6039 31.792L98.5079 30.928H97.6199V37H98.6399V33.772C98.6399 33.268 98.7479 32.62 99.0479 32.236C99.2999 31.912 99.6479 31.696 100.08 31.696C101.052 31.696 101.304 32.284 101.304 33.136V37H102.324V33.772C102.324 33.136 102.432 32.524 102.84 32.104C103.08 31.852 103.38 31.696 103.764 31.696C104.724 31.696 105 32.284 105 33.136V37H106.02ZM113.051 33.688C113.063 32.872 112.775 32.092 112.283 31.552C111.839 31.072 111.215 30.772 110.435 30.772C109.379 30.772 108.575 31.312 108.143 32.044C107.807 32.608 107.675 33.256 107.675 33.988C107.675 34.852 107.927 35.656 108.431 36.244C108.899 36.796 109.595 37.156 110.447 37.156C111.023 37.156 111.563 36.988 111.995 36.7C112.487 36.364 112.847 35.8 112.931 35.2H111.935C111.851 35.524 111.743 35.692 111.575 35.86C111.323 36.124 110.927 36.256 110.447 36.256C109.979 36.256 109.607 36.1 109.331 35.824C108.959 35.452 108.743 34.852 108.743 34.3H113.039L113.051 33.688ZM112.007 33.424H108.767C108.791 32.536 109.331 31.636 110.435 31.636C110.975 31.636 111.383 31.852 111.635 32.188C111.875 32.512 112.007 32.968 112.007 33.424ZM119.672 37V33.004C119.672 31.6 118.952 30.772 117.572 30.772C116.888 30.772 116.048 31.144 115.736 31.84L115.652 30.928H114.764V37H115.784V34.18C115.784 33.712 115.796 33.076 116 32.632C116.264 32.08 116.732 31.696 117.32 31.696C118.28 31.696 118.652 32.236 118.652 33.148V37H119.672ZM124.928 36.916V36.04C124.928 36.04 124.316 36.148 123.884 36.148C123.32 36.148 123.068 35.908 123.068 35.32V31.804H124.868V30.928H123.068V29.14L122.048 29.38V30.928H120.872V31.804H122.048V35.44C122.048 36.256 122.408 37.084 123.716 37.084C124.28 37.084 124.652 36.988 124.928 36.916Z" fill="black" fill-opacity="0.7"/>
<rect y="52" width="400" height="19" fill="url(#paint0_linear)" fill-opacity="0.9"/>
<path d="M6.18 80.252C6.18 79.424 5.928 78.68 5.436 78.176C5.028 77.756 4.464 77.492 3.732 77.492C3.024 77.492 2.352 77.708 1.98 78.248L2.112 75.584H5.844V74.66H1.236L1.008 79.136H2.148C2.436 78.656 2.964 78.404 3.528 78.404C4.056 78.404 4.416 78.584 4.68 78.872C4.992 79.22 5.148 79.724 5.148 80.3C5.148 80.864 5.016 81.344 4.74 81.692C4.488 82.016 4.104 82.232 3.528 82.232C3 82.232 2.604 82.064 2.328 81.788C2.052 81.512 1.884 81.128 1.86 80.6H0.84C0.876 81.368 1.14 81.992 1.608 82.448C2.064 82.892 2.724 83.168 3.54 83.168C4.416 83.168 5.052 82.856 5.484 82.376C5.952 81.86 6.18 81.128 6.18 80.252ZM17.0918 80.864C17.0918 80.312 16.9958 79.808 16.7198 79.4C16.3958 78.932 15.8918 78.56 15.1358 78.56C14.3798 78.56 13.8758 78.932 13.5518 79.4C13.2758 79.808 13.1797 80.312 13.1797 80.864C13.1797 81.416 13.2758 81.908 13.5518 82.316C13.8758 82.784 14.3798 83.156 15.1358 83.156C15.8918 83.156 16.3958 82.784 16.7198 82.316C16.9958 81.908 17.0918 81.416 17.0918 80.864ZM15.7958 74.78L15.1358 74.312L8.95575 82.76L9.60375 83.252L15.7958 74.78ZM11.4758 76.628C11.4758 76.076 11.3798 75.572 11.1038 75.164C10.7798 74.696 10.2758 74.324 9.51975 74.324C8.76375 74.324 8.25975 74.696 7.93575 75.164C7.65975 75.572 7.56375 76.076 7.56375 76.628C7.56375 77.18 7.65975 77.672 7.93575 78.08C8.25975 78.548 8.76375 78.92 9.51975 78.92C10.2758 78.92 10.7798 78.548 11.1038 78.08C11.3798 77.672 11.4758 77.18 11.4758 76.628ZM16.1678 80.864C16.1678 81.356 16.0838 81.788 15.8198 82.064C15.6638 82.232 15.4718 82.352 15.1358 82.352C14.7998 82.352 14.5958 82.232 14.4398 82.064C14.1758 81.788 14.0918 81.356 14.0918 80.864C14.0918 80.372 14.1758 79.928 14.4398 79.652C14.5958 79.484 14.7998 79.364 15.1358 79.364C15.4718 79.364 15.6638 79.484 15.8198 79.652C16.0838 79.928 16.1678 80.372 16.1678 80.864ZM10.5518 76.628C10.5518 77.12 10.4678 77.552 10.2038 77.828C10.0478 77.996 9.85575 78.116 9.51975 78.116C9.18375 78.116 8.97975 77.996 8.82375 77.828C8.55975 77.552 8.47575 77.12 8.47575 76.628C8.47575 76.136 8.55975 75.692 8.82375 75.416C8.97975 75.248 9.18375 75.128 9.51975 75.128C9.85575 75.128 10.0478 75.248 10.2038 75.416C10.4678 75.692 10.5518 76.136 10.5518 76.628Z" fill="black" fill-opacity="0.7"/>
<path d="M381.24 82.312C381.24 81.436 380.94 80.668 380.4 80.152C380.004 79.768 379.404 79.504 378.648 79.504C377.856 79.504 377.064 79.9 376.8 80.476C376.812 79.6 376.86 78.52 377.388 77.92C377.64 77.632 378 77.416 378.528 77.416C378.924 77.416 379.224 77.536 379.464 77.74C379.716 77.956 379.908 78.268 379.932 78.676H380.964C380.94 78.064 380.664 77.548 380.292 77.176C379.872 76.756 379.272 76.504 378.564 76.504C377.508 76.504 376.788 76.996 376.392 77.62C375.828 78.52 375.768 79.756 375.768 80.944C375.768 82.132 375.876 83.296 376.476 84.124C376.884 84.688 377.58 85.156 378.516 85.156C379.38 85.156 380.04 84.832 380.484 84.352C380.952 83.836 381.24 83.152 381.24 82.312ZM380.208 82.324C380.208 82.912 380.04 83.404 379.716 83.752C379.452 84.04 379.092 84.232 378.564 84.232C378.036 84.232 377.664 84.016 377.4 83.728C377.076 83.38 376.908 82.912 376.908 82.324C376.908 81.736 377.064 81.268 377.376 80.92C377.628 80.632 378.012 80.416 378.54 80.416C379.068 80.416 379.464 80.608 379.716 80.896C380.028 81.244 380.208 81.736 380.208 82.324ZM387.856 77.584V76.66H382.504V77.584H386.776L383.308 85H384.412L387.856 77.584ZM398.936 82.864C398.936 82.312 398.84 81.808 398.564 81.4C398.24 80.932 397.736 80.56 396.98 80.56C396.224 80.56 395.72 80.932 395.396 81.4C395.12 81.808 395.023 82.312 395.023 82.864C395.023 83.416 395.12 83.908 395.396 84.316C395.72 84.784 396.224 85.156 396.98 85.156C397.736 85.156 398.24 84.784 398.564 84.316C398.84 83.908 398.936 83.416 398.936 82.864ZM397.64 76.78L396.98 76.312L390.8 84.76L391.448 85.252L397.64 76.78ZM393.32 78.628C393.32 78.076 393.224 77.572 392.948 77.164C392.624 76.696 392.12 76.324 391.364 76.324C390.608 76.324 390.104 76.696 389.78 77.164C389.504 77.572 389.408 78.076 389.408 78.628C389.408 79.18 389.504 79.672 389.78 80.08C390.104 80.548 390.608 80.92 391.364 80.92C392.12 80.92 392.624 80.548 392.948 80.08C393.224 79.672 393.32 79.18 393.32 78.628ZM398.012 82.864C398.012 83.356 397.928 83.788 397.664 84.064C397.508 84.232 397.316 84.352 396.98 84.352C396.644 84.352 396.44 84.232 396.284 84.064C396.02 83.788 395.936 83.356 395.936 82.864C395.936 82.372 396.02 81.928 396.284 81.652C396.44 81.484 396.644 81.364 396.98 81.364C397.316 81.364 397.508 81.484 397.664 81.652C397.928 81.928 398.012 82.372 398.012 82.864ZM392.396 78.628C392.396 79.12 392.312 79.552 392.048 79.828C391.892 79.996 391.7 80.116 391.364 80.116C391.028 80.116 390.824 79.996 390.668 79.828C390.404 79.552 390.32 79.12 390.32 78.628C390.32 78.136 390.404 77.692 390.668 77.416C390.824 77.248 391.028 77.128 391.364 77.128C391.7 77.128 391.892 77.248 392.048 77.416C392.312 77.692 392.396 78.136 392.396 78.628Z" fill="black" fill-opacity="0.7"/>
<defs>
<linearGradient id="paint0_linear" x1="-7.79221" y1="71" x2="366.234" y2="71.0001" gradientUnits="userSpaceOnUse">
<stop stop-color="#FBD7D0"/>
<stop offset="1" stop-color="#AA3318"/>
</linearGradient>
</defs>
</svg>
