<svg width="400" height="93" viewBox="0 0 400 93" fill="none" xmlns="http://www.w3.org/2000/svg">
<rect width="400" height="93" fill="white"/>
<path d="M7.574 22V20.292H2.968V12.074H1.162V22H7.574ZM14.8842 18.36C14.8842 17.128 14.5762 16.358 14.0302 15.672C13.5262 15.056 12.5882 14.538 11.4822 14.538C10.3762 14.538 9.43819 15.056 8.93419 15.672C8.38819 16.358 8.08019 17.128 8.08019 18.36C8.08019 19.592 8.38819 20.362 8.93419 21.048C9.43819 21.664 10.3762 22.182 11.4822 22.182C12.5882 22.182 13.5262 21.664 14.0302 21.048C14.5762 20.362 14.8842 19.592 14.8842 18.36ZM13.1062 18.36C13.1062 19.046 13.0082 19.732 12.5882 20.194C12.3502 20.446 11.9582 20.656 11.4822 20.656C11.0062 20.656 10.6142 20.446 10.3762 20.194C9.95619 19.732 9.85819 19.046 9.85819 18.36C9.85819 17.674 9.95619 16.988 10.3762 16.526C10.6142 16.274 11.0062 16.064 11.4822 16.064C11.9582 16.064 12.3502 16.274 12.5882 16.526C13.0082 16.988 13.1062 17.674 13.1062 18.36ZM25.8802 14.72H24.2142L23.0942 19.48L21.5542 14.79H20.1122L18.5862 19.494L17.4242 14.72H15.7302L17.5782 22H19.2022L20.8262 17.086L22.4782 22H24.1022L25.8802 14.72ZM30.017 21.986V20.516C29.919 20.516 29.877 20.53 29.723 20.53C29.121 20.53 29.023 20.25 29.023 19.83V11.878H27.259V20.124C27.259 21.51 28.057 22.084 29.247 22.084C29.597 22.084 29.667 22.056 30.017 21.986ZM37.8676 21.916V20.628C37.8676 20.628 37.7556 20.656 37.6436 20.656C37.3496 20.656 37.2376 20.53 37.2376 20.194V17.492C37.2376 17.002 37.2096 16.484 37.0276 16.022C36.6076 14.93 35.5436 14.538 34.2976 14.538C32.6736 14.538 31.3716 15.266 31.2736 16.904H32.9676C33.0096 16.232 33.4856 15.868 34.2976 15.868C35.2916 15.868 35.5296 16.33 35.5296 17.016V17.464L33.3876 17.618C32.0016 17.716 30.9236 18.514 30.9236 19.9C30.9236 21.09 31.8196 22.182 33.5556 22.182C34.5916 22.182 35.4316 21.678 35.7676 21.09C35.8236 21.636 36.2436 22.112 36.9996 22.112C37.4196 22.112 37.5736 22.042 37.8676 21.916ZM35.5296 19.102C35.5296 20.18 34.7596 20.768 33.6676 20.768C33.1216 20.768 32.6316 20.418 32.6316 19.858C32.6316 19.27 33.1496 18.948 33.6816 18.906L35.5296 18.766V19.102ZM45.5889 22V17.142C45.5889 15.63 44.6789 14.538 43.1249 14.538C42.2849 14.538 41.4169 14.888 40.9829 15.658L40.8569 14.72H39.3869V22H41.1369V19.032C41.1369 18.416 41.1229 17.66 41.3749 17.086C41.6129 16.554 42.0189 16.162 42.6349 16.162C43.5589 16.162 43.8389 16.68 43.8389 17.534V22H45.5889ZM53.8884 22V11.892H52.1384V15.224C51.8304 14.846 51.1584 14.538 50.2344 14.538C49.4924 14.538 48.9044 14.762 48.4564 15.126C47.5884 15.84 47.1544 16.946 47.1544 18.374C47.1544 19.746 47.5744 20.838 48.4424 21.552C48.8904 21.916 49.4924 22.168 50.2204 22.168C51.0184 22.168 51.8304 21.874 52.2644 21.202L52.3764 22H53.8884ZM52.2224 18.346C52.2224 19.396 51.9424 20.698 50.5704 20.698C50.0244 20.698 49.6464 20.446 49.3944 20.124C49.0304 19.648 48.9324 18.976 48.9324 18.346C48.9324 17.716 49.0304 17.058 49.3944 16.582C49.6464 16.26 50.0244 16.008 50.5704 16.008C51.9424 16.008 52.2224 17.296 52.2224 18.346ZM66.6924 22L64.8724 17.94C65.9644 17.534 66.6924 16.484 66.6924 15.154C66.6924 13.558 65.6144 12.074 63.2484 12.074H59.0624V22H60.8824V18.248H63.0804L64.7324 22H66.6924ZM64.8864 15.154C64.8864 16.092 64.2984 16.624 63.2764 16.624H60.8684V13.656H63.2484C64.2704 13.656 64.8864 14.356 64.8864 15.154ZM74.5629 21.916V20.628C74.5629 20.628 74.4509 20.656 74.3389 20.656C74.0449 20.656 73.9329 20.53 73.9329 20.194V17.492C73.9329 17.002 73.9049 16.484 73.7229 16.022C73.3029 14.93 72.2389 14.538 70.9929 14.538C69.3689 14.538 68.0669 15.266 67.9689 16.904H69.6629C69.7049 16.232 70.1809 15.868 70.9929 15.868C71.9869 15.868 72.2249 16.33 72.2249 17.016V17.464L70.0829 17.618C68.6969 17.716 67.6189 18.514 67.6189 19.9C67.6189 21.09 68.5149 22.182 70.2509 22.182C71.2869 22.182 72.1269 21.678 72.4629 21.09C72.5189 21.636 72.9389 22.112 73.6949 22.112C74.1149 22.112 74.2689 22.042 74.5629 21.916ZM72.2249 19.102C72.2249 20.18 71.4549 20.768 70.3629 20.768C69.8169 20.768 69.3269 20.418 69.3269 19.858C69.3269 19.27 69.8449 18.948 70.3769 18.906L72.2249 18.766V19.102ZM77.9302 13.712V11.906H76.0542V13.712H77.9302ZM77.8882 22V14.72H76.1102V22H77.8882ZM86.2901 22V17.142C86.2901 15.63 85.3801 14.538 83.8261 14.538C82.9861 14.538 82.1181 14.888 81.6841 15.658L81.5581 14.72H80.0881V22H81.8381V19.032C81.8381 18.416 81.8241 17.66 82.0761 17.086C82.3141 16.554 82.7201 16.162 83.3361 16.162C84.2601 16.162 84.5401 16.68 84.5401 17.534V22H86.2901ZM92.5736 13.278V11.878C92.0276 11.766 91.7056 11.724 91.2016 11.724C89.6336 11.724 88.7236 12.676 88.7236 14.02V14.72H87.4916V16.162H88.7236V22H90.4736V16.162H92.4196V14.72H90.4736V14.048C90.4736 13.53 90.7956 13.166 91.4256 13.166C91.8876 13.166 92.2096 13.208 92.5736 13.278ZM99.7559 18.416C99.7839 17.506 99.6579 16.68 99.1259 15.882C98.5239 14.972 97.5439 14.538 96.4659 14.538C95.4719 14.538 94.6879 14.902 94.1419 15.462C93.4419 16.176 93.0919 17.212 93.0919 18.374C93.0919 19.564 93.4839 20.586 94.2119 21.286C94.7859 21.832 95.5139 22.182 96.5079 22.182C97.4319 22.182 98.3419 21.888 98.9579 21.16C99.2379 20.824 99.5319 20.25 99.5739 19.816H97.8939C97.8239 20.082 97.6979 20.278 97.5439 20.432C97.2919 20.684 96.9839 20.782 96.4799 20.782C96.0039 20.782 95.6539 20.572 95.4019 20.334C95.0519 19.998 94.8559 19.466 94.8699 18.906H99.7419C99.7419 18.752 99.7559 18.416 99.7559 18.416ZM98.0059 17.632H94.8559C94.8699 17.156 94.9819 16.82 95.2339 16.498C95.4859 16.162 95.9199 15.938 96.4519 15.938C96.9559 15.938 97.3199 16.106 97.5579 16.358C97.8379 16.666 97.9919 17.086 98.0059 17.632ZM107.619 22V11.892H105.869V15.224C105.561 14.846 104.889 14.538 103.965 14.538C103.223 14.538 102.635 14.762 102.187 15.126C101.319 15.84 100.885 16.946 100.885 18.374C100.885 19.746 101.305 20.838 102.173 21.552C102.621 21.916 103.223 22.168 103.951 22.168C104.749 22.168 105.561 21.874 105.995 21.202L106.107 22H107.619ZM105.953 18.346C105.953 19.396 105.673 20.698 104.301 20.698C103.755 20.698 103.377 20.446 103.125 20.124C102.761 19.648 102.663 18.976 102.663 18.346C102.663 17.716 102.761 17.058 103.125 16.582C103.377 16.26 103.755 16.008 104.301 16.008C105.673 16.008 105.953 17.296 105.953 18.346ZM120.423 22L118.603 17.94C119.695 17.534 120.423 16.484 120.423 15.154C120.423 13.558 119.345 12.074 116.979 12.074H112.793V22H114.613V18.248H116.811L118.463 22H120.423ZM118.617 15.154C118.617 16.092 118.029 16.624 117.007 16.624H114.599V13.656H116.979C118.001 13.656 118.617 14.356 118.617 15.154ZM123.799 13.712V11.906H121.923V13.712H123.799ZM123.757 22V14.72H121.979V22H123.757ZM131.837 19.424H130.115C130.101 19.69 130.017 19.914 129.905 20.096C129.695 20.418 129.317 20.642 128.785 20.642C128.309 20.642 127.959 20.432 127.721 20.18C127.301 19.718 127.231 19.032 127.231 18.346C127.231 17.66 127.301 16.96 127.721 16.498C127.959 16.246 128.309 16.05 128.785 16.05C129.317 16.05 129.695 16.274 129.905 16.596C130.017 16.778 130.101 17.002 130.115 17.268H131.837C131.809 16.694 131.613 16.12 131.277 15.686C130.773 15.056 129.891 14.538 128.785 14.538C127.679 14.538 126.755 15.07 126.251 15.686C125.705 16.372 125.453 17.282 125.453 18.346C125.453 19.41 125.705 20.32 126.251 21.006C126.755 21.622 127.679 22.154 128.785 22.154C129.891 22.154 130.773 21.636 131.277 21.006C131.613 20.572 131.809 19.998 131.837 19.424ZM139.555 18.416C139.583 17.506 139.457 16.68 138.925 15.882C138.323 14.972 137.343 14.538 136.265 14.538C135.271 14.538 134.487 14.902 133.941 15.462C133.241 16.176 132.891 17.212 132.891 18.374C132.891 19.564 133.283 20.586 134.011 21.286C134.585 21.832 135.313 22.182 136.307 22.182C137.231 22.182 138.141 21.888 138.757 21.16C139.037 20.824 139.331 20.25 139.373 19.816H137.693C137.623 20.082 137.497 20.278 137.343 20.432C137.091 20.684 136.783 20.782 136.279 20.782C135.803 20.782 135.453 20.572 135.201 20.334C134.851 19.998 134.655 19.466 134.669 18.906H139.541C139.541 18.752 139.555 18.416 139.555 18.416ZM137.805 17.632H134.655C134.669 17.156 134.781 16.82 135.033 16.498C135.285 16.162 135.719 15.938 136.251 15.938C136.755 15.938 137.119 16.106 137.357 16.358C137.637 16.666 137.791 17.086 137.805 17.632ZM151.407 19.046C151.407 17.352 150.161 16.386 148.677 16.176C148.033 16.092 147.151 16.022 146.521 15.924C145.933 15.826 145.513 15.49 145.513 14.846C145.513 14.482 145.639 14.23 145.849 14.006C146.255 13.586 146.899 13.46 147.459 13.46C147.991 13.46 148.649 13.656 148.971 13.992C149.209 14.244 149.391 14.622 149.405 14.972H151.253C151.239 14.146 150.833 13.418 150.245 12.858C149.573 12.228 148.537 11.892 147.473 11.892C146.311 11.892 145.219 12.298 144.561 12.942C144.043 13.46 143.693 14.118 143.693 14.902C143.693 16.554 144.841 17.45 146.213 17.674C146.871 17.786 147.739 17.814 148.411 17.94C149.027 18.052 149.587 18.388 149.587 19.116C149.587 19.592 149.419 19.83 149.195 20.068C148.817 20.46 148.159 20.6 147.473 20.6C146.899 20.6 146.227 20.488 145.807 20.068C145.513 19.774 145.289 19.34 145.289 18.85H143.441C143.441 19.788 143.889 20.628 144.477 21.16C145.289 21.902 146.395 22.182 147.445 22.182C148.663 22.182 149.825 21.874 150.581 21.118C151.071 20.628 151.407 19.97 151.407 19.046ZM159.035 22V14.72H157.285V18.57C157.285 19.158 157.173 19.816 156.753 20.208C156.543 20.418 156.263 20.572 155.857 20.572C154.933 20.572 154.597 20.04 154.597 19.186V14.72H152.847V19.578C152.847 21.132 153.813 22.182 155.367 22.182C156.291 22.182 157.103 21.762 157.453 21.048L157.579 22H159.035ZM163.065 13.712V11.906H161.189V13.712H163.065ZM163.023 22V14.72H161.245V22H163.023ZM169.339 21.902V20.432C168.863 20.488 168.569 20.502 168.205 20.502C167.645 20.502 167.393 20.264 167.393 19.704V16.162H169.227V14.72H167.393V12.438L165.643 12.872V14.72H164.313V16.162H165.643V19.858C165.643 21.258 166.371 22.098 167.841 22.098C168.359 22.098 168.849 22.028 169.339 21.902ZM177.17 21.916V20.628C177.17 20.628 177.058 20.656 176.946 20.656C176.652 20.656 176.54 20.53 176.54 20.194V17.492C176.54 17.002 176.512 16.484 176.33 16.022C175.91 14.93 174.846 14.538 173.6 14.538C171.976 14.538 170.674 15.266 170.576 16.904H172.27C172.312 16.232 172.788 15.868 173.6 15.868C174.594 15.868 174.832 16.33 174.832 17.016V17.464L172.69 17.618C171.304 17.716 170.226 18.514 170.226 19.9C170.226 21.09 171.122 22.182 172.858 22.182C173.894 22.182 174.734 21.678 175.07 21.09C175.126 21.636 175.546 22.112 176.302 22.112C176.722 22.112 176.876 22.042 177.17 21.916ZM174.832 19.102C174.832 20.18 174.062 20.768 172.97 20.768C172.424 20.768 171.934 20.418 171.934 19.858C171.934 19.27 172.452 18.948 172.984 18.906L174.832 18.766V19.102ZM185.424 18.374C185.424 16.946 184.99 15.84 184.122 15.126C183.674 14.762 183.086 14.538 182.344 14.538C181.476 14.538 180.776 14.846 180.44 15.252V11.892H178.69V22H180.202L180.314 21.202C180.748 21.874 181.56 22.168 182.358 22.168C183.086 22.168 183.674 21.916 184.122 21.552C184.99 20.838 185.424 19.746 185.424 18.374ZM183.646 18.346C183.646 18.976 183.548 19.648 183.184 20.124C182.932 20.446 182.554 20.698 182.008 20.698C181.56 20.698 181.224 20.558 180.986 20.334C180.482 19.872 180.356 19.06 180.356 18.346C180.356 17.296 180.636 16.008 182.008 16.008C182.554 16.008 182.932 16.26 183.184 16.582C183.548 17.058 183.646 17.716 183.646 18.346ZM188.946 13.712V11.906H187.07V13.712H188.946ZM188.904 22V14.72H187.126V22H188.904ZM193.82 21.986V20.516C193.722 20.516 193.68 20.53 193.526 20.53C192.924 20.53 192.826 20.25 192.826 19.83V11.878H191.062V20.124C191.062 21.51 191.86 22.084 193.05 22.084C193.4 22.084 193.47 22.056 193.82 21.986ZM197.176 13.712V11.906H195.3V13.712H197.176ZM197.134 22V14.72H195.356V22H197.134ZM203.45 21.902V20.432C202.974 20.488 202.68 20.502 202.316 20.502C201.756 20.502 201.504 20.264 201.504 19.704V16.162H203.338V14.72H201.504V12.438L199.754 12.872V14.72H198.424V16.162H199.754V19.858C199.754 21.258 200.482 22.098 201.952 22.098C202.47 22.098 202.96 22.028 203.45 21.902ZM211.268 14.72H209.49L207.67 19.984L205.766 14.72H203.848L206.718 21.986L206.298 23.008C206.116 23.442 205.78 23.554 205.458 23.554C205.066 23.554 204.94 23.512 204.478 23.428V24.884C204.856 24.982 205.248 25.066 205.822 25.066C207.096 25.066 207.698 24.198 208.062 23.246L211.268 14.72ZM222.583 19.046C222.583 17.352 221.337 16.386 219.853 16.176C219.209 16.092 218.327 16.022 217.697 15.924C217.109 15.826 216.689 15.49 216.689 14.846C216.689 14.482 216.815 14.23 217.025 14.006C217.431 13.586 218.075 13.46 218.635 13.46C219.167 13.46 219.825 13.656 220.147 13.992C220.385 14.244 220.567 14.622 220.581 14.972H222.429C222.415 14.146 222.009 13.418 221.421 12.858C220.749 12.228 219.713 11.892 218.649 11.892C217.487 11.892 216.395 12.298 215.737 12.942C215.219 13.46 214.869 14.118 214.869 14.902C214.869 16.554 216.017 17.45 217.389 17.674C218.047 17.786 218.915 17.814 219.587 17.94C220.203 18.052 220.763 18.388 220.763 19.116C220.763 19.592 220.595 19.83 220.371 20.068C219.993 20.46 219.335 20.6 218.649 20.6C218.075 20.6 217.403 20.488 216.983 20.068C216.689 19.774 216.465 19.34 216.465 18.85H214.617C214.617 19.788 215.065 20.628 215.653 21.16C216.465 21.902 217.571 22.182 218.621 22.182C219.839 22.182 221.001 21.874 221.757 21.118C222.247 20.628 222.583 19.97 222.583 19.046ZM230.337 22V17.142C230.337 15.644 229.427 14.538 227.873 14.538C227.117 14.538 226.305 14.874 225.885 15.49V11.892H224.135V22H225.885V18.164C225.885 17.268 226.333 16.148 227.383 16.148C228.307 16.148 228.587 16.666 228.587 17.506V22H230.337ZM234.254 13.712V11.906H232.378V13.712H234.254ZM234.212 22V14.72H232.434V22H234.212ZM240.626 13.278V11.878C240.08 11.766 239.758 11.724 239.254 11.724C237.686 11.724 236.776 12.676 236.776 14.02V14.72H235.544V16.162H236.776V22H238.526V16.162H240.472V14.72H238.526V14.048C238.526 13.53 238.848 13.166 239.478 13.166C239.94 13.166 240.262 13.208 240.626 13.278ZM245.833 21.902V20.432C245.357 20.488 245.063 20.502 244.699 20.502C244.139 20.502 243.887 20.264 243.887 19.704V16.162H245.721V14.72H243.887V12.438L242.137 12.872V14.72H240.807V16.162H242.137V19.858C242.137 21.258 242.865 22.098 244.335 22.098C244.853 22.098 245.343 22.028 245.833 21.902Z" fill="black" fill-opacity="0.7"/>
<rect y="37" width="50" height="19" fill="#CB89D2" fill-opacity="0.8"/>
<rect x="0.5" y="37.5" width="49" height="18" stroke="#A90F0F" stroke-opacity="0.2"/>
<path d="M65.164 44.06C65.164 43.316 64.924 42.704 64.516 42.26C64.06 41.768 63.352 41.492 62.356 41.492H59.2V50H60.268V46.7H62.368C63.304 46.7 64 46.448 64.456 45.992C64.912 45.536 65.164 44.888 65.164 44.06ZM64.06 44.06C64.06 45.2 63.484 45.728 62.344 45.728H60.268V42.464H62.332C63.388 42.464 64.06 42.98 64.06 44.06ZM71.3957 46.964C71.3957 46.004 71.1917 45.128 70.5317 44.48C70.0877 44.048 69.4637 43.772 68.6957 43.772C67.9277 43.772 67.3037 44.048 66.8597 44.48C66.1997 45.128 65.9957 46.004 65.9957 46.964C65.9957 47.924 66.1997 48.8 66.8597 49.448C67.3037 49.88 67.9277 50.156 68.6957 50.156C69.4637 50.156 70.0877 49.88 70.5317 49.448C71.1917 48.8 71.3957 47.924 71.3957 46.964ZM70.3517 46.964C70.3517 47.672 70.2197 48.404 69.7877 48.848C69.5357 49.1 69.1757 49.28 68.6957 49.28C68.2157 49.28 67.8557 49.1 67.6037 48.848C67.1717 48.404 67.0397 47.672 67.0397 46.964C67.0397 46.256 67.1717 45.524 67.6037 45.08C67.8557 44.828 68.2157 44.648 68.6957 44.648C69.1757 44.648 69.5357 44.828 69.7877 45.08C70.2197 45.524 70.3517 46.256 70.3517 46.964ZM77.6551 48.236C77.6551 47.324 76.9711 46.7 76.1071 46.556C75.4591 46.448 74.9791 46.4 74.6431 46.352C74.1391 46.28 73.8271 46.064 73.8271 45.56C73.8271 45.224 74.0551 44.9 74.4391 44.744C74.7271 44.624 74.9071 44.624 75.1471 44.624C75.5551 44.624 75.8911 44.72 76.1431 44.948C76.3231 45.104 76.4791 45.392 76.4911 45.704H77.5111C77.5111 45.212 77.3431 44.864 77.0791 44.54C76.6711 44.024 75.9511 43.772 75.1471 43.772C74.3911 43.772 73.7551 44.036 73.3591 44.444C73.0831 44.72 72.8551 45.164 72.8551 45.632C72.8551 46.556 73.4311 47.12 74.3431 47.264L75.7111 47.444C76.3351 47.528 76.6591 47.852 76.6591 48.308C76.6591 48.584 76.5271 48.836 76.3591 48.968C76.0471 49.232 75.6631 49.304 75.2431 49.304C74.8591 49.304 74.4271 49.232 74.1511 49.028C73.8631 48.812 73.6711 48.5 73.6591 48.08H72.6391C72.6391 48.596 72.8551 49.112 73.2271 49.472C73.7431 49.976 74.4391 50.156 75.1951 50.156C75.9871 50.156 76.7071 49.952 77.1751 49.472C77.4631 49.172 77.6551 48.764 77.6551 48.236ZM80.5289 42.536V41.336H79.3409V42.536H80.5289ZM80.4569 50V43.928H79.4129V50H80.4569ZM85.8381 49.916V49.04C85.8381 49.04 85.2261 49.148 84.7941 49.148C84.2301 49.148 83.9781 48.908 83.9781 48.32V44.804H85.7781V43.928H83.9781V42.14L82.9581 42.38V43.928H81.7821V44.804H82.9581V48.44C82.9581 49.256 83.3181 50.084 84.6261 50.084C85.1901 50.084 85.5621 49.988 85.8381 49.916ZM88.4273 42.536V41.336H87.2393V42.536H88.4273ZM88.3553 50V43.928H87.3113V50H88.3553ZM95.1646 43.928H94.1326L92.4406 48.8L90.6886 43.928H89.6206L91.8646 50H92.9686L95.1646 43.928ZM101.266 46.688C101.278 45.872 100.99 45.092 100.498 44.552C100.054 44.072 99.4299 43.772 98.6499 43.772C97.5939 43.772 96.7899 44.312 96.3579 45.044C96.0219 45.608 95.8899 46.256 95.8899 46.988C95.8899 47.852 96.1419 48.656 96.6459 49.244C97.1139 49.796 97.8099 50.156 98.6619 50.156C99.2379 50.156 99.7779 49.988 100.21 49.7C100.702 49.364 101.062 48.8 101.146 48.2H100.15C100.066 48.524 99.9579 48.692 99.7899 48.86C99.5379 49.124 99.1419 49.256 98.6619 49.256C98.1939 49.256 97.8219 49.1 97.5459 48.824C97.1739 48.452 96.9579 47.852 96.9579 47.3H101.254L101.266 46.688ZM100.222 46.424H96.9819C97.0059 45.536 97.5459 44.636 98.6499 44.636C99.1899 44.636 99.5979 44.852 99.8499 45.188C100.09 45.512 100.222 45.968 100.222 46.424ZM110.245 48.236C110.245 47.324 109.561 46.7 108.697 46.556C108.049 46.448 107.569 46.4 107.233 46.352C106.729 46.28 106.417 46.064 106.417 45.56C106.417 45.224 106.645 44.9 107.029 44.744C107.317 44.624 107.497 44.624 107.737 44.624C108.145 44.624 108.481 44.72 108.733 44.948C108.913 45.104 109.069 45.392 109.081 45.704H110.101C110.101 45.212 109.933 44.864 109.669 44.54C109.261 44.024 108.541 43.772 107.737 43.772C106.981 43.772 106.345 44.036 105.949 44.444C105.673 44.72 105.445 45.164 105.445 45.632C105.445 46.556 106.021 47.12 106.933 47.264L108.301 47.444C108.925 47.528 109.249 47.852 109.249 48.308C109.249 48.584 109.117 48.836 108.949 48.968C108.637 49.232 108.253 49.304 107.833 49.304C107.449 49.304 107.017 49.232 106.741 49.028C106.453 48.812 106.261 48.5 106.249 48.08H105.229C105.229 48.596 105.445 49.112 105.817 49.472C106.333 49.976 107.029 50.156 107.785 50.156C108.577 50.156 109.297 49.952 109.765 49.472C110.053 49.172 110.245 48.764 110.245 48.236ZM116.911 50V46.004C116.911 44.6 116.179 43.772 114.799 43.772C114.115 43.772 113.383 44.108 113.023 44.732V41.336H112.003V50H113.023V47.18C113.023 46.712 113.035 46.076 113.239 45.632C113.503 45.08 113.971 44.696 114.559 44.696C115.519 44.696 115.891 45.236 115.891 46.148V50H116.911ZM120.162 42.536V41.336H118.974V42.536H120.162ZM120.09 50V43.928H119.046V50H120.09ZM125.543 42.176V41.324C125.207 41.264 124.835 41.216 124.415 41.216C123.359 41.216 122.651 41.936 122.651 42.848V43.928H121.547V44.792H122.651V50H123.671V44.792H125.423V43.928H123.671V42.908C123.671 42.416 123.995 42.08 124.535 42.08C124.967 42.08 125.219 42.14 125.543 42.176ZM129.865 49.916V49.04C129.865 49.04 129.253 49.148 128.821 49.148C128.257 49.148 128.005 48.908 128.005 48.32V44.804H129.805V43.928H128.005V42.14L126.985 42.38V43.928H125.809V44.804H126.985V48.44C126.985 49.256 127.345 50.084 128.653 50.084C129.217 50.084 129.589 49.988 129.865 49.916Z" fill="black" fill-opacity="0.7"/>
<rect y="66" width="50" height="19" fill="#EB8484" fill-opacity="0.8"/>
<rect x="0.5" y="66.5" width="49" height="18" stroke="#A90F0F" stroke-opacity="0.2"/>
<path d="M65.608 79V70.492H64.576V77.356L60.4 70.492H59.2V79H60.232V72.16L64.408 79H65.608ZM72.8245 75.688C72.8365 74.872 72.5485 74.092 72.0565 73.552C71.6125 73.072 70.9885 72.772 70.2085 72.772C69.1525 72.772 68.3485 73.312 67.9165 74.044C67.5805 74.608 67.4485 75.256 67.4485 75.988C67.4485 76.852 67.7005 77.656 68.2045 78.244C68.6725 78.796 69.3685 79.156 70.2205 79.156C70.7965 79.156 71.3365 78.988 71.7685 78.7C72.2605 78.364 72.6205 77.8 72.7045 77.2H71.7085C71.6245 77.524 71.5165 77.692 71.3485 77.86C71.0965 78.124 70.7005 78.256 70.2205 78.256C69.7525 78.256 69.3805 78.1 69.1045 77.824C68.7325 77.452 68.5165 76.852 68.5165 76.3H72.8125L72.8245 75.688ZM71.7805 75.424H68.5405C68.5645 74.536 69.1045 73.636 70.2085 73.636C70.7485 73.636 71.1565 73.852 71.4085 74.188C71.6485 74.512 71.7805 74.968 71.7805 75.424ZM79.7219 79.9C79.7219 79.396 79.5299 79 79.2419 78.712C78.7619 78.22 77.9579 78.076 77.2379 78.076H76.0379C75.6539 78.076 75.1259 78.004 75.1259 77.476C75.1259 77.188 75.4139 77.008 75.6419 76.936C76.0259 77.068 76.2539 77.104 76.6619 77.104C77.4659 77.104 78.0779 76.816 78.4739 76.384C78.8099 76.012 79.0259 75.508 79.0259 74.932C79.0259 74.392 78.8819 73.996 78.6299 73.672C78.6899 73.336 78.9779 73.12 79.3739 73.12C79.4579 73.12 79.5419 73.12 79.6019 73.132V72.304C79.5059 72.292 79.3979 72.28 79.3019 72.28C78.7259 72.28 78.2579 72.592 78.0539 73.132C77.6819 72.904 77.2379 72.772 76.6619 72.772C75.8579 72.772 75.2819 73.024 74.8619 73.456C74.5139 73.816 74.2859 74.272 74.2859 74.932C74.2859 75.508 74.5379 76.108 74.9819 76.504C74.5259 76.72 74.1779 77.14 74.1779 77.68C74.1779 78.148 74.4779 78.544 74.8859 78.7C74.4059 78.94 74.0219 79.408 74.0219 80.044C74.0219 80.524 74.2019 80.872 74.4539 81.124C75.0419 81.712 75.9539 81.832 76.7579 81.832C77.6099 81.832 78.6179 81.7 79.2059 81.124C79.4939 80.836 79.7219 80.428 79.7219 79.9ZM78.0299 74.932C78.0299 75.7 77.4779 76.288 76.6499 76.288C75.7859 76.288 75.2699 75.7 75.2699 74.932C75.2699 74.164 75.8219 73.6 76.6499 73.6C77.5139 73.6 78.0299 74.164 78.0299 74.932ZM78.7259 79.9C78.7259 80.164 78.6299 80.368 78.4739 80.524C78.0899 80.908 77.3339 80.956 76.8179 80.956C76.2899 80.956 75.5939 80.932 75.1979 80.536C75.0419 80.38 74.9459 80.176 74.9459 79.9C74.9459 79.432 75.3059 79.072 75.7139 78.94H77.1179C77.8499 78.94 78.7259 79 78.7259 79.9ZM86.1063 78.94V78.184C86.1063 78.184 85.9503 78.22 85.8423 78.22C85.6383 78.22 85.5063 78.136 85.5063 77.812V74.872C85.5063 74.524 85.4463 74.212 85.3263 73.936C85.0383 73.276 84.3663 72.772 83.1903 72.772C82.4463 72.772 81.7263 72.988 81.3183 73.42C81.0063 73.744 80.8023 74.14 80.7903 74.692H81.7863C81.7863 74.392 81.8943 74.152 82.0863 73.96C82.2903 73.756 82.6383 73.6 83.1903 73.6C83.6823 73.6 83.9823 73.72 84.1863 73.912C84.4623 74.164 84.4983 74.536 84.4983 74.836V75.28L82.6503 75.388C80.9943 75.484 80.4903 76.504 80.4903 77.284C80.4903 78.22 81.1863 79.156 82.5783 79.156C83.4303 79.156 84.1863 78.772 84.5343 78.16H84.5583C84.5583 78.676 84.8943 79.084 85.4343 79.084C85.6863 79.084 85.8903 79.048 86.1063 78.94ZM84.4983 76.432C84.4983 76.936 84.3423 77.44 83.9823 77.812C83.6583 78.148 83.2023 78.304 82.7343 78.304C81.8703 78.304 81.5343 77.8 81.5343 77.26C81.5343 76.492 82.2543 76.204 82.8663 76.168L84.4983 76.072V76.432ZM90.8069 78.916V78.04C90.8069 78.04 90.1949 78.148 89.7629 78.148C89.1989 78.148 88.9469 77.908 88.9469 77.32V73.804H90.7469V72.928H88.9469V71.14L87.9269 71.38V72.928H86.7509V73.804H87.9269V77.44C87.9269 78.256 88.2869 79.084 89.5949 79.084C90.1589 79.084 90.5309 78.988 90.8069 78.916ZM93.3961 71.536V70.336H92.2081V71.536H93.3961ZM93.3241 79V72.928H92.2801V79H93.3241ZM100.133 72.928H99.1013L97.4093 77.8L95.6573 72.928H94.5893L96.8333 79H97.9373L100.133 72.928ZM106.235 75.688C106.247 74.872 105.959 74.092 105.467 73.552C105.023 73.072 104.399 72.772 103.619 72.772C102.563 72.772 101.759 73.312 101.327 74.044C100.991 74.608 100.859 75.256 100.859 75.988C100.859 76.852 101.111 77.656 101.615 78.244C102.083 78.796 102.779 79.156 103.631 79.156C104.207 79.156 104.747 78.988 105.179 78.7C105.671 78.364 106.031 77.8 106.115 77.2H105.119C105.035 77.524 104.927 77.692 104.759 77.86C104.507 78.124 104.111 78.256 103.631 78.256C103.163 78.256 102.791 78.1 102.515 77.824C102.143 77.452 101.927 76.852 101.927 76.3H106.223L106.235 75.688ZM105.191 75.424H101.951C101.975 74.536 102.515 73.636 103.619 73.636C104.159 73.636 104.567 73.852 104.819 74.188C105.059 74.512 105.191 74.968 105.191 75.424ZM115.214 77.236C115.214 76.324 114.53 75.7 113.666 75.556C113.018 75.448 112.538 75.4 112.202 75.352C111.698 75.28 111.386 75.064 111.386 74.56C111.386 74.224 111.614 73.9 111.998 73.744C112.286 73.624 112.466 73.624 112.706 73.624C113.114 73.624 113.45 73.72 113.702 73.948C113.882 74.104 114.038 74.392 114.05 74.704H115.07C115.07 74.212 114.902 73.864 114.638 73.54C114.23 73.024 113.51 72.772 112.706 72.772C111.95 72.772 111.314 73.036 110.918 73.444C110.642 73.72 110.414 74.164 110.414 74.632C110.414 75.556 110.99 76.12 111.902 76.264L113.27 76.444C113.894 76.528 114.218 76.852 114.218 77.308C114.218 77.584 114.086 77.836 113.918 77.968C113.606 78.232 113.222 78.304 112.802 78.304C112.418 78.304 111.986 78.232 111.71 78.028C111.422 77.812 111.23 77.5 111.218 77.08H110.198C110.198 77.596 110.414 78.112 110.786 78.472C111.302 78.976 111.998 79.156 112.754 79.156C113.546 79.156 114.266 78.952 114.734 78.472C115.022 78.172 115.214 77.764 115.214 77.236ZM121.879 79V75.004C121.879 73.6 121.147 72.772 119.767 72.772C119.083 72.772 118.351 73.108 117.991 73.732V70.336H116.971V79H117.991V76.18C117.991 75.712 118.003 75.076 118.207 74.632C118.471 74.08 118.939 73.696 119.527 73.696C120.487 73.696 120.859 74.236 120.859 75.148V79H121.879ZM125.13 71.536V70.336H123.942V71.536H125.13ZM125.058 79V72.928H124.014V79H125.058ZM130.512 71.176V70.324C130.176 70.264 129.804 70.216 129.384 70.216C128.328 70.216 127.62 70.936 127.62 71.848V72.928H126.516V73.792H127.62V79H128.64V73.792H130.392V72.928H128.64V71.908C128.64 71.416 128.964 71.08 129.504 71.08C129.936 71.08 130.188 71.14 130.512 71.176ZM134.834 78.916V78.04C134.834 78.04 134.222 78.148 133.79 78.148C133.226 78.148 132.974 77.908 132.974 77.32V73.804H134.774V72.928H132.974V71.14L131.954 71.38V72.928H130.778V73.804H131.954V77.44C131.954 78.256 132.314 79.084 133.622 79.084C134.186 79.084 134.558 78.988 134.834 78.916Z" fill="black" fill-opacity="0.7"/>
</svg>
