<svg width="400" height="92" viewBox="0 0 400 92" fill="none" xmlns="http://www.w3.org/2000/svg">
<rect width="400" height="92" fill="white"/>
<rect x="0.75" y="36.75" width="48.5" height="17.5" stroke="#1F78C7" stroke-width="1.5"/>
<path d="M8.386 18.046C8.386 16.352 7.14 15.386 5.656 15.176C5.012 15.092 4.13 15.022 3.5 14.924C2.912 14.826 2.492 14.49 2.492 13.846C2.492 13.482 2.618 13.23 2.828 13.006C3.234 12.586 3.878 12.46 4.438 12.46C4.97 12.46 5.628 12.656 5.95 12.992C6.188 13.244 6.37 13.622 6.384 13.972H8.232C8.218 13.146 7.812 12.418 7.224 11.858C6.552 11.228 5.516 10.892 4.452 10.892C3.29 10.892 2.198 11.298 1.54 11.942C1.022 12.46 0.672 13.118 0.672 13.902C0.672 15.554 1.82 16.45 3.192 16.674C3.85 16.786 4.718 16.814 5.39 16.94C6.006 17.052 6.566 17.388 6.566 18.116C6.566 18.592 6.398 18.83 6.174 19.068C5.796 19.46 5.138 19.6 4.452 19.6C3.878 19.6 3.206 19.488 2.786 19.068C2.492 18.774 2.268 18.34 2.268 17.85H0.42C0.42 18.788 0.868 19.628 1.456 20.16C2.268 20.902 3.374 21.182 4.424 21.182C5.642 21.182 6.804 20.874 7.56 20.118C8.05 19.628 8.386 18.97 8.386 18.046ZM16.2797 20.916V19.628C16.2797 19.628 16.1677 19.656 16.0557 19.656C15.7617 19.656 15.6497 19.53 15.6497 19.194V16.492C15.6497 16.002 15.6217 15.484 15.4397 15.022C15.0197 13.93 13.9557 13.538 12.7097 13.538C11.0857 13.538 9.7837 14.266 9.6857 15.904H11.3797C11.4217 15.232 11.8977 14.868 12.7097 14.868C13.7037 14.868 13.9417 15.33 13.9417 16.016V16.464L11.7997 16.618C10.4137 16.716 9.3357 17.514 9.3357 18.9C9.3357 20.09 10.2317 21.182 11.9677 21.182C13.0037 21.182 13.8437 20.678 14.1797 20.09C14.2357 20.636 14.6557 21.112 15.4117 21.112C15.8317 21.112 15.9857 21.042 16.2797 20.916ZM13.9417 18.102C13.9417 19.18 13.1717 19.768 12.0797 19.768C11.5337 19.768 11.0437 19.418 11.0437 18.858C11.0437 18.27 11.5617 17.948 12.0937 17.906L13.9417 17.766V18.102ZM20.515 20.986V19.516C20.417 19.516 20.375 19.53 20.221 19.53C19.619 19.53 19.521 19.25 19.521 18.83V10.878H17.757V19.124C17.757 20.51 18.555 21.084 19.745 21.084C20.095 21.084 20.165 21.056 20.515 20.986ZM23.8716 12.712V10.906H21.9956V12.712H23.8716ZM23.8296 21V13.72H22.0516V21H23.8296ZM32.2315 21V16.142C32.2315 14.63 31.3215 13.538 29.7675 13.538C28.9275 13.538 28.0595 13.888 27.6255 14.658L27.4995 13.72H26.0295V21H27.7795V18.032C27.7795 17.416 27.7655 16.66 28.0175 16.086C28.2555 15.554 28.6615 15.162 29.2775 15.162C30.2015 15.162 30.4815 15.68 30.4815 16.534V21H32.2315ZM36.149 12.712V10.906H34.273V12.712H36.149ZM36.107 21V13.72H34.329V21H36.107ZM42.4228 20.902V19.432C41.9468 19.488 41.6528 19.502 41.2888 19.502C40.7288 19.502 40.4768 19.264 40.4768 18.704V15.162H42.3108V13.72H40.4768V11.438L38.7268 11.872V13.72H37.3968V15.162H38.7268V18.858C38.7268 20.258 39.4548 21.098 40.9248 21.098C41.4428 21.098 41.9328 21.028 42.4228 20.902ZM50.2403 13.72H48.4623L46.6423 18.984L44.7383 13.72H42.8203L45.6903 20.986L45.2703 22.008C45.0883 22.442 44.7523 22.554 44.4303 22.554C44.0383 22.554 43.9123 22.512 43.4503 22.428V23.884C43.8283 23.982 44.2203 24.066 44.7943 24.066C46.0683 24.066 46.6703 23.198 47.0343 22.246L50.2403 13.72ZM56.1659 21V11.074H54.3319V21H56.1659ZM64.6202 21V16.142C64.6202 14.63 63.7102 13.538 62.1562 13.538C61.3162 13.538 60.4482 13.888 60.0142 14.658L59.8882 13.72H58.4182V21H60.1682V18.032C60.1682 17.416 60.1542 16.66 60.4062 16.086C60.6442 15.554 61.0502 15.162 61.6662 15.162C62.5902 15.162 62.8702 15.68 62.8702 16.534V21H64.6202ZM70.8057 20.902V19.432C70.3297 19.488 70.0357 19.502 69.6717 19.502C69.1117 19.502 68.8597 19.264 68.8597 18.704V15.162H70.6937V13.72H68.8597V11.438L67.1097 11.872V13.72H65.7797V15.162H67.1097V18.858C67.1097 20.258 67.8377 21.098 69.3077 21.098C69.8257 21.098 70.3157 21.028 70.8057 20.902ZM76.5371 15.344V13.664C76.3551 13.636 76.1731 13.622 75.9911 13.622C75.1371 13.622 74.2691 13.972 73.9331 14.812L73.7791 13.72H72.2951V21H74.0591V17.332C74.0591 16.156 74.7031 15.274 75.9351 15.274C76.1311 15.274 76.3411 15.302 76.5371 15.344ZM83.7578 21V13.72H82.0078V17.57C82.0078 18.158 81.8958 18.816 81.4758 19.208C81.2658 19.418 80.9858 19.572 80.5798 19.572C79.6558 19.572 79.3198 19.04 79.3198 18.186V13.72H77.5698V18.578C77.5698 20.132 78.5358 21.182 80.0898 21.182C81.0138 21.182 81.8258 20.762 82.1758 20.048L82.3018 21H83.7578ZM91.5957 18.746C91.5957 17.598 90.7557 16.87 89.6077 16.688C88.8937 16.576 88.7117 16.562 88.0537 16.478C87.6617 16.422 87.2137 16.268 87.2137 15.75C87.2137 15.372 87.4657 15.106 87.7737 14.98C88.0397 14.868 88.2777 14.868 88.5297 14.868C88.8937 14.868 89.2717 14.994 89.4817 15.204C89.6497 15.386 89.7757 15.61 89.7757 15.89H91.4417C91.4417 15.358 91.1897 14.812 90.7977 14.392C90.2657 13.818 89.3837 13.538 88.5157 13.538C87.6057 13.538 86.8357 13.804 86.3037 14.266C85.8697 14.644 85.5617 15.162 85.5617 15.904C85.5617 16.828 86.2337 17.64 87.2277 17.85C87.8717 17.99 88.5997 18.032 89.2437 18.13C89.6917 18.2 89.9717 18.48 89.9717 18.9C89.9717 19.698 89.0757 19.824 88.4877 19.824C87.9837 19.824 87.6617 19.726 87.3817 19.502C87.1577 19.32 86.9897 18.97 86.9897 18.648H85.3517C85.3517 19.334 85.7017 19.936 86.1217 20.342C86.7237 20.916 87.5497 21.182 88.4737 21.182C89.4677 21.182 90.3777 20.93 90.9657 20.342C91.3437 19.964 91.5957 19.446 91.5957 18.746ZM95.0884 12.712V10.906H93.2124V12.712H95.0884ZM95.0464 21V13.72H93.2684V21H95.0464ZM103.546 17.36C103.546 16.128 103.238 15.358 102.692 14.672C102.188 14.056 101.25 13.538 100.144 13.538C99.0383 13.538 98.1003 14.056 97.5963 14.672C97.0503 15.358 96.7423 16.128 96.7423 17.36C96.7423 18.592 97.0503 19.362 97.5963 20.048C98.1003 20.664 99.0383 21.182 100.144 21.182C101.25 21.182 102.188 20.664 102.692 20.048C103.238 19.362 103.546 18.592 103.546 17.36ZM101.768 17.36C101.768 18.046 101.67 18.732 101.25 19.194C101.012 19.446 100.62 19.656 100.144 19.656C99.6683 19.656 99.2763 19.446 99.0383 19.194C98.6183 18.732 98.5203 18.046 98.5203 17.36C98.5203 16.674 98.6183 15.988 99.0383 15.526C99.2763 15.274 99.6683 15.064 100.144 15.064C100.62 15.064 101.012 15.274 101.25 15.526C101.67 15.988 101.768 16.674 101.768 17.36ZM111.433 21V16.142C111.433 14.63 110.523 13.538 108.969 13.538C108.129 13.538 107.261 13.888 106.827 14.658L106.701 13.72H105.231V21H106.981V18.032C106.981 17.416 106.967 16.66 107.219 16.086C107.457 15.554 107.863 15.162 108.479 15.162C109.403 15.162 109.683 15.68 109.683 16.534V21H111.433ZM115.518 20.832V18.816H113.39V21H114.44C114.44 21.756 114.286 22.19 113.474 22.568L113.964 23.38C115.196 22.862 115.518 22.05 115.518 20.832ZM128.624 18.424H126.902C126.888 18.69 126.804 18.914 126.692 19.096C126.482 19.418 126.104 19.642 125.572 19.642C125.096 19.642 124.746 19.432 124.508 19.18C124.088 18.718 124.018 18.032 124.018 17.346C124.018 16.66 124.088 15.96 124.508 15.498C124.746 15.246 125.096 15.05 125.572 15.05C126.104 15.05 126.482 15.274 126.692 15.596C126.804 15.778 126.888 16.002 126.902 16.268H128.624C128.596 15.694 128.4 15.12 128.064 14.686C127.56 14.056 126.678 13.538 125.572 13.538C124.466 13.538 123.542 14.07 123.038 14.686C122.492 15.372 122.24 16.282 122.24 17.346C122.24 18.41 122.492 19.32 123.038 20.006C123.542 20.622 124.466 21.154 125.572 21.154C126.678 21.154 127.56 20.636 128.064 20.006C128.4 19.572 128.596 18.998 128.624 18.424ZM136.482 17.36C136.482 16.128 136.174 15.358 135.628 14.672C135.124 14.056 134.186 13.538 133.08 13.538C131.974 13.538 131.036 14.056 130.532 14.672C129.986 15.358 129.678 16.128 129.678 17.36C129.678 18.592 129.986 19.362 130.532 20.048C131.036 20.664 131.974 21.182 133.08 21.182C134.186 21.182 135.124 20.664 135.628 20.048C136.174 19.362 136.482 18.592 136.482 17.36ZM134.704 17.36C134.704 18.046 134.606 18.732 134.186 19.194C133.948 19.446 133.556 19.656 133.08 19.656C132.604 19.656 132.212 19.446 131.974 19.194C131.554 18.732 131.456 18.046 131.456 17.36C131.456 16.674 131.554 15.988 131.974 15.526C132.212 15.274 132.604 15.064 133.08 15.064C133.556 15.064 133.948 15.274 134.186 15.526C134.606 15.988 134.704 16.674 134.704 17.36ZM144.368 21V16.142C144.368 14.63 143.458 13.538 141.904 13.538C141.064 13.538 140.196 13.888 139.762 14.658L139.636 13.72H138.166V21H139.916V18.032C139.916 17.416 139.902 16.66 140.154 16.086C140.392 15.554 140.798 15.162 141.414 15.162C142.338 15.162 142.618 15.68 142.618 16.534V21H144.368ZM152.318 18.424H150.596C150.582 18.69 150.498 18.914 150.386 19.096C150.176 19.418 149.798 19.642 149.266 19.642C148.79 19.642 148.44 19.432 148.202 19.18C147.782 18.718 147.712 18.032 147.712 17.346C147.712 16.66 147.782 15.96 148.202 15.498C148.44 15.246 148.79 15.05 149.266 15.05C149.798 15.05 150.176 15.274 150.386 15.596C150.498 15.778 150.582 16.002 150.596 16.268H152.318C152.29 15.694 152.094 15.12 151.758 14.686C151.254 14.056 150.372 13.538 149.266 13.538C148.16 13.538 147.236 14.07 146.732 14.686C146.186 15.372 145.934 16.282 145.934 17.346C145.934 18.41 146.186 19.32 146.732 20.006C147.236 20.622 148.16 21.154 149.266 21.154C150.372 21.154 151.254 20.636 151.758 20.006C152.094 19.572 152.29 18.998 152.318 18.424ZM160.035 17.416C160.063 16.506 159.937 15.68 159.405 14.882C158.803 13.972 157.823 13.538 156.745 13.538C155.751 13.538 154.967 13.902 154.421 14.462C153.721 15.176 153.371 16.212 153.371 17.374C153.371 18.564 153.763 19.586 154.491 20.286C155.065 20.832 155.793 21.182 156.787 21.182C157.711 21.182 158.621 20.888 159.237 20.16C159.517 19.824 159.811 19.25 159.853 18.816H158.173C158.103 19.082 157.977 19.278 157.823 19.432C157.571 19.684 157.263 19.782 156.759 19.782C156.283 19.782 155.933 19.572 155.681 19.334C155.331 18.998 155.135 18.466 155.149 17.906H160.021C160.021 17.752 160.035 17.416 160.035 17.416ZM158.285 16.632H155.135C155.149 16.156 155.261 15.82 155.513 15.498C155.765 15.162 156.199 14.938 156.731 14.938C157.235 14.938 157.599 15.106 157.837 15.358C158.117 15.666 158.271 16.086 158.285 16.632ZM167.87 21V16.142C167.87 14.63 166.96 13.538 165.406 13.538C164.566 13.538 163.698 13.888 163.264 14.658L163.138 13.72H161.668V21H163.418V18.032C163.418 17.416 163.404 16.66 163.656 16.086C163.894 15.554 164.3 15.162 164.916 15.162C165.84 15.162 166.12 15.68 166.12 16.534V21H167.87ZM174.056 20.902V19.432C173.58 19.488 173.286 19.502 172.922 19.502C172.362 19.502 172.11 19.264 172.11 18.704V15.162H173.944V13.72H172.11V11.438L170.36 11.872V13.72H169.03V15.162H170.36V18.858C170.36 20.258 171.088 21.098 172.558 21.098C173.076 21.098 173.566 21.028 174.056 20.902ZM179.787 15.344V13.664C179.605 13.636 179.423 13.622 179.241 13.622C178.387 13.622 177.519 13.972 177.183 14.812L177.029 13.72H175.545V21H177.309V17.332C177.309 16.156 177.953 15.274 179.185 15.274C179.381 15.274 179.591 15.302 179.787 15.344ZM187.274 20.916V19.628C187.274 19.628 187.162 19.656 187.05 19.656C186.756 19.656 186.644 19.53 186.644 19.194V16.492C186.644 16.002 186.616 15.484 186.434 15.022C186.014 13.93 184.95 13.538 183.704 13.538C182.08 13.538 180.778 14.266 180.68 15.904H182.374C182.416 15.232 182.892 14.868 183.704 14.868C184.698 14.868 184.936 15.33 184.936 16.016V16.464L182.794 16.618C181.408 16.716 180.33 17.514 180.33 18.9C180.33 20.09 181.226 21.182 182.962 21.182C183.998 21.182 184.838 20.678 185.174 20.09C185.23 20.636 185.65 21.112 186.406 21.112C186.826 21.112 186.98 21.042 187.274 20.916ZM184.936 18.102C184.936 19.18 184.166 19.768 183.074 19.768C182.528 19.768 182.038 19.418 182.038 18.858C182.038 18.27 182.556 17.948 183.088 17.906L184.936 17.766V18.102ZM192.841 20.902V19.432C192.365 19.488 192.071 19.502 191.707 19.502C191.147 19.502 190.895 19.264 190.895 18.704V15.162H192.729V13.72H190.895V11.438L189.145 11.872V13.72H187.815V15.162H189.145V18.858C189.145 20.258 189.873 21.098 191.343 21.098C191.861 21.098 192.351 21.028 192.841 20.902ZM196.178 12.712V10.906H194.302V12.712H196.178ZM196.136 21V13.72H194.358V21H196.136ZM204.636 17.36C204.636 16.128 204.328 15.358 203.782 14.672C203.278 14.056 202.34 13.538 201.234 13.538C200.128 13.538 199.19 14.056 198.686 14.672C198.14 15.358 197.832 16.128 197.832 17.36C197.832 18.592 198.14 19.362 198.686 20.048C199.19 20.664 200.128 21.182 201.234 21.182C202.34 21.182 203.278 20.664 203.782 20.048C204.328 19.362 204.636 18.592 204.636 17.36ZM202.858 17.36C202.858 18.046 202.76 18.732 202.34 19.194C202.102 19.446 201.71 19.656 201.234 19.656C200.758 19.656 200.366 19.446 200.128 19.194C199.708 18.732 199.61 18.046 199.61 17.36C199.61 16.674 199.708 15.988 200.128 15.526C200.366 15.274 200.758 15.064 201.234 15.064C201.71 15.064 202.102 15.274 202.34 15.526C202.76 15.988 202.858 16.674 202.858 17.36ZM212.523 21V16.142C212.523 14.63 211.613 13.538 210.059 13.538C209.219 13.538 208.351 13.888 207.917 14.658L207.791 13.72H206.321V21H208.071V18.032C208.071 17.416 208.057 16.66 208.309 16.086C208.547 15.554 208.953 15.162 209.569 15.162C210.493 15.162 210.773 15.68 210.773 16.534V21H212.523ZM220.878 22.61C219.45 20.692 218.792 19.124 218.792 16.562C218.792 14 219.45 12.432 220.878 10.514L219.884 9.772C218.204 11.704 217.336 13.888 217.336 16.562C217.336 19.236 218.204 21.42 219.884 23.352L220.878 22.61ZM221.65 12.95L225.206 16.492L221.65 20.048L222.616 21L227.124 16.478L222.63 11.97L221.65 12.95ZM235.241 19.04V17.458H234.009V15.176H232.259V17.458H229.767L233.393 11.27H231.489L227.919 17.388V19.04H232.259V21H234.009V19.04H235.241ZM244.219 21V15.568H240.103V17.066H242.469C242.469 17.822 242.357 18.438 241.825 18.998C241.489 19.348 240.985 19.572 240.341 19.572C239.767 19.572 239.123 19.362 238.731 18.942C238.045 18.228 237.947 16.954 237.947 16.044C237.947 15.134 238.031 13.902 238.717 13.188C239.109 12.768 239.767 12.516 240.341 12.516C241.027 12.516 241.573 12.712 241.923 13.118C242.133 13.37 242.329 13.636 242.357 14.028H244.205C244.149 13.16 243.785 12.53 243.295 12.026C242.623 11.34 241.573 10.892 240.355 10.892C239.291 10.892 238.157 11.298 237.401 12.054C236.323 13.132 236.113 14.42 236.113 16.044C236.113 17.668 236.365 18.998 237.401 20.076C238.185 20.902 239.207 21.196 240.355 21.182C241.601 21.168 242.553 20.482 242.847 19.908L243.057 21H244.219ZM250.682 10.892H249.394L245.096 21.182H246.384L250.682 10.892ZM258.111 21V19.292H253.505V11.074H251.699V21H258.111ZM261.916 16.562C261.916 13.888 261.048 11.704 259.368 9.772L258.374 10.514C259.802 12.432 260.46 14 260.46 16.562C260.46 19.124 259.802 20.692 258.374 22.61L259.368 23.352C261.048 21.42 261.916 19.236 261.916 16.562Z" fill="black" fill-opacity="0.7"/>
<path d="M65.416 46.624C65.416 45.724 64.876 44.86 64 44.572C64.792 44.284 65.224 43.504 65.224 42.688C65.224 42.076 65.008 41.644 64.672 41.272C64.204 40.756 63.388 40.492 62.596 40.492H59.2V49H62.632C63.472 49 64.288 48.736 64.768 48.22C65.14 47.824 65.416 47.308 65.416 46.624ZM64.132 42.772C64.132 43.72 63.52 44.116 62.632 44.116H60.244V41.44H62.596C63.412 41.44 64.132 41.884 64.132 42.772ZM64.324 46.552C64.324 47.56 63.568 48.016 62.632 48.016H60.244V45.052H62.656C63.556 45.052 64.324 45.604 64.324 46.552ZM72.2196 48.94V48.184C72.2196 48.184 72.0636 48.22 71.9556 48.22C71.7516 48.22 71.6196 48.136 71.6196 47.812V44.872C71.6196 44.524 71.5596 44.212 71.4396 43.936C71.1516 43.276 70.4796 42.772 69.3036 42.772C68.5596 42.772 67.8396 42.988 67.4316 43.42C67.1196 43.744 66.9156 44.14 66.9036 44.692H67.8996C67.8996 44.392 68.0076 44.152 68.1996 43.96C68.4036 43.756 68.7516 43.6 69.3036 43.6C69.7956 43.6 70.0956 43.72 70.2996 43.912C70.5756 44.164 70.6116 44.536 70.6116 44.836V45.28L68.7636 45.388C67.1076 45.484 66.6036 46.504 66.6036 47.284C66.6036 48.22 67.2996 49.156 68.6916 49.156C69.5436 49.156 70.2996 48.772 70.6476 48.16H70.6716C70.6716 48.676 71.0076 49.084 71.5476 49.084C71.7996 49.084 72.0036 49.048 72.2196 48.94ZM70.6116 46.432C70.6116 46.936 70.4556 47.44 70.0956 47.812C69.7716 48.148 69.3156 48.304 68.8476 48.304C67.9836 48.304 67.6476 47.8 67.6476 47.26C67.6476 46.492 68.3676 46.204 68.9796 46.168L70.6116 46.072V46.432ZM78.3348 47.236C78.3348 46.324 77.6508 45.7 76.7868 45.556C76.1388 45.448 75.6588 45.4 75.3228 45.352C74.8188 45.28 74.5068 45.064 74.5068 44.56C74.5068 44.224 74.7348 43.9 75.1188 43.744C75.4068 43.624 75.5868 43.624 75.8268 43.624C76.2348 43.624 76.5708 43.72 76.8228 43.948C77.0028 44.104 77.1588 44.392 77.1708 44.704H78.1908C78.1908 44.212 78.0228 43.864 77.7588 43.54C77.3508 43.024 76.6308 42.772 75.8268 42.772C75.0708 42.772 74.4348 43.036 74.0388 43.444C73.7628 43.72 73.5348 44.164 73.5348 44.632C73.5348 45.556 74.1108 46.12 75.0228 46.264L76.3908 46.444C77.0148 46.528 77.3388 46.852 77.3388 47.308C77.3388 47.584 77.2068 47.836 77.0388 47.968C76.7268 48.232 76.3428 48.304 75.9228 48.304C75.5388 48.304 75.1068 48.232 74.8308 48.028C74.5428 47.812 74.3508 47.5 74.3388 47.08H73.3188C73.3188 47.596 73.5348 48.112 73.9068 48.472C74.4228 48.976 75.1188 49.156 75.8748 49.156C76.6668 49.156 77.3868 48.952 77.8548 48.472C78.1428 48.172 78.3348 47.764 78.3348 47.236ZM84.9886 45.688C85.0006 44.872 84.7126 44.092 84.2206 43.552C83.7766 43.072 83.1526 42.772 82.3726 42.772C81.3166 42.772 80.5126 43.312 80.0806 44.044C79.7446 44.608 79.6126 45.256 79.6126 45.988C79.6126 46.852 79.8646 47.656 80.3686 48.244C80.8366 48.796 81.5326 49.156 82.3846 49.156C82.9606 49.156 83.5006 48.988 83.9326 48.7C84.4246 48.364 84.7846 47.8 84.8686 47.2H83.8726C83.7886 47.524 83.6806 47.692 83.5126 47.86C83.2606 48.124 82.8646 48.256 82.3846 48.256C81.9166 48.256 81.5446 48.1 81.2686 47.824C80.8966 47.452 80.6806 46.852 80.6806 46.3H84.9766L84.9886 45.688ZM83.9446 45.424H80.7046C80.7286 44.536 81.2686 43.636 82.3726 43.636C82.9126 43.636 83.3206 43.852 83.5726 44.188C83.8126 44.512 83.9446 44.968 83.9446 45.424ZM88.6579 49V48.136C88.6579 48.136 88.5739 48.148 88.2379 48.148C87.8179 48.148 87.6859 47.932 87.6859 47.524V40.336H86.6659V47.584C86.6659 48.544 87.0499 49.072 87.9379 49.072C88.4299 49.072 88.6579 49 88.6579 49ZM91.3101 41.536V40.336H90.1221V41.536H91.3101ZM91.2381 49V42.928H90.1941V49H91.2381ZM98.3834 49V45.004C98.3834 43.6 97.6634 42.772 96.2834 42.772C95.5994 42.772 94.7594 43.144 94.4474 43.84L94.3634 42.928H93.4754V49H94.4954V46.18C94.4954 45.712 94.5074 45.076 94.7114 44.632C94.9754 44.08 95.4434 43.696 96.0314 43.696C96.9914 43.696 97.3634 44.236 97.3634 45.148V49H98.3834ZM105.391 45.688C105.403 44.872 105.115 44.092 104.623 43.552C104.179 43.072 103.555 42.772 102.775 42.772C101.719 42.772 100.915 43.312 100.483 44.044C100.147 44.608 100.015 45.256 100.015 45.988C100.015 46.852 100.267 47.656 100.771 48.244C101.239 48.796 101.935 49.156 102.787 49.156C103.363 49.156 103.903 48.988 104.335 48.7C104.827 48.364 105.187 47.8 105.271 47.2H104.275C104.191 47.524 104.083 47.692 103.915 47.86C103.663 48.124 103.267 48.256 102.787 48.256C102.319 48.256 101.947 48.1 101.671 47.824C101.299 47.452 101.083 46.852 101.083 46.3H105.379L105.391 45.688ZM104.347 45.424H101.107C101.131 44.536 101.671 43.636 102.775 43.636C103.315 43.636 103.723 43.852 103.975 44.188C104.215 44.512 104.347 44.968 104.347 45.424Z" fill="black" fill-opacity="0.7"/>
<rect x="0.75" y="65.75" width="48.5" height="17.5" stroke="#F25218" stroke-width="1.5"/>
<path d="M65.128 75.288H64.024C64.012 75.756 63.832 76.2 63.556 76.512C63.22 76.884 62.656 77.16 62.008 77.16C61.432 77.16 60.868 76.932 60.46 76.512C59.764 75.792 59.74 74.64 59.74 73.752C59.74 72.864 59.764 71.712 60.46 70.992C60.868 70.572 61.432 70.344 62.008 70.344C62.656 70.344 63.208 70.596 63.544 70.968C63.82 71.28 64 71.688 64.012 72.156H65.116C65.08 71.364 64.768 70.716 64.276 70.212C63.76 69.696 62.932 69.336 62.008 69.336C61.156 69.336 60.316 69.648 59.704 70.248C58.78 71.148 58.636 72.396 58.636 73.752C58.636 75.108 58.78 76.356 59.704 77.256C60.316 77.856 61.156 78.168 62.008 78.168C62.932 78.168 63.772 77.772 64.288 77.256C64.78 76.752 65.092 76.08 65.128 75.288ZM68.6775 78V77.136C68.6775 77.136 68.5935 77.148 68.2575 77.148C67.8375 77.148 67.7055 76.932 67.7055 76.524V69.336H66.6855V76.584C66.6855 77.544 67.0695 78.072 67.9575 78.072C68.4495 78.072 68.6775 78 68.6775 78ZM71.3297 70.536V69.336H70.1417V70.536H71.3297ZM71.2577 78V71.928H70.2137V78H71.2577ZM81.8949 78V74.004C81.8949 72.66 81.2469 71.772 79.8669 71.772C79.0989 71.772 78.3189 72.168 77.9949 72.924C77.7309 72.18 77.0829 71.772 76.1829 71.772C75.4989 71.772 74.8029 72.108 74.4789 72.792L74.3829 71.928H73.4949V78H74.5149V74.772C74.5149 74.268 74.6229 73.62 74.9229 73.236C75.1749 72.912 75.5229 72.696 75.9549 72.696C76.9269 72.696 77.1789 73.284 77.1789 74.136V78H78.1989V74.772C78.1989 74.136 78.3069 73.524 78.7149 73.104C78.9549 72.852 79.2549 72.696 79.6389 72.696C80.5989 72.696 80.8749 73.284 80.8749 74.136V78H81.8949ZM89.1181 77.94V77.184C89.1181 77.184 88.9621 77.22 88.8541 77.22C88.6501 77.22 88.5181 77.136 88.5181 76.812V73.872C88.5181 73.524 88.4581 73.212 88.3381 72.936C88.0501 72.276 87.3781 71.772 86.2021 71.772C85.4581 71.772 84.7381 71.988 84.3301 72.42C84.0181 72.744 83.8141 73.14 83.8021 73.692H84.7981C84.7981 73.392 84.9061 73.152 85.0981 72.96C85.3021 72.756 85.6501 72.6 86.2021 72.6C86.6941 72.6 86.9941 72.72 87.1981 72.912C87.4741 73.164 87.5101 73.536 87.5101 73.836V74.28L85.6621 74.388C84.0061 74.484 83.5021 75.504 83.5021 76.284C83.5021 77.22 84.1981 78.156 85.5901 78.156C86.4421 78.156 87.1981 77.772 87.5461 77.16H87.5701C87.5701 77.676 87.9061 78.084 88.4461 78.084C88.6981 78.084 88.9021 78.048 89.1181 77.94ZM87.5101 75.432C87.5101 75.936 87.3541 76.44 86.9941 76.812C86.6701 77.148 86.2141 77.304 85.7461 77.304C84.8821 77.304 84.5461 76.8 84.5461 76.26C84.5461 75.492 85.2661 75.204 85.8781 75.168L87.5101 75.072V75.432ZM93.8186 77.916V77.04C93.8186 77.04 93.2066 77.148 92.7746 77.148C92.2106 77.148 91.9586 76.908 91.9586 76.32V72.804H93.7586V71.928H91.9586V70.14L90.9386 70.38V71.928H89.7626V72.804H90.9386V76.44C90.9386 77.256 91.2986 78.084 92.6066 78.084C93.1706 78.084 93.5426 77.988 93.8186 77.916ZM100.071 74.688C100.083 73.872 99.7946 73.092 99.3026 72.552C98.8586 72.072 98.2346 71.772 97.4546 71.772C96.3986 71.772 95.5946 72.312 95.1626 73.044C94.8266 73.608 94.6946 74.256 94.6946 74.988C94.6946 75.852 94.9466 76.656 95.4506 77.244C95.9186 77.796 96.6146 78.156 97.4666 78.156C98.0426 78.156 98.5826 77.988 99.0146 77.7C99.5066 77.364 99.8666 76.8 99.9506 76.2H98.9546C98.8706 76.524 98.7626 76.692 98.5946 76.86C98.3426 77.124 97.9466 77.256 97.4666 77.256C96.9986 77.256 96.6266 77.1 96.3506 76.824C95.9786 76.452 95.7626 75.852 95.7626 75.3H100.059L100.071 74.688ZM99.0266 74.424H95.7866C95.8106 73.536 96.3506 72.636 97.4546 72.636C97.9946 72.636 98.4026 72.852 98.6546 73.188C98.8946 73.512 99.0266 73.968 99.0266 74.424ZM110.562 75.288H109.458C109.446 75.756 109.266 76.2 108.99 76.512C108.654 76.884 108.09 77.16 107.442 77.16C106.866 77.16 106.302 76.932 105.894 76.512C105.198 75.792 105.174 74.64 105.174 73.752C105.174 72.864 105.198 71.712 105.894 70.992C106.302 70.572 106.866 70.344 107.442 70.344C108.09 70.344 108.642 70.596 108.978 70.968C109.254 71.28 109.434 71.688 109.446 72.156H110.55C110.514 71.364 110.202 70.716 109.71 70.212C109.194 69.696 108.366 69.336 107.442 69.336C106.59 69.336 105.75 69.648 105.138 70.248C104.214 71.148 104.07 72.396 104.07 73.752C104.07 75.108 104.214 76.356 105.138 77.256C105.75 77.856 106.59 78.168 107.442 78.168C108.366 78.168 109.206 77.772 109.722 77.256C110.214 76.752 110.526 76.08 110.562 75.288ZM117.063 78V74.004C117.063 72.6 116.331 71.772 114.951 71.772C114.267 71.772 113.535 72.108 113.175 72.732V69.336H112.155V78H113.175V75.18C113.175 74.712 113.187 74.076 113.391 73.632C113.655 73.08 114.123 72.696 114.711 72.696C115.671 72.696 116.043 73.236 116.043 74.148V78H117.063ZM124.286 77.94V77.184C124.286 77.184 124.13 77.22 124.022 77.22C123.818 77.22 123.686 77.136 123.686 76.812V73.872C123.686 73.524 123.626 73.212 123.506 72.936C123.218 72.276 122.546 71.772 121.37 71.772C120.626 71.772 119.906 71.988 119.498 72.42C119.186 72.744 118.982 73.14 118.97 73.692H119.966C119.966 73.392 120.074 73.152 120.266 72.96C120.47 72.756 120.818 72.6 121.37 72.6C121.862 72.6 122.162 72.72 122.366 72.912C122.642 73.164 122.678 73.536 122.678 73.836V74.28L120.83 74.388C119.174 74.484 118.67 75.504 118.67 76.284C118.67 77.22 119.366 78.156 120.758 78.156C121.61 78.156 122.366 77.772 122.714 77.16H122.738C122.738 77.676 123.074 78.084 123.614 78.084C123.866 78.084 124.07 78.048 124.286 77.94ZM122.678 75.432C122.678 75.936 122.522 76.44 122.162 76.812C121.838 77.148 121.382 77.304 120.914 77.304C120.05 77.304 119.714 76.8 119.714 76.26C119.714 75.492 120.434 75.204 121.046 75.168L122.678 75.072V75.432ZM130.809 78V74.004C130.809 72.6 130.089 71.772 128.709 71.772C128.025 71.772 127.185 72.144 126.873 72.84L126.789 71.928H125.901V78H126.921V75.18C126.921 74.712 126.933 74.076 127.137 73.632C127.401 73.08 127.869 72.696 128.457 72.696C129.417 72.696 129.789 73.236 129.789 74.148V78H130.809ZM138.105 78.9C138.105 78.396 137.913 78 137.625 77.712C137.145 77.22 136.341 77.076 135.621 77.076H134.421C134.037 77.076 133.509 77.004 133.509 76.476C133.509 76.188 133.797 76.008 134.025 75.936C134.409 76.068 134.637 76.104 135.045 76.104C135.849 76.104 136.461 75.816 136.857 75.384C137.193 75.012 137.409 74.508 137.409 73.932C137.409 73.392 137.265 72.996 137.013 72.672C137.073 72.336 137.361 72.12 137.757 72.12C137.841 72.12 137.925 72.12 137.985 72.132V71.304C137.889 71.292 137.781 71.28 137.685 71.28C137.109 71.28 136.641 71.592 136.437 72.132C136.065 71.904 135.621 71.772 135.045 71.772C134.241 71.772 133.665 72.024 133.245 72.456C132.897 72.816 132.669 73.272 132.669 73.932C132.669 74.508 132.921 75.108 133.365 75.504C132.909 75.72 132.561 76.14 132.561 76.68C132.561 77.148 132.861 77.544 133.269 77.7C132.789 77.94 132.405 78.408 132.405 79.044C132.405 79.524 132.585 79.872 132.837 80.124C133.425 80.712 134.337 80.832 135.141 80.832C135.993 80.832 137.001 80.7 137.589 80.124C137.877 79.836 138.105 79.428 138.105 78.9ZM136.413 73.932C136.413 74.7 135.861 75.288 135.033 75.288C134.169 75.288 133.653 74.7 133.653 73.932C133.653 73.164 134.205 72.6 135.033 72.6C135.897 72.6 136.413 73.164 136.413 73.932ZM137.109 78.9C137.109 79.164 137.013 79.368 136.857 79.524C136.473 79.908 135.717 79.956 135.201 79.956C134.673 79.956 133.977 79.932 133.581 79.536C133.425 79.38 133.329 79.176 133.329 78.9C133.329 78.432 133.689 78.072 134.097 77.94H135.501C136.233 77.94 137.109 78 137.109 78.9ZM144.239 74.688C144.251 73.872 143.963 73.092 143.471 72.552C143.027 72.072 142.403 71.772 141.623 71.772C140.567 71.772 139.763 72.312 139.331 73.044C138.995 73.608 138.863 74.256 138.863 74.988C138.863 75.852 139.115 76.656 139.619 77.244C140.087 77.796 140.783 78.156 141.635 78.156C142.211 78.156 142.751 77.988 143.183 77.7C143.675 77.364 144.035 76.8 144.119 76.2H143.123C143.039 76.524 142.931 76.692 142.763 76.86C142.511 77.124 142.115 77.256 141.635 77.256C141.167 77.256 140.795 77.1 140.519 76.824C140.147 76.452 139.931 75.852 139.931 75.3H144.227L144.239 74.688ZM143.195 74.424H139.955C139.979 73.536 140.519 72.636 141.623 72.636C142.163 72.636 142.571 72.852 142.823 73.188C143.063 73.512 143.195 73.968 143.195 74.424ZM154.73 75.288H153.626C153.614 75.756 153.434 76.2 153.158 76.512C152.822 76.884 152.258 77.16 151.61 77.16C151.034 77.16 150.47 76.932 150.062 76.512C149.366 75.792 149.342 74.64 149.342 73.752C149.342 72.864 149.366 71.712 150.062 70.992C150.47 70.572 151.034 70.344 151.61 70.344C152.258 70.344 152.81 70.596 153.146 70.968C153.422 71.28 153.602 71.688 153.614 72.156H154.718C154.682 71.364 154.37 70.716 153.878 70.212C153.362 69.696 152.534 69.336 151.61 69.336C150.758 69.336 149.918 69.648 149.306 70.248C148.382 71.148 148.238 72.396 148.238 73.752C148.238 75.108 148.382 76.356 149.306 77.256C149.918 77.856 150.758 78.168 151.61 78.168C152.534 78.168 153.374 77.772 153.89 77.256C154.382 76.752 154.694 76.08 154.73 75.288ZM161.255 74.964C161.255 74.004 161.051 73.128 160.391 72.48C159.947 72.048 159.323 71.772 158.555 71.772C157.787 71.772 157.163 72.048 156.719 72.48C156.059 73.128 155.855 74.004 155.855 74.964C155.855 75.924 156.059 76.8 156.719 77.448C157.163 77.88 157.787 78.156 158.555 78.156C159.323 78.156 159.947 77.88 160.391 77.448C161.051 76.8 161.255 75.924 161.255 74.964ZM160.211 74.964C160.211 75.672 160.079 76.404 159.647 76.848C159.395 77.1 159.035 77.28 158.555 77.28C158.075 77.28 157.715 77.1 157.463 76.848C157.031 76.404 156.899 75.672 156.899 74.964C156.899 74.256 157.031 73.524 157.463 73.08C157.715 72.828 158.075 72.648 158.555 72.648C159.035 72.648 159.395 72.828 159.647 73.08C160.079 73.524 160.211 74.256 160.211 74.964ZM167.922 78V74.004C167.922 72.6 167.202 71.772 165.822 71.772C165.138 71.772 164.298 72.144 163.986 72.84L163.902 71.928H163.014V78H164.034V75.18C164.034 74.712 164.046 74.076 164.25 73.632C164.514 73.08 164.982 72.696 165.57 72.696C166.53 72.696 166.902 73.236 166.902 74.148V78H167.922ZM174.942 78V69.336H173.922V72.636C173.598 72.084 172.818 71.772 172.158 71.772C171.45 71.772 170.886 72.012 170.49 72.384C169.878 72.972 169.566 73.932 169.566 74.976C169.566 75.984 169.866 76.908 170.442 77.496C170.838 77.904 171.414 78.156 172.158 78.156C172.842 78.156 173.622 77.82 173.97 77.208L174.042 78H174.942ZM173.982 74.964C173.982 75.72 173.814 76.452 173.31 76.896C173.07 77.112 172.77 77.292 172.326 77.292C170.97 77.292 170.61 76.08 170.61 74.964C170.61 73.848 170.97 72.636 172.326 72.636C172.77 72.636 173.07 72.816 173.31 73.032C173.814 73.476 173.982 74.208 173.982 74.964ZM178.287 70.536V69.336H177.099V70.536H178.287ZM178.215 78V71.928H177.171V78H178.215ZM183.596 77.916V77.04C183.596 77.04 182.984 77.148 182.552 77.148C181.988 77.148 181.736 76.908 181.736 76.32V72.804H183.536V71.928H181.736V70.14L180.716 70.38V71.928H179.54V72.804H180.716V76.44C180.716 77.256 181.076 78.084 182.384 78.084C182.948 78.084 183.32 77.988 183.596 77.916ZM186.185 70.536V69.336H184.997V70.536H186.185ZM186.113 78V71.928H185.069V78H186.113ZM193.282 74.964C193.282 74.004 193.078 73.128 192.418 72.48C191.974 72.048 191.35 71.772 190.582 71.772C189.814 71.772 189.19 72.048 188.746 72.48C188.086 73.128 187.882 74.004 187.882 74.964C187.882 75.924 188.086 76.8 188.746 77.448C189.19 77.88 189.814 78.156 190.582 78.156C191.35 78.156 191.974 77.88 192.418 77.448C193.078 76.8 193.282 75.924 193.282 74.964ZM192.238 74.964C192.238 75.672 192.106 76.404 191.674 76.848C191.422 77.1 191.062 77.28 190.582 77.28C190.102 77.28 189.742 77.1 189.49 76.848C189.058 76.404 188.926 75.672 188.926 74.964C188.926 74.256 189.058 73.524 189.49 73.08C189.742 72.828 190.102 72.648 190.582 72.648C191.062 72.648 191.422 72.828 191.674 73.08C192.106 73.524 192.238 74.256 192.238 74.964ZM199.95 78V74.004C199.95 72.6 199.23 71.772 197.85 71.772C197.166 71.772 196.326 72.144 196.014 72.84L195.93 71.928H195.042V78H196.062V75.18C196.062 74.712 196.074 74.076 196.278 73.632C196.542 73.08 197.01 72.696 197.598 72.696C198.558 72.696 198.93 73.236 198.93 74.148V78H199.95Z" fill="black" fill-opacity="0.7"/>
</svg>
